<svg xmlns="http://www.w3.org/2000/svg" xmlns:xlink="http://www.w3.org/1999/xlink" viewBox="0 0 1755.82 248.2"><defs><style>.cls-1{fill:none;}.cls-2{clip-path:url(#clip-path);}.cls-3{fill:#fff;}</style><clipPath id="clip-path" transform="translate(0 0)"><rect class="cls-1" width="1755.82" height="248.2"/></clipPath></defs><title>Ресурс 1</title><g id="Слой_2" data-name="Слой 2"><g id="Слой_1-2" data-name="Слой 1"><g class="cls-2"><path class="cls-3" d="M1253.92,79.43l.45.93.74.06.72.07.61-.81.58-5.86-.26-1.58h0a3.15,3.15,0,0,0,.17-.75c.09-1-.26-1.84-.79-1.89s-1.05.71-1.15,1.69a3.68,3.68,0,0,0,0,.78l-.55,1.51Z" transform="translate(0 0)"/><path class="cls-3" d="M1251.68,66l.63.06.59.06.53-.83.56-5.87-.19-1.56a4.14,4.14,0,0,0,.16-.76c.09-1-.2-1.82-.63-1.86s-.88.71-1,1.71a3.52,3.52,0,0,0,0,.77l-.48,1.51-.55,5.86Z" transform="translate(0 0)"/><path class="cls-3" d="M1255.75,66.4l.74.06.71.07.62-.81.57-5.86-.26-1.58a2.81,2.81,0,0,0,.17-.75c.09-1-.26-1.82-.8-1.88s-1,.7-1.14,1.68a2.88,2.88,0,0,0,0,.78l-.56,1.51-.55,5.86Z" transform="translate(0 0)"/><polygon class="cls-3" points="1253.33 48.88 1251.97 48.75 1251.89 49.49 1253.26 49.63 1253.33 48.88"/><rect class="cls-3" x="1256.89" y="34.99" width="0.75" height="3.24" transform="translate(1100.22 1284.56) rotate(-84.49)"/><rect class="cls-3" x="1256.8" y="35.96" width="0.75" height="3.24" transform="translate(1096.71 1285.04) rotate(-84.38)"/><polygon class="cls-3" points="1255.41 38.88 1258.64 39.2 1258.72 38.34 1255.5 38.02 1255.41 38.88"/><path class="cls-3" d="M1246.43,85.35l-.41,1.51-.55,5.86.27.9.49.06.47,0,.43-.83.56-5.87-.11-1.56a4.82,4.82,0,0,0,.14-.77c.09-1-.11-1.8-.47-1.84s-.71.73-.8,1.72a4.4,4.4,0,0,0,0,.77" transform="translate(0 0)"/><rect class="cls-3" x="1252.14" y="49.48" width="0.75" height="1.37" transform="translate(1080.76 1291.86) rotate(-84.42)"/><polygon class="cls-3" points="1248.14 52.19 1251.22 52.49 1251.24 52.48 1251.31 51.64 1248.23 51.34 1248.14 52.19"/><polygon class="cls-3" points="1248.35 50.13 1251.43 50.44 1251.51 49.69 1248.42 49.38 1248.35 50.13"/><path class="cls-3" d="M1247.8,71.39l-.41,1.51-.55,5.86.27.9.49,0,.47.05.44-.84.56-5.87-.11-1.56h0a4.21,4.21,0,0,0,.14-.76c.09-1-.11-1.81-.46-1.85s-.72.74-.81,1.72a5.72,5.72,0,0,0,0,.78" transform="translate(0 0)"/><polygon class="cls-3" points="1255.71 35.85 1258.94 36.16 1259.01 35.41 1255.78 35.1 1255.71 35.85"/><polygon class="cls-3" points="1251.69 51.44 1252.88 51.55 1253.13 50.9 1253.14 50.83 1251.78 50.7 1251.69 51.44"/><polygon class="cls-3" points="1251.61 52.42 1252.7 52.07 1252.81 51.78 1251.67 51.67 1251.61 52.42"/><polygon class="cls-3" points="1248.44 49.16 1251.54 49.46 1251.6 48.71 1248.51 48.42 1248.44 49.16"/><polygon class="cls-3" points="1248.25 51.11 1251.34 51.41 1251.41 50.66 1248.32 50.37 1248.25 51.11"/><polygon class="cls-3" points="1270.43 38.27 1272.38 38.46 1276.23 38.85 1276.3 38.09 1272.45 37.72 1270.51 37.53 1270.43 38.27"/><polygon class="cls-3" points="1276.39 40.94 1281.1 41.4 1281.19 40.54 1276.48 40.09 1276.39 40.94"/><rect class="cls-3" x="1260.97" y="36.66" width="0.86" height="4.75" transform="translate(1099.03 1290.55) rotate(-84.38)"/><polygon class="cls-3" points="1270.34 39.26 1272.29 39.44 1276.13 39.81 1276.2 39.07 1272.36 38.7 1270.41 38.5 1270.34 39.26"/><polygon class="cls-3" points="1276.59 38.88 1281.31 39.35 1281.38 38.59 1276.66 38.13 1276.59 38.88"/><polygon class="cls-3" points="1276.69 37.91 1281.4 38.37 1281.48 37.62 1276.76 37.16 1276.69 37.91"/><polygon class="cls-3" points="1276.49 39.85 1281.21 40.31 1281.28 39.57 1276.57 39.1 1276.49 39.85"/><polygon class="cls-3" points="1270.23 40.34 1272.3 40.54 1276.03 40.91 1276.11 40.05 1272.27 39.67 1270.32 39.48 1270.23 40.34"/><polygon class="cls-3" points="1270.6 36.56 1270.53 37.3 1272.47 37.49 1276.32 37.88 1276.4 37.13 1272.54 36.74 1270.6 36.56"/><polygon class="cls-3" points="1264.45 35.95 1264.37 36.7 1268.21 37.07 1270.17 37.27 1270.25 36.52 1268.29 36.33 1264.45 35.95"/><polygon class="cls-3" points="1259.2 37.17 1263.92 37.63 1263.99 36.89 1259.28 36.42 1259.2 37.17"/><polygon class="cls-3" points="1259.11 38.15 1263.83 38.61 1263.9 37.86 1259.18 37.41 1259.11 38.15"/><polygon class="cls-3" points="1259.3 36.2 1264.01 36.66 1264.08 35.91 1259.37 35.44 1259.3 36.2"/><polygon class="cls-3" points="1264.08 39.73 1267.82 40.1 1269.87 40.31 1269.96 39.44 1268.01 39.25 1264.16 38.88 1264.08 39.73"/><polygon class="cls-3" points="1264.29 37.67 1268.12 38.05 1270.07 38.25 1270.14 37.49 1268.2 37.3 1264.35 36.92 1264.29 37.67"/><polygon class="cls-3" points="1264.18 38.64 1268.03 39.02 1269.97 39.22 1270.05 38.47 1268.1 38.28 1264.26 37.9 1264.18 38.64"/><path class="cls-3" d="M1245.18,99.11h0l-.41,1.52-.56,5.86.27.91.49,0,.47.05.44-.84.57-5.86-.13-1.56a3.61,3.61,0,0,0,.14-.76c.09-1-.12-1.81-.46-1.85s-.71.73-.81,1.72a6,6,0,0,0,0,.78" transform="translate(0 0)"/><rect class="cls-3" x="1121.29" y="187.21" width="1.87" height="8.6"/><rect class="cls-3" x="1149.27" y="174.95" width="2.37" height="2.37"/><rect class="cls-3" x="1118.66" y="187.21" width="1.86" height="8.6"/><rect class="cls-3" x="1228.03" y="158.03" width="1.39" height="1.74"/><path class="cls-3" d="M1082.86,175.55a1.13,1.13,0,0,0-1.13,1.13V179H1084v-2.28a1.13,1.13,0,0,0-1.13-1.13" transform="translate(0 0)"/><rect class="cls-3" x="1228.03" y="160.02" width="1.39" height="1.73"/><rect class="cls-3" x="1152.07" y="174.95" width="2.37" height="2.37"/><rect class="cls-3" x="1152.07" y="172.15" width="2.37" height="2.37"/><rect class="cls-3" x="1149.27" y="172.15" width="2.37" height="2.37"/><path class="cls-3" d="M1075,175.55a1.13,1.13,0,0,0-1.13,1.13V179h2.26v-2.28a1.13,1.13,0,0,0-1.13-1.13" transform="translate(0 0)"/><rect class="cls-3" x="1077.81" y="182" width="2.26" height="4.62"/><rect class="cls-3" x="1073.9" y="182" width="2.26" height="4.63"/><rect class="cls-3" x="1077.81" y="189.67" width="2.26" height="4.63"/><rect class="cls-3" x="1081.73" y="182" width="2.26" height="4.63"/><rect class="cls-3" x="1081.72" y="189.66" width="2.27" height="4.63"/><path class="cls-3" d="M1080.08,175.16a1.13,1.13,0,0,0-2.26,0V179h2.26Z" transform="translate(0 0)"/><rect class="cls-3" x="1233.24" y="154.06" width="1.38" height="1.73"/><rect class="cls-3" x="1231.66" y="156.05" width="1.38" height="1.74"/><rect class="cls-3" x="1233.24" y="160.02" width="1.38" height="1.73"/><rect class="cls-3" x="1231.66" y="154.06" width="1.38" height="1.73"/><rect class="cls-3" x="1233.24" y="156.05" width="1.38" height="1.74"/><rect class="cls-3" x="1233.24" y="158.03" width="1.38" height="1.74"/><rect class="cls-3" x="1228.03" y="156.05" width="1.39" height="1.74"/><path class="cls-3" d="M1243.28,124.38c-.35,0-.71.73-.8,1.71a4.44,4.44,0,0,0,0,.78l-.42,1.51-.55,5.86.26.9.49.05.47,0,.43-.84.56-5.86-.12-1.57a4,4,0,0,0,.14-.76c.09-1-.11-1.8-.47-1.84" transform="translate(0 0)"/><polygon class="cls-3" points="1281.46 41.44 1284.68 41.76 1284.77 40.9 1281.55 40.58 1281.46 41.44"/><path class="cls-3" d="M1245,113.1h0a3.69,3.69,0,0,0,.14-.76c.09-1-.11-1.81-.47-1.85s-.71.74-.81,1.72a4.1,4.1,0,0,0,0,.78l-.42,1.51-.54,5.86.27.9.48,0,.47,0,.43-.84.57-5.87Z" transform="translate(0 0)"/><rect class="cls-3" x="1229.6" y="158.03" width="1.38" height="1.74"/><rect class="cls-3" x="1231.66" y="158.03" width="1.38" height="1.74"/><rect class="cls-3" x="1228.03" y="154.06" width="1.39" height="1.73"/><rect class="cls-3" x="1229.6" y="160.02" width="1.38" height="1.73"/><rect class="cls-3" x="1229.6" y="156.05" width="1.38" height="1.74"/><rect class="cls-3" x="1231.66" y="160.02" width="1.38" height="1.73"/><rect class="cls-3" x="1229.6" y="154.06" width="1.38" height="1.73"/><polygon class="cls-3" points="1289.6 52.44 1286.52 52.14 1286.44 52.88 1289.53 53.19 1289.6 52.44"/><path class="cls-3" d="M1259.63,102l-.32-1.58a2.62,2.62,0,0,0,.19-.76c.1-1-.34-1.82-1-1.88s-1.21.68-1.31,1.66a2.78,2.78,0,0,0,0,.78l-.62,1.49-.56,5.86.55.94.87.08.84.08.72-.8Z" transform="translate(0 0)"/><path class="cls-3" d="M1257.33,93.85l.55.93.87.08.85.08.7-.81.58-5.87-.32-1.58a3,3,0,0,0,.19-.76c.09-1-.34-1.83-1-1.89s-1.21.69-1.3,1.66a2.52,2.52,0,0,0,0,.79l-.63,1.5Z" transform="translate(0 0)"/><path class="cls-3" d="M1262.52,56.12c-.62-.06-1.22.69-1.31,1.67a2.82,2.82,0,0,0,0,.78l-.62,1.5-.55,5.86.54.94.88.08.84.08.71-.8.57-5.86-.32-1.6a3.4,3.4,0,0,0,.19-.76c.09-1-.35-1.83-1-1.89" transform="translate(0 0)"/><path class="cls-3" d="M1266.91,88.85l-.39-1.59h0a2.41,2.41,0,0,0,.21-.75c.1-1-.41-1.84-1.13-1.91s-1.38.67-1.47,1.66a2.31,2.31,0,0,0,.05.78l-.69,1.48-.56,5.87.64.94,1,.1,1,.09.8-.79Z" transform="translate(0 0)"/><path class="cls-3" d="M1258.14,113.58c.09-1-.34-1.83-1-1.9s-1.22.69-1.31,1.67a2.49,2.49,0,0,0,0,.78h0l-.62,1.5-.55,5.86.54.93.88.08.84.09.71-.82.57-5.86-.33-1.59a2.45,2.45,0,0,0,.19-.75" transform="translate(0 0)"/><path class="cls-3" d="M1256.59,128.21a2.39,2.39,0,0,0,.19-.75c.09-1-.34-1.83-1-1.89s-1.21.69-1.3,1.67a2.22,2.22,0,0,0,0,.78l-.63,1.49-.55,5.87.54.92.88.08.84.08.71-.8.57-5.86-.32-1.59Z" transform="translate(0 0)"/><path class="cls-3" d="M1253,113.08c.09-1-.26-1.82-.79-1.87s-1,.7-1.15,1.69a3,3,0,0,0,0,.78l-.55,1.5-.56,5.86.46.93.75.07.72.07.62-.82.58-5.86-.26-1.58a3.08,3.08,0,0,0,.17-.77" transform="translate(0 0)"/><path class="cls-3" d="M1254.41,101.54l-.25-1.58a2.87,2.87,0,0,0,.16-.76c.11-1-.25-1.83-.79-1.88s-1,.7-1.14,1.69a3.25,3.25,0,0,0,0,.77l-.54,1.51-.55,5.86.45.92.74.06.72.08.61-.81Z" transform="translate(0 0)"/><path class="cls-3" d="M1278.58,95.92l.36.91.59.05.62.06.53-.82.57-5.87-.17-1.57a3.71,3.71,0,0,0,.15-.76c.1-1-.18-1.83-.63-1.86s-.88.72-1,1.7a3.65,3.65,0,0,0,0,.77l-.48,1.51Z" transform="translate(0 0)"/><path class="cls-3" d="M1281.32,68l.36.92.6.05.62.06.53-.82.57-5.86-.18-1.58A3.44,3.44,0,0,0,1284,60c.09-1-.18-1.82-.62-1.86s-.88.73-1,1.7a3.89,3.89,0,0,0,0,.78l-.49,1.51Z" transform="translate(0 0)"/><path class="cls-3" d="M1280.5,76.09l-.56,5.86.36.91.6.06.61.05.53-.82.57-5.85-.18-1.57a4.25,4.25,0,0,0,.16-.76c.09-1-.19-1.82-.63-1.87s-.88.73-1,1.71a3.52,3.52,0,0,0,0,.78h0Z" transform="translate(0 0)"/><path class="cls-3" d="M1278.29,110.65l.61.06.53-.83L1280,104l-.18-1.57a4.1,4.1,0,0,0,.15-.76c.1-1-.18-1.81-.63-1.85s-.88.72-1,1.7a3.66,3.66,0,0,0,0,.78h0l-.48,1.51-.57,5.86.37.92Z" transform="translate(0 0)"/><path class="cls-3" d="M1276.71,95.73l.57-5.86-.25-1.58a3.45,3.45,0,0,0,.16-.76c.1-1-.26-1.82-.79-1.87s-1.05.71-1.14,1.68a2.93,2.93,0,0,0,0,.78l-.55,1.51-.56,5.86.45.92.73.07.74.07Z" transform="translate(0 0)"/><path class="cls-3" d="M1271.7,67.05l.54.93.85.08.87.09.71-.81.58-5.87-.32-1.58a3,3,0,0,0,.19-.76c.09-1-.34-1.83-1-1.89s-1.22.69-1.31,1.67a2.58,2.58,0,0,0,0,.78l-.62,1.49Z" transform="translate(0 0)"/><path class="cls-3" d="M1251.61,127c.09-1-.27-1.82-.81-1.87s-1,.71-1.14,1.68a3.4,3.4,0,0,0,0,.78l-.55,1.5-.55,5.86.45.93.75.07.71.08.63-.82.56-5.86-.26-1.59a2.76,2.76,0,0,0,.18-.76" transform="translate(0 0)"/><path class="cls-3" d="M1279.15,57.73c-.54-.05-1,.71-1.14,1.69a3.1,3.1,0,0,0,0,.78h0l-.55,1.5-.57,5.87.45.92.72.07.75.08.62-.82.58-5.86-.25-1.58a3.31,3.31,0,0,0,.17-.76c.09-1-.27-1.83-.8-1.88" transform="translate(0 0)"/><path class="cls-3" d="M1268.28,74.89l-.4-1.59a2,2,0,0,0,.2-.76,1.59,1.59,0,0,0-1.13-1.9c-.71-.07-1.38.67-1.47,1.65a2.41,2.41,0,0,0,.05.79l-.69,1.49-.54,5.86.63.93,1,.1,1,.1.81-.8Z" transform="translate(0 0)"/><rect class="cls-3" x="1288.79" y="155.15" width="1.17" height="3.59"/><rect class="cls-3" x="1290.17" y="147.16" width="1.99" height="3.35"/><rect class="cls-3" x="1285.08" y="147.16" width="1.99" height="3.35"/><rect class="cls-3" x="1287.42" y="155.15" width="1.17" height="3.59"/><path class="cls-3" d="M1289.84,147.16a1.22,1.22,0,1,0-2.44,0v3.35h2.44Z" transform="translate(0 0)"/><rect class="cls-3" x="1304.68" y="138.54" width="0.34" height="0.61"/><rect class="cls-3" x="1293.73" y="155.15" width="1.17" height="3.59"/><rect class="cls-3" x="1295.09" y="155.15" width="1.17" height="3.59"/><path class="cls-3" d="M1248.46,113.43h0a3.74,3.74,0,0,0,.15-.77c.09-1-.19-1.81-.64-1.85s-.86.72-1,1.71a3.36,3.36,0,0,0,0,.77l-.48,1.5-.56,5.87.37.91.62.06.59.06.53-.83.57-5.86Z" transform="translate(0 0)"/><path class="cls-3" d="M1248.76,58.93l-.56,5.86.27.9.48,0,.48,0,.43-.83.56-5.86-.11-1.57a5.18,5.18,0,0,0,.14-.76c.09-1-.12-1.81-.47-1.85s-.7.74-.8,1.72a3.38,3.38,0,0,0,0,.78h0Z" transform="translate(0 0)"/><path class="cls-3" d="M1252.05,79.26l.56-5.86-.18-1.57a3.17,3.17,0,0,0,.16-.76c.1-1-.19-1.81-.63-1.86s-.88.72-1,1.71a4.61,4.61,0,0,0,0,.77l-.48,1.51-.55,5.86.37.92.61.06.6.06Z" transform="translate(0 0)"/><path class="cls-3" d="M1253.76,94.39l.71.07.62-.81.57-5.86-.25-1.58h0a3,3,0,0,0,.17-.76c.09-1-.26-1.82-.79-1.87s-1.05.71-1.14,1.69a2.64,2.64,0,0,0,0,.78l-.55,1.5-.55,5.86.45.92Z" transform="translate(0 0)"/><path class="cls-3" d="M1250.68,93.22l.57-5.86-.19-1.57a3.84,3.84,0,0,0,.15-.76c.1-1-.18-1.82-.63-1.86s-.87.72-1,1.7a3.68,3.68,0,0,0,0,.77l-.48,1.51-.55,5.86.36.91.62.06.6.05Z" transform="translate(0 0)"/><path class="cls-3" d="M1247.26,126.55c.09-1-.2-1.82-.64-1.86s-.88.71-1,1.7a3.18,3.18,0,0,0,0,.78l-.48,1.5-.55,5.86.36.91.62.06.59.06.54-.82.56-5.87-.18-1.57a4.23,4.23,0,0,0,.15-.76" transform="translate(0 0)"/><path class="cls-3" d="M1280,127.92c-.35,0-.71.74-.81,1.71a4.09,4.09,0,0,0,0,.78l-.42,1.51-.57,5.87.26.9.48,0,.48,0,.45-.84.57-5.86-.11-1.57a4.27,4.27,0,0,0,.14-.76c.1-1-.11-1.81-.46-1.84" transform="translate(0 0)"/><path class="cls-3" d="M1247.34,106.78l.36.91.62.06.6.06.52-.83.56-5.86-.18-1.57a3.71,3.71,0,0,0,.16-.76c.09-1-.19-1.82-.63-1.86s-.88.72-1,1.7a4.4,4.4,0,0,0,0,.78l-.48,1.51Z" transform="translate(0 0)"/><path class="cls-3" d="M1271.26,103.16l-.32-1.59h0a2.51,2.51,0,0,0,.19-.75c.1-1-.33-1.83-1-1.89s-1.22.69-1.32,1.67a2.8,2.8,0,0,0,0,.78l-.62,1.49-.56,5.86.54.93.85.08.87.08.72-.81Z" transform="translate(0 0)"/><path class="cls-3" d="M1286.68,58.47c-.35,0-.72.73-.81,1.72a5.83,5.83,0,0,0,0,.78l-.41,1.51-.57,5.87.26.9.48,0,.48.05.43-.83.58-5.87-.11-1.56a4,4,0,0,0,.13-.76c.1-1-.1-1.81-.45-1.84" transform="translate(0 0)"/><path class="cls-3" d="M1285.31,72.43c-.35,0-.71.74-.81,1.72a3.83,3.83,0,0,0,0,.77l-.41,1.52-.56,5.86.26.9.48,0,.48,0,.44-.83.57-5.87-.11-1.56a6,6,0,0,0,.13-.76c.1-1-.11-1.81-.46-1.84" transform="translate(0 0)"/><polygon class="cls-3" points="1286.06 53.07 1284.69 52.95 1284.61 53.69 1285.98 53.82 1286.06 53.07"/><polygon class="cls-3" points="1285.79 55.78 1285.86 55.03 1284.74 54.91 1284.79 55.23 1285.79 55.78"/><polygon class="cls-3" points="1284.59 53.99 1284.7 54.68 1285.89 54.79 1285.96 54.05 1284.59 53.91 1284.59 53.99"/><path class="cls-3" d="M1278.46,116.33a3.49,3.49,0,0,0,.15-.77c.1-1-.18-1.81-.63-1.85s-.88.72-1,1.71a3.72,3.72,0,0,0,0,.77l-.48,1.51-.56,5.86.36.92.6.05.61.06.53-.83.58-5.86Z" transform="translate(0 0)"/><path class="cls-3" d="M1281.33,114c-.35,0-.71.74-.8,1.72a5.07,5.07,0,0,0,0,.77l-.42,1.51-.56,5.87.27.89.47.06.49,0,.43-.84.58-5.86-.11-1.56a4.38,4.38,0,0,0,.14-.76c.09-1-.12-1.81-.47-1.84" transform="translate(0 0)"/><path class="cls-3" d="M1282.7,100.16c-.36,0-.73.73-.82,1.71a4.79,4.79,0,0,0,0,.77l-.41,1.52-.56,5.86.27.91.46,0,.49.05.43-.84.58-5.86-.11-1.57a4.94,4.94,0,0,0,.14-.76c.1-1-.11-1.81-.46-1.83" transform="translate(0 0)"/><path class="cls-3" d="M1283.93,86.39c-.35,0-.71.74-.8,1.72a4.06,4.06,0,0,0,0,.78l-.42,1.51-.57,5.87.26.9.47,0,.49,0,.44-.83.57-5.87-.11-1.56a6.21,6.21,0,0,0,.15-.77c.09-1-.11-1.8-.47-1.84" transform="translate(0 0)"/><polygon class="cls-3" points="1284.71 52.71 1286.08 52.84 1286.15 52.1 1284.79 51.97 1284.71 52.71"/><polygon class="cls-3" points="1285.06 37.97 1281.84 37.66 1281.76 38.4 1284.98 38.73 1285.06 37.97"/><path class="cls-3" d="M1277.84,44.12a1.82,1.82,0,0,0-1.81,1.79l-.29,2.93,3.24.32.28-2.93a1.81,1.81,0,0,0-1.43-2.11" transform="translate(0 0)"/><polygon class="cls-3" points="1286.25 54.84 1289.33 55.14 1289.41 54.39 1286.32 54.09 1286.25 54.84"/><rect class="cls-3" x="1287.55" y="52.09" width="0.75" height="3.1" transform="translate(1109.84 1330.32) rotate(-84.44)"/><polygon class="cls-3" points="1073.9 194.3 1076.16 194.29 1076.16 189.66 1073.9 189.67 1073.9 194.3"/><polygon class="cls-3" points="1286.14 55.91 1286.15 55.91 1289.23 56.22 1289.32 55.36 1286.23 55.07 1286.14 55.91"/><polygon class="cls-3" points="1281.66 39.38 1284.89 39.69 1284.97 38.95 1281.74 38.63 1281.66 39.38"/><path class="cls-3" d="M1270.34,96l.87.09.72-.81.58-5.86-.33-1.59a2.37,2.37,0,0,0,.2-.75c.09-1-.34-1.83-1-1.89s-1.22.68-1.31,1.66a3.06,3.06,0,0,0,0,.78l-.62,1.5L1269,95l.54.93Z" transform="translate(0 0)"/><path class="cls-3" d="M1269.65,60.93l-.39-1.59h0a2.27,2.27,0,0,0,.2-.76c.1-1-.4-1.84-1.13-1.9s-1.38.67-1.48,1.65a2.36,2.36,0,0,0,.06.78l-.7,1.49-.56,5.87.64.93,1,.1,1,.11.8-.8Z" transform="translate(0 0)"/><path class="cls-3" d="M1271.66,49.44a2.62,2.62,0,0,0-5.22-.51l-.38,3.93,5.21.51Z" transform="translate(0 0)"/><path class="cls-3" d="M1261.68,80.18l.57-5.86-.33-1.59a2.34,2.34,0,0,0,.2-.76c.09-1-.34-1.82-1-1.89s-1.22.69-1.31,1.67a3.28,3.28,0,0,0,0,.78h0l-.62,1.5-.55,5.86.54.93.87.08.85.09Z" transform="translate(0 0)"/><path class="cls-3" d="M1261.45,42.51a1.81,1.81,0,0,0-1.8,1.79l-.29,2.93,3.25.32.29-2.93a1.83,1.83,0,0,0-1.44-2.11" transform="translate(0 0)"/><path class="cls-3" d="M1278.08,81.76l.57-5.86-.25-1.58a3.12,3.12,0,0,0,.17-.76c.1-1-.27-1.82-.8-1.87s-1,.7-1.14,1.68a3,3,0,0,0,0,.78l-.55,1.5-.57,5.86.45.92.72.07.74.07Z" transform="translate(0 0)"/><path class="cls-3" d="M1274.1,110.23l.75.08.62-.82.58-5.86-.26-1.58h0a3,3,0,0,0,.17-.76c.1-1-.26-1.82-.79-1.87s-1.05.71-1.15,1.69a3.62,3.62,0,0,0,0,.77l-.55,1.5-.56,5.88.45.91Z" transform="translate(0 0)"/><path class="cls-3" d="M1273.3,81.29l.57-5.85-.32-1.59a2.57,2.57,0,0,0,.19-.76c.09-1-.34-1.82-1-1.89s-1.21.68-1.31,1.67a3,3,0,0,0,0,.78l-.62,1.49-.55,5.86.53.92.84.08.88.09Z" transform="translate(0 0)"/><path class="cls-3" d="M1268.4,128.57c.09-1-.34-1.83-1-1.89s-1.21.69-1.3,1.67a2.5,2.5,0,0,0,0,.78l-.62,1.5-.56,5.86.54.93.85.08.88.09.72-.81.57-5.86-.32-1.58a2.28,2.28,0,0,0,.19-.76" transform="translate(0 0)"/><path class="cls-3" d="M1273.24,129c.1-1-.26-1.82-.8-1.87s-1,.71-1.14,1.68a4,4,0,0,0,0,.78l-.55,1.51-.56,5.86.46.92.72.06.75.08.61-.82.58-5.87-.26-1.58a3.34,3.34,0,0,0,.17-.77" transform="translate(0 0)"/><rect class="cls-3" x="1282.84" y="38.52" width="0.75" height="3.24" transform="translate(1117.89 1313.29) rotate(-84.39)"/><path class="cls-3" d="M1274.43,115.93a2.93,2.93,0,0,0,.17-.76c.1-1-.26-1.82-.8-1.87s-1,.7-1.15,1.68a3.8,3.8,0,0,0,0,.78l-.55,1.5-.56,5.87.45.92.72.07.74.07.62-.82.57-5.86Z" transform="translate(0 0)"/><path class="cls-3" d="M1269.76,114.69c.09-1-.34-1.83-1-1.89s-1.22.7-1.31,1.68a2.77,2.77,0,0,0,0,.78l-.62,1.49-.56,5.87.55.93.84.08.87.09.72-.81.57-5.86-.32-1.58a3,3,0,0,0,.19-.76" transform="translate(0 0)"/><path class="cls-3" d="M1263.91,114.89a2.11,2.11,0,0,0,.2-.76,1.6,1.6,0,0,0-1.12-1.9c-.73-.07-1.39.68-1.48,1.65a2.29,2.29,0,0,0,.06.78l-.69,1.49-.56,5.86.64.94,1,.1,1,.09.8-.8.58-5.86-.39-1.6Z" transform="translate(0 0)"/><path class="cls-3" d="M1263.29,109.17l1,.1.81-.82.58-5.85-.4-1.6a2.09,2.09,0,0,0,.21-.75c.09-1-.41-1.84-1.12-1.91s-1.39.67-1.48,1.65a2.45,2.45,0,0,0,.05.78l-.69,1.48-.56,5.87.64.93Z" transform="translate(0 0)"/><path class="cls-3" d="M1277.26,129.44c.09-1-.19-1.81-.64-1.85s-.88.72-1,1.7a2.64,2.64,0,0,0,0,.78l-.48,1.5-.57,5.86.36.92.6.06.61.06.53-.83.58-5.86-.18-1.57a3.78,3.78,0,0,0,.16-.77" transform="translate(0 0)"/><path class="cls-3" d="M1262.55,128.78a2.36,2.36,0,0,0,.21-.76c.09-1-.42-1.83-1.14-1.9s-1.37.66-1.47,1.65a2.08,2.08,0,0,0,.06.78h0l-.7,1.48-.55,5.87.63.94,1,.09,1,.1.8-.8.58-5.86-.39-1.6Z" transform="translate(0 0)"/><path class="cls-3" d="M906.68,221.24c-1,0-1.57,1.13-1.53,2.86.1,2.17.2,4.35.3,6.53,1,.05,2.26.14,3.23.21-.35-6.91-.35-6.91-.43-7.33-.33-1.58-1-2.21-1.57-2.27" transform="translate(0 0)"/><path class="cls-3" d="M875,219.55a3.13,3.13,0,0,0-3.17,3.19q0,3.48.08,7l6.41.07c-.14-7.44-.14-7.44-.29-7.9a3.3,3.3,0,0,0-3-2.34" transform="translate(0 0)"/><path class="cls-3" d="M824.9,220.29c-1.38.18-2.32,1.43-2.46,3.27-.23,6.24-.23,6.24-.26,6.7l4.86-.17c.24-7.26.24-7.26.15-7.72a2.37,2.37,0,0,0-2.28-2.09" transform="translate(0 0)"/><path class="cls-3" d="M900.77,220.68c-1.22,0-2,1.16-2,3,.18,4.9.25,6.59.27,6.68l4.14.19c-.31-7.09-.31-7.09-.41-7.51-.33-1.33-1.12-2.24-2-2.31" transform="translate(0 0)"/><path class="cls-3" d="M864.39,219.42a3.34,3.34,0,0,0-3.42,3.25q0,3.48,0,7l6.86,0c-.06-7.5-.06-7.5-.21-7.95a3.42,3.42,0,0,0-3.23-2.31" transform="translate(0 0)"/><path class="cls-3" d="M833.3,219.89a3.22,3.22,0,0,0-2.83,3.29q-.11,3.41-.21,6.83l5.65-.13c.18-7.38.18-7.38.06-7.84a2.71,2.71,0,0,0-2.67-2.15" transform="translate(0 0)"/><path class="cls-3" d="M842.87,219.6a3.3,3.3,0,0,0-3.14,3.3c0,2.3-.1,4.6-.14,6.91l6.3-.08c.1-7.47.1-7.47,0-7.93a3.07,3.07,0,0,0-3-2.2" transform="translate(0 0)"/><path class="cls-3" d="M853.36,219.44a3.34,3.34,0,0,0-3.37,3.28c0,2.32,0,4.65-.07,7l6.79,0c0-7.51,0-7.51-.13-8a3.36,3.36,0,0,0-3.23-2.26" transform="translate(0 0)"/><path class="cls-3" d="M884.78,219.82a2.9,2.9,0,0,0-2.85,3.13q.08,3.44.16,6.9l5.78.13c-.21-7.35-.21-7.35-.34-7.8a3.11,3.11,0,0,0-2.75-2.35" transform="translate(0 0)"/><rect class="cls-3" x="479.26" y="111.97" width="0.36" height="0.49"/><path class="cls-3" d="M1026.23,160.13a6.52,6.52,0,0,0-5.59,3.13.45.45,0,0,0,.15.61.42.42,0,0,0,.23.06.43.43,0,0,0,.38-.21,5.66,5.66,0,0,1,9.66,0,.44.44,0,1,0,.76-.46,6.49,6.49,0,0,0-5.58-3.13" transform="translate(0 0)"/><path class="cls-3" d="M1030.17,166.16a.65.65,0,0,0-.65.65v2h1.3v-2a.65.65,0,0,0-.65-.65" transform="translate(0 0)"/><path class="cls-3" d="M914,222.46c-.33,0-.65.8-.57,2.69.12,2.06.23,4.12.34,6.19.39.07.92.15,1.31.24-.48-8.61-.5-8.94-1.08-9.11" transform="translate(0 0)"/><path class="cls-3" d="M911.08,221.84c-.68,0-1.1,1.09-1.05,2.77q.17,3.17.33,6.36l2.27.22c-.36-6.74-.36-6.74-.42-7.13-.32-1.94-.94-2.2-1.12-2.22" transform="translate(0 0)"/><path class="cls-3" d="M1022.29,166.16a.66.66,0,0,0-.66.65v2h1.3v-2a.65.65,0,0,0-.64-.65" transform="translate(0 0)"/><path class="cls-3" d="M1015.6,166.16a.66.66,0,0,0-.65.65v2h1.3v-2a.65.65,0,0,0-.65-.66" transform="translate(0 0)"/><path class="cls-3" d="M1027.54,166.16a.65.65,0,0,0-.65.65v2h1.3v-2a.65.65,0,0,0-.65-.65" transform="translate(0 0)"/><path class="cls-3" d="M809,205.92c-.58.26-1,1.43-1.1,3.13-.11,2-.22,4-.33,6,.61-.15,1.43-.37,2.06-.5.34-6.55.34-6.55.3-7-.08-1.1-.48-1.83-.93-1.68" transform="translate(0 0)"/><path class="cls-3" d="M813,204.88c-.84.26-1.43,1.45-1.55,3.19s-.22,4.25-.31,6.08a.48.48,0,0,1,0,.11c.9-.14,2.1-.35,3-.48.32-6.72.32-6.72.27-7.13-.14-1.16-.73-1.9-1.39-1.76" transform="translate(0 0)"/><path class="cls-3" d="M818.56,203.93c-1.1.25-1.87,1.48-2,3.23s-.19,4.35-.28,6.22a1,1,0,0,0,0,.11l3.91-.43c.29-6.87.29-6.87.21-7.29-.21-1.21-1-2-1.83-1.83" transform="translate(0 0)"/><path class="cls-3" d="M878,211.75c-.14-7.17-.14-7.17-.28-7.61a3.32,3.32,0,0,0-3-2.3,3,3,0,0,0-3.12,3q0,3.34.08,6.71l6.3.17" transform="translate(0 0)"/><rect class="cls-3" x="475.97" y="111.97" width="0.36" height="0.49"/><path class="cls-3" d="M825.52,203.09c-1.36.22-2.28,1.47-2.42,3.26s-.17,4.44-.24,6.35a.94.94,0,0,0,0,.12l4.77-.37c.24-7,.24-7,.14-7.44a2.19,2.19,0,0,0-2.25-1.91" transform="translate(0 0)"/><path class="cls-3" d="M806.44,207c-.41.35-.58,2.07-.64,3.06q-.17,2.92-.33,5.85c.33-.16.77-.39,1.11-.52.35-6.34.35-6.34.34-6.76,0-.91-.2-1.8-.48-1.63" transform="translate(0 0)"/><path class="cls-3" d="M843.18,201.9a3.28,3.28,0,0,0-3.08,3.24c0,2.22-.1,4.44-.14,6.67,1.86-.06,4.33-.14,6.19-.19.1-7.19.1-7.19,0-7.63a3,3,0,0,0-2.93-2.09" transform="translate(0 0)"/><path class="cls-3" d="M808.13,221.95c-.58.19-1,1.35-1.12,3.1-.12,2.07-.22,4.14-.34,6.22l2.07-.22c.35-6.77.35-6.77.32-7.2-.08-1.16-.48-2-.94-1.89" transform="translate(0 0)"/><path class="cls-3" d="M812.22,221.35c-.85.19-1.45,1.37-1.58,3.16q-.17,3.19-.33,6.39l3-.21c.32-7,.32-7,.27-7.39-.14-1.21-.73-2-1.4-2" transform="translate(0 0)"/><path class="cls-3" d="M805.56,222.58c-.41.25-.58,2-.64,3-.11,2-.22,4-.34,6l1.11-.24c.36-6.55.36-6.55.36-7,0-1-.21-1.92-.49-1.83" transform="translate(0 0)"/><path class="cls-3" d="M833.79,202.4a3.26,3.26,0,0,0-2.79,3.26q-.1,3.29-.2,6.58l5.54-.29c.17-7.11.17-7.11.06-7.55a2.59,2.59,0,0,0-2.62-2" transform="translate(0 0)"/><path class="cls-3" d="M817.83,220.79c-1.12.18-1.9,1.42-2,3.22-.1,2.17-.2,4.37-.3,6.56l4-.19c.29-7.12.29-7.12.22-7.56-.22-1.27-1-2.09-1.86-2" transform="translate(0 0)"/><path class="cls-3" d="M867.48,203.84a3.37,3.37,0,0,0-3.18-2.24,3.23,3.23,0,0,0-3.35,3.12c0,2.24,0,4.49,0,6.74l6.74.05c-.06-7.22-.06-7.22-.21-7.67" transform="translate(0 0)"/><path class="cls-3" d="M853.48,201.63a3.28,3.28,0,0,0-3.31,3.19c0,2.24,0,4.47-.07,6.72,2,0,4.67-.07,6.67-.08,0-7.23,0-7.23-.13-7.67a3.27,3.27,0,0,0-3.16-2.17" transform="translate(0 0)"/><path class="cls-3" d="M1024.91,166.16a.65.65,0,0,0-.65.65v2h1.3v-2a.65.65,0,0,0-.65-.65" transform="translate(0 0)"/><path class="cls-3" d="M1064.53,158.3a.45.45,0,0,0,.12-.62,14.76,14.76,0,0,0-24.12,0,.44.44,0,0,0,.12.62.44.44,0,0,0,.61-.12,13.88,13.88,0,0,1,22.65,0,.44.44,0,0,0,.37.2.48.48,0,0,0,.25-.07" transform="translate(0 0)"/><path class="cls-3" d="M1064.61,159.52c-.33,0-.59.38-.59.85v1.53h1.18v-1.53c0-.47-.27-.86-.59-.85" transform="translate(0 0)"/><path class="cls-3" d="M1067.38,146.15c-.4,0-.73.47-.73,1.05v2.94h1.46V147.2c0-.58-.33-1-.73-1.05" transform="translate(0 0)"/><path class="cls-3" d="M1070,146.3c-.35,0-.63.46-.63,1v2.81h1.25v-2.8c0-.57-.28-1-.62-1" transform="translate(0 0)"/><path class="cls-3" d="M1059.3,159.24a.83.83,0,0,0-.75.89v1.75h1.52v-1.75a.83.83,0,0,0-.76-.89" transform="translate(0 0)"/><path class="cls-3" d="M1056.5,165.11a1.12,1.12,0,0,0-1.13,1.13v2.55h2.27v-2.55a1.13,1.13,0,0,0-1.14-1.13" transform="translate(0 0)"/><path class="cls-3" d="M1075,166.16a.65.65,0,0,0-.65.65v2h1.3v-2a.65.65,0,0,0-.65-.65" transform="translate(0 0)"/><path class="cls-3" d="M1062.13,159.38a.8.8,0,0,0-.67.88v1.64h1.35v-1.64a.8.8,0,0,0-.68-.88" transform="translate(0 0)"/><path class="cls-3" d="M1057.63,175.17a1.13,1.13,0,0,0-2.26,0V179h2.26Z" transform="translate(0 0)"/><path class="cls-3" d="M1077.63,166.16a.65.65,0,0,0-.65.65v2h1.3v-2a.65.65,0,0,0-.65-.65" transform="translate(0 0)"/><path class="cls-3" d="M1057,160a.84.84,0,1,0-1.69,0v1.86H1057Z" transform="translate(0 0)"/><path class="cls-3" d="M1089.57,166.16a.65.65,0,0,0-.65.65v2h1.3v-2a.66.66,0,0,0-.65-.65" transform="translate(0 0)"/><path class="cls-3" d="M0,0V187.89l70.73-1s26.17-23.13,53-35.91c9.18-4.37,28.49-29.07,34.26-33.92,20.27-17.06,33.46-9.92,37.12-7,11.63,9.31,10.93-9.65,20.84,1.15,7.49,8.16,22.34,6.72,22.34,6.72s18.46-8,29.54-5c4.46,1.2,8,9.6,16.85,12.64,10.07,3.47,20.84,6.72,31.5,9.32,3.06.75,16.13-2.52,25.7-8.88,5.1-3.39,8.44-2.75,11.53-3.1,11.08-1.26,16.59,22.66,29.71,28,3.75,1.54,17.21-1.87,21.28-3.15,8.63-2.71,26.09,11.77,34.07,13.2,11.28,2,14.56,3.08,15.38,3.61V130.72h-4.21l-.28-.38L461.23,126v-2.81H459.9l-.4-.37,7.18-8.94H475v-1.44h.16V112H475v-.46h.21v-.15h1.95v.15h.19V112h-.16v.49h.16v1.44h.94v-1.44h.16V112h-.16v-.46h.22v-.15h1.95v.15h.19V112h-.16v.49h.16v1.44h8.67l7.19,8.94-.4.37h-1.33v4.61h8.58l8.68,6-.43.62-.65-.45v18.52l31.52,5.33V148h-3v-.76l7-6.58h15.76l12-9.82.6-.32.6.32,4.09,3.34v-4h-.08V130h.08v-.7h-.08v-.16h-.07V129h-.08v-.17h-.08v-.33h.08v-.16h.08v-.17h.07v-.52h1.2v.52h.08v.17h.08v.16h.07v.33h-.07V129h-.08v.16h-.08v.16h-.08v.7h.08v.16h-.08v4.89l17.26,14.11-.56.53-1.53-1.25h-1.46V156l5.32,1.92v-2.83h-.08V155h.08v-.71h-.08v-.16h-.08v-.16h-.07v-.16h-.08v-.33h.08v-.16h.07v-.16h.08v-.52h1.21v.52h.07v.16h.07v.16h.08v.33h-.08v.16h-.07v.16h-.07v.16h-.08V155h.08v.16h-.08v3.21l4.75,1.71v-2h6.79l.08-1.27,3.69-54.75.1-1.44a8.37,8.37,0,0,1-2.09-3.52h0c0-.06,0-.12,0-.18a9.77,9.77,0,0,1-.23-4c.08-.58.22-1.7.36-3,.21-1.79.43-3.88.56-5.1-1.91-.78-3.73-2-3.45-3.58l2.39-17.39c-3.14-.92-8.89-3.08-10.24-3.6-1,.07-4.27.28-7.57.29h-1.18c-4.69-.09-8.92-7.33-10.23-10.34a92.86,92.86,0,0,1-12.16-.76,8,8,0,0,1-3.92-2.15l-.38-.35a2.4,2.4,0,0,1-1-2.76,3,3,0,0,1,2.91-1.73l2.54,0a2.08,2.08,0,0,1,.08-.48,1.68,1.68,0,0,1,1.66-1.2c.94,0,1.9,0,2.74,0l1.74,0A7.72,7.72,0,0,1,583,42.54a3.68,3.68,0,0,0,1.72.88l17.93-.07c2.07-1,8.06-2.75,16-2.75,2.32,0,4,0,5.07,0,.25-3.63,1.21-11,1.42-12.33a6.81,6.81,0,0,1,13.4,0c.2,1.3,1.17,8.7,1.41,12.33,1.05,0,2.75,0,5.08,0,7.91,0,13.91,1.75,16,2.75l17.93.07a5.12,5.12,0,0,0,2.11-1,7.81,7.81,0,0,1,4.24-1.65l1.73,0c.84,0,1.8,0,2.74,0a1.68,1.68,0,0,1,1.65,1.2,1.71,1.71,0,0,1,.07.48H694A3,3,0,0,1,697,44.22a2.41,2.41,0,0,1-1,2.76l-.39.34a7.91,7.91,0,0,1-3.92,2.15,82.32,82.32,0,0,1-11.48.76c-1.31,3-5.54,10.26-10.23,10.34h-1.2c-3.4,0-7.18-.23-8.23-.29-1.39.49-7.74,2.73-11,3.63l.92,14.49,3.52,39.69L650.54,123l1.66,33.85.05,1.25h6.27v8.46h5.24v-26.6h.07l-.33-.49h-.62V139h.62l6.39-12.85a1.43,1.43,0,0,1,.23-2.8v-2.67h-1.34v-.33h1.34v-1.73h.33v1.73h1.34v.33h-1.34v2.67a1.43,1.43,0,0,1,.25,2.8L677.07,139h.62v.49h-.62l-.34.49v35.33H698l1.16-2.07h3.31l5.14,9.19h14.2l8.37,9.57-.53.79-1.13.16v22.66l13.88,5.93,8-9.89h16.61V206.8h.2v-1h-.2v-.59h.27v-.18h2.47v.18h.24v.59h-.2v1h.2v4.81h2.84V206.8h.2v-1h-.2v-.59H773v-.18h2.47v.18h.24v.59h-.2v1h.2v4.81h3.23L788,222.95l-.51.47h-1.68v5.84h10.87l7.16,5,0,.35c9.94-1.21,25.25-1.6,60.36-1.6,15,0,26.39.25,35.35.63l4,3.37,2.4,4.37v.12c.08,1.79.2,4.14.28,6h3.26l0,.35c-.33-6.84-.33-6.84-.49-7.54a2.25,2.25,0,0,0-1.53-1.93,1.73,1.73,0,0,0-1.31,1.27l-1.78-3.23-3.18-2.71c6,.28,10.8.61,14.86,1l0,.58,13.4-19.9,12.33,18.31h4v-9.8h14.58v-5.47l-.51.35-.34-.49,6.83-4.76h6.75V204h-1l-.31-.29,5.65-7h17.78l3.9,4.86v-19l2.35-8.35V158.84l-.68-1.58h-.2v-2.62h.88v-9.08l-.68-1.57h-.2v-2.62h.88V132.1l-.68-1.57h-.2v-2.63h1.3v-10c-.05-.25-.43-.42-.43-.42a.31.31,0,0,1,0-.16.49.49,0,0,1,0-.17h.29l2.46-12.35,2.47,12.36h.29a.44.44,0,0,1,0,.17.42.42,0,0,1,0,.17s-.38.16-.43.41v10h1.3v2.63h-.2l-.68,1.57v9.25h.88V144h-.19l-.68,1.57v9.09h.88v2.62h-.2l-.69,1.58V174.2l2.15,8.35v23.13l.89-.53V182.44l0-.11-2.13-8.23v-3.62h89.47v3.62l-2.13,8.23,0,.11v21.64h.89V182.55l2.15-8.35V158.84l-.69-1.58h-.2v-2.62h.88v-9.09l-.69-1.58h-.2v-2.62h.89V132.1l-.69-1.57h-.2V127.9h1.3v-10c-.06-.25-.44-.41-.44-.41a.36.36,0,0,1,0-.16.4.4,0,0,1,0-.17h.29l2.47-12.36,2.47,12.36h.29a.36.36,0,0,1,0,.34s-.38.16-.44.41v10h1.3v2.63h-.2l-.68,1.57v9.26h.88V144h-.2l-.68,1.57v9.09h.88v2.63h-.2l-.68,1.57V174.2l1.48,5.27,10.15-3.64v-2.25h1.51c0-1,1.82-1.86,4.08-1.86s4.07.83,4.07,1.86h1.51v2.25l13.09,4.7-.72.88v1.14l-1.91-.68v4l10.54-4.31V167l-2.43-.94.57-1.45-.49-.19.14-.35,26.3,10.21-.13.35-.48-.19-.56,1.45-2.59-1v3.36h-.73v4h12.52l14.76-6.79V157.88l7.12-4.63,5.3,3.45,7.87-8.21h10.69l5.66-6,.32-.22.32.22,6.78,7.14.81-8.13-.34-.36,0-.25.18-.17.4-4.14-1-.4,0-.28-.37-.21,0-.46,1.33-.42.43-.95.6-6.26-.33-.36,0-.25.17-.17.41-4.12-1-.4,0-.28-.38-.21,0-.46,1.34-.41.41-.95.62-6.26-.33-.36,0-.25.16-.17.41-4.12-1-.4,0-.28-.38-.2,0-.46,1.33-.42.41-1,.62-6.26-.34-.36,0-.25.18-.17.41-4.13-1-.4,0-.28-.37-.19,0-.46,1.34-.43.41-.95.62-6.26-.33-.36,0-.25.18-.17.41-4.12-1-.4,0-.28-.38-.2,0-.46,1.34-.42.41-1,.62-6.25-.34-.37,0-.24.17-.18.41-4.13-1-.4,0-.28-.38-.2.05-.45,1.34-.43.41-.94.62-6.26-.34-.36,0-.25.17-.18.4-4.13-1-.4,0-.29-.38-.19,0-.46,1.39.14.44-4.5.36,0,0,.5,3.08.3.05-.5.36,0,0,.51,1.36.13.37-3.79-.33-.36,0-.25.17-.18L1254,40l-1-.4,0-.28-.38-.2,0-.45,2.34.23.44-4.51.36,0,0,.49,3.23.31,0-.5.36,0,0,.5,4.72.47,0-.5.36,0,0,.5,3.84.37,1.95.2,0-.5.36,0,0,.49,1.95.18,3.85.39,0-.5.37,0,0,.49,4.71.47.05-.49.36,0,0,.5,3.22.32,0-.5.36,0-.45,4.51,2.34.22,0,.46-.41.13,0,.27-1,.2-.41,4.13.14.2,0,.26-.41.29-.37,3.78,1.37.14,0-.5.36,0,0,.49,3.09.3,0-.49.36,0-.44,4.5,1.39.13,0,.46-.41.12,0,.29-1,.2-.4,4.13.14.2,0,.25-.4.29-.62,6.26.22,1,1.23.68,0,.45-.41.12,0,.28-1,.21-.41,4.13.14.19,0,.25-.4.29-.61,6.26.22,1,1.24.67,0,.46-.41.13,0,.28-1,.21-.4,4.12.13.21,0,.25-.4.29-.62,6.26.23,1,1.23.66,0,.47-.42.11,0,.28-1,.2-.41,4.14.14.19,0,.25-.41.28-.61,6.27.22,1,1.23.68,0,.46-.41.13,0,.28-1,.21-.41,4.13.14.2,0,.25-.4.29-.61,6.26.22,1,1.23.67,0,.46-.41.12,0,.28-1,.21-.41,4.13.14.2,0,.25-.4.29-.61,6.26.22,1,1.23.67,0,.46-.41.12,0,.28-1,.21-.41,4.13.15.19,0,.25-.4.29-.17,1.73,8.18-7.82h13.46l1.67,1.6v-2h.15v-.61h-.15V138h.17v-.18h1.82V138h.2v.58h-.15v.61h.15v2.77h9.42l4.24,4h5.71l5.15,4.93-.78.43-.36-.33-.39.57h-.4v21.66l100.57-38.28,37.65,22.23a1.6,1.6,0,0,1-.89,3v-.37l-.84,6.39,70.06-29.7,21.24,12.37,5.14-27.14h24.61l2.14,15.9H1608l2.77,26.71,36.47,1.85,13.3-12.09,35.63,20.46v13.37h59.63V0ZM806.36,190.9c.07-1.2,1.33-2.37,3.69-3.48a48.68,48.68,0,0,1,10.72-3.11A157.81,157.81,0,0,1,838,182c6.71-.56,14.15-.86,22-.86,2.58,0,5.12,0,7.6.1L874,195.92c-3-.06-6.36-.1-9.79-.1-25,0-47.87,2.31-58.49,5.8Zm-.67,11.84c10.29-3.54,33.35-5.89,58.55-5.88,3.78,0,7.43,0,10.69.12l5.36,2.55.25.84,2.38,9.66,2.56,4.15c-4-.15-12.28-.42-21.24-.43-14.55,0-48.69.38-59.39,3.85Zm58.55,29.2c-34.93,0-50.31.39-60.3,1.59l.84-14.81c10-3.55,44.75-3.94,59.46-3.94,9.49,0,18.23.3,21.9.46l4.52,7.33.34.54s0,.09,0,.14c.07,2.26.15,4.53.22,6.81l4.36.13,2.75,2.34c-8.77-.36-19.8-.58-34.07-.58m35.71.65-3.75-3.2c-.24-6.42-.24-6.43-.36-6.86a2.89,2.89,0,0,0-2.4-2.34,2.29,2.29,0,0,0-2.12,1.46L884,209.93l3.26.17c1,.05,2.07.12,3.26.21,1.51.11,3.16.27,4.93.47.9.1,1.82.22,2.78.35l2,.29,2.11.33,2.23.38c1.17.21,2.24.41,3.19.62l1.65.35c.85.2,1.6.38,2.27.55l1.09.3,1.3.39.86.31c.36,6.28.72,12.62,1.09,19-4.35-.39-9.56-.76-16.1-1m111-76.35h-.16v-2.1h.71v-7.27l-.55-1.26h-.16v-2.1h.71v-7.41l-.55-1.26h-.16v-2.1h1v-8c0-.2-.35-.34-.35-.34a.23.23,0,0,1,0-.13.29.29,0,0,1,0-.13h.23l2-9.89,2,9.88h.23a.42.42,0,0,1,0,.13.32.32,0,0,1,0,.13s-.3.13-.34.33v8h1v2.1h-.15l-.55,1.26v7.41h.7v2.1h-.15l-.55,1.26v7.27h.7v2.11h-.16l-.55,1.26v.79h-.23a3.31,3.31,0,0,0-2.89,2l-.07.17v2.8l-1.18.41V157.5Zm82.8,13.49h-82.24v-5.13l2.06-.72v-3.24a2.2,2.2,0,0,1,4.16,0v-1.89l.84-.28v-.57l.81-.27h0v-.31h.3a22,22,0,0,0,5.92-2.76,16.4,16.4,0,0,1,3-1.33v-4.6a2.69,2.69,0,0,1,5.08,0v-3.09l1.78-.58v-.63l1.79-.59a24.41,24.41,0,0,1,2.93-3.68,14.18,14.18,0,0,1,4.3-2.84,23.57,23.57,0,0,1,6.84-2,1,1,0,0,1-.09-.43,1.22,1.22,0,0,1,.31-.78c.21-.24.63-.51.9-.76a.35.35,0,0,1-.18-.28.33.33,0,0,1,.09-.22c.07-.08.21-.16.27-.24a.6.6,0,0,1-.6-.56.52.52,0,0,1,.14-.34c.11-.13.36-.28.46-.41a.36.36,0,0,1-.35-.33.33.33,0,0,1,.08-.22c.09-.1.28-.2.31-.3,0,.1.23.2.31.3a.32.32,0,0,1,.08.22.36.36,0,0,1-.35.34c.1.14.34.28.45.41a.52.52,0,0,1,.14.34.59.59,0,0,1-.59.56c.07.08.2.16.27.24a.34.34,0,0,1,.08.22.33.33,0,0,1-.18.29c.26.26.69.51.9.76a1.17,1.17,0,0,1,.31.77,1.1,1.1,0,0,1-.09.43,23.54,23.54,0,0,1,6.84,2,14,14,0,0,1,4.29,2.84,23.85,23.85,0,0,1,2.94,3.68l1.79.59V145l1.78.58v3.09a2.69,2.69,0,0,1,5.08,0v4.59a17.24,17.24,0,0,1,3,1.32,21.89,21.89,0,0,0,5.92,2.77h.3v.31h0l.81.27v.57l.85.28v1.89a2.21,2.21,0,0,1,4.16,0v3.24l2.06.72Zm.57-26.22v2.1h-.17l-.54,1.26v7.27h.71v2.11h-.17l-.54,1.25v6.17l-1.18-.41v-2.8l-.07-.16a3.3,3.3,0,0,0-2.89-2h-.24v-.79l-.55-1.25h-.16v-2.1h.71v-7.27l-.55-1.26h-.16v-2.1h.71v-7.4l-.54-1.26h-.16v-2.1h1v-8c0-.2-.35-.33-.35-.33a.29.29,0,0,1,0-.14.35.35,0,0,1,0-.13h.24l2-9.88,2,9.88h.23a.29.29,0,0,1,0,.14.24.24,0,0,1,0,.13s-.3.13-.34.33v8h1v2.1h-.16l-.54,1.26v7.41Z" transform="translate(0 0)"/><path class="cls-3" d="M1078.95,160.13a6.49,6.49,0,0,0-5.59,3.13.44.44,0,1,0,.76.46,5.67,5.67,0,0,1,9.66,0,.43.43,0,0,0,.37.21.41.41,0,0,0,.23-.06.44.44,0,0,0,.15-.61,6.49,6.49,0,0,0-5.58-3.13" transform="translate(0 0)"/><path class="cls-3" d="M1080.26,166.16a.65.65,0,0,0-.65.65v2h1.3v-2a.65.65,0,0,0-.65-.65" transform="translate(0 0)"/><path class="cls-3" d="M1082.89,166.16a.65.65,0,0,0-.65.65v2h1.3v-2a.65.65,0,0,0-.65-.65" transform="translate(0 0)"/><path class="cls-3" d="M1048.68,165.11a1.13,1.13,0,0,0-1.13,1.13v2.55h2.26v-2.55a1.13,1.13,0,0,0-1.13-1.13" transform="translate(0 0)"/><path class="cls-3" d="M1045.25,146.91a.94.94,0,1,0-1.87,0v3.2h1.86Z" transform="translate(0 0)"/><path class="cls-3" d="M1035.2,146.3c-.35,0-.62.46-.62,1v2.81h1.25v-2.81c0-.56-.27-1-.62-1" transform="translate(0 0)"/><path class="cls-3" d="M1049.27,146.78a1,1,0,1,0-2.07,0v3.33h2.07Z" transform="translate(0 0)"/><path class="cls-3" d="M1041.67,150.12v-3.06a.86.86,0,1,0-1.66,0v3.07Z" transform="translate(0 0)"/><path class="cls-3" d="M1053.72,150.14v-3.47a1.14,1.14,0,0,0-2.27,0v3.47h2.27Z" transform="translate(0 0)"/><path class="cls-3" d="M1061.79,146.91a.95.95,0,1,0-1.87,0v3.2h1.87Z" transform="translate(0 0)"/><path class="cls-3" d="M1058,146.78a1,1,0,1,0-2.07,0v3.33H1058Z" transform="translate(0 0)"/><path class="cls-3" d="M1052.59,164.12a1.13,1.13,0,0,0-1.13,1.13v3.54h2.26v-3.55a1.13,1.13,0,0,0-1.13-1.13" transform="translate(0 0)"/><path class="cls-3" d="M1065.17,147.06a.86.86,0,1,0-1.66,0v3.07h1.66Z" transform="translate(0 0)"/><path class="cls-3" d="M1049.06,159.12a.87.87,0,0,0-.84.91v1.86h1.68V160a.87.87,0,0,0-.84-.91" transform="translate(0 0)"/><path class="cls-3" d="M1053.51,161.9v-2a.92.92,0,1,0-1.84,0v2h1.84Z" transform="translate(0 0)"/><path class="cls-3" d="M1043,159.38a.79.79,0,0,0-.67.88v1.64h1.34v-1.64a.79.79,0,0,0-.68-.88" transform="translate(0 0)"/><path class="cls-3" d="M1045.87,159.24a.84.84,0,0,0-.76.89v1.76h1.52v-1.76a.84.84,0,0,0-.76-.89" transform="translate(0 0)"/><path class="cls-3" d="M1040.57,159.52c-.33,0-.6.38-.6.85v1.53h1.19v-1.53c0-.47-.27-.86-.59-.86" transform="translate(0 0)"/><path class="cls-3" d="M1037.8,146.15c-.4,0-.73.47-.73,1.06v2.94h1.46V147.2c0-.58-.33-1.05-.73-1.05" transform="translate(0 0)"/><path class="cls-3" d="M807.24,238.54c-.68.23-1,1.45-1.07,2.44,0,.19,0,.43-.05.61-.1,1.76-.22,4.09-.32,5.9h2.09c.33-6.35.33-6.38.28-7.14,0-.27-.15-1.62-.93-1.81" transform="translate(0 0)"/><path class="cls-3" d="M901.5,238.23a2.53,2.53,0,0,0-2,2.54c0,.19,0,.45,0,.65.07,1.81.16,4.16.24,6.07h4.22c-.3-6.53-.3-6.56-.48-7.28a2.43,2.43,0,0,0-2-2" transform="translate(0 0)"/><rect class="cls-3" x="927.01" y="230.81" width="1.49" height="2.15"/><path class="cls-3" d="M912,238.51c-.92.21-1.05,1.89-1.07,2.41,0,.18,0,.43,0,.62.09,1.77.21,4.11.31,6h2.3c-.34-6.4-.34-6.42-.46-7.09-.18-1.08-.55-1.71-1.09-1.88" transform="translate(0 0)"/><rect class="cls-3" x="927.01" y="228.26" width="1.49" height="2.15"/><rect class="cls-3" x="930.54" y="228.26" width="1.49" height="2.15"/><rect class="cls-3" x="930.54" y="230.81" width="1.49" height="2.15"/><polygon class="cls-3" points="928.77 228.26 928.77 230.41 929.52 230.41 930.26 230.41 930.26 228.26 929.52 228.26 928.77 228.26"/><polygon class="cls-3" points="928.77 230.81 928.77 232.97 929.52 232.97 930.26 232.97 930.26 230.81 929.52 230.81 928.77 230.81"/><path class="cls-3" d="M914.86,238.66c-.56.21-.59,2-.59,2.33,0,.18,0,.42,0,.6.1,1.76.23,4.09.33,5.89h1.32c-.48-8.49-.48-8.5-1.08-8.82" transform="translate(0 0)"/><path class="cls-3" d="M842.55,238a3.23,3.23,0,0,0-3.13,2.68c0,.2,0,.47-.07.67,0,1.83-.08,4.22-.12,6.17h6.42c0,.23,0,.45,0,.7.11-7.38.11-7.38-.14-8.19a3.08,3.08,0,0,0-2.94-2" transform="translate(0 0)"/><path class="cls-3" d="M832.8,238a3,3,0,0,0-2.81,2.66c0,.19-.05.46-.08.66-.06,1.82-.13,4.2-.19,6.14h5.74c.17-6.63.16-6.68-.05-7.45a2.79,2.79,0,0,0-2.62-2" transform="translate(0 0)"/><path class="cls-3" d="M824.25,238.13a2.83,2.83,0,0,0-2.43,2.61c0,.2-.05.47-.08.66-.07,1.81-.16,4.17-.23,6.09h4.93c.22-6.58.21-6.62,0-7.4a2.46,2.46,0,0,0-2.24-2" transform="translate(0 0)"/><path class="cls-3" d="M853.23,237.92a3.38,3.38,0,0,0-3.36,2.69c0,.2,0,.48-.07.68,0,2.07,0,4.82-.07,6.89,0-.23,0-.46,0-.7h6.92c0,.24,0,.46,0,.71,0-7.42,0-7.42-.25-8.23-.18-.54-.85-1.83-3.17-2.05" transform="translate(0 0)"/><path class="cls-3" d="M875.3,237.95a3.18,3.18,0,0,0-3.17,2.67,5.15,5.15,0,0,0-.06.68c0,1.84.05,4.22.08,6.19h6.52c-.13-6.67-.14-6.72-.39-7.48a3.16,3.16,0,0,0-3-2.06" transform="translate(0 0)"/><path class="cls-3" d="M864.47,237.91c-2.4.23-3.18,1.59-3.41,2.69,0,.21,0,.49-.07.69,0,1.84,0,4.23,0,6.2h7c-.06-6.69-.07-6.74-.33-7.51-.18-.55-.87-1.84-3.18-2.07" transform="translate(0 0)"/><path class="cls-3" d="M885.24,238a2.94,2.94,0,0,0-2.85,2.63,6.74,6.74,0,0,0,0,.68c0,1.83.09,4.21.14,6.16h5.89c0,.21,0,.4,0,.63-.21-7.28-.21-7.28-.45-8.05a3,3,0,0,0-2.69-2" transform="translate(0 0)"/><path class="cls-3" d="M894,238.11a2.7,2.7,0,0,0-2.45,2.59c0,.2,0,.47,0,.67.06,1.82.14,4.19.2,6.12h5.1c-.24-6.58-.25-6.62-.46-7.36a2.69,2.69,0,0,0-2.35-2" transform="translate(0 0)"/><polygon class="cls-3" points="1051.46 186.63 1053.72 186.63 1053.72 182 1051.45 182 1051.46 186.63"/><rect class="cls-3" x="1047.55" y="189.67" width="2.26" height="4.63"/><rect class="cls-3" x="1051.45" y="189.67" width="2.27" height="4.63"/><rect class="cls-3" x="1047.54" y="182" width="2.26" height="4.63"/><path class="cls-3" d="M817.08,238.25c-1.08.2-1.76,1.06-2,2.57,0,.19,0,.45-.07.64-.08,1.79-.19,4.15-.27,6h4c.27-6.51.27-6.55.13-7.32a2.19,2.19,0,0,0-1.82-1.92" transform="translate(0 0)"/><path class="cls-3" d="M1048.68,174a1.12,1.12,0,0,0-1.13,1.13V179h2.26v-3.79a1.12,1.12,0,0,0-1.12-1.13" transform="translate(0 0)"/><path class="cls-3" d="M1052.59,174a1.13,1.13,0,0,0-1.13,1.13V179h2.27v-3.8a1.13,1.13,0,0,0-1.13-1.12" transform="translate(0 0)"/><path class="cls-3" d="M500.92,136.68v5.14h3.51v-5.14a3.51,3.51,0,0,0-3.51,0" transform="translate(0 0)"/><rect class="cls-3" x="1055.37" y="189.67" width="2.26" height="4.63"/><rect class="cls-3" x="1027.82" y="183.19" width="4.63" height="2.26" transform="translate(844.45 1214.21) rotate(-89.92)"/><rect class="cls-3" x="1025.09" y="182" width="2.26" height="4.63"/><path class="cls-3" d="M1030.14,175.55a1.14,1.14,0,0,0-1.13,1.13V179h2.26v-2.28a1.13,1.13,0,0,0-1.13-1.13" transform="translate(0 0)"/><path class="cls-3" d="M1023.45,176.68a1.13,1.13,0,1,0-2.26,0V179h2.26Z" transform="translate(0 0)"/><rect class="cls-3" x="1021.19" y="182" width="2.26" height="4.63"/><rect class="cls-3" x="1025.09" y="189.67" width="2.26" height="4.63"/><path class="cls-3" d="M1026.23,174a1.14,1.14,0,0,0-1.13,1.13V179h2.26v-3.8a1.14,1.14,0,0,0-1.13-1.13" transform="translate(0 0)"/><path class="cls-3" d="M993.17,202.22V206h2.6v-3.81a2.6,2.6,0,0,0-2.6,0" transform="translate(0 0)"/><rect class="cls-3" x="1029.01" y="189.67" width="2.26" height="4.63"/><rect class="cls-3" x="1021.19" y="189.67" width="2.26" height="4.63"/><path class="cls-3" d="M629.63,107.77l-.56,49.12h4c.08-22.85.78-41.32.78-41.32s.59,18.47.52,41.32h5c-.32-17.45-.45-33.17-.49-44.37a43.26,43.26,0,0,0-9.17-4.75" transform="translate(0 0)"/><path class="cls-3" d="M691.44,47.42a5.39,5.39,0,0,0,2.86-.79c.3-.26.55-.5.78-.68,1.41-1.13.29-2.1-1-2.1l-3.25,0a2.66,2.66,0,0,1-.85.6,4.07,4.07,0,0,1-1.25.28,9,9,0,0,1-2-.13c-.55-.07-1-.17-1.29-.18s-.44.1-.42.11.06-.21.4-.28a8.55,8.55,0,0,1,1.33-.19,14.88,14.88,0,0,0,1.86-.24,3.68,3.68,0,0,0,1.12-.43c.66-.66.57-1.23.1-1.23-1.7,0-3.44-.07-4.48-.07-1.77,0-3.25,1.37-4.69,2.14h0a5.55,5.55,0,0,0-1.73,3.23c3,.16,10.8.09,12.56-.06" transform="translate(0 0)"/><path class="cls-3" d="M605.48,56.37c1.43.62,2.92,1.23,4.49,1.78a26,26,0,0,0,4.12,1.11l0-.17a5,5,0,0,1,.08-.91c.54-3.85-1.92-7.09-6.75-10.24l.26.15c-1.59-1-3.24-2.18-5-3.39l-5.26,0c.49.52,1,1,1.56,1.49.92.82,1.85,1.61,2.74,2.34,1.79,1.46,3.44,2.76,4.82,3.85l.17.13,4.4,3.29A38.62,38.62,0,0,1,606,53.29c-1.55-.87-3.37-2-5.32-3.28-1-.67-2-1.4-3-2.22a15.36,15.36,0,0,1-3-3l.09-.06-10.06,0,.35.22c3,2.87,7.22,7.53,8.4,11.61l5.64-.26c-.86-.7-1.67-1.4-2.37-2.07A29.47,29.47,0,0,1,591.69,48a52.37,52.37,0,0,0,6.4,4.51,69.18,69.18,0,0,0,7.4,3.82" transform="translate(0 0)"/><path class="cls-3" d="M811.38,238.39c-.81.19-1.33,1-1.54,2.5,0,.19,0,.44-.06.63-.08,1.78-.21,4.12-.3,6h3.07c.3-6.44.3-6.47.22-7.24-.06-.49-.32-1.68-1.39-1.86" transform="translate(0 0)"/><path class="cls-3" d="M657.54,43.53a47.74,47.74,0,0,0-12.5-1.6c-3,0-4.88,0-5.77,0H639l.42,13.38.5,20.5.41,24.89,2.89,1.18c-1.24-31.1-1.71-56.18-1.71-56.18S643,71,644.29,102.3l5.37,2.18L648.15,64l-.08-1.15h0c-.68-10.08-.66-18.13-.66-18.13s.53,3.5,1.1,8.77a28,28,0,0,0,4.35-3,24.85,24.85,0,0,0,2-1.85,9.84,9.84,0,0,1-1.18,2.56,12.7,12.7,0,0,1-4.39,4.32,19.05,19.05,0,0,0,8.25-4.37A27.26,27.26,0,0,0,660.72,48a14.12,14.12,0,0,1-1.93,4.25,16,16,0,0,1-3.45,3.88,14,14,0,0,1-2.72,1.72,31.22,31.22,0,0,0,10.91-6.1,53.88,53.88,0,0,0,4.64-4.5,25.08,25.08,0,0,1-3,5.95,24.56,24.56,0,0,1-2.86,3.43l8,.13c1.11-4.12,5.37-8.87,8.45-11.77l.35-.22v0l-.12,0-18.21-.08v0c-2.8.06-5.35.06-7.19.14a17.5,17.5,0,0,0-3,.29,11.44,11.44,0,0,1,2.89-1,34.65,34.65,0,0,1,4.07-.63" transform="translate(0 0)"/><path class="cls-3" d="M578.43,44.43c-.3,0-.74.1-1.29.18a9.09,9.09,0,0,1-2,.13,4.16,4.16,0,0,1-1.26-.28,2.55,2.55,0,0,1-.84-.6l-3.38,0c-1.06,0-2,.64-1.56,1.47a5.11,5.11,0,0,0,4.29,2.11c1.75.14,9.59.21,12.55.06a5.54,5.54,0,0,0-1.7-3.2c-1.32-.76-2.62-2.17-4.83-2.17-1,0-2.78.07-4.48.07-.37,0-.51.33-.26.79a2.47,2.47,0,0,0,1.59.86,14.87,14.87,0,0,0,1.86.24,8.63,8.63,0,0,1,1.32.19c.35.07.42.27.41.27s-.12-.15-.43-.1" transform="translate(0 0)"/><path class="cls-3" d="M641,103.23l-1.9-.78-.29-.12-.58-.24v-14l.06-12.27.08-7.78c0,.14,0,.28,0,.42,0-6.22-1.09-9.71-5.49-9.49l.12,0c-.21,0-.41,0-.63,0a19.9,19.9,0,0,1-5.35-.82l-.4,11a17.8,17.8,0,0,0,2.17,6.7,48,48,0,0,0,3.59,5.72,55.41,55.41,0,0,0,4,4.91,36.89,36.89,0,0,1-4.63-4.36,36.12,36.12,0,0,1-4.2-5.55c-.37-.64-.75-1.32-1.09-2l-.07,2a35.73,35.73,0,0,0,2,11,78,78,0,0,0,3.49,8.77,81.38,81.38,0,0,0,4.08,7.77,54.12,54.12,0,0,1-5-7.27,62.81,62.81,0,0,1-2.93-5.6l-.17-.35-.15-.33q-.51-1.15-1-2.39c-.21-.58-.43-1.18-.63-1.79l-.59,15.87c-1-.34-1.87-.67-2.65-1l-.23-.1-.24-.1c-5-2.11-5.35-3.64-5.57-4.82-1-5.21,5.55-8.37,5.61-8.4l1-.46h0l.08,0,1.79-29.69c-.43-.15-.87-.31-1.31-.49,0,0-3,30-3.2,30.1-2.1,1.35-6.47,4.77-5.49,9.39a7,7,0,0,0,2.06,3.35l0,0a28.49,28.49,0,0,0,4.9,2.37l.25.11.26.1,1.41.59,1.25.53,1.39.58.57.25.14.06.44.19c3.57,1.53,7.44,3.27,10.94,5.21l.55.32c.61.34,1.21.69,1.79,1Z" transform="translate(0 0)"/><path class="cls-3" d="M549.92,151.55v3.81h4.19v-3.81a4.21,4.21,0,0,0-4.19,0" transform="translate(0 0)"/><rect class="cls-3" x="1055.37" y="182" width="2.26" height="4.63"/><rect class="cls-3" x="578.87" y="155.75" width="4.19" height="4.19"/><path class="cls-3" d="M578.87,151.55v3.81h4.19v-3.81a4.21,4.21,0,0,0-4.19,0" transform="translate(0 0)"/><path class="cls-3" d="M621.85,106.09c-.92,12.75-2.15,30.78-3.34,50.8h1.31c1.18-20,2.07-38,2.65-50.78h-.62" transform="translate(0 0)"/><path class="cls-3" d="M626.52,106.79c-.76,12.8-1.69,30.51-2.35,50.11h2.61c.66-19.4.93-37,1-49.74l-.64-.19-.65-.18" transform="translate(0 0)"/><path class="cls-3" d="M620.4,58.94l-1.81-.28c-2.07,13.05-2.83,23.77-2.83,23.77S618.34,72,620.4,58.94" transform="translate(0 0)"/><path class="cls-3" d="M747.86,220.84V227H752v-6.14a4.2,4.2,0,0,0-4.18,0" transform="translate(0 0)"/><rect class="cls-3" x="773.83" y="205.85" width="0.78" height="0.95"/><rect class="cls-3" x="768" y="205.85" width="0.79" height="0.95"/><path class="cls-3" d="M804.67,238.69c-.1.07-.43.27-.6,2.37,0,.18,0,.42,0,.59-.1,1.78-.24,4.15-.34,5.94v-.11h1.11c.46-8.35.46-8.52-.14-8.79" transform="translate(0 0)"/><rect class="cls-3" x="549.92" y="155.75" width="4.19" height="4.19"/><polygon class="cls-3" points="643.04 110.4 648.85 106.78 642.92 104.47 643.04 110.4"/><path class="cls-3" d="M674.36,140c-.37,0-.66.5-.66,1.11v3.32H675v-3.32c0-.61-.3-1.11-.66-1.11" transform="translate(0 0)"/><path class="cls-3" d="M639.43,113c.38,11.17.84,26.71,1.17,43.92h4c-.48-15.42-.71-29.51-.81-40.31a37,37,0,0,0-4.39-3.61" transform="translate(0 0)"/><path class="cls-3" d="M644.77,111.43l-1,.62-.71.44.71.5c.38.27.76.55,1.11.84,2.72,2.13,4.68,4.44,5.32,6.89l0,0-.46-12.43Z" transform="translate(0 0)"/><path class="cls-3" d="M645.14,117.95c.56,10.61,1.2,24.16,1.67,38.95h2.11l-1.66-36.22a22.81,22.81,0,0,0-2.13-2.73" transform="translate(0 0)"/><path class="cls-3" d="M667.17,140a1.11,1.11,0,0,0-1.11,1.11v3.32h2.22v-3.32a1.11,1.11,0,0,0-1.11-1.11" transform="translate(0 0)"/><path class="cls-3" d="M638.4,55.92l.05.09v-.73l.21-11.9a12.59,12.59,0,0,1-.65,1.72,10.92,10.92,0,0,1-1.7,2.62A5.53,5.53,0,0,1,634.66,49a2.28,2.28,0,0,1-.74.22,4.58,4.58,0,0,0,1.49-2.12,18.08,18.08,0,0,0,.88-2.65,17.22,17.22,0,0,0,.49-2.56V40.11c-.08-2.68-1-2.72-2.22-3,1.15-.34,2-1.26,2.25-3.18V32.7c.64-6.4-2.77-8.32-5-8.32A4.25,4.25,0,0,0,629,25.49h0c-.74.66-1.19,2.82-.29,2.55s2.55-.63,2.56.18,0,2.55,0,3,.85,0,1.18.41-.62.36-.63,1.07c.92.22,2.07,1,2.07,2a2.64,2.64,0,0,0-3.11-.6c-1.16.64-1,2.54.17,2.3,1.87-.37,2.09.67,3.37.83-.78.33-5.41,1.65-2.46,5.86a16.35,16.35,0,0,0-4.18-.92l-3.18-.19c-.86,0-2.8,0-5.82,0a50.46,50.46,0,0,0-6.78.45c-4.17,1-2.91,4.84.62,7.17l-.11-.05c12.94,8.07,20.39,9.79,26,6.42m-5.48-25.59a1.36,1.36,0,0,1,.21-2.27,2,2,0,0,1,2.4.84c-1.09-.34-1.63,0-1.51.47s1.53.18,1.77.89c-.78-.11-2,.52-2.87.08m-3.91,20a5,5,0,0,1-1.06.14,6.51,6.51,0,0,1-1.13-.07A14.76,14.76,0,0,1,621,47.8c-2-1.38-3.65-2.76-5-3.53a5.64,5.64,0,0,0-2.34-.87,3.38,3.38,0,0,1,1.09-.16,5.67,5.67,0,0,1,1.58.22,19.88,19.88,0,0,1,5.62,2.9,36.6,36.6,0,0,0,5.09,3.2,6.55,6.55,0,0,0,2.43.63s-.17.06-.47.14" transform="translate(0 0)"/></g></g></g></svg>