<svg xmlns="http://www.w3.org/2000/svg" xmlns:xlink="http://www.w3.org/1999/xlink" viewBox="0 0 1258.67 387.08"><defs><style>.cls-1{fill:none;}.cls-2{fill:#fff;}.cls-3{clip-path:url(#clip-path);}</style><clipPath id="clip-path" transform="translate(0 0)"><rect class="cls-1" width="1258.67" height="387.08"/></clipPath></defs><title>team_bottom</title><g id="Слой_2" data-name="Слой 2"><g id="Слой_1-2" data-name="Слой 1"><path class="cls-2" d="M1180.06,173.9V134h-39.9v39.9h39.9Zm-6.29-6.3h-27.33V140.28h27.32Z" transform="translate(0 0)"/><g class="cls-3"><path class="cls-2" d="M842.11,336v50.78h416.55V337.91h-2.36v-7.58h2.36v-7.57h-2.36v-7.57h2.36v-7.58h-2.36V300h2.36v-7.58h-2.36v-7.58h2.36v-7.58h-2.36v-7.57h2.36v-7.57h-2.36v-7.59h2.36V247h-2.36v-7.58h2.36v-7.57H1247v-9.93h-1.31v9.93h-1.34v-9.93h-7V209a7.81,7.81,0,0,0-5.82-7.55v-2.57h-9.71v-3.67c3-3.29,3.52-7.75,2.88-8.4s-3.92,1.46-7.25,4.78a31,31,0,0,0-4,4.83v-1.21c3-3.29,3.53-7.75,2.88-8.4s-3.92,1.46-7.25,4.78-5.46,6.56-4.77,7.24a.13.13,0,0,0,.07,0h-3.85v-5.55h-4.68v5.55h-1.31V186.62h-1.31v12.26h-12.95v33h-3.5v-56.6h-33.31v85.69l-8.36-5.44-5.08,3.3V247h.9l.79-1.43v-.6h.43l.29-.9a31.4,31.4,0,0,0-8.49-4.56v-6.52h-.21v-.85h.21v-.81h-.24V231h-2.54v.25h-.28v.81h.21v.85h-.21v3.37a43.73,43.73,0,0,0-9.42-1.36v-1.78h-.85a.35.35,0,0,0,.07-.2c0-.18-.16-.34-.4-.44a3.72,3.72,0,0,0,1.85-3c0-.68-.76-1.25-1.79-1.4a.2.2,0,0,0,0-.11.26.26,0,0,0-.08-.18.49.49,0,0,0,.33-.41c0-.42-.85-1.14-.85-1.14s-.85.75-.85,1.14a.5.5,0,0,0,.33.41.25.25,0,0,0-.09.18.26.26,0,0,0,0,.11c-1,.15-1.78.72-1.78,1.4a3.73,3.73,0,0,0,1.85,3c-.24.1-.39.26-.39.44a.36.36,0,0,0,.07.2h-.85V235a43.72,43.72,0,0,0-9.42,1.36v-3.23h-.21v-.85h.21v-.81h-.25v-.25h-2.54v.25h-.28v.81h.21v.85h-.21v6.38a31.37,31.37,0,0,0-8.49,4.56l.29.9h.42v.6l.79,1.43h.9v8.18h-3.28v-.87h1.3l.39-.36-7-8.76h-19l-7,8.76.39.36h1.3V257l-11.59,4.22.28.37h4.12v7.84l-.33-.32h-17.12l-2.13,2v-2.5h-.19v-.77h.19v-.74h-.22v-.23h-2.31v.23H1027v.74h.19v.77H1027v3.53h-12l-5.4,5.13h-4.78l-1.45-1.26H992l1,1.39h-3.31v3.73l1.22,1.36.62.69.62.69,1.59,1.78,2.08,2.3h-4.07v8.35h-2V305h-1.38V295h2v-8.35h2.34l-2.42-2.7-.62-.69-.62-.69-.74-.82v-5.64h2l-.5-.69-.5-.69-1-1.33V258.49h2l-.07-.1-.14-.2-.69-1-.69-1-.37-.56c0-.24,0-.48,0-.7a6.77,6.77,0,0,0-.33-1.66c-.3-.85-.74-1.41-1.24-1.41h-1.4v-9.28h2.91v-2.27h-1.25a8.09,8.09,0,0,0,2.92-6.06c0-4.1-3.41-6.88-6.42-9.28s-3.86-5.48-3.86-9.24a1,1,0,0,0-.4-.91V212a1.41,1.41,0,0,0,0-2.69v-3h2v-.88h-2v-1.1h1.18v-.87h-1.18v-1.41h-.87v1.42h-1.17v.87h1.17v1.1h-2v.88h2v3a1.42,1.42,0,0,0-1,1.35,1.4,1.4,0,0,0,1,1.34v2.72a1,1,0,0,0-.39.91c0,3.76-.87,6.84-3.87,9.23l-.79.64c-2.77,2.25-5.62,4.92-5.62,8.64a8.09,8.09,0,0,0,2.93,6.07h-1.26v2.27h2.9v9.28H970.8c-.89,0-1.6,1.69-1.6,3.78l-1.84,2.95h1.87v14.88l-.91,1.33-.48.69-.48.69h1.86v5.64l-4.29,4.9h2.24V295h2.08V305H967.9v-8.68H965.8V288h-3.9l.05-.06.68-.77,1.28-1.46,4-4.51v-3.74h-3.11l.52-.76.43-.62h-23v1.31l1.1,2L947,285l1.33,1.57.59.69.37.43.22.26,1.72,2H948.6v2.85h.74v4.86h-.74V300h-1.37v-3.71H948v-2.1h-.73v-5.61h1l-.55-.63-.59-.69-.58-.69-.66-.78-3.13-5.57-.05-.1L942,279l-.69-1.23-3-5.27-.24-.42-.54,1-.83,1.47L934,279.36l-.38.69-.4.69-2.82,5-2.38,2.79h1v5.61h-.67v2.1h.67V300h-1.38v-2.33H927V292.8h.67V290h-2.61l1.94-2.28L929.3,285l2.38-4.25H919.47l-7.21,5.55h2.38V300h-.13l-7.13,6.14H898.1l-1.79,10.41v.25a.86.86,0,0,1,.4.32v.69h.05a.86.86,0,0,1,.4.31h1.16V321l-8.42-3v-2.48h-1.66c0-1.13-2-2.05-4.5-2.05s-4.49.92-4.49,2.05h-1.66V318l-14.42,5.18.8,1v1.25l2.1-.75v5l-5.74-2.34v-12l2.25-.87L862,313l.45-.17-.13-.33-20.17,7.83V336Zm389.43-133a6.33,6.33,0,0,1,4.34,6v12.93h-4.34Zm-79.65-.83h-2.42V178.38a1.21,1.21,0,1,1,2.41,0Zm4.71,0h-2.41v-23.8a1.21,1.21,0,1,1,2.41,0Zm4.71,0h-2.42v-23.8a1.21,1.21,0,1,1,2.42,0Zm4.7,0h-2.42V178.37a1.2,1.2,0,0,1,1.2-1.21,1.21,1.21,0,0,1,1.21,1.21Zm4.7,0h-2.42V178.37a1.21,1.21,0,1,1,2.41,0ZM1146,265.9a.39.39,0,0,1,.4-.4h27.5a.41.41,0,0,1,0,.82h-27.51a.4.4,0,0,1-.4-.42m22.36-2.81V239.28a1.21,1.21,0,0,1,2.41-.09s0,.06,0,.09v23.8Zm-4.71-4.76v-19a1.22,1.22,0,0,1,.35-.86,1.19,1.19,0,0,1,.55-.31l.06,0h0l.21,0,.18,0a1.2,1.2,0,0,1,.86.59,1.18,1.18,0,0,1,.17.61v23.81h-2.42Zm-2.29,4.76h-2.42V239.28a1.19,1.19,0,0,1,.4-.89,1.16,1.16,0,0,1,.36-.23,1.21,1.21,0,0,1,1.66,1.13v23.8Zm-4.71,0h-2.41V239.28a1.21,1.21,0,0,1,.53-1,1.16,1.16,0,0,1,.46-.19l.22,0a1.24,1.24,0,0,1,1.21,1.21v23.8Zm-7.12-23.8h0a1.22,1.22,0,0,1,1.21-1.21,1.2,1.2,0,0,1,1.15.88.59.59,0,0,1,0,.09v0a1.16,1.16,0,0,1,0,.21v23.81h-2.42Zm-3.53-4a.39.39,0,0,1,.4-.4h27.5a.41.41,0,1,1,0,.82h-27.5a.4.4,0,0,1-.4-.42M1168.31,209v-.33a1.21,1.21,0,1,1,2.41,0V209h0v23.81h-2.42v-.35h0V209m-4.71,0v-.3a1.19,1.19,0,0,1,1.2-1.21,1.21,1.21,0,0,1,1.21,1.21v24.16h-2.42v-.35h0V209a.44.44,0,0,1,0,0m-4.71,0h0v-.34a1.21,1.21,0,1,1,2.42,0v23.81h0v.36h-2.42Zm-4.7,0v-.3a1.21,1.21,0,1,1,2.41,0v23.8h0v.35h-2.41V209s0,0,0-.05m-4.71,23.86v-.35h0V208.66a1.21,1.21,0,1,1,2.41,0v24.16ZM1146,205a.39.39,0,0,1,.4-.4h27.5a.41.41,0,1,1,0,.82h-27.5a.4.4,0,0,1-.4-.42m-35.28,53.93h-1.58v-2.63l.8,0,.78,0Zm1.81,0h-1.58V256.3a7.45,7.45,0,0,1,1.58.29Zm9.29,0h-1.58v-2.63l.8,0,.78,0Zm1.81,0H1122V256.3a7.42,7.42,0,0,1,1.58.29Zm-5.2.31h5.2v7.86h-5.2Zm0-2.62a7.26,7.26,0,0,1,1.58-.3v2.62h-1.58Zm-11.1,2.62h5.19v7.86h-5.19Zm0-2.62a7.19,7.19,0,0,1,1.58-.3v2.62h-1.58Zm-46.09,10a3.25,3.25,0,0,1,3.23,0v7h-3.23Zm0-14.6a3.25,3.25,0,0,1,3.23,0v4.75h-3.23Zm-33.06,15.86h.43v.77h-.43ZM997.23,284s0-.06,0-.09,0-.08,0-.12l.45.66h.51v2.34h-1Zm-17.59-33.78h-1.78v-6.93h1.78Zm3.1,40.54v-2.16a1.46,1.46,0,0,1,1.46-1.46,1.54,1.54,0,0,1,.55.11,1.41,1.41,0,0,1,.69.63,1.43,1.43,0,0,1,.21.72v2.16h-2.9Zm-1.89-24.66h1.78V273h-1.77Zm-3.56,22.51a1.46,1.46,0,0,1,2.91,0v2.16h-2.91Zm-2.44-22.5h1.78V273h-1.78Zm-3,22.5a1.45,1.45,0,0,1,2.91,0v2.16h-2.91Zm-16.22,0a1.48,1.48,0,0,1,1-1.36,1.53,1.53,0,0,1,.43-.09,1.83,1.83,0,0,1,.44.09,1.43,1.43,0,0,1,.83.69,1.49,1.49,0,0,1,.19.67v2.16h-2.91Zm-36.73,7.06h1.78V300H918.9Zm-.4-7.05a1.45,1.45,0,0,1,2.91,0v2.17h-2.91Zm-34.34,41.9h2.05V340h-2.05Zm-2.9,0h2.05V340h-2.05ZM857.9,321h1.46v1.46H857.9Zm0-1.73h1.46v1.46H857.9ZM856.17,321h1.46v1.46h-1.46Zm0-1.73h1.46v1.46h-1.46Z" transform="translate(0 0)"/><path class="cls-2" d="M1004.24,275l1.48,1.28v-2.61c0-3-1.26-5.39-2.81-5.39,0-2.32-1-4.2-2.19-4.2h0v-5.7h1.46V256.5h-1a4.77,4.77,0,0,0,1.79-3.6c0-2.43-2.1-4.1-3.93-5.51a6.29,6.29,0,0,1-2.37-5.48.71.71,0,0,0-.11-.42v-3.55a1.18,1.18,0,0,0,0-2.25v-3.74h1.68v-.72H996.5v-.92h1v-.73h-1v-1.18h-.72v1.19h-1v.73h1v.92H994.1v.73h1.68v3.74a1.17,1.17,0,0,0,0,2.24v3.49a.65.65,0,0,0-.17.48,6.36,6.36,0,0,1-2.2,5.33l-.18.15c-1.84,1.42-3.93,3.08-3.93,5.5a7.41,7.41,0,0,1,.32,1.61,5.28,5.28,0,0,0,1.48,2h-.5l.81,1.23,1.41,2.14h-1.28v4.22h0c-.8,0-1.49.83-1.88,2.07v6.75l1.29,1.77h12.9ZM997,259.36v4.31h-1.8v-4.31Z" transform="translate(0 0)"/><path class="cls-2" d="M965.47,190.67V182h1.69v-1.66h-1.34a3.85,3.85,0,0,0,1.2-2.76c0-1.85-1.4-3.12-2.63-4.21a4.8,4.8,0,0,1-1.56-3.5v-3.25a1.18,1.18,0,0,0,.83-1.13,1.2,1.2,0,0,0-.83-1.12v-2.5h1.68v-.73h-1.68v-.92h1v-.73h-1v-1.19h-.73v1.19h-1v.72h1v.92h-1.68v.73h1.68v2.5a1.19,1.19,0,0,0-.82,1.13,1.17,1.17,0,0,0,.82,1.13v3.24a4.8,4.8,0,0,1-1.56,3.51c-1.22,1.08-2.62,2.36-2.62,4.21a3.85,3.85,0,0,0,1.2,2.76h-1.35V182h1.7v8.63l-7.19,20.56L948,215.09h3.67v9.14h.74v1.64h.69v3.49h-1.68v1.53a2.56,2.56,0,0,1,0,3.76v1a2.31,2.31,0,0,1,.23,1c0,2.55.66,4.08,2.25,5.3,2.19,1.68,5.18,4,5.19,7.53a6.49,6.49,0,0,1-1,3.4v4.23h-1.63v4.49c1.49.78,2.56,2.84,2.8,5.48,1.91.89,3.2,3.78,3.32,7.55h4l1.21-1.75V259.87h-3l1.31-2.1,1.63-2.64c.11-2.81,1.3-4.75,3-4.74h0v-6.52h-2.9v-4.55a9,9,0,0,1-1.67-5.17c0-4.82,4-8,6.93-10.36l.07-.07v-8.63h3.35c0-.08,0-.18,0-.25l-4-3.6ZM967.81,220a5.56,5.56,0,0,1,.9-3.24,5.64,5.64,0,0,1,.89,3.24v4.27h-1.78ZM957,220v4.23H955.2V220a1.74,1.74,0,1,1,1.78,0m5.41,43.54a.94.94,0,1,1,1.88,0v4.83h-1.89ZM964,250.71h-1.47v-8H964Zm.34-26.36h-3.57V220a2.11,2.11,0,1,1,3.57,0Z" transform="translate(0 0)"/><path class="cls-2" d="M943,233c0-3.53-3-5.95-5.6-8s-3.38-4.73-3.38-8a.94.94,0,0,0-.29-.74V214a1.41,1.41,0,0,0,0-2.69v-3h2v-.87h-2v-1.1H935v-.88h-1.18v-1.41h-.86v1.42h-1.18v.87h1.18v1.1h-2v.87h2v3a1.41,1.41,0,0,0,0,2.68v2.21a.93.93,0,0,0-.3.74c0,3.25-.75,5.91-3.37,8s-5.6,4.49-5.6,8a7,7,0,0,0,2.56,5.24h-1.61v2.24h2.36v9.36h-1.06c-.57,0-1,1.52-1,3.41h-.5c-1,0-1.83,1.92-1.83,4.28l1.51,4.65v15.1l-1.83,2.11h10.26l4.48-8,.66-1.18a5.4,5.4,0,0,1,2.49-3.06c.23-2.59,1.27-4.62,2.73-5.43l.08-.28v-4.25h-1.66v-4.24a6.43,6.43,0,0,1-1-3.14h-.52v-9.36h2.35v-2.23h-1.6A7,7,0,0,0,943,233M931.2,269.31h-1.86v-6.77h1.86Zm2.91-20.23h-1.64v-5.94h1.63Zm3.1,13.46v6.77h-1.86v-6.78h1.87Z" transform="translate(0 0)"/><path class="cls-2" d="M949.32,228v3.68a1.18,1.18,0,0,0,0,2.25v2.21a.74.74,0,0,0-.24.6c0,2.61-.64,4.74-2.8,6.41s-4.64,3.59-4.64,6.42a5.52,5.52,0,0,0,2.12,4.2h-1.14v2h1.66v6.89h0a2.07,2.07,0,0,0-1.6,1,7.93,7.93,0,0,0-1.25,4.59h0c-1,0-1.84.93-2.44,2.39l.42.75,2,3.55v-.23h19.9c-.13-3.61-1.53-6.46-3.23-6.46h-.06c0-3.06-1.28-5.55-2.84-5.55v-6.89h1.63v-2H955.6a5.5,5.5,0,0,0,2.12-4.2c0-2.83-2.48-4.77-4.64-6.43a7,7,0,0,1-1.4-1.41,7.28,7.28,0,0,1-1.35-3.91c0-.36,0-.71,0-1.08a.73.73,0,0,0,0-.17.7.7,0,0,0-.2-.42v-2.23a1.17,1.17,0,0,0,.78-.85,1.1,1.1,0,0,0,0-.27,1,1,0,0,0,0-.27,1.18,1.18,0,0,0-.78-.85V228h1.68v-.72H950v-.93h1v-.72h-1v-1.19h-.72v1.19h-1v.72h1v.92h-1.68V228Zm1.38,28.31v4.31h-2.06V256.3Z" transform="translate(0 0)"/><path class="cls-2" d="M1176.76,132.64V119.47h-2.56a75.73,75.73,0,0,1-6.64-17.92V86.82s-2.5-6.74-4.25-13.61c-1.85-7.24-3.2-15.84-3.2-15.84s-1.36,8.6-3.21,15.84c-1.75,6.88-4.25,13.61-4.25,13.61v14.73a75.84,75.84,0,0,1-6.64,17.92h-2.56v13.17Zm-24.86-2.19h-2.42v-4.65a1.21,1.21,0,0,1,2.42,0Zm3.5-5.86a1.21,1.21,0,0,1,1.21,1.21v4.65h-2.41v-4.65a1.2,1.2,0,0,1,1.2-1.2m2-23.6h-1.94V92.87a1,1,0,1,1,1.94,0Zm3.66,0h-1.94V92.86a1,1,0,1,1,1.94,0Zm.23,29.46h-2.42v-4.65a1.21,1.21,0,0,1,2.42,0Zm3.42-29.46h-1.94V92.87a1,1,0,1,1,1.94,0Zm1.29,29.46h-2.42v-4.65a1.21,1.21,0,0,1,2.42,0Zm4.71-4.65v4.65h-2.41v-4.65a1.21,1.21,0,0,1,2.42,0" transform="translate(0 0)"/><path class="cls-2" d="M1173.09,141h-26v26h26Zm-24,24v-7.3a11.68,11.68,0,0,0,7.29,7.3Zm7.3-22.07a11.7,11.7,0,0,0-7.3,7.3v-7.3Zm3.73.75a10.28,10.28,0,1,1-10.28,10.29,10.3,10.3,0,0,1,10.28-10.29m11,6.55a11.72,11.72,0,0,0-7.29-7.3h7.29Zm0,14.76h-7.3a11.71,11.71,0,0,0,7.3-7.3Z" transform="translate(0 0)"/><path class="cls-2" d="M1166.22,154a6.12,6.12,0,0,0-5.84-6.09v-2.55h-.54v2.54a6.11,6.11,0,1,0,6.39,6.1m-.46,0a5.66,5.66,0,1,1-5.93-5.65V153a1.09,1.09,0,0,0-.38.19l-1.88-1.3.89-.63a8.21,8.21,0,0,1-2.66-.26,8.24,8.24,0,0,1,1.18,2.39l.28-1.05,1.88,1.3a.83.83,0,0,0-.07.33,1,1,0,0,0,1,1,1,1,0,0,0,.27-2v-4.67a5.66,5.66,0,0,1,5.38,5.65" transform="translate(0 0)"/><path class="cls-2" d="M1.2,150.39V338.86h536V282.1L537,282v-5.34h.62l.66-.75-3.71-10.44h-1.13v-2.37l.13-.26h.12v-.38h-.11v-.66h.11v-.38h.15v-.38h.22v-.5h-.37v-.38h-.55V258.9l-.24-.68h-.88l-.24.68v1.33h-.55v.38h-.37v.5h.22v.38h.15v.38h.11v.66h-.11v.38h.12l.13.26h0v2.37h-15v-1.19l.71-.5a1,1,0,0,1,.46-.45h.06v-.56l1,1.07.37-.45-14.85-15.64-.4-.42-.4.42-14.83,15.62.35.47,1-1.07v.56h.06a1,1,0,0,1,.46.45l.71.5v4.5h-9.87v-3l.14-.26h.12v-.38h-.11v-.65h.11v-.38h.15v-.38H482v-.5h-.37v-.37h-.55v-1.32l-.24-.68h-.88l-.24.68v1.32h-.55v.38h-.67v-.37h-.55v-1.32l-.24-.68h-.88l-.24.68v1.32H476v.38h-.37v.5h.22v.38H476v.38h.11v.65H476v.38h.12l.14.26v2.49l-7.81-1.95v-3.15l-1.15-1.41h-.92v-1h-3.1a235.78,235.78,0,0,1-14.39-31.32v-3.62h.29v-.51H408v.51h.3v3.61A236.2,236.2,0,0,1,394,260.65H369.47V257h.3l.47-.18-.47-2h-3.39l-.47,2,.47.18h.3v3.62H359.8v-1.41h.31v-1.12h.2v-.58l.42-.31v-.31H359V242.28l1.2-.17.56-.84-8.88-10.15h-9.63l-5.45-9.76h-3.51L332,223.56h-28v-30l.36-.51h.66v-.51h-.66l-6.78-13.64a1.52,1.52,0,0,0-.26-3v-2.83h1.42v-.35h-1.42v-1.84h-.35v1.84h-1.42v.35h1.42V176a1.52,1.52,0,0,0-.24,3L290,192.56h-.66v.51H290l.35.51h-.07v30.12H273.66V209.92h-2.58v-7.55h.21v-.44h-.21V200h.21v-.44h.2v-.44h.2v-.44h.21v-.88h-.21v-.44h-.2v-.44h-.2v-1.4H268v1.4h-.2v.44h-.21v.44h-.2v.88h.2v.44h.21v.44h.2V200h.21v1.9H268v.44h.21v7.55H257.73l-5.44-8.07-5.44,8.07h-7.94l-1.76-2.61V197.23h.21v-.44h-.21v-1.9h.21v-.44h.21V194h.21v-.44H238v-.89h-.21v-.44h-.21v-.44h-.21v-1.4h-3.25v1.4h-.21v.44h-.21v.44h-.41v-.44h-.21v-.44h-.21v-1.4h-3.26v1.4h-.21v.44h-.21v.44H229v.89h.21V194h.21v.45h.21v.44h.2v1.9h-.2v.44h.2v10L228,209.92H220.1l-5.44-8.07L209,210.29V186h-2.73v-6.83h-1.43v-2.25l-2.62-3.52.17-2.43-1.85-2.65,1.19-3.44-2.25-2.77,1.46-9.4-2.25-8.33,1.19-2.52-2-6.57-.18-9.79s1.59-4.32,2.12-6a5.64,5.64,0,0,0-.09-4.32c-.62-1.32-2.25-4.67-2.25-4.67s2.38-3.57,3.31-5.16a7.46,7.46,0,0,0,.13-6.08c-.79-1.72-2.91-6.61-2.91-6.61l3.44-8.2-1.59-2.12,1.32-2.26-1.72-1.85L203.34,74l-1.63-3.1c4.23-.6,4.56-5.6,3.11-9.13A51.85,51.85,0,0,0,201,55a5.77,5.77,0,0,0,.53-1.52c.21-1-.4-2,0-3.44a20.67,20.67,0,0,0,1-5c0-1.85,0-9.22-.19-12.11a1.29,1.29,0,0,1,0-.15c.85-.26,1.46-.81,1.45-1.46s-.52-1.12-1.29-1.4a2.11,2.11,0,0,0,0-.23,12.78,12.78,0,0,0,2-2.56c.59-1,.37-1.35-.49-2.2,1.32-.86,1.19-1.59.21-2.38,1.16-.52,1-1.43.68-1.81a10.4,10.4,0,0,0-1-1c.83-.39,1.36-.94,1.33-1.53a1.17,1.17,0,0,0-.42-.82c1.68-.51,2.76-1.25,2.73-2a1.31,1.31,0,0,0-.7-1V12.67l1.85-2-2.39.6.06-1.59-1.58,1-.33-1.59-1.52,1.59-.4-.6c2.38-2.57,1.85-3.37.4-5.22l1.06-2.65-2.38,1.13L198.94,0l-.27,3.18L195.83,0l1.05,4.2-1.85,1,3.31,4.5-1.72-.46-.07,1.52L194.77,10l.13,1.45-1.92-.2,1.19,2v1.74a1.3,1.3,0,0,0-.57,1c0,.9,1.53,1.62,3.69,1.93a1.13,1.13,0,0,0-.22.67,1.5,1.5,0,0,0,.88,1.14l-1.47,1.51s-.72,1.86-.86,2.25a10.09,10.09,0,0,0,0,2.84c.14.93,1.06,3.84,1.06,3.84a25.48,25.48,0,0,1-.47,5.75c-.59,2.58-2.48,11.52-2.77,12.77-.08.33-.15.65-.2.94l-6,.41a7.44,7.44,0,0,0-1-1.06l5.4-7.21-7.57,5.93A9.32,9.32,0,0,0,181.4,47l-1.25-9-1.26,9.07a8.29,8.29,0,0,0-2.4.79l-7.92-6,5.84,7.57a6.69,6.69,0,0,0-.58.69l-9.78-1.32,8.69,3.65a5.53,5.53,0,0,0-.15,1l-9.4,1.6,9.62.7a7.23,7.23,0,0,0,.39,1.14c.15.36-.24.72-.6,1.15-.59.71,0,1.46.84,1.85a26.41,26.41,0,0,1-1.8,4.72c-.35.75.56,1.5,1.45,2.21-.28,1.15-.8,3.74-1,4.68l-5.1,3a2.85,2.85,0,0,0-1.5,2.39s-1.23,6.17-1.41,7.05a28.43,28.43,0,0,1-2.46,4.32,2.1,2.1,0,0,0-2.19,1.28l-2.77-4.84a1.19,1.19,0,0,0-1.56-.49l-9.79,4.7a1.2,1.2,0,0,0-.51,1.7L147,94.19c-.73.93-1.57,2-1.69,2.11a1.61,1.61,0,0,0,.15,1.62c.33.39,4.62,5.82,5.15,6.48s2.19,1,4.18,1.21v2.18c.28,6.89,1.76,9.5,3.88,10.29-.58,5.92-2.38,20.21-2.38,20.21a14.51,14.51,0,0,0,3.44,4.41l-1.15,15a11.79,11.79,0,0,0,3.18,2.82l-1.43,16.4h0l0,2.25h-2.17V186h-2.85v18.23l-5.38-4.4v-3.94h.07v-.13h-.07v-.57h.07v-.13H150v-.13h.06v-.14h.06v-.26h-.06v-.13H150v-.13h-.06v-.42h-1v.42h-.06v.13h-.06v.13h-.06v.26h.06v.14h.06v.13H149v.13H149v.57H149v.13H149v3.25l-3.29-2.69-.48-.25-.48.25-9.66,7.9h-6.35V196.1l.77.54.52-.74-10.39-7.24H109.4v-5.51H111l.48-.44-8.6-10.7H86v-2.38H85.8v-.75H86v-.56h-.23v-.17H83.44v.17h-.26v.56h.19v.75h-.19V172H82.05v-2.38h-.19v-.75h.19v-.56h-.23v-.17H79.49v.17h-.26v.56h.19v.75h-.19V172H75.83l-8.6,10.7.48.44H69.3v3.36l-5.9,2.15V154H59.71v6.91H50.42v-9.82H39.62v-8.62h-8.1V138h-3v-9.28h-1v13.74H26.24V128.69h-1v13.74H6.81v18.45H5.24V150.39Zm399.53,99.32,2.42,2.12L398.62,254Zm7-3.87,4.38-2.14c-.22.52-.43,1-.65,1.55h0l-.44,1h0c-.25.59-.51,1.18-.78,1.76Zm4.74-.46c.33-.77.63-1.5.93-2.21h6.53a23.73,23.73,0,0,0-9.83,7.55c.79-1.76,1.74-3.85,2.37-5.34m-7.1-3.22,4.1-2.06,2.46,2.05h-6.55Zm2.11,1h3.4l-3.95,2-2.19-2Zm1.59,5.2h-6.34l4.09-2.08Zm-.9,1-4.07,2-2.21-2h6.28Zm-2,5.2h-6.41l4.19-2.06Zm-1,1-4.16,2-2.19-2h6.35Zm-1.57-12.08,2.42,2.1-4.36,2.15Zm2.56-6.07,2.45,2-4.13,2,.58-1.37.45-1.07Zm7.4-.51-4,2-2.39-2h6.35Zm.94.67,0,.05-.42,1.1h0c0,.08-.06.16-.1.23h0l-.4,1.07,0,.11-.56,1.48-2.49-2Zm1.33,1.37h-.77c.3-.78.55-1.47.77-2Zm0,3.18h-2l.84-2.12h1.18Zm2.44-5.23V239H416.9v-2Zm0,3.12v2.12H416.9v-2.11Zm2.43-3.12v2h-1.37v-2Zm0,5.23h-1.37V240h1.38Zm2.44-5.23v2h-1.38v-2Zm0,5.18-.17,0h-1.21v-2.11h1.38Zm2.45-5.19v2h-1.38v-2Zm0,3.12v1.61c-.47.06-.93.13-1.38.23v-1.84ZM428,239h-1.37v-2H428Zm0,2.49c-.46,0-.92,0-1.37.08v-1.49H428Zm2.46-2.49h-1.37v-2h1.37Zm0,1.07v1.49c-.45,0-.91-.07-1.37-.07v-1.42Zm2.45-1.07h-1.38v-2h1.38Zm0,2.91c-.46-.1-.92-.17-1.38-.23v-1.61h1.38Zm2.43-2.91H434v-2h1.38Zm0,3.19h-1.2l-.18,0v-2.07h1.38Zm2.44-3.18h-1.38v-2h1.38Zm0,3.18h-1.38V240h1.38ZM449,252.5l-.49-1h0c-.24-.51-.48-1-.72-1.53l4.52,2.14-2.47,2.17c-.29-.59-.58-1.18-.85-1.77Zm2,2.09,2.22-2.06,4.19,2.06H451Zm3.3,1h4l-2.2,2-4.15-2Zm-1.93-12.43-2.19,2-3.94-2h6.13Zm-4.25-1h-2.92l2.46-2.05,4.1,2.05Zm2.19,4.13,4.08,2.07h-6.33Zm4.93,3.09-2.21,2-4.07-2h6.28ZM446.92,248c-.27-.59-.53-1.17-.78-1.76h0l-.45-1h0c-.23-.52-.44-1-.66-1.55l4.38,2.14Zm.13,2.69a23.79,23.79,0,0,0-9.83-7.56h6.53c.29.7.6,1.45.93,2.21.64,1.49,1.58,3.58,2.37,5.34m-8.18-10.68h1.38v2.12h-1.38Zm1.38-3.12v2h-1.38v-2Zm1.83,2h-.76v-2c.2.57.46,1.26.76,2m.41,1.07c.26.66.53,1.37.84,2.12h-2V240Zm.15-2.45,4,2-2.49,2-.56-1.48,0-.11-.41-1.07h0l-.08-.23h0l-.42-1.1Zm7.29-.67-2.39,2-4-2h6.35Zm2.74,4.49-4.13-2,2.46-2,.65,1.54.45,1.07Zm2.82,6.34-4.37-2.15,2.41-2.1Zm3,6.22L454,251.84l2.42-2.12Zm3.26,6.21-4.7-2.17,2.43-2.11Zm-7.76.62,2.27-2.09,4.39,2.08H454Zm-3.23-4.63,4.54,2.1L453,260.39c-.29-.56-.58-1.12-.87-1.68h0l-.52-1h0l-.77-1.51m-38.9,1.06v-.31h-4l.07-.18.05-.13c.08-.2.16-.41.25-.61l.07-.16c.09-.21.18-.42.28-.62l.08-.18c.1-.2.2-.4.3-.61a22.27,22.27,0,0,1,19.6-11.91h0a22.26,22.26,0,0,1,19.6,11.91c.11.2.21.4.31.61l.09.17c.1.21.19.41.28.62a1.12,1.12,0,0,1,.06.16c.09.2.18.41.26.62l0,.13.24.63c0,.05,0,.1,0,.16.08.22.14.44.21.65l.06.19.18.67c0,.06,0,.12,0,.18.07.23.12.46.17.69,0,0,0,.09,0,.14.06.25.11.5.15.76h-1.13v2.84L439.77,266v-1.62l.15-.29H440v-.42h-.13V263H440v-.42h.15v-.43h.42v-.55h-3.55v.55h.41v.43h.16V263h.12v.72h-.12v.42h.13l.15.29v2.08l-10.55,2.63v-4l.23-.45h.2V264h-.19v-1.13h.19v-.65h.26v-.65h.64v-.86h-5.53v.86h.64v.65h.26v.65h.19V264h-.19v.65h.2l.23.45v4.68L419,271.19v5.52l-8-12.25v-5.21h.31v-1.12h.2v-.58Zm-4.6-3-2.47-2.17,4.53-2.14c-.23.51-.48,1-.71,1.52h0l-.48,1h0c-.28.59-.56,1.18-.85,1.77m-3.12,6.12-2.38-2.11,4.54-2.11-.38.75h-.92v.31l.42.31v.35l-.43.82h0c-.28.56-.58,1.11-.87,1.67m-7.39.26,4-1.92,2.1,1.92Zm-1.44-.46,2.28-4.28,2.42,2.12Zm-40.43-14.3c0-.65.31-1.18.7-1.18s.71.53.71,1.18v3.53h-1.4Zm-54.05-51c0-.65.31-1.18.7-1.18s.7.53.7,1.18v3.52h-1.4Zm-8.1,0a1.18,1.18,0,1,1,2.36,0v3.52h-2.36ZM253.2,215.73h1.34v1.93H253.2Zm0-2.29h1.34v1.94H253.2Zm-1.59,2.29H253v1.93h-1.34Zm0-2.29H253v1.94h-1.34ZM250,215.73h1.34v1.93H250Zm0-2.29h1.34v1.94H250Zm-15.64,2.29h1.35v1.93h-1.35Zm0-2.29h1.35v1.94h-1.35Zm-1.59,2.29h1.34v1.93h-1.34Zm0-2.29h1.34v1.94h-1.34Zm-.15-18.54h.21v-.44h.21V194h.21v-.44h.41V194h.21v.45h.21v.44h.21v1.9h-.21v.44h.21v5.86l-.84-1.25-.82,1.21v-5.83h.21v-.44h-.21Zm-1.44,20.84h1.35v1.93h-1.35Zm0-2.29h1.35v1.94h-1.35Zm-15.63,2.29h1.34v1.93h-1.34Zm0-2.29h1.34v1.94h-1.34ZM214,215.73h1.34v1.93H214Zm0-2.29h1.34v1.94H214Zm-1.59,2.29h1.34v1.93H212.4Zm0-2.29h1.34v1.94H212.4ZM150.81,100.64a.54.54,0,0,1,.1-.18c.32-.41,1.41-1.5,1.59-1.71a1,1,0,0,1,.82-.48c.63,0,.53.56.36.86a8.28,8.28,0,0,1-.53.71c-.49.62-1.28,1.39-1.65,1.82,0,0,0,0-.06.05-.51.48-1-.33-.63-1.06M160.92,97l-1.49,13.24-5.66-9.39c.26-.27.61-.8.81-1a1.28,1.28,0,0,0,.27-1,3,3,0,0,0-.44-1,.81.81,0,0,0-.89-.46,2.71,2.71,0,0,0-1.52.51h0c-.47.45-1,1-1.74,1.75l-.07.07c-.47.51-1.07-.45-.51-1,.3-.3,1.15-1.19,1.73-1.66a2,2,0,0,1,.47-.29,5.29,5.29,0,0,1,1.66-.29s0-.61-.49-.71a3.67,3.67,0,0,0-1.85.11,2.41,2.41,0,0,0-.66.4c-.38.35-1.14,1.12-1.62,1.61a2.16,2.16,0,0,1-.24.24c-.53.49-1.19-.3-.53-.92l.37-.39,1.71-1.8.22-.21a1.52,1.52,0,0,0,.38-2,3.32,3.32,0,0,1-.87,1.22l-.19.19c-.39.4-1.14,1.21-1.69,1.82-.29.33-.36.41-.47.52-.61.66-1.17-.07-.76-.6,0,0,.19-.24.7-.8l1.68-1.85-.34-.55-1.36-2.28,7.59-3.64Zm28.29,13L192,133.59l-7.47-31.36-.2,7.88L174.19,81.26l10.06,45.45-5.63-6-5.85-40,.43,21.7-4.7-5.23A31.14,31.14,0,0,0,170.68,94c.92-1.58,1.44-2.36.53-2.91-1.65-1-2.32-.92-2.71,0-.8,1.53-3.58,10.85-5.62,13.17.52-3.7,1.42-11.85,4.3-19.52a36.19,36.19,0,0,1,5-9.19c3.38,3.57,14.62,27.45,17,34.47m-1-16.12L193,106.09l-9.7-15.88Zm-7.32-8.38.08-6.35L187.2,90Zm-4.62-16.65.2-3.9s.88,1.8,4.7,4.89a12.85,12.85,0,0,1-6.75,1.46Zm3.6-5.45c.62,0,1.59-.63,1.59,0,0,1.46-1.25,1.77-2.47,1.63-3-.34-3.3-.44-3.83-4.54-.18-1.37-.06-1.56.46-1.88s1.48.34,2.2.47c.93.18,1.91-1.27,1.8-2s-2-.59-2.86,0c-.71.45-1.09-.08-.81-.77.6-1.46,4-1.48,4.63-2.8.8,1.1,2.25,1.43,3.17,2.25.39.36-.53.36-1,.36s-1.68-.22-1.72.57,0,2.91,0,3.39-.36.58-1.15.17-.88.18-.52.62,1,.57,1,1.1-.8.57-1.19.57,0,.89.66.89m5.69-9.2a7.52,7.52,0,0,0-5-2.08,8.15,8.15,0,0,0-4.68,1.33c-.6.46-.72.4-.82-.3-.13-.88.13-.8.13-.8a7.88,7.88,0,0,1,5.29-1.78,8.55,8.55,0,0,1,5.6,2.21c.11.86.13,1.95-.48,1.42m1.83,14.85c-.06-4.7,3-6.22,4.24-7.4.72,4.3,3.83,11.24,3.83,11.24l-6-5.89,5.36,17.59-7-13.89L189,86.62,184.64,82l2.91.13c-3-3.7-9.06-8.53-9.06-8.53a28.93,28.93,0,0,0,5.1-2.52l-.4,4.11s3.18-4.43,4.16-6.08m1-13.27,3.5-.53.17.51-1.26,1.65.2,2.11-2.25,1.87-1.26-3.73a8,8,0,0,0,.89-1.89m4.86-3.06-1.11,1.35-3.44-.39a5.82,5.82,0,0,0-.27-1.57l4.72-1.63a6.09,6.09,0,0,0,.11,2.23m8.12-45.32-2.55-1-.08,1.81-1.86-2.6L198.1,5,198,4ZM200,5.33l-.09-1.94,2.57,3Zm.5,8.22a13.48,13.48,0,0,0-4.84,1v-.85c.67-1,2.48-1.77,4.67-1.87s4.08.51,4.82,1.45V14a14.12,14.12,0,0,0-4.66-.49m-1.57,19.08a2.2,2.2,0,0,1,.06-.5c-.43-.14-.71-.38-.71-.64,0-.44.75-.8,1.68-.79s1.67.35,1.67.79c0,.27-.28.5-.7.64a3.34,3.34,0,0,1,0,.5c0,.85-.46,1.55-1,1.55s-1-.7-1-1.55m-.39,18.54-2.25,2s1.71.93,1.65,1.52-.59,4.23-.59,4.23l-2.45-2.77s0-.52-.09-1.29c0-.14,0-.28,0-.43a28.92,28.92,0,0,1,.12-4.5c0-.14.05-.29.07-.43,0-.32.11-.61.18-.89.32-1.18,2.91-12.63,2.91-12.63l1,1ZM193,61.56l-.2-2.52,1.13-1.71,4.62,10.38ZM182.39,166.07c0-3-.2-7.34-.2-7.34,3.71,1.13,1.06,11.58,5,13.43V160.91c3.63,0,4.21,15.39,8.88,15.39-.52-3.8,2.47-4.67,6.07.61h-7.32c-.77-.14-12.46-2.33-12.46-10.84m-9.58,9.26c0-1.59,1.28-1.84,1.63-3s1.9-2.31,1.81-3S173.79,158,173.79,158l4,10.14a7.83,7.83,0,0,1,3.09,1.32,7.51,7.51,0,0,0-4.24,1.5c3.26-.44,3.26,0,3.26,0l-3.53,1.33a10.84,10.84,0,0,1,3.79.79c1.24.71,1.93-1,1.59-2.12,1.76,2,.15,5.17-1.76,4-2.12-1.32-3.18,1.15-2.47-1.68-1.23.09-1.41,1.06-1.67,1.59s-1.85-.26-3,.53m7.24-8.12-6.44-12.61,5.12,7.14,1.33-3.78Zm-8-16.76c-.06-.63.16-1.57,1.51-2.57.52-.39,1.75-1.28,1.75-1.84s-.4-1-1-1.49a22.86,22.86,0,0,0-2.64-1.77l-2.38-25.53-.4,23.94-3.1-1.81-.93-14.06-1.15,12.86-3.56-2.05,2.92-29.06,1.66,16,3.37-19.7,4.77,7c1,14.36,3.08,27.61,4.17,35a2.4,2.4,0,0,1,.1.7c0,1.34-1.18,2.3-2.48,3.26-.64.47-.79.82-.77.94s.2.39.83.69,4.67,1.53,7.44,2.72l-3.73-24.4,6.19,23.15-1.07-19,5.07,25.21s-13.14-5.33-14.68-6.07a2.78,2.78,0,0,1-1.84-2.14m-1,21.71V153.81l1.23,14Zm-1.72-8.46-2.39-21,2.38,2.91Zm-6.09,13.22h0l1.26-18.78.17,17.29,1.32-1.76V148s1.68,23.11,1.85,24.17-2.08,4.7-2.11,4.76Zm-14.72,39.57h3.37v3.37h-3.37Zm0-3.38a3.38,3.38,0,0,1,3.37,0v3.07h-3.37Zm-19.79,3.38h3.3v3.37h-3.3Zm0-3.42a3.13,3.13,0,0,1,1.61-.41,3.09,3.09,0,0,1,1.69.45v3.07h-3.3ZM117.2,196.41a3.36,3.36,0,0,1,3.36,0v4.92H117.2Zm-33-27.53H85v.75h-.75Zm-3.94,0H81v.75h-.76Zm-6.73,31.74a4,4,0,0,1,3.95,0v8.49H73.54Zm0-19.89a4,4,0,0,1,3.95,0v5.79H73.54Z" transform="translate(0 0)"/><path class="cls-2" d="M440,197.41v-5.1h1.29v-.87h-25.4v.87h1.29v5.09a197.8,197.8,0,0,1-7.08,25.84h9.71c1.55-5.64,2.93-11.7,4.23-18.5h9.08c1.3,6.79,2.67,12.85,4.23,18.49h9.72A196.81,196.81,0,0,1,440,197.41m-15.35,6.32.81-1.09.28-.37.82-1.1,1.41,2.56Zm-2.58,5.72-2.11-2.08,2.93-2-.29,1.52h0l-.21,1h0c-.11.52-.21,1-.32,1.54m-1.77-4.7H422l-2.73,1.91-1.85-1.91h2.89Zm-.66-1h-2.39l.83-1.1h0l.81-1.07.79,2.17Zm-5.11,12.44,3.13-2.08,2.15,2.08h-5.28Zm1.75,1h2.91l-3.1,1.9-2-1.9Zm-.36-6.22h4.74l-2.85,1.88Zm.35-1,2.87-2,2,2h-4.86Zm4.11-6.22.84-1.09.8-1.05.27.68.56,1.47Zm.32,11.93-2.18-2.1,3.09-2c-.1.51-.21,1-.33,1.53h0l-.23,1h0c-.12.52-.24,1-.35,1.54m-1.58,6.27-2.28-2.14,3.35-2c-.12.52-.26,1-.38,1.54h0l-.26,1h0l-.42,1.6m-6.51.45,3.36-2.05,2.15,2.06h-5.5Zm.41-4.83,2.17,2.07-3.49,2.13Zm1.86-6.16,2.08,2-3.27,2.11Zm1.6-6.12,2,2-3,2Zm1.45-6.4.72,2L417,203Zm2.73-.66-1.55,2-.73-2Zm.33.59.78,2.08-1.65,2.18-.74-2.1Zm2.81-.59-1.58,2.08-.77-2,0,0h2.33Zm.3.65q-.3,1.73-.61,3.41h0l-.07.37c0,.18-.06.36-.1.53l-.83-2.19Zm1.07-.18,1,1.89L424.37,203c0-.13,0-.26.06-.39Zm2.78-.47L426.61,200l-1-1.78Zm.39,4.88-.25-.45-.2-.37-.92-1.66,1.37-1.85v4.33Zm13.4,6.17-3-2,2-2Zm-4.85-4.51h2.9l-1.85,1.9-2.73-1.9Zm-2.54-1,.57-1.46.26-.69.8,1.06.84,1.1Zm3.08,12.44h-.05l2.15-2.08,3.13,2.08h-5.23Zm2.42,1h3.25l-2,1.89L438,217.2Zm-.47-4.35L436.51,211h4.75ZM436,210l2-2,2.88,2H436Zm1.43-6.22.79-2.17.82,1.07.83,1.09h-2.44Zm6,11.76-3.27-2.11,2.07-2Zm2,6.25L442,219.63l2.17-2.07Zm-6.41.64,2.15-2.06,3.35,2.05h-5.5ZM437,217.78l3.35,2L438,221.94c-.14-.53-.28-1.06-.42-1.6h0l-.26-1h0c-.13-.51-.26-1-.39-1.54m-1.43-6.2,3.09,2-2.17,2.1c-.12-.51-.24-1-.35-1.53h0l-.22-1h0c-.11-.51-.22-1-.33-1.53m-1.28-6.19,2.93,2-2.11,2.09c-.11-.51-.2-1-.32-1.55h0l-.2-1h0l-.3-1.51m-5.06-1.64,1.42-2.56.81,1.09.27.37h0l.8,1.1Zm-.37-5,1.37,1.85-.92,1.66h0l-.2.37-.25.45v-4.33Zm2.7-.55-1,1.79-1.32-1.79ZM432.8,203,431,200.57l1-1.88.72,4c0,.14,0,.26.07.4m.29-4.17L434.7,201l-.84,2.19c0-.17-.07-.35-.1-.53h0l-.07-.37h0c-.2-1.11-.41-2.26-.61-3.4m2.63-.65,0,0-.78,2-1.58-2.08h2.33Zm.48.58,1.62,2.16-.74,2.1-1.65-2.17Zm2.62-.59-.74,2-1.55-2Zm1.34,4.76-1.62-2.12.72-2Z" transform="translate(0 0)"/><path class="cls-2" d="M418.41,189.36h20.35v-1c-4.22-27.13-6.37-85.23-6.59-91.39V96l1.53-2.9V92.2h-.87V86.92h.45V85.85l-3.49-4.43h-.16v-1h-.51V73.31H430V71.42h-2.79v1.89h.87v7.12h-.52v1h-.16l-3.49,4.43v1.07h.45v5.28h-.87v.93L425,96v.91c-.22,6.17-2.39,64.27-6.6,91.4Zm2.35-11,1.92,1.92-2.39,2c.16-1.26.31-2.56.47-3.89m5.61-27.51h0l.4.47.48.55h-3.46l1.82-1.89Zm.4-3.55h0l-.4.42-.31.32-.4.42-1.55-1.8h3.29l-.31.32h0Zm0-6.09h0l-.4.45-.46.51-1.44-1.72h3Zm.31-1.77h-2.56l1.54-1.93,1.49,1.93Zm.41,6.21h-3.31l1.71-1.92Zm-.29,7.25-1.87,1.81-1.63-1.82h3.5Zm-.16,5.21h-3.68l1.93-1.91Zm-.07,1-2,1.85-1.7-1.81Zm-.22,5.23h-3.85l2-2Zm-.15,1-.54.48-1.49,1.35-1.77-1.83h3.8Zm-.2,5.2h-4l2.16-2Zm-.33,1.15-2,1.72-1.82-1.85H426Zm-.13,5.06h-4.18L424,174.8Zm-.19,1-2.26,1.87-1.86-1.87h4.12Zm-.38,5.19H421L423.4,181Zm-.24,1-2.39,1.89L420.84,184Zm-3.7-11.81,1.87,1.9L421,176c.13-1.26.27-2.55.4-3.85M422,166l1.79,1.87-2.14,1.94c.11-1.26.23-2.53.35-3.81m.52-6.19,1.71,1.84-2,1.91c.11-1.24.22-2.48.32-3.75m.47-6.15,1.61,1.79-1.88,1.85c.1-1.21.19-2.43.27-3.64m.44-6.18,1.51,1.74L423.18,151q.13-1.79.25-3.57m.41-6.17,1.38,1.66-1.6,1.81c.07-1.16.14-2.32.22-3.47m.37-6.14,1.23,1.58L424,138.45c.06-1.11.14-2.21.2-3.3m3.28-.91-.41.5h0l-1,1.19-1.3-1.68h2.7Zm.58,4.22-1-1.28-.31-.39h0l0,0,0,0h0l.31-.37,1-1.2Zm2-2.11.3.37h0l0,0,0,0h0l-.31.4h0l-1,1.28v-3.31Zm0,10.64h0l-.31-.32h3.29l-1.56,1.8-.4-.42-.31-.32-.4-.42h0Zm2,36h-.22l1.94-1.94,2.36,1.94Zm4.27,1-1.87,1.89L432.05,184Zm-2.62-4.36-2.26-1.86h4.12Zm-2.45-2.88,1.91-1.95,2.26,1.95h-4.18Zm1.86-3.35-2-1.72v-.14h3.82Zm-2-2.87h-.33l1.88-2,2.15,2h-3.71Zm1.5-3.37-1.5-1.35-.53-.48h3.79Zm-2.18-2.85,1.82-2,2,2h-3.86Zm1.77-3.38-2-1.84,3.67,0Zm-2.06-2.83,1.74-1.91,1.93,1.92h-3.68Zm1.71-3.38L430,152.89h3.5Zm-1.92-2.84.47-.55.4-.47h0l.76-.87,1.82,1.89h-3.46Zm-.25-6.22,1.61-1.92,1.71,1.92h-3.32Zm1.13-4-.4-.45h0l-.67-.75h3l-1.43,1.72Zm-1.17-2.23,1.49-1.93,1.54,1.93h-3Zm2.74-5.2-1.3,1.69-1-1.19h0l-.42-.5h2.69Zm.79,4.21-1.42-1.72,1.22-1.58c.07,1.09.14,2.19.2,3.3m.4,6.31-1.61-1.8,1.38-1.66c.08,1.14.15,2.3.23,3.46M434,151l-1.76-1.82,1.51-1.75c.08,1.19.16,2.38.25,3.57m.46,6.25-1.88-1.86,1.61-1.79c.08,1.22.18,2.43.27,3.65m.51,6.25-2-1.91,1.72-1.84c.11,1.26.2,2.5.31,3.75m.56,6.25-2.15-1.94,1.8-1.87c.11,1.28.23,2.55.35,3.81m.63,6.24-2.27-2,1.88-1.9c.13,1.31.27,2.6.4,3.85m.72,6.24-2.39-2,1.92-1.92c.16,1.33.31,2.63.47,3.89m.67,6.07-2.3-1.82,1.93-1.94c.18,1.31.35,2.56.53,3.76Zm-4.11,0,1.09-1.1,1.39,1.1Zm-2.22-3.7,2.5,2L432,188.33h-.31c-.17-1.15-.32-2.39-.47-3.7m-.11-5.81,1.86,1.54-1.86,1.87Zm-.72-6.41,2,1.72-1.93,2c0-.27,0-.54-.06-.8Zm-.56-6.38.26.23h0l.3.27.31.29.4.36h0l.79.71-1.86,2,0-.78q-.09-1.52-.17-3m-.28-6.19.54.51h0l.3.29h0l.4.39h0l.31.29.38.36-1.79,1.91c-.06-1.26-.11-2.51-.16-3.75m-.23-6.18.77.76h0l.3.29,0,0,.73.72-.75.83h0l-.3.34-.65.71c0-1.27-.09-2.5-.12-3.7m-.15-6.15,1.69,1.74-1.61,1.85c0-1.27-.07-2.47-.08-3.59m-.08-6.21,1,1.11.3.34.2.22-.21.25h0l-.3.37-1,1.16c0-1.11,0-2.1,0-2.93ZM428,144.74l-1-1.16-.3-.37h0l-.2-.24.19-.23.31-.33,1-1.12v.52c0,.83,0,1.81,0,2.92m-.12,6.35-1.61-1.85,1.69-1.74c0,1.12-.05,2.32-.08,3.58m-.2,6.27-.64-.71-.31-.34h0l-.75-.83.73-.71,0,0,.31-.3h0l.76-.76c0,1.19-.08,2.44-.12,3.7m-.26,6.22-1.78-1.91.38-.36.31-.29h0l.4-.38h0l.31-.29.54-.51c-.05,1.23-.1,2.48-.16,3.74m-.33,6.27-1.86-2,.78-.71h0l.41-.36.31-.29.31-.27h0l.26-.23c0,1-.11,2-.16,3Zm-.41,6.25-1.93-2,2-1.72v2.89c0,.26,0,.53-.05.8m-.66,6.13-1.86-1.86,1.86-1.54Zm-.89,6.11-1.72-1.73,2.5-2c-.14,1.31-.3,2.55-.45,3.7Zm-3.9,0,1.38-1.1,1.08,1.1Zm-1.81,0c.19-1.2.36-2.45.54-3.76l1.93,1.94-2.31,1.82Z" transform="translate(0 0)"/><rect class="cls-2" y="336.53" width="1254.81" height="50.55"/><path class="cls-2" d="M870.86,339.19h0" transform="translate(0 0)"/><path class="cls-2" d="M814.77,330.88c-1.85,0-5,2.94-6.85,2.77-1.52-.14-4.18-2.66-5.46-2.77-2.26-.2-7.38-1.8-9.64-2-1.24-.11-2.76,3.08-4,3.08-2.5,0-5.45-6.23-7.94-6.07-.87.06-2.55,3.76-4,3.66s-1.49-3.76-2.66-4c-1.52-.31-4,4.77-4,4.77l-5.09-16.56v-7.85h-.65v-2.08h-.36v-1.31h-1.19V297l-.65,5.65H762V304h-.48V305c0,.35-.42,0-.42,0v2.38h-1.49V304l-1.25-5.89-.3,5.47H756.8v-1.31H755l.89-.54-1.43-1.13v-2.14h.66l-1.13-1.13v-2.44h.59l-1-2-.48,2.44h.48v2l-.65.65v2.38l-1,1.19.59.24-.89,1.49h-1.55v2.9s-3,.49-3.21.49a10.63,10.63,0,0,1,0-2.38l-1-7.08-.77,7.14v1.83H733.54l-3.69,6.44h-3.21l-.65.65h-6.78L716,316.4h-8.4V296.86h-2v-2h-3.37v-.19h-1.65v2.48h-1.53v7.38h-10v-6l-.64-9.93v9.74H687v3.06h-2.29v4.45h-3.88L677,309.72v16.61H672.9v-9.16l-2.61-2.61c.32-9.74-9-10.82-9-10.82V297.5c0-1.78-2.54-2.16-2.54-2.16l-.64-5v4.9a2.39,2.39,0,0,0-2.1,1.91V303c-9.61,3-10.69,12.73-10.69,12.73V326h-5.66v-4.44h-2.29v-3.08h-1.29l-1-12.38v12.76l-1.56,1.56v1.43h-2v9h-2.65v-9.66l-5.3-5.3-3.22,3.22h-3V307.23h-1.15v11.88h-2.43v8.31l-.71-.71v-8.23l-3.87-3.87,2.3-2.3h-2.32V295.58l2.46-3.36-2.06-11.51-.26-5.6v5.71l-1,8.73-3,0-1-4.09,1.54-1.16v-3.57l-1.3-6.41-.21-6v6l-1.19,4.52-3.42-15.63-.15-6.32c1.36-.58,0-1.3,0-1.3l-.29-3v3.16c-.81.84.12,1.19.12,1.19l-.12,6.38-3.1,16.41-1.77-7-.2-5.07v5.19l-.75,10.9L595,285.4v2.87h-.87l-1.68-7.89-.52-5.94.29,6-1,7.62h-.61l-.26-3.91-.17-3.71v3.74l-.45,9.73-3.26,3.26,1.77,1.26v5.29l-1.94-1.94v-6.2h-.41v4.49l-1.65-1.65V293h-.75v3.07l-.29-.35-1-2.32V291h3.1v-.32H582.1v-1.74h-.4v1.65h-3v.32h3v2.46l-.48,2-1.06,1.06V292.3h-.56v5.52l-1.9,1.9v-4.81l-.2.2v6.41l-1.94,3.28V298h-.45v7.7l-1.64,1.64v-6.35h-.38v8.25l-1.2,1.2v-12l.91-.49v-5.13l1.65-3-2.15-10.64L572,268.74s.19,10.49.1,10.49-.94,7.8-.94,7.8l-2.74,0-.7-2.84,2.12-1.65v-3.71l-1.22-7v-6l-.26,6-1.42,5.89-3.59-16.82.06-6.17c.9-.73,0-1,0-1V250l-.26,3.65c-.75.49,0,1,0,1l-.29,6.21-4.26,16.35-1.42-5.65-.12-6.38-.06,6.44L555.57,278v3.88l1.77,1.65-1,3.13-2.7-.2-1.51-10.63L552,269.2l-.21,6.49-1.84,9.92.13,5.27,2,3.43v20.61l-4.48,2.18v5.52L543,318.13l-4.33,4.33v16.4H788l79.69.32c-9.2-.08-36.2-.62-45.59-4.28-2-.76-5.27-4.05-7.37-4M590.59,307.46l-1.71-1.71v-6.82l1.71,1.22Z" transform="translate(0 0)"/></g></g></g></svg>