<svg xmlns="http://www.w3.org/2000/svg" xmlns:xlink="http://www.w3.org/1999/xlink" viewBox="0 0 15001.12 1373.26"><defs><style>.cls-1{fill:none;}.cls-2{clip-path:url(#clip-path);}.cls-3{fill:#eef5fa;}</style><clipPath id="clip-path" transform="translate(0 0)"><rect class="cls-1" width="14400" height="1373.26"/></clipPath></defs><title>travel-section-bg</title><g id="Слой_2" data-name="Слой 2"><g id="Слой_1-2" data-name="Слой 1"><g class="cls-2"><path class="cls-3" d="M14740.62,1330.08c-165.76-4.09-402.58-9.41-686.75-13.7-142.1-2.32-296-4.72-458.83-6.29l-512.1-4.91q-115.84-.6-234.83-1.63l-72.21-19.73h-21v-65h-6.57v-73c6.2-.27,14.11,1.35,17.34,3.24,13,8,24.72,8,24.72,8s-1.75-16,0-23.27c-7-1.6-11.4,0-22.78-6.41a42.37,42.37,0,0,0-19.28-5v-7.27h-7.89v103.61h-75l-50-45.77-57.88,53h-15.78v-14.44h-26.31v-31.32h-13.16V1161h-39.46v21.7h-10.52v-84.33H12426v118h-10.52v14.46H12405V1122.41h-15.78v113.24l-10.52,2.4v-50.59h-10.53v-48.19h-18.41V1252.5h-10.52v-50.59h-7.89l-5.25,50.59h-10.52l-21.05-26.5-44.72,36.14-4.1,28.49c-.32,0-.63,0-.95,0a34.86,34.86,0,0,0-18.58-4.94v-41.85h8.68v-8.42H12202v-7.57h-11.84v-4.34h-8.09v-3.16h-6.71v-6.71h-14.21v6.71h-6.71v3.16h-8.09v4.34h-11.84v7.57h-15.72v-35.59h5.73v-10.66h-7.5v-8.68h-21.71v8.68h-5.92v-8.68h-21.71v8.68h-5.92v-8.68H12040v8.68h-5.92v-8.68h-21.71v8.68h-5.92v-8.68h-21.71v8.68h-7.5v10.66h5.72v35.59h-14.66v-89.86h-11.19v-8.68H11951v-38.29h6.12v-8.68h8.68v-7.11h5.85V1072h-4.8c-1.52-31-22.11-57.27-50.87-68.42v-6.95c0-4-4.9-7.55-12.47-9.76V954.35h2.49V951.2h1.5v-3h-.6c-.31-9.55-7.39-17.47-16.82-19.57v-7.92a9.15,9.15,0,0,0-.83-3.87,4.68,4.68,0,0,0,0-4.57,3.09,3.09,0,0,0,1.17-2.58,3.74,3.74,0,0,0-.35-1.6,2.3,2.3,0,0,0,.35-1.24,2.21,2.21,0,0,0-.39-1.31,3.23,3.23,0,0,0,.51-1.81,3,3,0,0,0-.89-2.24c0-.14,0-.26,0-.4a5,5,0,0,0-1.8-4.07,3.14,3.14,0,0,0-.82-2,3.44,3.44,0,0,0,0-.37v-1.94a3.22,3.22,0,0,0-1-2.43v-2.58c0-.83-.48-1.51-1.07-1.51s-1.08.67-1.08,1.51v2.58a3.24,3.24,0,0,0-1,2.43v1.94c0,.13,0,.25,0,.38a3.14,3.14,0,0,0-.82,2,5,5,0,0,0-1.8,4.07c0,.14,0,.27,0,.4a3,3,0,0,0-.9,2.24,3.31,3.31,0,0,0,.51,1.81,2.22,2.22,0,0,0-.4,1.31,2.26,2.26,0,0,0,.36,1.24,3.68,3.68,0,0,0-.36,1.6,3.09,3.09,0,0,0,1.17,2.58,4.72,4.72,0,0,0,0,4.57,9.08,9.08,0,0,0-.82,3.87v7.92c-9.44,2.1-16.52,10-16.83,19.57h-.6v3h1.49v3.15h2.49v32.54c-7.56,2.22-12.47,5.76-12.47,9.76v6.95c-28.76,11.15-49.35,37.42-50.86,68.42h-4.81v10.74h5.85v7.11h8.69v8.68h6.11v38.29h-6.11v8.68h-11.2v89.86h-14.66v-35.59h5.72v-10.66h-7.5v-8.68h-21.71v8.68h-5.93v-8.68h-21.7v8.68h-5.92v-8.68h-21.71v8.68h-5.92v-8.68h-21.71v8.68h-5.92v-8.68h-21.71v8.68h-7.5v10.66h5.72v35.59h-15.73v-7.57h-11.84v-4.34h-8.09v-3.16h-6.71v-6.71h-14.2v6.71h-6.71v3.16h-8.09v4.34h-11.84v7.57h-32.83v8.42h8.69v70.52h-8.69v8.42h8.27a18.19,18.19,0,0,0-1.74,1.48,17.82,17.82,0,0,0-5.33,10.26,46.54,46.54,0,0,0-12.75,2.85,42.33,42.33,0,0,0-7.84,4.19c.36-2.31-.65-4.51-2.61-6.69a20.07,20.07,0,0,0-5.8-4.55,41.8,41.8,0,0,0-11.08-3.78c-1.32-2.78-4.54-5.28-9.25-6.9a55.89,55.89,0,0,0-6.61-1.8v-55.14h-60.34l-.45-3.66-143.33-59.17v-6.71l-82.69-22.56-110.32-16.94-20-67.39-3.54.93,17.28,65.49-18.48-2.84.61,14s-11,10.78-9.15,23.79c.27,1.93,1.84,6.63,4.32,13.24-1.68.78-1.7,4.94,0,9.42s4.57,7.7,6.34,7l.07,0c8.65,21.55,21,50.81,31.57,75.37a435.2,435.2,0,0,0-50.46,5.6q-4.57.83-8.67,1.74V1249.3c-2.18-.5-6.37,1-7.22-.81-2-10.84.81-17.83-.8-26.07-2.45-12.54-16.42-22.46-19.25-31.77-2-6.52-1.42-15.44-2.41-22.81-.94-7-1.25-16.26-5.62-19.55-5.43,16.22-1.57,33-6.42,48.88-2.6,8.49-11.92,16.75-14.44,24.44-2.44,7.43-2.08,18.38-3.21,26.88-.46,3.46-.57,9.61-1.56,13.67a67.76,67.76,0,0,0-8.47.66,66.81,66.81,0,0,0-2-14.34c-4.21-2-10.66-1.67-16.84-1.63-1.4,4-1.81,9-1.61,14.66-5.4-2.39-7.92-7.7-13.64-9.78a115.81,115.81,0,0,1-13.87,8.58c-1.42-.36-2.6-.65-3.29-.8-3.28-.71-10.78-.71-13.12-1.18s-1.87-1.4-4-1.63-13.12-1.41-14.06-1.41-2.1.93-3.73,1.17a15.34,15.34,0,0,1-3.48-.27c-1.91-4.75-2.91-10.32-7-14.24a15.42,15.42,0,0,0-6.61-.84v-.58h3.28V1236h-3.28v-10.55h-.14v-.08H10832a40,40,0,0,1-5.9-2.93v-4.47h3.3v-5.16h-3.3v-2c.66-.61,1.44-1.29,1.77-1.29.58,0,6.13-.13,6.13-.13,1.1-.49,4.07-1.87,4.07-1.87v-4.33c1,1.07,7.73,4.23,7.73,4.23l1.41-6.22c.81,1.05,8.32,4.57,8.32,4.57l2.56-5c2.13,1.27,10.21,4.45,10.21,4.45l1.75-5c-.58-.25-4.75-2.14-7.12-3.23,4.41-.46,8.43-1,12.12-1.45,2,.93,5.67,1.62,6.48,1.41,0-.5.06-1.45.06-2.39,25.66-4.18,31.78-9.24,34.67-11.55,1.05.36,6.67,0,6.67,0v-3.34h3.34l-1.05-1.92H10922V1175a46.06,46.06,0,0,0,12.48-8.78l-1.06-2.46c-.53,1.05-3.69,1.75-3.69,1.75l-1.23-1.23a18.38,18.38,0,0,0,3.34-3.52l-2.28-1.93a6,6,0,0,0,1.94-2.28l-1.58-1.05c-3.69,7.37-20.55,6.16-24.42,4.93.53-.53,1.23-1.41,1.23-1.41l-1.75-1.59a9.3,9.3,0,0,0,1.75-2.8l-1.41-1.06c-.7,1.4-1.62,2.76-4.73,3.34-16.34,3-48.68-7.57-48.68-7.57V1146h-1.59l1.05-3.34h4.23v-3.87h-4.23l-1.23-3.59h-2.23v-2.46h3.72v-1.23h-3.72v-2.2h3.72v-1.23h-2.43l-1-.59-1.92.59h-25.76v-5.89h2.07v-5.37h-2.07v-2.45a27.8,27.8,0,0,0,3.42-.67c1.47,1.13,3.56,2.42,3.56,2.42l2.1-2.68v-5c1,1,7.11,3.59,8.32,3.87.18-.54.76-2.34,1-3.19,1.16-.06,2.24-.13,3.24-.21a19.28,19.28,0,0,0,5.48.81v-1.42a36,36,0,0,0,5.41-1.25,37.35,37.35,0,0,0,7.24.56v-3l.23-.06c26.53-6.14,40.2-13.48,47.68-19.56h6v-3.16h2.69V1080h-1.68l0-2.67c7.41-5.41,10.45-9.86,10.45-9.86l-.59-1.29a9.05,9.05,0,0,1-3.5,1.17s-.84-1.05-1.19-1.53a13.72,13.72,0,0,0,2.1-2.23l-1.27-1.64a7.16,7.16,0,0,0,2.11-2.68l-1.17-.83a5.83,5.83,0,0,1-4.45,2.94c-14.84,1.65-25.54-1.05-27.66-2.46a8.11,8.11,0,0,0,2.24-2.34l-.93-1.05a15.31,15.31,0,0,0,1.75-2.34l-1.05-.93c-1.59,2.1-3.28,3-9,2.1-35.83-5.84-104-54.82-104-54.82h-2.8V987.34h-9.85l-.7-7.73-6.16-3v-3c1.41-.52,4.57-2.11,4.93-3.16s.88-6.5.53-7.91l-.28.15v-.21h.21l-.21-.21v0h0l-6.21-6.11a56.77,56.77,0,0,0,6-.38c1.48-.33,1.11-1.52,1.11-3.19a6.85,6.85,0,0,0-.14-2.57h.33l-8.32-6.8a58.79,58.79,0,0,0,6.81-.43c1.45-.32,1.09-.93,1.09-2.61V939c0-1.47.27-2.11-.62-2.48h.25l-7.27-6.49a51.53,51.53,0,0,0,6.15-.41c1.41-.33,1.05-.92,1.05-2.61v-1.19a12.85,12.85,0,0,0,0-1.8h.06l-.08-.07a1,1,0,0,0-.72-.64l-6.74-6a49.75,49.75,0,0,0,6-.41c1.35-.34,1-.93,1-2.62v-1.18a5.81,5.81,0,0,0-.08-2h.05l-.19-.18-.1-.1-6.63-6.32a46.65,46.65,0,0,0,5.75-.41c1.32-.33,1-.94,1-2.61v-1.18a8.4,8.4,0,0,0,0-1.95h.23l-7.81-7h0a46.45,46.45,0,0,0,6.24-.43c1.27-.33.95-.93.95-2.61V887c0-1.68.33-2.29-.95-2.61l-.07,0-5.75-5.67a38.8,38.8,0,0,0,5.44-.41c1.2-.32.9-.93.9-2.61v-1.19c0-.66,0-1.15,0-1.52h.24l-.27-.26c-.07-.39-.28-.62-.8-.79l-5.8-5.72a35.83,35.83,0,0,0,5.29-.42c1.16-.32.86-.93.86-2.61V862c0-1.69.3-2.28-.86-2.62l-.14,0-5.77-5.51v-.12a36.35,36.35,0,0,0,5.52-.43c1.09-.33.83-.94.83-2.61v-1.18a7.62,7.62,0,0,0-.07-2h.16l-6.6-6.51v-.55c2.92-.15,4.34-1.23,4.34-4.2V816c0-3.08-1.54-4.14-4.69-4.21v.25l0-3h-.52c-1.05.27-2.11.53-3.17.76l0,2.26v-.25c-3.16.07-4.69,1.13-4.69,4.21v20.23c0,3,1.42,4.05,4.34,4.2v.27l-6.27,6.49h0l-.27.28h.11a8.18,8.18,0,0,0-.05,2v1.18c0,1.68-.28,2.29.81,2.61a35.92,35.92,0,0,0,5.39.43l-5.62,5.62-.15,0c-1.16.34-.86.94-.86,2.62v1.19c0,1.68-.3,2.28.86,2.61a34.25,34.25,0,0,0,5.07.41l-5.52,5.71c-.6.18-.8.44-.86.89l-.17.18h.15c0,.38,0,.87,0,1.52v1.19c0,1.68-.3,2.29.91,2.61a36.75,36.75,0,0,0,5.22.41l-5.47,5.66-.15,0c-1.26.32-.93.93-.93,2.61v1.19c0,1.67-.33,2.28.93,2.61a45.25,45.25,0,0,0,6,.42l-7,6.55a.9.9,0,0,0-.33.31l-.15.14h.1a8,8,0,0,0,0,1.95v1.18c0,1.67-.33,2.29,1,2.61a44.89,44.89,0,0,0,5.56.4l-6.17,6.17c-.85.36-.59,1-.59,2.47v1.18c0,1.69-.34,2.29,1,2.63a48.36,48.36,0,0,0,5.85.4l-6.38,6c-1.21.33-.9,1-.9,2.56V927c0,1.69-.35,2.28,1.05,2.61a50.21,50.21,0,0,0,6,.41l-6.93,6.5h.1c-.89.37-.62,1-.62,2.48v1.19c0,1.68-.35,2.29,1.09,2.61a56.93,56.93,0,0,0,6.62.42l-7.5,6.43a1.23,1.23,0,0,0-.16.14l-.27.24h.11a6.92,6.92,0,0,0-.09,2.37v.77c0,1.68-.39,2.29,1.09,2.61a55.35,55.35,0,0,0,5.81.38l-5.93,6.11h-.49v.49a17.92,17.92,0,0,0,0,3.41v2.1h.19a14.73,14.73,0,0,0,.37,2.22c.36,1.05,3.52,2.64,4.93,3.16v3l-6.16,3-.71,7.73h-9.84v12.13h-2.82s-68.18,49-104,54.82c-5.74.93-7.45,0-9-2.1l-1,.93a15.24,15.24,0,0,0,1.75,2.34l-.94,1.05a8.35,8.35,0,0,0,2.23,2.34c-2.11,1.41-12.8,4.11-27.65,2.46a5.79,5.79,0,0,1-4.44-2.94l-1.17.83a6.92,6.92,0,0,0,2.1,2.68l-1.29,1.64a13.94,13.94,0,0,0,2.13,2.23c-.36.48-1.19,1.53-1.19,1.53a9.19,9.19,0,0,1-3.52-1.17l-.58,1.29s3,4.45,10.45,9.86V1080h-1.67v1.87h2.7V1085h6c7.48,6.08,21.15,13.42,47.69,19.56l.22.06v3a37.44,37.44,0,0,0,7.24-.56,35.68,35.68,0,0,0,5.41,1.25v1.42a19.29,19.29,0,0,0,5.48-.81c1,.07,2.06.14,3.22.21.28.84.86,2.65,1,3.19,1.21-.28,7.3-2.85,8.32-3.87v5l2.1,2.68s2.09-1.29,3.56-2.42a27.28,27.28,0,0,0,3.43.67v2.45h-2.08v5.37h2.08v5.89h-25.78l-1.9-.59-1,.59h-2.43v1.23h3.72v2.2h-3.72v1.23h3.72v2.46h-2.24l-1.23,3.59h-4.21v3.87h4.21l1.07,3.34h-1.59v3.34s-32.34,10.55-48.68,7.57c-3.12-.58-4-1.95-4.74-3.34l-1.41,1.06a9.3,9.3,0,0,0,1.75,2.8l-1.75,1.59s.7.88,1.23,1.41c-3.87,1.23-20.73,2.45-24.43-4.93l-1.59,1.05a6,6,0,0,0,1.94,2.28l-2.3,1.93a18.64,18.64,0,0,0,3.35,3.52l-1.23,1.23s-3.18-.7-3.7-1.75l-1.05,2.46a46.08,46.08,0,0,0,12.48,8.78v2.64h-3.16l-1,1.92h3.34v3.34s5.62.36,6.67,0c2.89,2.31,9,7.37,34.68,11.55,0,.94.05,1.89.05,2.39.81.21,4.51-.48,6.49-1.41,3.7.5,7.71,1,12.12,1.45-2.37,1.1-6.54,3-7.12,3.23l1.75,5s8.08-3.18,10.19-4.45l2.58,5s7.51-3.52,8.32-4.57l1.41,6.22s6.67-3.16,7.73-4.23v4.33l4.12,1.91,6.07.09c.33,0,1.11.68,1.75,1.29v2H10678v5.16h3.28v7.4h-34.52v.08h0v6c-3.73-.85-7-2.17-10.46-3.3-4.22,3-10.54,4-13.64,8.15-1,4.68-.77,10.62-4.81,12.22-2-8.74-12.6-9.47-18.45-4.08-1.15-2.35-4.35-1.64-5.62,0-2.8-3.07-6.41-2.88-9.62-2.44-3,.41-3.62,3.15-6.42,4.07-3.22,1.07-5.26-1-8,.82-1,2.4-.89,5.87-.8,9.35a5.49,5.49,0,0,1-.71-1.26l-2.53,1.77s1.23,2.46,2.28,2.82l-2.11,1.75a9.38,9.38,0,0,0,1.58,2.81l-3-.34c-.24.4-.71,1.14-1.14,1.83-1.3,0-2.58,0-3.79,0-.67,0-1.48.07-2.11.07-1.06,0-.87-1.05-1.57-1.23s-5.28,0-6.16-.18a80.49,80.49,0,0,1-9.13-3.16,1.43,1.43,0,0,0-.29-.11c-.32-7.18-1.54-13.13-7.43-12.51-5.26.55-4.32,6.94-7.22,11.4l-.45.13c-.41,0-.74,0-.95,0-2.11.18-3.7-1.41-4.93-1.77a17.62,17.62,0,0,0-4-.34c-.87,0-16.2-2.48-18.63-1.94-3.16.71-12.12,1.23-15.11.53a54.37,54.37,0,0,0-12.13-2l-.17-32.59h-4.56v0h-1.62v0l-1.14,2.56,0,0,0,15.61h-18.41l.05-11.34-.06-.73-.08-.35-1.25-.07h-74.38v-17.14l17.89-4.9,20.44-8,19.49-10.17,9.67-5.59,21.22-14.12v-4.25l-55.43.07-1.32,2.12-166.88.2-4.8-2.09-54.89.06,0,4.22,21,14,22.37,11.68L10240,1203l23.31,6.38.14,36.81h-26.86c-.14-2.27-.33-4.48-.59-6.61-9.26-1-19.6.06-30.14.64l-1.89-.24-10.67-.07-2.26,0c-.17-3.19.7-7.44-.77-9.31-4.72-.37-7.81-2.39-12-3.26-3.65,2.54-4.91,7.51-5.62,13-12.24,2.23-29.52-.65-41.71,1.63-2.81,5.84-3.07,14.27-3.21,22.81-6.36-.21-7.22,5.16-9.62,9a7.18,7.18,0,0,1-.4-.78V1022.65c-2.45-1.26-7,2.27-8.44-1.33l-1.49-440.2h-5.68V450.28h-9.85v-92.6h-11.19V295.18h-10.79V245.94h-8.14V227l-9.86-8.52V209l-5.88-6.23v-8.35l-3.2-4.35v-7.95l-3.79-4.37-.31-10.48a7.21,7.21,0,0,0-.38-12.85l-2.44-83.66a3.62,3.62,0,1,0-3.33.13l-.73,83.69a7.19,7.19,0,0,0-.12,12.67L10032,178l-3.59,4.35v8.35l-3.23,3.22v8.7l-6.05,5.5V218.5l-8.7,8.52v19.5h-8.17v51.13h-11v59.45h-9.09v92.22H9976V580.56h-4.52V752.3l-120.26.58V582.65h-6.05v-131h-7.95V358.05h-11V295.18h-12.29V245h-9.67V224.55l-7.94-7V207.33l-6.62-5.13v-9.48l-5.33-5.28V181h-3.19l-.44-13.51a7.19,7.19,0,0,0,4.13-6.51,7.27,7.27,0,0,0-4.57-6.72l-2.8-87.52a3.63,3.63,0,1,0-2.39.16l-.58,87.56a7.2,7.2,0,0,0-.09,13l-.08,13.16h-3v6.84l-5.68,4.9v10.23l-6.44,3.79v11.36l-8,6.81V245h-8.32v50.37h-12.51v62.49h-11V451h-6.08V581.7h-4.92l1.9,301.84-6.88.12v121.07c-2.59-1.71-4.66-6.83-8.21-8.25-8.48-3.39-20.77,1-26,4.36-4.36,2.82-6.72,9.45-9.65,8.72-.45-10.63,1-25.56-1-32.72-7.11-1.37-12.49-6.65-18.33-10.9-5.08,8.14-12.67,10.61-16.4,21.81-1.21,12.53-.93,28.45-5.79,32.73-1.55-14.88-7.25-21.08-13-19.93l.12-24.26,0-2.57.48-94.45v-4.5l.46-92.65,0-2.26,0-2.27.44-93.08,0-2.28-45.86-30.81.09-32.32.32-85.59-1.87,0-.32,85.84-21.55,3.25.25-84.27-1.62,0-.27,85.34-.7,10.49-.3,95.18,0,2.26v2.27l-.29,92.46,0,2.25-70.86,48.2V879l-.12,28.65v10.58h-5.39v-114h-5.58l-2.69-385.48h-2.65l-.81-118.08h-2.61l-2.85-51.41-2.45-25.5L9430,193.65,9420.75,177l0-8.19h-.63l-.42-2.85-.64-2.83-.82-2.79-1-2.73-1.24-2.68-1.42-2.61-1.62-2.54-1.8-2.44-2-2.35-2.14-2.22-2.3-2.12-2.45-2,0,.65,1.53,2.28.75,1.28-2.39-2-.06.64,1.52,2.28,1,1.65-.21-.19-2.43-2-.05.63,1.51,2.27.87,1.46-.09-.07-2.42-2-.07.62,1.53,2.27,1.14,1.94-.39-.36-2.43-2,0,.62,1.51,2.27.94,1.6-.17-.17-2.43-2,0,.62,1.5,2.25.93,1.57-.14-.12-2.41-2,0,.62,1.49,2.25,1.38,2.31,1.22,2.37,1.12,2.41.95,2.45.82,2.49.29,1.05-9.69,0,0-7.42h-.47v-2.68l0-2.64,0-2.52,0-2.38,0-2.26,0-2.11,0-2-.06-1.8-.06-1.64-.07-1.46-.06-1.29-.07-1.1h-1.78l0,1.74,0,1.84,0,2,0,2.06,0,2.15,0,2.24,0,2.33,0,2.4v.29l-4.8,0v-1l0-2.4,0-2.26,0-2.11,0-2-.06-1.8-.06-1.64-.06-1.46-.06-1.28-.06-1.1h-1.78l0,1.74,0,1.85,0,1.95,0,2.05,0,2.15v2.24l0,2.33v2.68l-4.78,0v-1l0-2.38,0-2.27,0-2.11,0-2,0-1.8,0-1.63,0-1.46-.06-1.28-.06-1.11h-1.75l0,1.73,0,1.85,0,2V145l0,2.14v4.58l0,2.68-5.21,0v-1l0-2.39,0-2.26,0-2.11,0-2,0-1.8,0-1.64,0-1.45,0-1.28,0-1.11h-1.77l0,1.73,0,1.84v2l0,2.05,0,2.15,0,4.56v2.69l-4.63,0,0-1v-4.64l0-2.11v-2l0-1.8,0-1.64,0-1.45,0-1.28,0-1.11h-1.77V139l0,1.84,0,2,0,4.2,0,4.56v2.69l-4.86,0v-5.64l0-2.11,0-2v-1.8l0-1.63,0-1.47,0-1.28,0-1.11h-1.78V139l0,1.85,0,4V147l0,7v.28l-4.46,0V142.73l0-1.63,0-1.46,0-1.29,0-1.1h-1.78l0,3.57,0,6.16,0,9.46v7.83h.15l-.12,4.91-12.34,0,.28-1.09.82-2.48,1-2.44,1.09-2.4,1.23-2.35,1.37-2.29,1.48-2.23v-.62l-2.18,1.76.75-1.24,1.5-2.24v-.62l-2.24,1.8.78-1.28,1.49-2.25v-.62l-2.4,1.93.94-1.56,1.49-2.25V146l-2.17,1.74.69-1.16,1.51-2.27,0-.63-2.28,1.84.79-1.33L9351,142v-.64l-2.07,1.69.59-1,1.54-2.26v-.65l-2.45,2-2.29,2.1-2.13,2.22-2,2.32-1.79,2.42-1.62,2.52-1.41,2.59-1.23,2.67-1,2.73-.83,2.78-.63,2.82-.41,2.85v8.19h0L9324.16,194,9316,224.18l-.12.81-.29,2.42-2.37,25.52-.21,3.13-2.37,45h-2.3l-.1.76-.3,2.37-.21,3.06-.54,111.83h-2l-.4,2.59-.19,2.57-2.83,561.32h-2.8v52.36H9286l-1-1030.23L9112.17,6.52l-3.59,992.42c-1.24,0-2.48-.13-3.72-.27-.35-8.66.89-20.91-1-26.19-5.67-1-9.39-6.4-14.47-8.72-2.53,3.93-4.1,10-5.14,17.32l2.47-25.18-5.16-.48-.53-117.85,2.74-25.22-5.11-.94-.45-103.65,2.78-20.6-5.08-1.31-.24-56.73V603l2.72-19.47-5.07-.73-.44-64.42,2.69-19.26-5-.79-.26-37,2.69-17.85-5-.88-.19-29,2.72-17.71-5-.95-.15-23.76,2.7-17.59-5-1-.07-11.12,2.68-17.54-4.21-.87.67-4.32,0,0,.81-5.17-1.28-.28,1.76-11.45-1.38-.29.77-5-.73-.16-1.83-.92,2.47-15.88-.73-.16.05-.33-1.83-.94,2.39-15.49-.72-.16.11-.68-2.58-1.33,2.5-15.91-8.45-4.5-1.53-.82,2.18-16.62-8.79-.62,2-15-10.71-.79,1.87-14.27-10.76-.82-1.22-2.36-1.33.11,1.48-11.16-7.67-.57-.59-1.15-4.66.36-4-18.31v-5.28l-.95-.22,3-17.92-1.46,0,2.56-19.35L9001.63,119l-3.32-49.3-2.76,41.11-.06,0-2.08,5,.1,3.45L8984,117.6l1.45,10.43-.43-.2,3.67,23.42.31,2.27-1.79,1,0,.59-.17,0L8982.87,174l-.34,0,.31.13-1,4.64-12.93.95,1.77,13.2L8957,194l1.88,14.27-10.79.79,2,15-8.86.62,2.19,16.62-1.54.82-8.51,4.5,2.52,15.91-2.6,1.33,2.52,16-2.57,1.32,2.54,16-2.62,1.31L8935,310l-.44.21,1.32,8.29v.9l-2.78,1.35,1.64,10.5-2.35,1.14,2.66,17v.28l-2.07,1,1.13,7.22-1,.45.27,2.18-3.28,1.48,2.69,17.11-.06,20.69-1.42.62.26,2.07-3.75,1.62,2.7,17.21-.1,26.09-.93.38.25,2-4.21,1.69,2.68,17.35-.12,34.13-.47.17.21,1.83-4.66,1.73,2.69,18.76-.26,63.22-4.92,1.59,2.69,19-.33,79.78-5,1.31,2.73,20.59-.44,103.65-5,.93,2.69,25.22-.52,117.86-5.07.48,2.72,28.21-.2,44.68a44.07,44.07,0,0,1-5-.55c4.71-36.76-13.16-29.39-23.15-26.18-3.87,0,0,17.49-3.86,17.45h-12.54c-3.46-1.28,0,13-3.86,10.91h-.84v124.19l-4.93-8.52.25-2-.52-3.72-.08-.31-1.44-3.51h-.12l-2.21-2.83-3-2.3-1.85-.76-34-58.64,3.13-2.4,12.57-16.42,3.93-9.54,3.93-9.55,2.66-20.44h-.18l-2.65-20.19-3.94-9.52-3.93-9.48L8821,961.24l-16.25-12.53-.86-.44-6.73-2.79.23-373.52,2.16-1.52,14.56-10.83,11.16-14.26,3.51-8.35,3.5-8.34,2.4-18-.07-1.36.11-1.47-2.41-18.09-7-16.72L8814,458.8l-3.31-2.69-13.61-9.94-4.67-1.74-7.71-2.71-3.52-30,3-.8,2.38-1.17,1-1.29V405l-.5-1.28-2-1.24-3.28-1.08-.66-.13.07-58.92a30.49,30.49,0,0,0-5.34-55.35l.06-59.75,5.36-.71v-3.26l-9.88-6,.09-65.71,1.1-.22,1.62-.6,1.11-.69.46-.76v-.81l0-1.42-.18-.8-.82-.77-1.38-.67-1.85-.51-1.19-.19.18-128.26-.22-.37-.49-.33-.71-.3-.9-.22-1-.11-1,0-1,.07-1,.17-.78.24-.56.33-.35.37-.05.38-.2,128-.22,0-2.05.43-1.63.59-1.09.7-.46.78v2.23l.2.78.8.76,1.41.66,1.87.52.07,0-.11,67-10.16,1.39v3.26l5.46,3.27-.12,60.57a30.5,30.5,0,0,0-5.59,55.15l-.11,59-3.27.93-2.34,1.17-.89,1.28v3.38l.6,1.3,2,1.23,3.31,1,.54.11-3.5,29-11,3.74-4.46,1.73L8717.73,456l-3.07,2.65-11.27,14.17-7.12,16.7-2.41,17.79-.19.17,2.34,18.22,1,3.33,3.43,8.33,3.44,8.33,11,14.19,5.84,4.37-1.1,389.18-10,7.62-12.61,16.29-4,9.52-4,9.52-2.75,20.45.09,0,2.62,20.41,3.9,9.52,3.91,9.56,12.5,16.4,8,6.17L8689.51,1153l-1.68-5.19h.86l-.31-13.35h-.81v-.07l-1.27.06h-1.64l.3,13.38h.86l-13.3,47.85-1.44,1-9.23,1.18-.3-16.45,1.42,0,0-2.44-5.44-3.62,1.47-2.29-1.61-5.08,3.23-5.42,3-1.23-5.76-2.84-2.28-2.35h-5.3l-.76-44.72,3.5-4.21-5-1h.07l-.27-6.29v-.36l-.47-5.06-.64-1.62h-3.71l-.85-.47.5-30.55,2.65-.24,1.88-1.89-.07-3.9-2.42-.53.62-1.14,2.17-1.48.82-.84,1.81-2.56,1-5.57-1.2-7.76-6.56-10.19-8.66-8.22-1-1.25-1.82-2.18-.13-.15v0l-.14-.16-3.78-4.52-3.34-6.49-1.66-7.6-.53-5.57.33-.16.69-.7.45-.9.14-1,0-.35-.17-1-.46-.88-.72-.67-.87-.39-.17,0-.09-7,1.38-.17.08-.18-.19-1.3-1.3.17-.15-10.93L8628,964l0-.18h.13l0-1.43-7,.07,0-1.11h1l.07-.19v-1.3H8621v-1h-1.52l-.08.21v.77h-1l-.07.21v1.3h1.06v1.11l-6.9.06-.07.2,0,1.23h.06v0h.12v.19l6.8-.06.15,11.12-1.38.19-.07.18.18,1.29,1.28-.16.1,6.85-.2,0-.87.44-.7.7-.44.9-.14,1,0,.33.16,1,.46.89.7.67.32.14-.38,5.64-1.43,7.68-3,6.36-4.21,5.38-1.07,1.37-.13.16h0l-.14.17-1,1.24-8.21,8.3-6.11,10.24-.39,1-1,7.74,1.14,5.45,1.83,2.46,2.77,1.77.66,1.14-.93.23-.91,2,0,3.82,3.47.32.92,1.09,0,4.17-3.05-3L8595,1062l-.52-.39-.14-.12-.14-.1-2.16-1.66-3.41-3.28-.12-.13-.14-.13,0,0-.24-.36-.14-.2-.12-.2-.22-.32-.52-.89-.46-.83-.41-.77-.44-.6,0-.06-.6-.59-.47-4.73.48-.24.76-.76.47-1,.16-1.08-.18-1.08-.48-1-.12-.21-.74-.72-.92-.46h-.19l-.07-7.62,1.53-.2,0-.14-.18-1.4-1.4.19-.07-7.12h1.69v-.11h.1v-1.36h-1.8l0-3.18,7.31,0v-.15h.13v-1.53l-7.42,0v-1.26h1.11l0-.15v-1.4h-1.14v-1H8582l0,.16v.89h-1.11v1.55H8582v1.23l-7.39.06,0,.15V1019h0v0h.14v.14l2.69,0v.7h-1l0,.14v1.23h1v1.11l-4,0-2.29,0-1.71-11.8-2.18-1.27-2.3-14.65-1.82-1.07-2.08-13.45-1.73-1.05-.79-14.85,1.27-2.7,1.5-3.19,3.23-1.49-3.31-2.87,3.5-3-6.93-.81-.11-3.84-3.45-1-.3-1.07.44-.27-2.28-7.43.25.19,0-1.09-.65-.46-5.14-16.79-6.4-22.37,1.44,1-.07-1.27-1.81-1.29-.67-2.33-.49.14-.73-2.36-1.18.8,1.34-3,0-6.4-.08-3.09h-1l-.69-.66,1.8-15.3.69-.3.95-1.29-.5-.85.08,0,1.3-.89,1-1.24,1.21-1.66.78-1.91.23-2.14-.24-2-1-2.56-.94-1.71-1-1.45-1.31-1.22-1.57-1-2.12-1.06-1.9-1.25-1.71-1.71-1.2-1.94-.62-2.61-.39-6.16.41-.25.66-.66.44-.84.14-1-.15-1-.21-.6-.39-.8-.62-.6-.77-.32-.14,0v-6.12l1.34-.2,0-.33-.15-1.24-1.17.16,0-10.29,6.39-.11v-1.38l0-.35-6.36.12v-.9l1,0v-1.24l0-.35H8529v-.59l0-.34-1.41,0V799h-1v1.25l0,.37.93,0v.9l-6.39.1v1.37l0,.35,6.36-.12v10.49l-1.33.18,0,.35.16,1.25,1.15-.17v5.9l-.51.19-.53.35-.66.65-.44.84-.14,1,.14,1,.22.6.4.81.6.59.3.12-.37,6.14-.61,2.65L8524.9,838l-1.65,1.68-1.88,1.27-2.09,1.06-1.54,1-1.28,1.22-1,1.47-1.06,1.71-1,2.55-.23,2.06.23,2.15.79,1.89,1.1,1.67,1,1.24,1.31.88.23.1-.53.79.85,1.29,1,.44,1.77,14.89-1.06,1.12-.69,0-.15.88v6.46l.29,2.14,1.62,3.6-2.92-.71-1.31,4.32-1.21.9.2,1.25.46-.34-14.49,47.89,2.43.61-4.37,1.36-.67,3.74-7.09,1,3.6,2.43.4.91-2.11,2.5,3.13,1.45,1.46,3.13-.86,17.51-1.77,1.07-2,13.44-1.85,1.09-2.27,14.64-2.21,1.28-2.26,15.81-2.56,2.59h-.22v.22l-.48.5-.22.21h-.24v.23l-.25.25.08,1.31-.06-.84,0-.46-.52.55.61,1,0,.45-5.46,0v1.36h.12v.1l5.45,0,.61,10.67-1,.13.15,1.23.07.11.9-.12.23,3.92,0,2.61-.17,0-.37-.3-4.08-4.89-2.22-4-.1-.18v0l-.1-.17-.13-.23-.11-.19v0l0-.06,0-.2-1.15-4.89-1-7,.79-.39.77-.76.5-1,.18-1.07-.17-1.08-.5-1-.76-.78-.22-.17-.87-.44h-.11l0-7.56,1.56-.21-.17-1.39-.09-.15-1.28.17,0-11.71,7.16,0v-.15h.22v-1.36l-.08-.16-7.28,0v-1.22h1.13V999l-.09-.17h-1V998l-.09-.17-1.61,0v1h-1.13v1.39l.09.17h1v1.21l-7.35.06v1.52h.13l0,.15,7.25-.06-.06,11.92-1.54.2.17,1.38.09.16,1.27-.17,0,7.33-.22.06-1,.47-.77.75-.51,1-.17,1.07,0,.31-1.73-2.07-3.83-3.22-4.61-3-2.33-1.7-.12-.11h0l-.12-.08-.25-.18-1.64-1.7-.26-.27-.43-.45-1.74-2.24-1.7-3-.38-.44-1.14-.54-1.64-6.14-1.06-7.12.36-.16.74-.7.47-.89.17-1-.15-1-.46-.92-.71-.74-.25-.2-.79-.39h-.07l.07-7,1.45-.2-.16-1.28-.13-.19-1.15.15.1-10.83,6.62,0V970h.12v0l0,0h.12v-1.22l-.12-.2-6.72.06v-1.1h1v-1.29l-.13-.2h-.91v-.77l-.14-.2h-1.5v1h-1l0,1.29.14.2.91,0v1.11l-6.85.06v1.42h.12v.17h.06l6.7-.06-.11,11-1.43.18.15,1.29.14.17,1.13-.15-.07,6.77-.2.06-.92.44-.73.7-.49.89-.16,1,.15,1,.46.92.71.74.25.19.1,0-1.19,7-1.82,6.25-1.49.68-1.77,2.93-1.87,2.22-.13.15,0,0-.06.08,0,0-2.76,2.64v.07l-.27.15-2.92,2-5,3-4.15,3.25-2.62,2.88-1.95,3.3-1.43,4-.35,3.23.25,3.8,1,3.75,2.09,3.3,3.22,2.72.31.2-1.56.35,0,3.85,3.06,1.91,1.49.12-.42,34.06-1,.63h-3l-1,1.6-.69,5-.13,6.59h0l-5.08,1,3.52,4.15-.56,43.66h-5.31l-1.69,1.73-3.33-9.84h.58l.24-13.15-1.5,0-1.36-.06v.07h-.61l-.25,13.12h.56l-18,47.69-11.92,7-.06,2.74h3.67l-.29,13.38-2.49.65,0,1.88,1.54,2.21,0,1.65-1.64.47,0,1.56,1.6.93-.17,7.89v.3l-1,.34,0,.71,1,.36-.18,8.94-.61,1.21-.06,2.93-2.12-1.82-.57-2.31-1.61,1.38-.1-.23-2.79-2.32-54.28-5.33v23.52H8279v-2.25h0v-3.9h0v-2.18h0v-.69h0v-3.71h0v-7.09h0V1243h0v-5.7h0v-.81h0v-.7h0v-3.38h0v-6.28h0v-2.9h0v-3.38h0v-1.39h0v-6.28h0v-.81h0V1206h0v-.81h0v-.7h0v-3.38h0v-2.89h0V1180h0v-8l.23-3.74v-.09l-.17,0-.24-.06v-3.12l-.36-.1s-7.79-2.15-23.8-1.83l-.28-133.79-.64-.18-.41-.11-.63-.17-.83-.22-.54-.14v-2.18l2,.53v-1.09a132.23,132.23,0,0,0-16.3-3.42c-1.94-.22-4.11-.35-6.27-.42v-1.57h0v-2.57h0l0-5.14v-.32l0-6.44h0v-1.59h0l0-2.4v-.17l0-6.84v-.48l0-4.59v-.14l0-3.22v-.79h0l0-4.75v-.71l-.06-10.38v-.2l-.09-14.72v-1.18l0-7.38v-.65l0-5.19v-.29l-.12-19.59-.22-70.33-.08-.1-.14-.07v-2.9l.21-.05-.51-.37a43,43,0,0,0-6.63-4,34.31,34.31,0,0,0-8.86-3c-2-.36-4.15-.63-6.4-.85h-.06c-2.93-.28-6-.46-8.68-.57l.36-218.6v-.09l0-.29v-.45l0-.59-.12-.71-.23-.81-.36-.89-.52-1-.71-1-.94-1-1.19-1-1.47-1-1.78-.94-2.11-.87-2.47-.78-2.82-.66-2.91-.53-2.72-.43-2.56-.34-2.39-.27-2.23-.19-2.06-.13-1.88-.08h-.62v-1.61l0-2.85v-3.47l0-4,0-4.58,0-5.05,0-5.48,0-5.87,0-6.2,0-6.49,0-6.73,0-6.92,0-7.06,0-7.16,0-7.2,0-7.2,0-7.15,0-7.05,0-6.91,0-6.71,0-6.47,0-6.18,0-5.85,0-5.46,0-5,0-4.54,0-4,0-3.44,0-2.81,0-2.13,0-1.41,0-.66-.1-.55-.15-.56-.21-.56-.26-.57-.31-.57-.36-.57L8164,438l-.46-.56-.51-.55-.55-.55-.59-.53-.63-.52-.16-.12.58-50.92,0-.09,0-.1-.09-.17-.12-.22-.16-.28-.2-.33-.24-.37-.27-.41-.32-.45-.36-.48-.41-.51-.46-.54-.51-.56-.56-.57-.61-.59-.67-.6-.72-.6-.78-.6-.84-.6-.9-.59-1-.58-1-.56-1.09-.54-1.16-.51-1.24-.49-1.31-.45-1.38-.41-1.45-.37-1.53-.32-1.6-.27-.79-.1v-5.63h0v-9.81h0v-7.69h0v-1.06h0v-8l.84-1,.48-90.42V245.8l0-.42,0-.45-.06-.47L8141,244l-.11-.5-.14-.5-.18-.5-.21-.5-.25-.49-.45-.63-.57-.56-.67-.49-.74-.42-.79-.36-.81-.3-.81-.25-.8-.21-.56-.12-.62-.11-.69-.09-.75-.08-.8-.07-.85-.07-.25,0,.56-90.83-.2-.15-.13-.1-.22-.15-.3-.2-.37-.23-.45-.26-.52-.28-.24-.11v-1.12S8126.92,142,8122,142c-.68,0-1.46,0-2.29.11L8120,85.2c0-1.83-1.64-3.67-5.08-4.41l-.67-.13-.28-.06h0c-.51-.07-.95-.1-1.21-.11l0-79.33A4.37,4.37,0,0,0,8110.43,0,9.66,9.66,0,0,0,8107,.7l.65,97.83-1.2.11-2.28.89.17,10.37-.17,0-1.79-.19-2,.08-1.08.13-1,.16-1,.18-1,.2-1,.21-1,.22-.94.22-.9.22-.83.21-.77.2-.68.19-.59.16-.47.14-.36.1-.22.07-.66.19,1.56,94.87-1.44.35-1.9.48-1.85.49-1.77.48-1.65.46-1.5.43-1.31.38-1.08.32-.82.24-.52.16-.75.23L8077,311a8.18,8.18,0,0,0-4.65,5.26h0a4.39,4.39,0,0,0-.15,1v.18l.95,16.49V334l.43,7.54,0,.74h0l.42,7.2h0l0,.89.9,15.69.05.9.44,7.64,0,.84h0l.41,7.22h0l.06,1,.42,7.27h0l.06,1.08.18,3.2c-3.12.9-5.42,1.68-5.43,1.68h0l-17.74,5.42-.67.21,0,.38.35,5.58,2.74-.83-.28-4.4,6.13-1.87V406l2.66-.77v-4.57l6.12-1.87v4.69l2.65-.74v-4.76l3.53-1.08v0h0l.28,4.85.16,0c-10.58,2.8-24.09,6.94-24.09,6.94l2,97.66-.46.39-.61.65-.44.66-.26.67,0,.63L8055,697.89a39.8,39.8,0,0,0-8.62,3.13h-.2v6.53a11.54,11.54,0,0,0-1.89,1.19l.43,26.89v.15l.09,6v.54l.1,6.36v.16l.09,5.84v.3l.08,5.23v.91h0l.09,5.51v.63l.09,5.77v.37h0l.08,5.23h0v.91h0l.08,5.23,0,.91.18,11.54v.75h0l.08,5.23v.91l.18,11.37h0l0,.91.08,5.23v.91l.09,5.24h0v.65l.09,5.49h0l0,.91.08,5.24v.91l.08,5.24v.76l.09,5.38v.13l.09,6v.91l.09,5.34v.8h0l.1,5.86v.29l.08,5.24h0l0,.9.08,5.24v.9l.18,11.58v.7h0l.08,5.24,0,.9.12,7.54,0,0c-1.15-.07-2.22-.11-3.23-.12v-3.76l.63-.08c.82-.08,1.68-.14,2.56-.18v-.68c-1,0-1.9.11-2.81.19-1.15.11-2.25.25-3.29.41-5.45.87-9.07,2.48-8.83,4.22h0v0h0a1.79,1.79,0,0,0,.63,1,3.44,3.44,0,0,0,.38.29c-.42.15-.75.29-1,.4a16.26,16.26,0,0,0-1.62.66v0l.27,15.67h0v.36l2.52,148c-1.13-.1-2.35-.16-3.62-.16h0a33.05,33.05,0,0,0-7.49.76c-2.07.51-3.35,1.23-3.36,2h0a.8.8,0,0,0,.08.34v5.24l.13-.08c-1.79,1.32-2.09,3.08-1.85,5.6,0,.52.14,3.43.25,8v.36c0,1.81.1,3.86.15,6.12v.47h0q0,.6,0,1.22l0,1c0,1.21.06,2.46.09,3.76v.3c.1,4.12.2,8.66.3,13.44l0,1.28c.07,3.13.14,6.36.21,9.64v.69h0c0,.36,0,.72,0,1.07l0,1.12q0,1.68.07,3.38v.22l0,1.28,0,1.38q0,1.69.07,3.38v.18c.05,2.54.11,5.07.16,7.58h0v.44c0,1.45.06,2.89.09,4.32v.17c.09,4.42.18,8.7.26,12.73h0c.24,11.69.43,21.21.52,25.61v-.33h-2.56a79.11,79.11,0,0,0-7.95.52c-2.27.29-3.74.7-3.88,1.19a.22.22,0,0,0,0,.11.6.6,0,0,0,0,.11h0v2.75l.73-.07.32,0v-2.09a6.59,6.59,0,0,0,.7.18c.46.08,1,.16,1.66.22v1.48l1-.08V1202c.7.05,1.47.1,2.29.13v1h.12c-1.91.12-3.82.27-5.81.46h0l-.32,0-1.77.18,1.19,60.42c-8.62-.06-56.52.26-56.55.26-.38,0-.67.18-.64.36s.15.2.33.26v2.78h-.23V1273l-3,0-1.6-211.44-.17,61.55V935.28h0l39.05-16c1.25,0,2.51,0,3.76,0l.45-.52h-1l1.07,0,0-1.34c-1,0-2,0-2.94,0l.89-6.34-.28-.17c.82.49,1.46.84,2.25,1.39l.64-.44h0l.58-1.17h0q-1.24-.79-2.46-1.52c-.81-.48-1.59-.93-2.36-1.36a44.37,44.37,0,0,0-10.62-4.42h0l-1.14-.26-1.11-.22a18.87,18.87,0,0,0-5.07-.28c-1.22.13-7.21.49-8.07.94l0,0-1.5.74c-3.18,1.57-8.67,4.3-12,6.09V789l-.05.09,0-9.3-.24-.15h0l-5.7,2.71V719.57L7932,704.85V785.6l-1.54,1.33-1.34,1.18-1.37,1.22-1.39,1.26-1.43,1.3-1.45,1.34-1.48,1.37-1.49,1.41-1.52,1.44-1.53,1.47-1.55,1.5-1.56,1.53-1.58,1.56-1.59,1.59-1.6,1.62-1.6,1.64-1.61,1.67-1.62,1.69-1.63,1.72-1.63,1.73-1.63,1.75-1.63,1.77-1.63,1.79-1.62,1.81-1.61,1.82-1.61,1.84-1.6,1.85-1.59,1.86-1.58,1.88-1.56,1.89-1.55,1.9-1.54,1.9-1.23,1.55-1.23,1.55-1.21,1.55-1.2,1.54-1.2,1.54-1.18,1.54-1.17,1.53-1.16,1.53-1.15,1.52-1.13,1.51-1.12,1.5-1.1,1.49-1.09,1.48-1.07,1.47-1.06,1.46-1,1.44-1,1.43-1,1.41-1,1.4-1,1.38-1,1.36-.93,1.34-.91,1.32,0,0a51.84,51.84,0,0,0-15.12-1.9c-8.6,0-17.29,1.58-21.79,4.7v2.17a2,2,0,0,0-.25.81h0v0h0c.08,1.86,3.2,3.68,8,4.85.93.23,1.93.43,3,.61s2.15.33,3.3.45h0c.77,1.39,1.57,2.82,2.36,4.26s1.55,2.82,2.34,4.21a.89.89,0,0,0-.27.6h0a1.16,1.16,0,0,0,.7,1l.25.13h0l.35.14,1,1.74v1.36l-.35.58-2.94,5-2.87,5-2.8,5-2.73,5.06-2.66,5.08-2.6,5.12-2.53,5.14-2.46,5.18-2.39,5.21-2.32,5.26-2.26,5.3-2.19,5.34-2.12,5.39-2.06,5.44-2,5.49-1.93,5.55-1.86,5.61-1.8,5.67-1.74,5.74-1.67,5.81-1.61,5.88-1.54,6-1.48,6-1.42,6.11-1.36,6.19-1.29,6.27-1.24,6.36-1.17,6.45a48.85,48.85,0,0,0-.88,7.22c-12.53,69.6-10.95,141.2,1,210.74.08.46.22,1.33.37,2.23l.65,1.83c-1.79,1.75-4.94,2.93-12.49,2.39-.87-5.69-1.13-11.63-4.42-16.29l-.17,0c-2.54-16-4.64-31.52-4.64-31.52l1.33-11.18c2.64-5.35-2.64-7.29-2.64-7.29l-1.76-9.73-15-1.45c-7-11.68-14.09-51.55-14.09-51.55l.44-5.35c0-5.35,4.85-10.2,4.85-10.2l-9.69-3.9-1.33-6.8-18.06-4.87-14.52-47.65,2.64-3.89-1.76-5.35,3.52-8.75-7.93-2.91-1.32-10.21-9.25-3.41c-2.2-13.12-22.46-58.34-22.46-58.34l-4.41-6.31,2.65-8.77c-105.26-38.4-262.05-11.65-262.05-11.65l.44,6.8-3.09,2.44-.88,8.26-10.57,1.46-33.48,7.28-12.33-12.15c-169.12,57.38-140.27,113.78-140.27,113.78l-3.75,23.81a31.51,31.51,0,0,0-6.82,31.13l-4,23.58c-15.2,8.51-7.27,24.79-7.27,24.79l-7.71,37.68c-7,3.4-1.1,10.2-1.1,10.2l-1.77,18.43c-5.21,1-10.53,1.87-14.25,3.46-1-46-2.79-92.19-2.91-138.61a3.05,3.05,0,0,1,2.73-1.35v-5.4c3.38-1.12,7.27-1.75,6.09-7.44,1.45-3.49-3.43-.63-2.71-3.39v-13.53c-.92-3,2.62-1.43,2-4.07-.63-1.14-2.48-1.1-2-3.38.54-4.14-.88-6.35-.67-10.17,5.38-4.32,21.05-21,23-23,1.14-1.18,6.27-4.25,3.4-4.71-3.28.84-6.11-1.09-9.47-1.38-5.72-.49-11.79.39-18.28,0,1.56-4.06-3.21-1.75-4.09-3.37.31-8.88-.23-16.89-.65-25.06,1.56-2,4.24-3,5.42-5.42,2.42-1.39,17.22-9.22,16.65-13.64-5.06-2.25-184.55-.55-204-.55,2.29-3.57,2.77-9,3.38-14.22.11-2.8-2.08-3.34-2-6.09,1.07-1.41.46-4.49,1.34-6.09-.92-2.46-2.33-4.45-2.69-7.44a16.77,16.77,0,0,1,4.07-5.42c-1.1-2.31-.81-5.82.65-7.42-1.31-3.36.54-4,1.37-6.77-2.21,1.13-3.55.21-4.74-1.35-6,1.18-8.24,6.2-10.84,10.84a34.08,34.08,0,0,1-2,10.8,15.84,15.84,0,0,0-8.8,2c-.09.21-.17.39-.27.58l-5.62-5.8a.49.49,0,0,0-.31-.15h0l-1.43-.73c-.67-.65-.84-1.76-.57-3.36.8-1,2-4,0-4,1.16-5,2.53-6.94,3.23-10.45-2.27,1.18-3-.35-6.09,0-1.87,3.55-5.56,8.12-7.3,11.81-.36-5.79.48-12.85,0-19-.44-5.5-1.36-9.86-6.61-10.53-2.69,1.14,0,7.67-4.75,6.76-4-3.32,2.31-7.14,0-10.8a3.49,3.49,0,0,0-2.91-.64,9.38,9.38,0,0,0,3.25-3.29c1.35-7.42-4-8.15-5.42-12.84,1.37-1.11,3.55-1.41,4.75-2.71-1.31-1.94,1.43-1.75,2-2.71,1.58-2.6,1.1-6,2.71-8.8,0-3-2.39,1.11-3.4,1.35a22,22,0,0,1-5.4,2.71c-1.87,1.55,1.56,4.24-2,4.07-1.52-.93.23-7.35-2.71-4.75-3.36,1.64,2.25,4.51-1.35,5.42-1.85-1-.37-3.24-2.71-4.73-4.21-.54-6.2-3.28-9.48-4.73.65,3.44,2.35,5.77,3.4,8.8,1.67.78,2.25,2.69,4.73,2.69-.73,3.44,2.6,2.83,4.07,4.09-1.79,3.41-5.48,6.18-4.75,10.82.67,4.19,3.88,4.85,7.44,6.78-.92,1.86-.24-1.2-1,.49-1.77.71-2.27,2.7-4,3.38-1-2.94-3.51,0-5.42,0-2.26,6.22-.13,10.57.52,18,.42,4.9,2.5,10.48-3.38,11.49,1.09-3.49-.86-7.57-2.79-10.81-3.41-1.37-3.37,1.05-6.09,0,1.22,2.26-.8,3.63-.69,5.42,0,.35,3.6,1.48,3.48,2.7-.3,2.67-2.23,5.48-1.37,9.49-.52.13-.78.55-.67,1.33.33,3.26-4.12,1.74-3.37,5.4a3,3,0,0,0-.21.4,3.63,3.63,0,0,0-1.1-2.42c-2-2.09-6.41-1.72-9.46-2.71-4-6.57-3.74-17.48-12.2-19.62a6.32,6.32,0,0,1-5.4,2c1.64,2.55.88,3.78.65,7.47,1.82,2.15,1,4.37.69,7.42.69,1.83,3.62,1.33,4.73,2.71-.23,3.17-2.77,4-2.71,7.44,1.22,2,1,5.38,2,7.44-3.87,2.49-2.37,7.43-2,12.2.19,2.39.56,4.83,0,6.09-22.07,0-216.42-1.41-216.27,1.89-.74,1.89,10.92,9.41,11.83,10.29s1.81,1.87,2.71,2.71c1.79,1.68,4.74,2.71,5.42,5.42-1,7.56-.61,16.53-.69,25-3.36-.93-4.68,1.15-6.09,1.35-10.38,1.43-22.9-1.16-33.17.67-.67.88.61,1.91,1.35,2.71,2.64,2.86,14.71,17.25,17.6,19s6,3.55,8.78,5.38v12.21c.69,2.45-3.28.31-2,3.36-.12,1.95,2.27,1.33,1.36,4.08v13.52c.21,1.81-3.78-.62-2.71,2.06v4.72c1.07,2.54,5.15,2.06,6.76,4.06v5.42c1.3.31,4.08-.92,3.4,1.33-1.55,50.76-3.46,103.15-4.88,154.46h-17.65c-15.19-29.94-30.1-61.17-40.5-85.37l0-.11v-.06l0,0-.05-.05q-4.4-10.23-8.51-20.37V1147.1h2.13v-4.61H6579v-4.26h-2.24v-15.64H6579V1118H6563q-.79-2.23-1.57-4.44Q6533,1032.67,6523,958.73l6.22-6.76h.69V941h-4.26v-6.82h-6.13q-13-70.82-21.48-193.56-6.45-93-10.33-215.61l.06-.07-.06-.07q-1.56-49.14-2.7-103l.84-7.42L6491.5,397h.15V386h-6.47l-.3-.31v-7.08l.72-.74,3.69,0v-2h.17V368h-2.13v-2.85h2.13v-7.8h-2.28l-17-17a2.94,2.94,0,0,0-2.59-.72l-.46.1v-6.56h2.13v-5.67h-2.13v-5.62h2.13v-5.67h-2.13v-4.56h2.13V306h-2.13v-4.35h2.13v-5.67h-2.13v-5.47h-1.6v-42.4h-3.54v42.4h-1.6v5.47h-2.13v5.67h2.13V306h-2.13v5.67h2.13v4.56h-2.13v5.67h2.13v5.62h-2.13v5.67h2.13v6.62a4.87,4.87,0,0,0-.65-.15,2.94,2.94,0,0,0-2.59.72l-17,17H6438v7.8h2.13V368H6438v7.8h.17v2.25l3.83,0,.65.66v6.87l-.24.24-4.71,0v0h-1.93v11h.11l5.79,18.13.66,6.08q-4,189-13,319.53-5.23,75.45-12.15,131.28l0,0,0,0q-4.33,34.94-9.33,62.2h-6V941h-4.26v11h.59l6.1,7.77a709.26,709.26,0,0,1-14.85,76.21v0h0q-9.5,37.94-23.44,77.54-.78,2.22-1.58,4.44h-15.83v4.6h2.24v15.64h-2.24v4.26h-2.13v4.6h2.13v12.32q-18.95,46.64-43.76,95.49c-16.48.42-35.62-.29-52.17.1a12.4,12.4,0,0,0-9.4-19,216,216,0,0,0,18.88-19.58,12.42,12.42,0,1,0,12.2-14.7c-.26,0-.52,0-.78,0a214.57,214.57,0,0,0,13-20.64,12.45,12.45,0,1,0,8.29-16.69,212.56,212.56,0,0,0,8.31-21.93,12.42,12.42,0,1,0,5.08-19.09,212.76,212.76,0,0,0,3.48-21.06,12.42,12.42,0,1,0,1.33-19.08q.07-2.69.07-5.39,0-8.7-.7-17.24a12.43,12.43,0,1,0-2.31-18.5,212.33,212.33,0,0,0-5.34-23.45,12.42,12.42,0,1,0-6.15-18.17q-3.47-8.92-7.71-17.43a12.42,12.42,0,1,0-9.54-17.2,214.51,214.51,0,0,0-12.73-18.4,12.42,12.42,0,1,0-13.28-15.62q-6.29-6.73-13.13-12.9a12.42,12.42,0,1,0-15.93-13q-8.17-6.06-16.91-11.34a12.42,12.42,0,1,0-18.83-10.64c0,.18,0,.36,0,.54q-8.59-4.08-17.57-7.41a12.42,12.42,0,1,0-20.82-6.5q-8.18-2.1-16.6-3.55a12.43,12.43,0,1,0-22.11-2.63c-4.77-.32-9.57-.5-14.42-.5-1.56,0-3.12,0-4.67.06a12.42,12.42,0,1,0-22.38,1.64,213.41,213.41,0,0,0-24.56,4.55,12.42,12.42,0,1,0-21.79,6.64q-8.36,3-16.44,6.8a12.42,12.42,0,1,0-19.48,10.28q-8.39,5-16.34,10.81a12.42,12.42,0,1,0-16.61,13.42q-4.62,4.12-9,8.52-2.09,2.1-4.12,4.25a12.42,12.42,0,1,0-13.9,16.21q-5.74,7.4-10.78,15.23A12.42,12.42,0,1,0,5908,980.9h.07q-4.52,8.87-8.18,18.12a12.42,12.42,0,1,0-6.85,20.21q-2.64,9.33-4.44,18.92a12.42,12.42,0,1,0-2.89,21.4c-.52,6.11-.79,12.27-.79,18.47,0,.38,0,.75,0,1.13a12.4,12.4,0,0,0-18.48,14.52l-7.17,9.43v45.62l-8.73-13.76-8,0-.19-13-7.1-11.41-7,11.69v12.51h-7.4l-.91,1.39q-4.13-5.47-8.35-11.31l-.2-21.71-5.75-8.69-7.43,8.41v2.81a752.64,752.64,0,0,1-64.72-118.12V885.31h-4.23l-5.44-26.86-5.2-25.61V812.3h-1.35v20.53l-5.2,25.61-2.82,13.86-7.06-15.39-5.56,8.6L5682.74,867l-.2-.37L5678,844.11l-5.2-25.6V798h-1.35V818.5l-4.06,20-18-33.2-4.86-5V786.94h-1.39v11.95l-9.72-10V768.8H5632v20.41l-10.34,16v-11.9h-1.38v14.06l-1.47,2.27-34.31,82.6h-8.15L5573,887l-3.79,5.22h-6l-1.92-9.42-5.21-25.62V836.66h-1.34V857.2l-5.2,25.62-5,24.4-83.17-22V873.38a3.53,3.53,0,0,0,.47-1.75v-1.91a3.47,3.47,0,1,0-6.94,0v1.91a3.73,3.73,0,0,0,.46,1.75v.92l-8.52-2.59a3,3,0,0,0,1.73-2.2l.25-1.89c.24-1.85-1.72-3.68-4.46-4.22v-4.18h2.78v-4.77h-2.78v-4.79h-1.86v4.79h-2.3v4.77h2.3v4c-2.35.08-4.22,1.22-4.44,2.86l-.26,1.89a2.55,2.55,0,0,0,.09,1l-7.95-2.41v-2.75a3.67,3.67,0,0,0,.47-1.77v-1.89a3.48,3.48,0,1,0-7,0v1.89a3.66,3.66,0,0,0,.46,1.77v11.31L5381.32,863V855.5l-20.84-4.74v7.64l-115.21-28.15V750.07h7.8V738.6h-5.79l-7.46-36.78-7.12-35.09V638.61h-1.86v28.12l-7.12,35.09-7.46,36.78h-5l-19.65-47.76L5176.75,708l-35.2-74.52-3.7-9.55-2.16-3.51v-14h-1.86v11l-22.41-22.19V580.71h-1.85v15.2l-18.15,35.36V615.41h-1.85V635.8l-23.15,74.47-10-23-7,52.61-8-10.61-17.95-31.95V674.9h-1.85v22.39l-7.12,35.1-7.08,34.88h-6.17v11.46h3.24v245h-26.86v10.5h-3.78v34.12h-6.58v126H4963v-182.4h-6.08v-9.19h-11.28V959.44H4940V930.57h-3.76V842.65h-9.42v87.92h-4.69v28.88h-7.54v43.31h-7.53v9.19h-6.14V1130h-19.26v39.37h-17.87V1027.68h-4.56V911.32l-.87.36c.26-59.73,1.49-123.59-.84-182.57-.57-14.6,1.69-29.72,0-43.73-.31-2.61-2-5-2.35-7.87-1-7,.74-14.4,0-21-.95-4.26,3.11-2.94,3.13-6.12-4.29-3.42-5.41-9.63-7.84-14.87s-6.3-10.42-7.06-15.74c-.45-3.17.78-6.8.79-9.62.08-18.62.71-38.38-3.91-56-1.14-4.31-3.68-7.92-4.71-12.24-1.84-7.74-1.55-16.34-3.13-24.49-2.9-15-6.64-29.66-10.19-44.61-1.72-7.2-4.5-14-6.27-21-.91-3.61-.64-7.43-1.57-11.37-.68-2.89-2.63-5.87-3.14-8.74-.81-4.6-.09-9.89-.79-14.87s-2.69-9.31-3.13-14c-.54-5.61.54-11.11,0-16.61-.37-3.8-2-7.52-2.35-11.38-1.69-19.13-.69-39.35-1.57-60.35-.47-11.18,1.65-23.5-1.56-35-2.65,24.64-1.36,50.95-2.35,76.09-.75,19.1-1.64,38.54-4.7,57.72-1,6.51-1.13,13-2.35,18.37-1.81,7.9-8.08,13.83-6.28,22.74-4.92,6.46-9.42,13.39-8.61,26.24q-7.82,10.08-7.06,29.73c-5,7.19-2.75,16.38-3.92,24.49-.5,3.42-2.68,6.42-3.13,9.62-.75,5.22.76,10.4,0,15.74-.47,3.18-2.64,6.35-3.14,9.62-2.34,15.28.25,32.38-.79,49.86-2.22-1.34-5.16-2.4-7.83-.88.22,4.72,7.47,6.22,5.48,10.5-5.75,3.55-12.57.24-18,.87-.65,5.07,5.69,6,7.06,12.25,1,4.43-.68,8.67,0,14.87-1.11,2-5.1.72-4.7,4.37-.51,76.14,1,162.06-.79,239.64-6,.61-9.64-1.48-15.68-.87-2.2,1-.64,6.28-2.35,7.87H4708.6c.3,10.18-1.21,13.63-.79,24.49-2.56,1.71-3.3,3.84-3.92,7-.1.51-.16,1.1-.24,1.65v20.2c.13,2.94.24,5.89.24,8.76,0,6.39-.1,12.7-.24,19v46.27c-.91-68.58-1.81-137-2.62-206.69-.6-1.82-3.72-.84-3.66-3.4V763.12c-3-2.11-8.13-1.82-11.59-3.4-.51-8.15.62-14.38-.61-20.42-.82-4-4.68-8.41-3.05-15.65-2.58-1.88-5.72-3.14-7.93-5.44-.51-2.44,1.38-3.29,0-4.76-3.37-2.93-7.7-7.07-9.15-12.93-3.26-13.14.16-33.89-2.44-49-.79-4.59-3.69-8-1.83-12.25-1-2.47-3.54-3.3-4.27-6.13,0-18.12-3.24-39.21-.61-55.8-4.34-7.64-2.44-22.24-3.67-33.34-2,8.91-.58,21.57-1.83,31.3-1.07.63-1.12,2.39-1.83,3.41,2.54,7.2,1,16.66.62,26.53-.41,9.42,1.8,20.11,0,27.22-.76,3-3.94,4.36-4.88,6.81,1.74,4.55-1.17,7.74-1.83,12.25-2.08,14.13,1.51,30.82,0,49,.11,2.85-3,2.1-2.44,5.44-.47,14-4.95,25.09-8.54,36.75-1.42,4.6-2.82,9.39-4.26,14.29-1.33,4.49-3.7,8.93-4.28,13.61-.91,7.44,1,16.17-.61,25.18-.57,1.64-4.44-.41-3.66,2.72-1.42,5-4.18,10-4.88,15.65-1.91,15.62,1.86,35.18-.61,51-.58,3.77-3.71,7.81-4.26,11.57-1,6.79-.92,14.32-.63,21.92l-5.69.2-.21-14.5h3v-2.66h2.38v-3.4h-5.42v-2.66H4595v-58h-2.6V800.69h-2.82V783.77H4587v-6.29h-2.6v-9.42H4582v-8.24h-3v-3.13h-2.37V745.57h-2.39v-9h-2.59V722.1h-2.83V701.56h-2.38l-.86-74-2,73.76h-2.38v20.56h-2.59v14.75h-3v9h-2v10.89h-3.24v6.28h-2.17v11.85h-2.61v8.7h-2.82v17.41h-2.38V818.1h-2.6v60.47h-7.37V875.3h-2.92v-5.8h2.6v-5.09h-2.92v-6.17h2.59v-5.42h-2.59v-8.69h2.92V838H4522v-6.19h5.21v-5.44h-7.81v-5.44h2.93v-6.16h-8.13V810h4.89v-6.53h-7.81v-3.26h5.19v-8.34h-7.79V789h2.6v-8.71h-7.48v-3.63H4509V769h-4.88v1.46h-2.94v-5.81h4.56v-4h-2v-4h-1.95v2.89h-3.57V756l3.57.74v-8h-8.46v-3.25l-21.13-64.21-46.5-8.71-19.19,78.34h-1.62v2.54h-5.85V760h3.57v5.81h-6.51v8.36h3.58V777h-5.2v8.71h2.6v5.44h-7.8V797h4.88v5.81h-7.8v9.07H4390v3.26h-5.53v8.35h2.92v5.42h-6.17v5.8h2.92v5.81h-6.83V847h3.91v6.52h-7.48v5.8H4376v2.92h2.59v5.05h-2.92V876h3.25v2.55h-2.6v5.8h2.93v5.78H4376V896h2.59v5.45h-2.92v6.16h3.25v3.63h-3.25v4.73h-4.55v12h-4.88V914.47h-.15V1077h-10.36v24.37H4349v-11.54H4338.5v11.54h-2.91c0-7.74.58-16.16-1.12-22.26,4.14-6.92,9.37-9.94,8-18.24-1-6-6.61-8.17-10.66-11.48V1043h-3.42a19.85,19.85,0,0,0-1.38-4.3V1025.6h-3.32v-6.95h-5.33l-2-32.22h-1.82v-21.5a5,5,0,0,0,.6-2.16,2.2,2.2,0,0,0-.6-.61V946.62h-2.58V961c-1.24-.54-2.16-1.41-1.38-4-1.05-18.5-2.14-45.47-3.42-67.28-.45-7.69-2.14-17.49-1.14-21.67,2-8.45,11.55-10.49,18.25-13.68,2.56-11,7.49-24.87,3.42-38.77-8.89-2.43-9,3.88-14.82,4.56-6.6-2.77-13.67,1-20.52-2.28,2-11.5-4.24-14.77-6.84-21.67,1.09-10.32,2-20.81,6.84-27.37-8.19-2.45-12.51-8.77-10.26-21.67-4-3.06-13.21-3.21-16-9.12-1.8-3.86-.77-15.62-1.14-27.37-.71-22.69-2-59.39-3.42-79.82-.56-8.29,8.76-18.39,3.42-28.51,1.35-3.59,6.65-3.23,6.84-8-2.51-20.74-3.43-50.1-6.84-71.84-2.84-18.08-7-34.11,10.26-39.91,6.23-23.79,29.53-30.52,39.91-50.17-7.22-10.63,2.38-16.86,4.56-27.37-15.72-7.46-29.46-16.91-45.61-23.94-1.39,4.69-6.77,5.39-9.12,9.12-3.14,2.94-3.57,8.59-8,10.26-5.76-.32-7.71-4.45-11.4-6.84-5.73-17.54-5.48-31.29-13.68-45.61-4.79-8.36-14.66-13-18.24-21.66-2.3-5.59-5-15.38-4.56-20.52.3-3.48,3.42-5.88,3.42-10.26,0-4.88-2.85-10.09-3.42-16-1.11-5.29,6.81-1.55,5.7-6.84,1.1-5.2-4-8-1.14-11.4,7.9-1.22,20.87,2.63,25.08-2.28-7.56-3.08-20.42-.86-23.95-8,2.91-8.87,18.08-5.48,22.81-12.54-8.47-.33-20.87,6.54-25.09,0,1.11-7.63,11.52-12.72,17.1-18.24.71-.71,7-4,2.28-4.56-11.19,4.31-20.29,17.93-34.21,12.54-2.54-8.46,2.48-18.65,2.28-28.51-9.72,8.33-6.92,29.87-20.52,29.65-6.36-.1-9.79-8.28-14.82-12.54.13.11-3.12-6-3.42-1.14,3,4.95,6.35,9.61,8,16-5.52,6.44-20.44,7.28-28.51,2.28-.71-24.67-9.1-49.8-4.56-77.54,1.36-8.33,5.17-15,4.56-22.81-.73-9.4-10.36-15.87-5.7-25.09,1.26-6.73,13.68-2.28,13.68-10.26,1.19-3.69,0-13.59,0-17.1-2.47-4.76-13.29-1.16-14.83-6.84-.59-8.2,7.79-7.41,6.84-16a29.82,29.82,0,0,1-5.7-13.68c-3.52.18-6.44-2.69-9.12,0-6,.87,2-6.06-3.42-4.56-7.87,2.5-10.38,8.64-10.26,18.25.08,6.5,4.22,12.65,2.28,17.1-4.17,2.29-12.07.86-14.83,4.56.7,7.54.3,9.24,0,17.1.11,4.83,6.15,3.73,6.84,8,3.18,12.49,1.52,25.93,3.42,38.77.76,5.12,4,9.65,4.56,14.82,1.58,13.65-4.56,30.53-4.56,46.75,0,14,4.37,28.9,2.28,39.91-1.23,6.48-7.38,10.83-10.26,17.1-7.61,16.58-8.69,38.8,0,53.59-1.29,4-3.53,7.11-3.42,12.54,2.91,7.35,10.86,9.66,13.68,17.1-1.41,8.79-8.46,17.63-8,26.23s8.5,11.92,11.4,19.38c1.81,4.65,4.65,15.56,3.42,22.81-1.27,7.51-12.14,17.67-13.68,28.51-.74,5.19-.48,11.24,1.14,19.39,3.55,2.92,13.56-.64,17.1,2.28,5.59,19.16-14.31,32.51-12.54,44.47,1,6.72,4.37,4.7,8,10.26-6.39,19.38-1.41,40.69,1.14,59.29,1.48,10.77-9,20.54-6.84,30.79-20.06,27.85-10.73,68.28-23.94,99.2-1.67,3.9-5.56,8.43-8,12.54s-6.46,8.44-8,12.54c-1.58,4.28-.42,9.53-2.28,13.68-2,4.56-5.9,5.92-8,10.26v14.82c-2.11,5.11-9.94,4.5-11.4,10.26,9.81,9.3,7.24,32.66-3.42,39.91-9.11,2.29-16,6.83-25.09,9.12-1.61,11.3-6.34,27.21,0,36.49,4.48,4.64,13.67,4.58,16,11.4.41,52.49-8.24,95.91-6.84,149.37-4.85,8.46-11.18,15.43-13.68,26.23-9.58,3.34-9.46,16.39-12.54,26.22,1.27,3.31,3.63,5.38,4.56,10.26,2.3,12.09-1.39,27.31-8,31.93,0,3.43-.15,6.75-.35,10v-84.89h-68.63v-19.27h-61.24v263.49l-35.23-9.63h-21v-65h-6.57v-73c6.2-.27,14.11,1.35,17.34,3.24,13,8,24.72,8,24.72,8s-1.75-16,0-23.27c-7-1.6-11.4,0-22.78-6.41a42.36,42.36,0,0,0-19.28-5v-7.27h-7.89v103.6h-75l-50-45.77-57.88,53h-15.77V1211h-26.31v-31.32h-13.16v-19.29h-39.46v21.7h-10.52v-84.32h-26.31v118h-10.52v14.46h-10.53V1121.83H3450.5v113.24l-10.52,2.4v-50.59h-10.53v-48.19H3411v113.24h-10.52v-50.59h-7.89l-5.25,50.59h-10.52l-21.05-26.5-44.72,36.14-5.66,39.31-134.58-.29c-11.17-14.24-47.88-59-84-79.91-11.67-11.69-24.16-37.61-5.83-50.12,16.66-5,22.5-9.2,21.66-29.26,3.34-12.53,1.68-28.4-19.15-34.25-16.31-4.4-85-16.37-135.41-2.76-7.21-2.34-15.81-6-14.22-9.77,4.68-5,26.33-15.71,19.66-35.09,0,0,15,0,40-26.74a84.64,84.64,0,0,1,11.66,16.7s2,4,15-4.34c-3-1.33-5.33-2.34-11-1-2.68-2-10.33-12.7-8-17,6.33-1,15.66.33,20.66-3.67,6.34-3.33,17.66.68,13.33,20.39-5,5-9,15.37-5,14.72,4-2.36,12-9,13.66-23.41,2,.35,6.33-3.68,4.66-12.37-2-8.34-18.33-21.37-18.33-21.37s-7.34-4.35-17.66,3c-3.33,1-3-.32-2.67-4.33s-3.68-15.39-13.67-31.43c-3.33-6.68,5-9.68,6.66-12.7s9,3.34,5.67-6.69c2.66-.33,9.66,1.68,5.66-6-5.66-4.69-14.66-9.7-27.33-13.37.67-5-.33-19.06-3.33-4-2.67.32-3.66-15-5-2.36-1,7-4.33,9.36-4.33,9.36s-15.86,12.57-12.41,29.63l-7.34,6.72c-1.23-7.61-4.47-16.76-12.91-20-.67-2.66-2-3.34.67-4.67,2-3.68,2.33-12.36-3-16-5.67-.35-16.33.65-11,16.37,0,3-6.33,2.68-6.33,2.68s-3.68,2-1.67,12c0,9-6.67,44.78-11.67,51.15-3,4.68-7.33,13,5.33,13-1.33,2.34-12,8-13.67,16.71-4,5-.33,5.34-9.66,9-5.33,5.69-10,10-8.67,33.77-1,18.38-12.65,40.43-16,46.78-.3,6.49-.36,9.19,4.85,10.36-14.59,8.41-30.18,22.24-40.5,46.13-21.66,8.34-71.65,38.43-78.31,70.18-17,15.79-47.94,35.07-63.62,44.45l-139.76.32-5.86-30.81-44-35.62-20.71,26.12h-10.36l-5.18-49.86h-7.77v49.86h-10.36V1149.46h-18.12v47.48h-10.36v49.87l-10.36-2.37V1132.83h-15.53v106.86h-10.36v-14.24h-10.36V1109.09h-25.89v83.1h-10.36v-21.36h-38.84v19h-12.94v30.87h-25.9v38.46H2239.7l-57-76.46L2133.55,1252h-88v39.9H2016l-23,12.3q-37.58.25-74.85.46l-512.11,4.92c-162.8,1.56-316.73,4-458.83,6.28-284.17,4.3-521,9.58-686.75,13.65L0,1336.77,260.5,1344c165.76,4.07,402.58,9.35,686.75,13.65,142.1,2.27,296,4.72,458.83,6.28l512.11,4.92c177.62,1,361.14,3,547.64,3.14l565.39,1.27,565.39-1.23q139.2,0,275.84-1.2v1.49l7144.91.93h1369.85l.24-.34,147.87-.32c186.5,0,370-2.17,547.64-3.1l512.1-4.91c162.81-1.57,316.73-4,458.83-6.29,284.17-4.29,521-9.61,686.75-13.7l260.5-7.27-260.5-7.26M8009,1201.32c-.47-.05-.91-.11-1.26-.17a4.93,4.93,0,0,1-.83-.21c-.13-.05-.21-.1-.23-.14h0v0c.07-.21.95-.43,2.32-.64ZM7839.71,892.57c-.33-.2-.54-.42-.54-.65h0c0-.1.08-.19.15-.28l.6,1-.21-.11m-938.84,14c-1.79.21-2.9-.23-2.71-2a4.35,4.35,0,0,1,3.38-.67c.1,1.2-.82,1.43-.67,2.69m-3.4-5.42c-.31-2.12,1.83-1.77,2-3.38,1.39.21.63,2.52,2,2.73-.07,1.49-2.88.27-4.06.65M3037.47,1019c4.68-.32,4.34,8.71,4.34,8.71-2.68,7.34-5-5.68-4.34-8.71m-3-4.34c-3.33,1-18.33,4.34-23.65-.67,0,0,12.32-15.37,23.65.67m-32.66-61.48-9.33,9.35s-11-13.37,9.33-9.35M2962.42,965a29.07,29.07,0,0,0,3.07,6.85c0,3-.67,8.68-10.32,6a59,59,0,0,0-.36-6.09Zm-55.58,162.09c-4.55,1.13-16.45,3.38-30,10,4.87-3.91,10.67-10.62,12.35-23.83,2.33-18.38,5-48.46,5-48.46s6-8.7,8-7,1.33,11.69,14.65,16c7,2.68,6.34,6.69,4,10-3,3-9.34,10.36-1,18.06,7.33,6.35,10.32,8,10.32,8l2.76-.31c-10.2,4.32-19.23,10-26.09,17.52m3340.36,83-18-8.84a183.81,183.81,0,0,0,13.79-16.58l6.51,22.78c-.76.88-1.54,1.76-2.31,2.63m-33.68,8.35,14.11,10.79q-5.33,4.54-11,8.71Zm1.63,20.6q-1.44,1-2.9,2.06l-15.39-12.43a183.61,183.61,0,0,0,14.86-11Zm-1.75-22.78a184.13,184.13,0,0,0,13.8-12.87l4.19,22.57c-.81.73-1.63,1.46-2.46,2.18Zm10.06-16-9.07-9.41a165.16,165.16,0,0,0,32.36-47.14l11.22,5.12,1.25-2.73-11.25-5.14a163.5,163.5,0,0,0,13.44-63.38l12.2.23a176.84,176.84,0,0,1-50.15,122.44M6253,993.75a177.12,177.12,0,0,1,8.08,17.5l-11.16,4.09a165,165,0,0,0-34.74-53.8l8.5-8.09a178.43,178.43,0,0,1,29.32,40.3h0Zm-138.31,81.06,138.16,2.57a155,155,0,0,1-12.67,60l-127-58a16.15,16.15,0,0,0,1.49-4.56m-4.09-13.68L6209,967.43a156.42,156.42,0,0,1,32.9,50.85l-128.48,47.07a16.35,16.35,0,0,0-2.81-4.21m4.3,10.68a16.17,16.17,0,0,0-.49-3.64l128.56-47.1a155.12,155.12,0,0,1,9.88,53.3ZM6251,1018.14l11.18-4.09a176.43,176.43,0,0,1,11.41,60.72l-12.18-.23a163.62,163.62,0,0,0-10.41-56.4m-37.92-58.74a165.28,165.28,0,0,0-45.08-32l4.9-10.73a178.28,178.28,0,0,1,48.68,34.59Zm-47.79-33.24a163.39,163.39,0,0,0-61.53-14.74l.21-12a176.15,176.15,0,0,1,66.21,16Zm41.6,39.13-98.52,93.83-.38-.29,56.47-123.63a156.68,156.68,0,0,1,42.44,30.09m-98.53,119.89,98,101.6a156.45,156.45,0,0,1-51.49,33.78L6105,1087.12a16.31,16.31,0,0,0,3.34-1.94m2.23-2c.36-.39.7-.8,1-1.23L6239,1140.11a156.61,156.61,0,0,1-30.52,44.54Zm140.2,122.75-6.15-21.54,17.39,6.9q-5.28,7.58-11.24,14.64m12.21-16-18.46-7.33a182.74,182.74,0,0,0,10.19-15.94l10,20.66q-.87,1.31-1.75,2.61m2.81-4.22-9.06-18.68,17,5.35q-3.7,6.83-7.92,13.33m8.71-14.82-18.83-5.93a181.82,181.82,0,0,0,8-16.32l12.53,18.95c-.56,1.11-1.14,2.21-1.72,3.31m2.57-5L6265.3,1148l18.92,1.7q-3.21,8.25-7.12,16.13m7.73-17.74-20.13-1.81q3.45-8.32,6.08-17l15.14,15.92c-.35,1-.72,1.95-1.08,2.92m1.7-4.67-13.58-14.28,18.23-.92q-2,7.73-4.65,15.2m5.08-16.88-20.33,1q2.5-8.6,4.16-17.53l16.56,14.9c-.13.54-.26,1.07-.39,1.61m.84-3.43L6276.73,1109l19.19-5q-1.28,9.74-3.48,19.17m3.7-20.94-20.25,5.3a182.39,182.39,0,0,0,2.3-20.34l18.25,12.43c-.1.87-.19,1.74-.3,2.6m.5-4.48-16.94-11.55,17.87-4.62q-.14,8.16-.93,16.16m1-19.74c0,.62,0,1.24,0,1.86l-19.28,5c.12-2.68.19-5.38.19-8.09q0-4.5-.22-8.95l19.34,10c0,.06,0,.12,0,.17m0-2.06-15.56-8.06,15.06-4.2q.44,6.08.5,12.27m-.62-14-18.72,5.23q-.37-7.13-1.28-14.11l19.82,6.93c.06.65.12,1.3.17,2m-.34-3.76-17.43-6.09,15.25-9.51q1.39,7.7,2.18,15.6m-2.51-17.35-17.35,10.82q-1-7.45-2.65-14.7l19.56,1.61c.15.76.29,1.51.44,2.27m-.79-4-18.94-1.56,15.68-11.64q1.85,6.51,3.26,13.2m-3.76-14.89-16.14,12q-1.55-6.43-3.55-12.69h19.49l.21.7m-.7-2.35h-16.17l13.11-9.14q1.64,4.52,3.06,9.14m-4.82-13.82q.6,1.53,1.17,3.07l-15.8,11q-2.26-6.88-5-13.52Zm-.65-1.64-17.78.51,12.24-13.05q3,6.16,5.54,12.55M6277.08,990l-13.51,14.41q-2.63-6.06-5.67-11.89l18.21-4.48c.33.65.65,1.31,1,2m-1.76-3.47-17.54,4.32L6270,977.07q2.76,4.67,5.27,9.49m-7.6-13.33c.48.78,1,1.56,1.44,2.34l-12.69,14.28q-4.12-7.59-8.94-14.72Zm-1-1.57-18,1.7,8-15.95q5.28,6.9,10,14.25M6255.66,956l-9,17.88q-4.78-7-10.16-13.46l17.3-6.78c.63.78,1.26,1.56,1.87,2.36m-13.35-15.43q5.42,5.65,10.38,11.72l-16.81,6.59Zm-3.31-3.38c.68.68,1.35,1.37,2,2.05L6234.43,958q-5.17-6-10.85-11.56Zm-11.46-10.54q5.28,4.5,10.24,9.35l-14.24,8.54Zm-1.43-1.21-4.31,19.26q-6-5.67-12.41-10.79l14.12-10.6q1.31,1.06,2.6,2.13m-17.22-12.88q6.85,4.57,13.29,9.68L6208,932.8l-.12-.09Zm-1.6-1.06-1,20q-6.79-5.17-14.06-9.69l12.16-12.16q1.44.91,2.86,1.83m-4.31-2.74-12.16,12.16,0,0-2.33-20.29q7.46,3.78,14.54,8.16m-16.31-9,2.31,20.1A181.94,181.94,0,0,0,6167,908.67l14.6-11.4q2.54,1.17,5,2.41m-6.74-3.18-14,11-2.84-17.6q8.62,2.95,16.87,6.65m-22.81-8.57q2.09.64,4.17,1.33l2.94,18.27a180.56,180.56,0,0,0-17.75-6.12Zm-1.71-.51-10.32,13.08-2.26-16.37q6.37,1.44,12.58,3.29m-14.3-3.67,2.32,16.81q-7.38-2-15-3.36l9.52-14.11c1,.21,2.09.43,3.14.66m-4.91-1-9.55,14.15-.84-.14-5-16.32q7.8.86,15.4,2.31M6116.31,880c.9.08,1.8.15,2.69.24l5,16.22q-6.79-1-13.73-1.58Zm-1.72-.15L6108.81,894,6102,879.27q6.32.1,12.55.57m-18.73-.57c1,0,2,0,3.08,0l1.27,0,7.08,15.44c-3.69-.22-7.4-.35-11.14-.35q-2.47,0-4.93.07Zm-1.74,0-4.57,14.93-9.75-14.07q7.09-.68,14.32-.87m-19.22,1.4,3-.35,9.84,14.19q-7.16.33-14.17,1.2Zm-1.68.2-1.3,14.82-12.53-12.52q6.83-1.38,13.82-2.3m-19.7,3.59c1.31-.31,2.63-.6,3.94-.88l12.61,12.6q-8.78,1.26-17.27,3.35Zm-1.68.41-.72,15.07-.58.14-11.75-11.56q6.43-2,13-3.66M6037,889.13l11.67,11.48q-8.43,2.28-16.53,5.32l1.75-15.76q1.55-.54,3.11-1m-4.84,1.66-1.76,15.81-.46.18-12-10.27q7-3.12,14.22-5.72m-15.88,6.47,11.93,10.2q-7,2.83-13.75,6.22l-.91-15.14,2.73-1.28m-4.34,2.06.91,15.17-.48.25-11.54-9.55q5.45-3.11,11.11-5.88m-12.64,6.76,11.48,9.51q-6.56,3.49-12.8,7.48l-1-15.63,2.3-1.36m-3.9,2.33.94,15-10.47-8.79q4.67-3.25,9.53-6.24m-10.95,7.22,10.92,9.16q-5.54,3.69-10.79,7.76l-2.31-15.35c.73-.53,1.45-1.06,2.19-1.58m-3.7,2.68L5983,933,5971,926q4.74-4,9.73-7.71m-11.08,8.85,12.47,7.31q-5,4-9.77,8.43l-4.19-14.44,1.49-1.29m-2.86,2.51,4,13.91-14.54-3.83q5.07-5.23,10.5-10.08M5955,941.11l15.05,4q-5.54,5.31-10.62,11.08l-6.67-12.64c.74-.81,1.48-1.61,2.24-2.41m-3.43,3.7,6.12,11.6-13.63-2.78q3.63-4.52,7.51-8.82m-8.68,10.27,14.84,3q-5,5.78-9.43,12l-7.13-12.76c.57-.75,1.14-1.49,1.72-2.23m-2.82,3.66,7.08,12.67-14.53-2q3.56-5.44,7.45-10.63m-8.46,12.16,14.65,2.06q-4.11,5.92-7.76,12.17l-8.72-11.29c.61-1,1.21-2,1.83-2.93m-2.76,4.44,8.64,11.19h-14.92q3-5.7,6.28-11.19m-7.13,12.84h15q-2.87,5.15-5.42,10.51l-10.41-8.93c.26-.53.52-1.05.79-1.58m-1.55,3.11,9.29,8-14,2.53q2.22-5.33,4.73-10.5m-5.47,12.32,15.67-2.84q-3.18,6.91-5.78,14.12l-10.84-8.88c.31-.8.63-1.6,1-2.4m-1.58,4,9.66,7.92-13.82,4.22q1.89-6.16,4.16-12.14m-4.73,14,15.47-4.72a180.22,180.22,0,0,0-5.2,17.86l-11.41-9.11q.55-2,1.15-4m15.92,116.15h0c.2.57.4,1.13.6,1.69l-15-.25c-.33-1-.65-2-1-3l11.43-10.76q1.34,4.8,2.93,9.5l-.08,0Zm106.28,23.84-9.48-15.29,65.94-62.8a16.38,16.38,0,0,0,4.81,3.37l-38.13,83.48v-8.77Zm23.15,92.39q3.57.85,7.19,1.56l-1.4,7.61-.45.67q-2.67,0-5.33-.11Zm-38.89-135.38v19.25l-56.6,9.11a155.07,155.07,0,0,1-8.12-18.66l133.89-49a16.24,16.24,0,0,0,1.13,1.94l-65.64,62.52-3.72-6v-19.1Zm73.2-58.91-95.88-99.43a156.21,156.21,0,0,1,50.79-30.9l47.93,128.35a16.32,16.32,0,0,0-2.84,2m-2.09,2.15a16.18,16.18,0,0,0-2.35,3.93l-127-58A156.76,156.76,0,0,1,5990,962.38Zm-3.25,6.82a16.56,16.56,0,0,0-.32,2.48l-141.23-2.62a154.85,154.85,0,0,1,14.14-58Zm-.23,5.48a16.19,16.19,0,0,0,.47,2.3l-133.82,49a155.34,155.34,0,0,1-8.15-49.77q0-2.1.06-4.18Zm-133.08,74.24-14.49,2.33q-1-2.26-2-4.56v-11.54l9.22-3.38a163.27,163.27,0,0,0,7.3,17.15m-137.71-12.6c.75,2.45,1.67,5.43,2.7,8.73l-2.59,3.95Zm67.75,85.79c-2.6-6-5-12.06-6.8-16.49v-2.57c5.67,5.65,10.94,10.64,15.76,15-1.77.72-5.18,2.14-9,4m9.26-3.32-.51,21.82c-2.53-4.53-5.58-11.15-8.45-17.81,3.79-1.87,7.19-3.3,9-4m-9.93,3.66c-2,1-4.11,2.17-6.13,3.39v-18.2c1.69,4.23,3.85,9.5,6.12,14.81m.31.7c2.57,6,5.27,11.87,7.64,16.31-4.35-3.52-9.09-7.5-14.08-11.94v-.78c2.1-1.3,4.31-2.52,6.44-3.59m7.6,21.08-.09.09.48.59a1.54,1.54,0,0,1,.22-.19l.81.64-.32,13.76-15.15-1.14v-25.44c5,4.37,9.72,8.26,14,11.69m12.76-7.54c2.9-1.61,5.34-2.82,6.57-3.43l.5.4v18.12c-2.19-4.1-4.71-9.66-7.07-15.1m7.07,16.41v1.14c-4.28-2.93-9.76-6.87-16.15-11.88a94,94,0,0,1,8.53-5.36c2.56,5.93,5.31,12,7.62,16.11m-7.37-17.12c-2.1-4.91-4-9.67-5.41-13.11,4.43,3.9,8.32,7.17,11.62,9.88-1.31.63-3.57,1.76-6.21,3.24m-.55.32a97.48,97.48,0,0,0-8.84,5.56l-.35-.26.5-22.15,2.77,2.49c1.4,3.51,3.55,8.84,5.92,14.36m7.92,22.52v1.73l-17.52-1.32.31-12.92c7,5.44,12.86,9.59,17.21,12.51M5932,1144q-.88-2.15-1.71-4.32l.1-.11h-.14q-.65-1.72-1.27-3.46l3-1.11Zm-2.06,7.58-13.16,2.12,9.76-10.13q1.61,4.05,3.4,8m-14.86,1.49q-2.46-6-4.54-12.17l15.07.25.27.71Zm-6.57-18.63q-1.46-4.9-2.67-9.91l13.46-.25Zm-3.07-11.56c-.24-1-.46-2.07-.68-3.11l11.92-10.9q1.25,7,3,13.73Zm8.81-34q.55,8.3,1.83,16.38l-14-.64q-.25-1.85-.46-3.71Zm-12.84,10q-.62-5.9-.89-11.89l11.83,1.45Zm14.88,8.09-11.95,10.92c-.78-3.82-1.44-7.68-2-11.57Zm-9.49-79.55,10.21,8.15-13.55,6.92q1.38-7.64,3.34-15.07m-3.69,17.11,15.11-7.72q-1.72,7.68-2.78,15.58l-12.6-6.22q.13-.82.27-1.63m-.55,3.34,12.65,6.25v.07l-14.26,7.66q.57-7.06,1.61-14m-1.76,15.93,14.17-7.61a183.59,183.59,0,0,0-1.16,20.47c0,3.46.11,6.9.3,10.32l-13.67-1.67q-.08-2.23-.12-4.48l13.61-11.91-13.3-2.53q.07-1.3.16-2.59m-.26,4.26,9.75,1.85-10,8.74c0-.25,0-.5,0-.75q0-5,.24-9.85M5878.19,1102a12.35,12.35,0,0,0,7.8-2.77,212.69,212.69,0,0,0,3.2,21.28,12.42,12.42,0,1,0,5.13,20.19q3,9.81,6.92,19.2a12.42,12.42,0,1,0,5.25,21.79v46.66a455,455,0,0,1-33.85-31.05l.05-93.48-3.29-5.46a12.39,12.39,0,0,0,8.79,3.64m-60.44,37.47-2.83,4.32c-1.33-4.25-2.46-7.94-3.27-10.59l0-1.91q3.08,4.19,6.11,8.19M5772.82,1085c5.86,4.43,11,8.79,13.59,11v26.53c-.42-.71-.86-1.43-1.29-2.15-3.59-8.3-8.22-22.24-12.31-35.39m9.14,30q-10.49-18.13-19.5-37.3c3,1.93,6.15,4.14,9.12,6.36,3.36,10.83,7.11,22.34,10.39,30.94m16.23,20.85v5.21q-5.08-7.62-9.9-15.45c2.23,0,4.53.14,6.81.35,1,3.3,2,6.64,3.09,9.89m-2.26-9.8,2.27.26v7c-.76-2.41-1.52-4.85-2.26-7.26m-8.29-29c.31.26.49.41.51.44l.1-.17q5,7.73,10,15v13.26c-.83-.1-1.66-.2-2.51-.28-3.71-12.17-6.93-23.66-8-27.7Zm0,3.36c1.47,5.21,4.17,14.73,7.22,24.76a70.37,70.37,0,0,0-7-.33,3.51,3.51,0,0,0-.18-.3Zm0,31.22q5.13,8.17,10.55,16.09l0,91.81h-10.5Zm-1.22-37.13v.48c-2.8-2.39-8.08-6.82-14-11.27-3-9.66-5.69-18.76-7.42-24.77q10.68,18.91,21.4,35.55M5761.71,1053c.46.84.92,1.67,1.37,2.49,1.49,5.22,4.56,15.77,8.11,27.27-3.09-2.28-6.29-4.53-9.37-6.44,0-.09-.07-.16-.1-.24Zm0,31.75a491.82,491.82,0,0,0,24.71,44.93v109.82h-24.71Zm-28.22-88.13c8.73,19.35,17.8,37.39,27,54.17v22.61c-.71-1.54-1.42-3.08-2.11-4.63a520.19,520.19,0,0,1-24.89-68.58Zm0,16.5a520.39,520.39,0,0,0,21.58,57.35q2.63,5.92,5.43,11.73v157.3h-27Zm-488.2-70.86,301.33,56.49v33l5.56,18.15v106.53c-1.25.28-2.1,1.35-3.12,2.07-.06,7.58-.89,13.67-.54,22.06-1.65-3.79-6.44-1.47-9.71-2.1-3.22-5.28-9.33-4.94-12.4-10.5-2.36,0-3.33,2.62-4.85,4.2.75-7.6-2.16-8.16-4.85-6.3-2.95,2-1.11,13.25-1.62,20-14.4,1-28.67,2.27-43.68,2.1a36.33,36.33,0,0,0-1.08-11.55c-2.2.52-3.38-3.33-5.93-4.2-4.74-1.63-11.62.46-14.56,2.1-2.44,1.36-3.76,4.55-5.39,4.2-.25-5.12.56-12.3-.54-15.75-4-.66-7-3.2-10.25-5.25-2.84,3.92-7.08,5.11-9.17,10.5-.68,6-.52,13.69-3.24,15.76-1.36-11.27-8.47-12.21-12.4-5.25-.77-3-2.93-2.12-3.78,0-1.88-4-4.31-3.72-6.47-3.15s-2.43,4.05-4.31,5.25c-2.17,1.38-3.54-1.25-5.39,1-1.32,6.2.23,18-1.08,24.16-2.94.22-6.48-.73-8.63,1-1,2.28.1,8.6-1.08,10.51q-2.88-.36-2.7,5.25c-.75,2.4-3.75.39-5.39,1-2.19-12.65,1.57-41.41-5.93-39.91-3.54.71-2.9,8.94-4.85,14.7-3.57,2.3-8.65-.09-13.48-1.05-.36-46.56,0,0-.54,0-2.44-2.26-6.94,4.66-10.25,4.11-1-3.23-.07,25.44-1.62,23.21-8.47-6.17-17.86-32.08-25.35-25.79-.35,5.27-.54,30.94-.54,0-10,4-21.61-4.64-31.27,0,0,.2,0,.38,0,.58h0c-.61,18.62-.46,9.74-.22,0a272.7,272.7,0,0,1-30.65,1.05ZM5044.36,777.5l0,.28h-.46ZM4311.91,967.93v13.65c-.35-3.71-.79-7.35-1.38-10.82a5.25,5.25,0,0,1,1.38-2.82m1749.9,282.89q-4.07-.8-8.07-1.79v-14.53q5.24,1.43,10.61,2.52Zm-8.07-25.19v-48l36.13-79.11-24,130.07q-6.17-1.25-12.16-3m24.82,38.15c.2-1.86.4-3.71.6-5.53q3.21.3,6.44.49l-2.32,5-4.72.1m6.57-.14,2.26-4.81,1.47.06,2.21,4.63-5.94.13m8.21-.18h-.45l-2.16-4.52c.87,0,1.74,0,2.61,0Zm0-9.34c-1.67,0-3.33-.08-5-.15l-.26-.54-.24.52q-4.1-.19-8.15-.57l1.51-13.89q6,.57,12.14.71Zm0-22.45q-5.66-.13-11.21-.66c5.06-46.56,8.71-80.52,11.21-104Zm4.86-175.81a16.26,16.26,0,0,0-4.54.76l-47.87-128.19a155.27,155.27,0,0,1,51.15-8.63q1.85,0,3.68,0Zm2.58-144.55c-1.28,0-2.55,0-3.84,0a163.74,163.74,0,0,0-54.14,9.16l-4.26-11.4-2.81,1,4.24,11.37a164.78,164.78,0,0,0-53.74,32.75l-8.55-8.87-2.16,2.08,8.52,8.83a164.37,164.37,0,0,0-42.94,172.25l-13.14,4.81a176.65,176.65,0,0,1-9.27-56.6c0-97.86,79.61-177.48,177.47-177.48,1.62,0,3.22,0,4.83.08Zm2.85,8.65a154.83,154.83,0,0,1,58.13,14l-56.36,123.4a16.13,16.13,0,0,0-4.2-1.27Zm-1.15,311.65v-95.95c2.84,23.43,6.64,55,11.42,95.13q-5.65.61-11.42.82m12.42,7.67,1.63,13.71c-2.06.24-4.12.45-6.2.61l-.1-.19-.06.2q-3.82.3-7.69.43v-13.88q6.27-.21,12.42-.88m-7.7,24-4.72,0v-4.39q3.09-.11,6.16-.32Zm1.73,0,1.48-4.82.59-.05,2.58,4.93q-2.3,0-4.65-.06m6.54.1-2.69-5.13q2.17-.2,4.32-.44l.67,5.65-2.3-.08m-12.84-174.2,49.45,132.43a154.64,154.64,0,0,1-23.19,6.78Zm27.85,147.61a163,163,0,0,0,24.59-7.18l4.6,12.31,2.81-1-4.61-12.35a165,165,0,0,0,54.43-35.64l9.08,9.41a177.34,177.34,0,0,1-88.35,48Zm6.81,36.1-3.14-16.65,10.75,15q-3.78.9-7.61,1.65m9.35-2.07-11.48-16q8.82-1.93,17.31-4.7L6150,1270q-1.66.44-3.33.85m5.06-1.32,2.51-20,.29-.09,13.35,14.85q-7.92,2.94-16.15,5.2m21.61-7.33q-1.89.77-3.8,1.49l-13.32-14.81a181.21,181.21,0,0,0,17.67-7.24Zm1.67-.68.55-20.17,14,13.44q-7.1,3.65-14.53,6.73M6191,1254l-14.29-13.74a182.17,182.17,0,0,0,17.15-9.67l1.09,21.27q-2,1.09-4,2.14m4.48-24.3,15.33,12.38q-6.91,4.73-14.24,8.88Zm38.35,43.47c-11.7-.16-13.27,4-17.7,6.89-4.24-3-2.29-8.64-7.38-11.28h-.24a12.47,12.47,0,0,0-5.6-3.82,214.74,214.74,0,0,0,26.7-17.65c0,.35-.05.7-.05,1.06a12.41,12.41,0,0,0,7,11.16c-2.22,4-2.53,8.78-2.72,13.62m-1-48.52-4-21.76,17.27,8.49q-6.3,6.94-13.23,13.27M6461.1,675.26c0-2.09,0-132.57,0-138.22,0,5.82,0,79,0,86.22.56,53.3,8.12,250.56,24.46,312.58h-39.5c14.33-54.73,15.08-209.58,15-260.58m-34.88,398.59,0,0,0,0c4.43-22.84,8.57-48.12,12.82-77.11h49.21c6.88,46.87,13.44,84.05,21.47,116.91l0,.1.08,0q.52,2.14,1.05,4.25h-94.34c3.48-13.84,6.67-28.41,9.73-44.14M6561.35,1270c.93-3.74-1.47-6.06-5.9-7.52-7.58-.08-8.26,2.76-10.33,5-12.42-4.42-30.34,2.23-41.3,4.39v10c-2.15,1.18-9.66.08-11.8,1.25.8,5.77-13.67,5.05-16.22,9.4-5.14-1.23-9.16-2.36-16.23-1.25-5.09.76-.89,5.47-4.43,6.89-13.38-2.17-8.67,6.11-17.7,3.76-5.53-.48-2.82-3.64-3-5-1.33-14.46,2.21-30.52-1.48-43.23-19.7-.93-42,.35-64.54.65,2.23-2.63,4.55-5.17,7-7.6a124.78,124.78,0,0,1,189.16,14.83c-.88,2.89-.36,6.38-3.26,8.41m170.58.12q-13.54.25-27.35.39c1.24-48.57,2-97.59,3.57-145.8.68-1.49,1.79.08,2.71-1.37.69-1.07-1.08-3.41.69-4,1.64-.09,3.24-.11,4,.69.42-1.84-.84-5.37.67-6.11h19c-.65,51.84-2.62,104.26-3.28,156.25m90.16-.34c-13.47,1-27.91.31-42.22-.32.72-48,1.6-95.83,2.07-144.07,0-2.06,3.39-.69,3.38-2.71-1.15-3.4,2.13-2.39,3.38-3.4.42-1.6-.84-4.89.69-5.42,10.74,1.22,24-.12,34.51,1.37-.9,51.2-1.15,103.08-1.79,154.54M6939,956.5a22.54,22.54,0,0,0-1.73,5.23l-1.94,3.77.54.89a3.86,3.86,0,0,1-.76-.48l-.42.82a7.4,7.4,0,0,0,.3-1l.13.14.21-.41-.21-.35c0,.21-.08.42-.13.62a.53.53,0,0,1,0-.76l.08.14c.42-2.56-.33-5.07.49-8.27a12.16,12.16,0,0,1-4-7.06Zm-4.75,27.45c-.17-4.24-.27-8.4,2-10.16,0-1.6-1.45-1.7-1.92-2.79.15-.42.21-.91.36-1.32a10.48,10.48,0,0,0,1.57-.29l-1.31-.16c.26-.28.68-.4,1.43-.18,2,4.88,1.2,12.4,0,16.91h-2.49v-1.56c1-.46,1.81-.77.33-.46m-1.51,1.13v.68c-.45-.17-.34-.42,0-.68M6922,977.17c.79-.12,1.2.13,1.34.69a27.53,27.53,0,0,1,.67,8.11h-3.36c-.19-3.57,1.76-5,1.35-8.8m-12.86,1.35a30.83,30.83,0,0,1,8.8-.67c-.29,3.19,1.2,4.68.67,8.11h-9.47Zm-5-80.76c4.16-.25,4.58,7.61,1.37,8.8-2.06.25-1.41-2.2-2-3.36,1.2-.11,1.41.81,2.69.67.94-.21.56-1.69.67-2.73-.08-1.49-1.7.88-3.36,0-.28-1.6,1.22-1.45.65-3.38m-.9,11.43a.43.43,0,0,1-.1-.06c-.65-2.12-.29-1.1.1.06m-1.44,6v3.4h-3.37c.38-1.87.71-3.79,3.37-3.4m-5.57,62.65c3.46-.56,4.9.94,8.11.67.82,1.89.76,4.68.69,7.44-4.78,1.79-7.46-4.54-8.8,0-2.08-2.1.82-5,0-8.11m-4.06-.69c-.82,3.57,2.64,6.38.67,8.8-3,.12.33-1.91-1.35-2.71,0-1.58-1.14-2-.69-4.07-.77-.09-.56-1.24-.65-2Zm-7.44.69c2.1-.9,3.79,5.93.67,7.44-2.5-1.68,1.72-5.9-.67-7.44m-6.76-7.36a3,3,0,0,1,.05,1.53,4.75,4.75,0,0,1-.05-1.53m-.67,4.82c.47.36,1.05.62,1.31,1.18V986h-1.5Zm-1.33-4.92c.08,0,.14,0,.22,0L6876,986h-1.3c2.33-3.36-.67-10.73,1.37-15.57M6855.75,986c1.57-4-4.27-11.18.67-14.89.88.91,2.94.67,4.76.67,0-.93.12-1.89-.69-2,.8-1.82,1.77,1.77,2.71,2,0,2,1.76,2.31,2,4.07-1.28,3.47.42,5.78,0,10.15-2.06.52-1.3-1.85-3.36-1.33s-3,2-6.11,1.33m83.9,140.11v143.28c-3.65-.21-7.34-.43-11-.59-1-27.78,0,0-1.48,0-6.67-1.35-19,2.78-28,2.45-1.54-1-1.46,3.51-1.75,7.69h-25.49c-4.48-1.5-9-3.07-13.39-4.5.14-50.17.44-100.16,1.24-149.68-.23-1.81,3.78.64,2.71-2-.19-1.79-.23-3.4,2-2.71.42-1.63-.84-4.93.69-5.42h70.38c-.09,1.94.39,4.43-.69,5.42,2.68-.86,2,1.6,2,3.35.42,1.41,3.43.21,2.73,2.73M6944.49,986c-2.2.58-1.12-2.27-1.35-3.39-.69-3.42-.61-8.48,1.35-11.49a3.25,3.25,0,0,0,2,.67c.21,5.63-3.24,7.58-2,14.22m7.44-2c-1.2-.08-1.43.8-2.69.69-.07-6.83,2.86-10.69,5.4-14.9a.68.68,0,0,1,0,1.35c1.16.88,3.82-.42,6.09.67a13.34,13.34,0,0,1-3.37,10.82c-.19,1.56.17,2.56,1.35,2.73-1.52,1.47-6.76.93-6.78-1.35m41.09,295c-1.07-8.22,2.18-19-14.2-18.28-3.92.17-6,1.08-7.37,2.32-.16-49.52.29-99.67-.68-148.37h39.93V1120c1,.36,3.51-.81,3.39.69-1.31,4,2.45,2.94,2.71,5.39.11,51.23,1,101.71,1.24,152.82Zm97.91-21.42c-5.15-2.36-11.79-2.22-17.7-1.88-5.51.32-6.65,2.42-11.8,3.13l-1.11.13c-.06-24.1.88-48.36-.23-72.55-.69-15.86.12-34-.65-50.77-.34-7.12-1.73-14,0-21h23.67V1120c1.18.38,4-.83,4.07.69-1.28,4,2.15,3.21,2.71,5.39,1,43.37,1.51,87.28,2.27,130.9a7.12,7.12,0,0,0-1.23.5m538.62-186.07c0-7.45,5.47-13.49,12.22-13.49s12.23,6,12.23,13.49v32.25q-12.09-2.1-24.45-3.77Zm-38.54-83h11.9v16.53H7591Zm-1.1,77.29c0-7.51,5.62-13.6,12.55-13.6s12.56,6.09,12.56,13.6v32.41c-8.33-1-16.7-1.75-25.11-2.44Zm-81.69-83.12h11.89V999.1h-11.89ZM7459.1,1064c0-8.21,5.92-14.86,13.21-14.86s13.21,6.65,13.21,14.86v24.24a16.6,16.6,0,0,1-.67,4.66q-12.58.27-24.82.8a16.32,16.32,0,0,1-.93-5.46Zm-32.82-80h11.9v16.53h-11.9Zm-8.8,80c0-8.21,5.92-14.86,13.21-14.86s13.21,6.65,13.21,14.86v24.24a16.19,16.19,0,0,1-1.25,6.27q-11.87.64-23.25,1.45a16.25,16.25,0,0,1-1.93-7.72Zm-42.29,3.65c0-8.21,5.92-14.86,13.21-14.86s13.21,6.65,13.21,14.86v24.25a16.54,16.54,0,0,1-.94,5.49q-12.22,1-23.59,2.13a16.06,16.06,0,0,1-1.9-7.62Zm-25.54-69.56,11.45-1v16.52l-11.45,1Zm-11.46,76.11c0-8.2,5.92-14.85,13.21-14.85s13.21,6.65,13.21,14.85v24.25a16.86,16.86,0,0,1-.17,2.35c-9,1-17.49,1.95-25.38,2.91a16.63,16.63,0,0,1-.87-5.26Zm-2.11,55.25c8.55.71,14.94,8.72,14.27,17.88l-2,27a17.18,17.18,0,0,1-3.62,9.45q-12,.44-22.93.89a17.31,17.31,0,0,1-4.4-12.94l2-27.06c.67-9.15,8.14-16,16.68-15.28m-34.48-29.42,1.94-24.15c.67-8.17,7.09-14.22,14.36-13.51s12.63,7.92,12,16.1l-1.95,24.15a16.84,16.84,0,0,1-.42,2.56c-9.19,1.21-17.35,2.35-24.3,3.39a16.26,16.26,0,0,1-1.6-8.54M7218,1063l-4.18,2.43,2-13.86,4-2.17Zm31.49-18-4.63,1.21.88-13.61,5.06-2.44Zm41-31.11,8.82-3.16-2.2,16.53-8.37,2.2Zm40,223.07-2.42,25.81q-15.48.18-31.21.26l2.71-28.89c1-11.12,8.82-19.51,17.35-18.74s14.61,10.42,13.57,21.55m42.13,25.17q-15.5.25-31,.47v-26.35c0-10.71,7-19.37,15.52-19.37s15.52,8.66,15.52,19.37Zm-10-78.95a18.1,18.1,0,0,1-3.19-10.36V1145c0-9.43,7-17.07,15.52-17.07s15.53,7.64,15.53,17.07v27.85a18.15,18.15,0,0,1-2.7,9.6c-8.62.24-17,.49-25.16.76m57.59,68.09c-4.59.35-7,1.61-10.57,2.41,2.06-4.53-5.9-4.87-13.28-3.76-8.07,1.17-3,7.9-4.43,11.9l-2.78,0v-28.14c0-12.52,7-22.69,15.52-22.69s15.53,10.17,15.53,22.69Zm13.87-80.65a18.06,18.06,0,0,1-3.54,10.86q-12,.2-23.61.47a18,18,0,0,1-3.9-11.33v-27.84c0-9.43,6.95-17.07,15.52-17.07s15.52,7.64,15.52,17.07Zm33.69,86.78c-3.78.07-7.63.17-10.92,0-5.11-1.83-12.87-2.53-20.12-3.44v-21c0-12.53,7-22.69,15.52-22.69s15.53,10.15,15.53,22.69Zm11.24-86.78a18.12,18.12,0,0,1-3.19,10.37q-12.39.06-24.52.19a18.11,18.11,0,0,1-3.34-10.57v-27.84c0-9.43,7-17.07,15.53-17.07s15.52,7.64,15.52,17.07Zm35,68.85-5.54-1.46c-6.36,1.06-9.33,3.56-11.8,6.26-5.4-.21-8.2.7-11.8,1.25-.17,4.52-2.44,8.15-1.48,13.16-.13-.06-.29-.12-.43-.17v-21.89c0-12.52,6.95-22.69,15.52-22.69s15.53,10.17,15.53,22.69Zm11.23-66.65a18.3,18.3,0,0,1-2,8.29q-13.67-.14-27.21-.16a18.32,18.32,0,0,1-1.88-8.14V1145c0-9.43,7-17.07,15.52-17.07s15.52,7.64,15.52,17.07Zm4-80.66c0,.2,0,.39,0,.59q-13.95-.22-27.7-.11c0-.16,0-.33,0-.48V1062.3c0-8.45,6.21-15.32,13.87-15.32s13.88,6.87,13.88,15.32Zm33.69,164.48a72.84,72.84,0,0,1-14.6.16c-.8-4,1.71-9.5-1.48-12.53a121.65,121.65,0,0,1-15-1.08v-4.3c0-11.36,7-20.57,15.52-20.57s15.53,9.21,15.53,20.57Zm7.93-82.37a18.3,18.3,0,0,1-1.67,7.69q-14-.38-28-.62a18.42,18.42,0,0,1-1.4-7.08v-27.85c0-9.43,7-17.07,15.52-17.07s15.52,7.64,15.52,17.07Zm3.3-83.85a16.14,16.14,0,0,1-.5,4q-12.85-.76-25.68-1.22a16.43,16.43,0,0,1-.25-2.8v-24.24c0-8.21,5.92-14.86,13.21-14.86S7574,1058,7574,1066.23ZM7609.72,1268h-1.35c-4.62-3.91-5.84-8.94-14.42-12.36a69.86,69.86,0,0,0-15.28-.49v-16.24c0-12.53,7-22.69,15.53-22.69s15.52,10.15,15.52,22.69Zm7.27-91.46a18.77,18.77,0,0,1-1.44,7.27q-13.89-.67-28-1.17a18.8,18.8,0,0,1-1-6.1v-27.83c0-9.43,6.8-17.09,15.19-17.09s15.2,7.65,15.2,17.09Zm37,91.46h-31.06v-30.55c0-12.52,7-22.69,15.52-22.69s15.53,10.17,15.53,22.69Zm5.28-88.53a18.85,18.85,0,0,1-1.31,6.92q-14-1-28.4-1.85a18.8,18.8,0,0,1-.69-5.07v-27.86c0-9.43,6.8-17.07,15.19-17.07s15.2,7.64,15.2,17.07Zm4.62-101.16c0-7.61,5.32-13.78,11.9-13.78s11.89,6.17,11.89,13.78v32.39q-11.7-2.84-23.78-5.17ZM7666,1268l-2-25.69c-.91-11.94,3.8-22.12,10.5-22.74s12.87,8.55,13.78,20.5l2.12,27.93Zm27-78.58q-12.36-1.25-25.18-2.28a22.27,22.27,0,0,1-.4-3l-1.7-27.78c-.58-9.4,4.86-17.47,12.14-18s13.66,6.64,14.23,16l1.7,27.78a21.25,21.25,0,0,1-.79,7.28m16,73.74c-2.39.71-5.12,1.5-8.11,2.33l-1.73-22.86c-.88-11.71,2.8-21.62,8.24-22.12s10.56,8.58,11.45,20.31l1.94,25.64a53.22,53.22,0,0,0-11.78-3.29m11.84-70.55c-6.41-.83-13-1.59-19.61-2.32,0-.27,0-.53-.06-.81l-1.6-26.14c-.54-8.86,3.44-16.37,8.91-16.77s10.34,6.44,10.89,15.29L7721,1188a25.36,25.36,0,0,1-.12,4.6m16.19,66.79a13.73,13.73,0,0,0-3,8.6h-7.11l-2.39-23.57c-1.18-11.69,2.25-21.71,7.67-22.37s10.77,8.27,11.95,20l1.76,17.35-8.87,0M7908.7,885.18q2.6-10.12,5.53-19.89l-.77,22.76,1.39.84Zm6.84-58.9a462.11,462.11,0,0,0-17,52.77l-7.41-4.48,0,.13-20.83,4.67h0l-5.21,1.17a609.42,609.42,0,0,1,50.84-65.43Zm8.85-20.53c-1.51,1.64-3,3.29-4.46,4.94l-3.58,4q4-4.45,8-8.89h0m29.24,462-1.1,0-1.13,0-1,0v-2.71l3.22-.09Zm46.94,0h-45.45V1265c1.89,0,43.11-.07,45.45-.09Zm4.25.11-1.09,0-1.09,0h-.58v-2.86h3.73l.06,3Zm18.31-190.15v2.85a4.22,4.22,0,0,1-2.44-1.17v-.49h0c.24-.45,1.12-.86,2.44-1.19m-5.92,121.88H8020c0,.17,0,.34,0,.5v.43c0,.49,0,.86,0,1.12h-.6v0l-.89,0h-1.35Zm-7.14,1.9V1200c1.66-.2,3.77-.35,6.09-.43v2.06c-2.33,0-4.43-.07-6.09-.2m10.5,1.39c-2.83,0-5.41.13-8,.29l.81,0v-.92c.87,0,1.79,0,2.75,0v.77l1.05,0v-.74h1.4l.84,0v.72l1,0v-.74h.08l.06,9.33h0Zm1.53-119.55a12.66,12.66,0,0,0-1.45.58l0,0v-3.32a11.51,11.51,0,0,0,1.9.62l.54.12V1083l.25-.06c-.45.11-.88.24-1.28.37m2.26-.6.16,0v-1.13a37.36,37.36,0,0,0,5,.38,49.73,49.73,0,0,0-5.11.78m5.37-1.46a33.46,33.46,0,0,1-5.21-.42v-3.42a33.61,33.61,0,0,1,5.21-.42Zm1.39,0v-4.24c.92,0,1.8.08,2.62.16l.07,3.92c-.84.09-1.75.14-2.69.17m5.16-170.66c-.58.12-1.11.25-1.56.38a3.29,3.29,0,0,1-.32-.24,1.38,1.38,0,0,1-.47-.75v0c-.1-.75.79-1.48,2.36-2.12Zm6.58-.7a38.85,38.85,0,0,0-5.17.43v-2.87h-.39a30,30,0,0,1,4.49-1c.34-.05.72-.09,1.08-.14Zm8.4-204.18a26.18,26.18,0,0,0-3.25,1.06v-5.15a22,22,0,0,1,3.25-1.42Zm1.3-.3v-5.65c.81-.26,1.64-.51,2.49-.74l.06,5.95c-.91.12-1.76.27-2.55.44m153.3,137.33c-2.35-.27-4.71-.4-6.9-.44V839.1c2.2.09,4.56.23,6.9.43Zm20.88,3.69.56.37-.56.11Zm-16.18-2.93-.07,0-.3-.06-1.17-.23-1.66-.27v-3.21c1.83.18,3.6.41,5.22.68v3.53l1.12.28v-3.59a30.08,30.08,0,0,1,3.17.83v3.67l.82.26a68.9,68.9,0,0,0-7.12-1.87m7.29,1.93.13,0v-3.64c.9.33,1.77.68,2.61,1.07v3.47l.85.31c-1.12-.42-2.33-.84-3.59-1.25m6,2.2c-.71-.28-1.44-.58-2.24-.87l.06,0v-3.35c.59.29,1.13.61,1.68.92v3.05h0l.69.28-.15-.06m1.73.7-.68-.28.68-.1Zm0-2.55v1.33l-1.12.16v-2.31c.45.27.83.55,1.25.82Zm2.8,3.77-1.68-.74v-1c.77-.13,1.31-.25,1.68-.33Zm3.39,175.49-.68,0h-.52v-2.18l1.21,0Zm4.56.36-.74-.1-1.49-.14-.48,0v-2.15c.94.06,1.84.14,2.71.24Zm5.26.87-1.22-.23-1.63-.29-1.14-.17v-2.19c1.27.18,2.63.42,4,.68Zm7.69,1.72-1.12-.28-1.43-.34-1.51-.35-1.58-.34-.19,0v-2.2c2.11.45,4.15.93,5.84,1.36Zm5.17,137.84v-2.08c11.31-.23,18.36.77,21.38,1.36a103.9,103.9,0,0,1-11.07,1.08c-3.08-.23-6.54-.38-10.31-.35m13.83.63.26,0a77,77,0,0,0,8.62-1l-.06-.07.1,0v2.35l.21.06a58.74,58.74,0,0,0-9.14-1.34M8280,1267h-1v-2.7h1Zm3,0h-2v-2.67h2Zm7.88,0h-6v-2.64h23.86v2.62h-17.87Zm19.84,0h-.95v-2.62h.95ZM8467,1062.61l-.81.81-2.68,3.74,0-6.67.89-1,3.55-.39v-1l2.93.88Zm108.54-16.31.44.87.12.16.64.66.75.37-.83,5.89-.93,4.18-.09.25-1.27,1.27,0,0-.16-22.16,1.41-2.25.68-4.68-2.34-2.38-2.1-2.15-.37-2.55,2.79,0h3.3l.09,10.64-1.35.17,0,.11.17,1.23,1.21-.15.06,6.56-.21,0-.85.43-.67.67-.43.86-.14,1Zm3.44-25.12h1l0-.14v-1.25h-1v-.69l3.15,0,0,3.17-3.14,0Zm3.07,18.91-1,.47-.76.77-.47,1,0,.33-.5-.24-.17,0,0-6.75,1.36-.17,0-.13-.16-1.22-1.23.15-.08-10.46,3.14,0,.06,7.33-1.52.19,0,.15.2,1.38,1.36-.17.07,7.4Zm181.61,137.11-15.51-.08,0-11.47,15.51.22Zm0-30-15.5.24.08-35.87,4.71-17.25,10.83,1.41Zm.36-222.72-14.41.35-1,0,.06-31.75,15.4,8.77Zm.09-60.26-.83.06L8748.74,856l.07-34.87,5.64,3.21.27.27,3.08,1.78.34.15.39.12,5.6,3.19Zm.11-71.41-15.33-8.73,0-24.39,5.48,3.12.29.18,2.94,1.71.21.07,6.41,3.65Zm.09-61.45-15.3-8.7,0-24.39,15.31,8.71Zm.09-62.35-.81,0-.63.06-13.85-7.88,0-21,15.28,8.7Zm.09-57.57h-.15l-.58,0-14.53-8.27.05-24.79.83.22,3.5.58,4.2.39,4.65.18h2.09Zm32.5,565.9,0-88.87,2.42-1,33.08,57.19-.28,2.16-19.69,30.6Zm33.15.16,11-17.11.64.26,9.81,17ZM9245.5,116.18l-93.91-.59-14.51-80.06,122.68.83ZM9855.25,788.3a8.42,8.42,0,0,0,4-3.13,24.7,24.7,0,0,0,2.26-4.84l46-1.13c-2.57,2.55,0,6.82,0,6.82l-53.1,111.25Zm102.84,299c-29.19,7.5-62.19,19.5-83.19,24-9,1.93-1.5-49.5-1.5-72,11.35-3.14,73.32-19.9,84.69-23Zm2.26-189.39V918c-22.43,8.78-45.08,17.67-68.46,26.88q-11.16,4.39-21.27,8.55l-.51-.62-.65-45.83h-9.09v-6l52.28-112.46,53.68,109.35Zm10.52-5.12L9918.59,786s1.15,0,1.42-2.27a9.44,9.44,0,0,0-.26-4h51.13Zm780.64-54.32c-2.48-.18-2.44-1-2.44-4.09V817.92c0-3.22,0-4,2.74-4.11Zm4.11-24.68c2.79.13,2.74.89,2.74,4.11V834.4c0,3.09,0,3.91-2.45,4.09Zm277.81,551.31V1358l1.9,7.09Zm0-26V1318h17.73l-11.71,43.73Zm10.16,26,12.63-47.17h5.76l12.63,47.17ZM11067,1318h23.41l-11.71,43.73Zm44.44,47.17h-28.6l12.62-47.17h8c3.54,8.18,6.35,14.65,8,18.43Z" transform="translate(0 0)"/></g></g></g></svg>