<?xml version="1.0" encoding="utf-8"?>
<!-- Generator: Adobe Illustrator 15.0.0, SVG Export Plug-In . SVG Version: 6.00 Build 0)  -->
<!DOCTYPE svg PUBLIC "-//W3C//DTD SVG 1.1 Tiny//EN" "http://www.w3.org/Graphics/SVG/1.1/DTD/svg11-tiny.dtd">
<svg version="1.1" baseProfile="tiny" id="Layer_1" xmlns="http://www.w3.org/2000/svg" xmlns:xlink="http://www.w3.org/1999/xlink"
	 x="0px" y="0px" width="39.975px" height="62.478px" viewBox="0 0 39.975 62.478" xml:space="preserve">
<linearGradient id="SVGID_1_" gradientUnits="userSpaceOnUse" x1="19.9863" y1="0" x2="19.9863" y2="62.4785">
	<stop  offset="0" style="stop-color:#21f4e1"/>
	<stop  offset="1" style="stop-color:#12a7da"/>
</linearGradient>
<path fill="url(#SVGID_1_)" d="M18.894,31.239L2.545,47.586c-3.395,3.396-3.395,8.95,0,12.346c3.396,3.395,8.951,3.395,12.346,0
	l22.158-22.159c0.128-0.113,0.258-0.221,0.38-0.343c1.702-1.702,2.551-3.948,2.545-6.191c0.006-2.244-0.843-4.489-2.545-6.191
	c-0.122-0.122-0.252-0.229-0.38-0.343L14.891,2.546c-3.395-3.395-8.95-3.395-12.346,0c-3.395,3.396-3.395,8.95,0,12.345
	L18.894,31.239z"/>
<rect display="none" fill="none" width="39.975" height="62.478"/>
</svg>
