<svg xmlns="http://www.w3.org/2000/svg" xmlns:xlink="http://www.w3.org/1999/xlink" viewBox="0 0 145.8 145.8"><defs><style>.cls-1{fill:none;}.cls-2{clip-path:url(#clip-path);}.cls-3{opacity:0.35;}.cls-4{fill:#fff;}.cls-5{clip-path:url(#clip-path-4);}.cls-6{fill:url(#Безымянный_градиент);}</style><clipPath id="clip-path"><rect class="cls-1" x="32.88" y="32.87" width="80.05" height="80.05"/></clipPath><clipPath id="clip-path-4"><path class="cls-1" d="M38.45,72.9A34.45,34.45,0,1,1,72.9,107.35,34.49,34.49,0,0,1,38.45,72.9m-2,0A36.45,36.45,0,1,0,72.9,36.45,36.49,36.49,0,0,0,36.45,72.9"/></clipPath><linearGradient id="Безымянный_градиент" x1="32.88" y1="112.93" x2="33.88" y2="112.93" gradientTransform="matrix(0, 72.87, 72.87, 0, -8156.05, -2359.08)" gradientUnits="userSpaceOnUse"><stop offset="0" stop-color="#6cffce"/><stop offset="0" stop-color="#6cffce"/><stop offset="0.13" stop-color="#66f7cf"/><stop offset="0.33" stop-color="#56e2d2"/><stop offset="0.58" stop-color="#3bc0d7"/><stop offset="0.85" stop-color="#1690de"/><stop offset="1" stop-color="#0074e2"/></linearGradient></defs><title>circle</title><g id="Слой_2" data-name="Слой 2"><g id="Слой_1-2" data-name="Слой 1"><g class="cls-2"><g class="cls-2"><g class="cls-3"><g class="cls-2"><path class="cls-4" d="M112.93,72.9a40,40,0,1,1-40-40,40,40,0,0,1,40,40"/></g></g><path class="cls-4" d="M105.08,72.9A32.18,32.18,0,1,1,72.9,40.72,32.18,32.18,0,0,1,105.08,72.9"/></g><g class="cls-5"><rect class="cls-6" x="21.35" y="21.35" width="103.1" height="103.1" transform="translate(-30.2 72.9) rotate(-45)"/></g></g></g></g></svg>