<?xml version="1.0" encoding="utf-8"?>
<!-- Generator: Adobe Illustrator 15.0.0, SVG Export Plug-In . SVG Version: 6.00 Build 0)  -->
<!DOCTYPE svg PUBLIC "-//W3C//DTD SVG 1.1 Tiny//EN" "http://www.w3.org/Graphics/SVG/1.1/DTD/svg11-tiny.dtd">
<svg version="1.1" baseProfile="tiny" id="Layer_1" xmlns="http://www.w3.org/2000/svg" xmlns:xlink="http://www.w3.org/1999/xlink"
	 x="0px" y="0px" width="95.723px" height="78.557px" viewBox="0 0 95.723 78.557" xml:space="preserve">
<linearGradient id="SVGID_1_" gradientUnits="userSpaceOnUse" x1="0" y1="0" x2="94" y2="60">
	<stop  offset="0" style="stop-color:#007ec7"/>
	<stop  offset="1" style="stop-color:#00f5e7"/>
</linearGradient>

<g>
	<path fill="url(#SVGID_1_)" d="M88.216,19.982c-0.304,0-0.604-0.11-0.837-0.325c-2.009-1.83-6.828-3.133-10.026-2.067c0,0-1.095,0.081-1.345-0.875
		c-0.284-1.087,0.56-1.48,0.56-1.48c2.922-0.974,6.628-0.457,9.465,0.743c-1.257-2.232-3.646-3.656-7.222-4.321
		c0,0-1.203-0.463-0.828-1.613c0.271-0.83,1.282-0.83,1.282-0.83c7.533,1.401,9.695,5.861,10.181,9.355
		c0.072,0.518-0.188,1.026-0.65,1.27C88.611,19.935,88.413,19.982,88.216,19.982"/>
	<path fill="url(#SVGID_1_)" d="M73.116,13.22c0,0-0.85,0.918-1.682,0.296c-0.709-0.53-0.481-1.519-0.481-1.519c2.352-4.157,5.829-7.59,9.507-9.501
		c-2.911-0.316-6.964,1.205-9.705,3.947c0,0-0.936,0.591-1.668-0.14c-0.738-0.738-0.088-1.617-0.088-1.617
		c4.653-4.655,12.055-6.134,15.531-3.105c0.343,0.3,0.494,0.763,0.396,1.207c-0.1,0.445-0.435,0.799-0.872,0.924
		C79.965,4.876,75.773,8.52,73.116,13.22"/>
	<path fill="url(#SVGID_1_)" d="M64.977,34.911c-0.31,0-0.614-0.115-0.85-0.336c-3.664-3.432-5.254-7.052-4.859-11.07c0,0,0.279-1.24,1.339-1.115
		c0.987,0.116,1.133,1.358,1.133,1.358c-0.234,2.392,0.454,4.643,2.097,6.827c0.304-4.493,1.277-8.56,2.907-12.126
		c0,0,0.676-1.226,1.782-0.673c0.956,0.478,0.477,1.707,0.477,1.707c-1.847,4.04-2.784,8.813-2.784,14.186
		c0,0.495-0.294,0.942-0.748,1.138C65.312,34.876,65.144,34.911,64.977,34.911"/>
	<path fill="url(#SVGID_1_)" d="M85.647,52.555c0,0-0.134,1.498-1.347,1.363c-1.286-0.142-1.125-1.611-1.125-1.611c1.748-17.476-3.172-29.124-15.481-36.66
		c0,0-1.185-0.844-0.501-1.844c0.558-0.813,1.798-0.273,1.798-0.273C82.027,21.509,87.476,34.275,85.647,52.555"/>
	<path fill="url(#SVGID_1_)" d="M76.927,52.713c0,0-0.358,1.244-1.513,0.896c-1.194-0.361-0.905-1.46-0.905-1.46c4.203-18.016-0.949-24.365-4.711-29
		c0,0-0.483-1.05,0.141-1.674c0.728-0.728,1.775,0.092,1.775,0.092l0.013,0.017C75.582,26.334,81.407,33.512,76.927,52.713"/>
	<path fill="url(#SVGID_1_)" d="M51.576,26.556c-0.095,0-0.191-0.011-0.287-0.034c-0.451-0.107-0.804-0.454-0.918-0.904
		c-0.814-3.236,0.063-6.765,2.411-9.683c2.633-3.273,6.691-5.203,10.592-5.111c0,0,1.432-0.045,1.432,1.111
		c0,1.538-1.508,1.373-1.508,1.373c-3.148-0.114-6.426,1.506-8.58,4.184c-1.234,1.533-1.96,3.26-2.123,4.973
		c3.292-3.111,7.773-6.004,11.479-6.52c0,0,0.92,0.093,1.044,0.978c0.146,1.039-0.701,1.481-0.701,1.481
		c-3.86,0.539-9.013,4.381-11.899,7.721C52.277,26.402,51.933,26.556,51.576,26.556"/>
	<path fill="url(#SVGID_1_)" d="M66.644,11.272c-0.549-3.892-2.708-5.474-4.424-6.116c-2.013-0.752-4.413-0.574-6.518,0.391
		c2.196,0.692,4.539,1.77,5.419,3.357c0,0,0.462,0.871-0.327,1.347c-0.998,0.604-1.845-0.142-1.845-0.142
		c-0.447-0.805-2.685-2.041-6.543-2.853c-0.462-0.096-0.829-0.447-0.947-0.903c-0.119-0.457,0.032-0.941,0.389-1.251
		C54.97,2.395,59.49,1.483,63.091,2.83c3.316,1.242,5.451,4.116,6.013,8.095c0,0,0.164,0.932-1.035,1.156
		C66.842,12.309,66.644,11.272,66.644,11.272"/>
	<path fill="url(#SVGID_1_)" d="M21.454,25.278c-4.109,0-7.452-3.343-7.452-7.452c0-4.11,3.343-7.452,7.452-7.452c4.109,0,7.452,3.342,7.452,7.452
		C28.906,21.935,25.563,25.278,21.454,25.278 M21.454,12.858c-2.739,0-4.968,2.228-4.968,4.968c0,2.74,2.229,4.968,4.968,4.968
		c2.739,0,4.968-2.228,4.968-4.968C26.422,15.086,24.193,12.858,21.454,12.858"/>
	<path fill="url(#SVGID_1_)" d="M11.654,16.515l0.003-0.006c-0.009-0.002-0.018-0.002-0.026-0.004c-0.232-0.103-0.514-0.161-0.856-0.138
		c-0.1,0.005-0.199,0.009-0.299,0.015c-0.564-0.018-1.135,0.007-1.701,0.035c-1.634,0.082-1.848,1.808-0.729,2.332l-0.003,0.006
		c0.008,0.002,0.018,0.002,0.026,0.004c0.232,0.104,0.514,0.161,0.856,0.139c0.1-0.006,0.199-0.01,0.299-0.016
		c0.564,0.019,1.135-0.007,1.701-0.035C12.559,18.765,12.772,17.039,11.654,16.515"/>
	<path fill="url(#SVGID_1_)" d="M34.517,16.851l0.003-0.005c-0.009-0.002-0.018-0.003-0.026-0.005c-0.227-0.113-0.507-0.182-0.849-0.175
		c-0.1,0.002-0.199,0.002-0.299,0.004c-0.563-0.042-1.136-0.041-1.701-0.036c-1.637,0.014-1.922,1.729-0.827,2.299l-0.003,0.006
		c0.009,0.002,0.018,0.003,0.026,0.005c0.227,0.113,0.507,0.182,0.849,0.175c0.1-0.002,0.2-0.002,0.3-0.004
		c0.563,0.042,1.134,0.041,1.7,0.036C35.327,19.137,35.612,17.422,34.517,16.851"/>
	<path fill="url(#SVGID_1_)" d="M22.605,8.027L22.61,8.03c0.002-0.009,0.003-0.018,0.004-0.026c0.104-0.232,0.161-0.513,0.139-0.855
		c-0.006-0.101-0.01-0.199-0.016-0.3c0.019-0.564-0.007-1.135-0.035-1.7C22.62,3.514,20.895,3.3,20.37,4.42l-0.005-0.003
		c-0.002,0.008-0.002,0.017-0.004,0.026c-0.104,0.231-0.161,0.513-0.139,0.855c0.006,0.1,0.01,0.199,0.016,0.299
		c-0.019,0.565,0.007,1.136,0.035,1.701C20.355,8.932,22.08,9.146,22.605,8.027"/>
	<path fill="url(#SVGID_1_)" d="M22.269,30.89l0.005,0.003c0.002-0.009,0.003-0.018,0.005-0.026c0.114-0.227,0.183-0.506,0.175-0.849
		c-0.002-0.1-0.002-0.199-0.003-0.3c0.041-0.562,0.04-1.135,0.035-1.7c-0.013-1.637-1.728-1.922-2.299-0.826l-0.005-0.004
		c-0.003,0.009-0.003,0.017-0.006,0.026c-0.113,0.228-0.182,0.507-0.175,0.849c0.003,0.1,0.003,0.199,0.004,0.3
		c-0.042,0.563-0.04,1.134-0.035,1.701C19.983,31.7,21.698,31.985,22.269,30.89"/>
	<path fill="url(#SVGID_1_)" d="M29.033,11.719l0.002,0.006c0.007-0.005,0.014-0.011,0.021-0.016c0.237-0.091,0.477-0.249,0.704-0.507
		c0.066-0.075,0.133-0.147,0.2-0.222c0.412-0.386,0.798-0.808,1.177-1.228c1.098-1.214,0.029-2.585-1.133-2.165l-0.001-0.006
		c-0.008,0.005-0.014,0.011-0.022,0.016c-0.237,0.091-0.477,0.249-0.703,0.507c-0.066,0.075-0.134,0.148-0.2,0.222
		C28.666,8.712,28.28,9.134,27.9,9.554C26.803,10.768,27.871,12.139,29.033,11.719"/>
	<path fill="url(#SVGID_1_)" d="M12.628,27.648l0.002,0.006c0.007-0.005,0.014-0.011,0.022-0.016c0.241-0.08,0.487-0.228,0.724-0.476
		c0.069-0.073,0.139-0.142,0.209-0.214c0.428-0.369,0.831-0.775,1.228-1.178c1.147-1.166,0.137-2.581-1.042-2.21l-0.001-0.006
		c-0.008,0.004-0.015,0.011-0.022,0.015c-0.241,0.081-0.488,0.229-0.724,0.476c-0.069,0.073-0.14,0.143-0.209,0.215
		c-0.428,0.368-0.832,0.774-1.229,1.177C10.439,26.604,11.451,28.018,12.628,27.648"/>
	<path fill="url(#SVGID_1_)" d="M27.252,25.326l-0.006,0.002c0.005,0.008,0.011,0.014,0.016,0.021c0.09,0.238,0.249,0.477,0.506,0.704
		c0.075,0.066,0.148,0.133,0.223,0.2c0.386,0.412,0.808,0.798,1.228,1.177c1.213,1.098,2.584,0.029,2.164-1.132l0.007-0.002
		c-0.005-0.008-0.012-0.015-0.016-0.022c-0.091-0.237-0.249-0.477-0.507-0.703c-0.075-0.066-0.148-0.134-0.223-0.2
		c-0.386-0.412-0.808-0.799-1.227-1.178C28.204,23.096,26.833,24.164,27.252,25.326"/>
	<path fill="url(#SVGID_1_)" d="M11.324,8.921l-0.006,0.002c0.005,0.008,0.01,0.015,0.015,0.021c0.08,0.242,0.229,0.488,0.476,0.724
		c0.073,0.069,0.142,0.14,0.215,0.21c0.368,0.428,0.774,0.831,1.177,1.228c1.166,1.147,2.581,0.136,2.21-1.041l0.006-0.002
		c-0.004-0.008-0.01-0.015-0.015-0.023c-0.08-0.24-0.229-0.486-0.476-0.723c-0.073-0.07-0.143-0.14-0.215-0.209
		c-0.368-0.428-0.773-0.832-1.177-1.229C12.367,6.733,10.954,7.742,11.324,8.921"/>
</g>
<linearGradient id="SVGID_2_" gradientUnits="userSpaceOnUse" x1="0" y1="60" x2="94" y2="77">
	<stop  offset="0" style="stop-color:#007ec7"/>
	<stop  offset="1" style="stop-color:#00f5e7"/>
</linearGradient>
<g>
	<path fill="none" stroke="url(#SVGID_2_)" stroke-width="2.5" stroke-linecap="round" stroke-linejoin="round" stroke-miterlimit="10" d="
		M1.25,57.697c0,0,3.658,4.544,8.313,2.992c3.205-1.067,9.512-5.532,14.078-3.325c6.291,3.041,10.34,7.15,20.063,2.218
		c6.674-3.387,9.632-1.391,17.403,1.33c6.65,2.327,11.407-3.303,15.741-3.437c4.967-0.153,8.043,3.131,10.973,3.77
		c2.359,0.513,6.651-1.995,6.651-1.995"/>
	<path fill="none" stroke="url(#SVGID_2_)" stroke-width="2.5" stroke-linecap="round" stroke-linejoin="round" stroke-miterlimit="10" d="
		M11.004,66.343c3.436,0.776,7.406-3.426,11.972-1.219c6.291,3.04,10.894,6.706,20.617,1.774c6.674-3.388,10.462-1.489,18.068,1.662
		c7.761,3.215,11.739-2.527,16.073-2.66c4.968-0.154,9.089,3.547,13.08,1.995"/>
	<path fill="none" stroke="url(#SVGID_2_)" stroke-width="2.5" stroke-linecap="round" stroke-linejoin="round" stroke-miterlimit="10" d="
		M19.983,74.435c2.882-1.107,6.983-1.33,11.196,0.556c4.429,1.98,6.069,2.188,13.301-0.556c6.999-2.653,9.468-0.771,17.182,2.106
		c7.426,2.771,10.752-2.993,17.403-1.441"/>
</g>
</svg>
