<?xml version="1.0" encoding="utf-8"?>
<!-- Generator: Adobe Illustrator 15.0.0, SVG Export Plug-In . SVG Version: 6.00 Build 0)  -->
<!DOCTYPE svg PUBLIC "-//W3C//DTD SVG 1.1 Tiny//EN" "http://www.w3.org/Graphics/SVG/1.1/DTD/svg11-tiny.dtd">
<svg version="1.1" baseProfile="tiny" id="Layer_1" xmlns="http://www.w3.org/2000/svg" xmlns:xlink="http://www.w3.org/1999/xlink"
	 x="0px" y="0px" width="1501.811px" height="2508.85px" viewBox="0 0 1501.811 2508.85" xml:space="preserve">
<linearGradient id="SVGID_1_" gradientUnits="userSpaceOnUse" x1="0" y1="0" x2="1501" y2="2509">
	<stop  offset="0" style="stop-color:#007ec7"/>
	<stop  offset="1" style="stop-color:#00f5e7"/>
</linearGradient>

<g>
	<path fill="url(#SVGID_1_)" d="M40.417,975.859c50.91,52.997,281.026,230,277.855,231.707c-48.018,25.809-59.529,55.287-68.813,74.566
		c-16.435,34.145-19.171,69.059-9.114,101.698c-1.037,0.241-2.098,0.485-3.09,0.743c-39.745,10.574-74.064,44.109-91.812,89.706
		c-14.757,37.903-15.122,75.774-2.274,109.889c-0.933,0.283-1.865,0.532-2.801,0.844c-35.451,11.794-64.276,41.621-79.086,81.82
		c-37.907,102.858,30.604,176.285,102.714,234.549c0.082,0.058,0.159,0.119,0.237,0.189l0.008,0.003l251.592,207.173
		c101.125,81.697,222.597,96.488,262.696,99.162l66.74,56.487l-9.345,11.414c-12.39,15.133-10.346,37.409,4.588,50.039
		l206.431,174.537c6.724,5.684,14.938,8.465,23.107,8.465c10.174,0,20.279-4.315,27.366-12.695
		c12.771-15.101,10.881-37.7-4.228-50.474l-179.506-151.773l440.203-537.681l189.828,150.779
		c15.492,12.297,38.025,9.717,50.32-5.771c12.303-15.491,9.723-38.018-5.768-50.323l-217.467-172.725
		c-15.327-12.17-37.589-9.789-49.985,5.36l-4.058,4.954c-0.022-0.016-0.039-0.034-0.062-0.054l-68.687-56.767
		c-8.114-64.929-41.279-339.161-32.964-425.236c7.587-78.568,52.35-116.583,91.849-150.114
		c23.908-20.286,46.473-39.457,57.968-65.413c14.178-32.05,8.472-65.872-17.449-103.402c-32.909-47.65-89.819-71.643-160.245-67.571
		c-115.758,6.701-235.904,85.277-292.178,191.088c-0.156,0.287-0.304,0.579-0.451,0.874
		c-20.659,41.611-38.536,133.024-48.948,194.958l-541.24-423.598c-27.569-22.272-60.894-30.41-93.838-22.925
		c-40.153,9.125-76.287,40.126-96.663,82.914C3.94,864.071-22.028,910.854,40.417,975.859 M77.188,873.418
		c10.89-22.863,30.072-40.39,48.87-44.662c12.059-2.739,23.251,0.229,34.211,9.083l588.636,461.89
		c9.842,7.947,23.195,9.988,34.946,5.329c11.761-4.653,20.101-15.274,21.841-27.799c6.927-50.017,29.638-189.16,51.478-233.737
		c50.686-94.843,156.041-149.021,234.047-153.537c26.084-1.508,73.581,1.361,98.469,37.397c16.19,23.45,12.43,31.945,11.021,35.143
		c-4.988,11.271-21.613,25.382-39.211,40.329c-44.715,37.96-105.963,89.962-116.277,196.846
		c-10.168,105.244,33.134,440.691,34.984,454.918c1.212,9.308,5.968,17.289,12.739,22.762c0.225,0.182,0.474,0.339,0.698,0.51
		l-0.022,0.035l78.704,64.852l-382.618,467.34c-14.946-12.685-75.558-64.104-77.205-65.278c-5.639-4.021-12.518-6.42-19.976-6.484
		c-1.231-0.018-131.667-2.636-232.601-84.177l-251.599-207.182c-0.021-0.03-0.129-0.104-0.199-0.154
		c-98.423-79.519-93.989-120.541-81.012-155.754c7.286-19.789,20.53-34.561,35.419-39.521c12.183-4.056,25.47-1.496,39.503,7.602
		c0.125,0.07,0.25,0.137,0.378,0.215c0.575,0.367,1.177,0.699,1.779,1.024c0.432,0.245,0.855,0.497,1.299,0.721
		c0.605,0.295,1.219,0.556,1.834,0.827c0.466,0.193,0.925,0.398,1.398,0.578c0.575,0.223,1.17,0.404,1.765,0.6
		c0.509,0.154,1.026,0.335,1.551,0.47c0.547,0.156,1.107,0.261,1.678,0.384c0.556,0.122,1.113,0.253,1.679,0.348
		c0.532,0.076,1.065,0.136,1.598,0.205c0.591,0.063,1.189,0.14,1.783,0.184c0.517,0.03,1.05,0.021,1.562,0.046
		c0.611,0.004,1.209,0.024,1.812,0.011c0.532-0.014,1.06-0.064,1.59-0.111c0.586-0.043,1.169-0.074,1.744-0.151
		c0.556-0.066,1.107-0.179,1.656-0.269c0.551-0.102,1.096-0.18,1.644-0.304c0.575-0.128,1.138-0.292,1.694-0.442
		c0.514-0.148,1.026-0.275,1.531-0.442c0.578-0.196,1.143-0.413,1.706-0.63c0.49-0.191,0.968-0.361,1.45-0.568
		c0.551-0.249,1.095-0.527,1.636-0.792c0.47-0.233,0.949-0.463,1.407-0.716c0.52-0.291,1.018-0.614,1.523-0.933
		c0.463-0.287,0.936-0.575,1.392-0.89c0.461-0.322,0.913-0.677,1.356-1.029c0.466-0.351,0.937-0.703,1.383-1.089
		c0.42-0.356,0.812-0.73,1.213-1.111c0.454-0.428,0.905-0.848,1.344-1.303c0.381-0.396,0.735-0.822,1.096-1.23
		c0.412-0.474,0.824-0.942,1.205-1.435c0.105-0.137,0.221-0.244,0.315-0.369c0.279-0.372,0.513-0.766,0.781-1.143
		c0.237-0.338,0.498-0.657,0.726-1.012c0.083-0.135,0.153-0.263,0.23-0.391c0.338-0.536,0.648-1.097,0.956-1.655
		c0.276-0.491,0.552-0.988,0.805-1.482c0.237-0.485,0.45-0.971,0.664-1.469c0.272-0.61,0.54-1.224,0.773-1.841
		c0.132-0.346,0.238-0.686,0.346-1.031c0.276-0.8,0.529-1.604,0.743-2.413c0.03-0.143,0.058-0.283,0.093-0.427
		c2.716-11.022-0.082-22.782-7.61-31.393c-0.066-0.095-0.147-0.172-0.217-0.258c-0.664-0.737-1.356-1.458-2.083-2.148
		c-0.268-0.26-0.552-0.5-0.839-0.742c-0.557-0.495-1.116-0.988-1.715-1.458c-0.116-0.093-0.225-0.202-0.346-0.299
		c-25.202-19.055-50.913-52.258-31.525-102.073c9.37-24.082,26.831-42.664,44.475-47.357c14.044-3.738,29.749,1.295,46.685,14.957
		c0.273,0.22,0.536,0.437,0.82,0.649c0.354,0.269,0.719,0.483,1.066,0.732c0.501,0.349,0.982,0.702,1.491,1.024
		c0.49,0.307,0.987,0.588,1.489,0.87c0.525,0.296,1.045,0.592,1.581,0.86c0.509,0.244,1.031,0.474,1.547,0.703
		c0.544,0.232,1.084,0.471,1.624,0.68c0.533,0.206,1.073,0.374,1.617,0.56c0.548,0.175,1.085,0.358,1.637,0.505
		c0.555,0.152,1.115,0.269,1.691,0.39c0.539,0.121,1.076,0.241,1.627,0.33c0.568,0.101,1.143,0.159,1.718,0.241
		c0.54,0.065,1.088,0.128,1.636,0.171c0.575,0.038,1.139,0.047,1.714,0.059c0.559,0.01,1.107,0.03,1.664,0.022
		c0.563-0.016,1.131-0.063,1.697-0.108c0.553-0.039,1.101-0.075,1.656-0.148c0.556-0.062,1.108-0.153,1.664-0.249
		c0.555-0.089,1.115-0.189,1.66-0.307c0.54-0.121,1.076-0.263,1.608-0.404c0.556-0.151,1.104-0.299,1.648-0.474
		c0.524-0.166,1.045-0.37,1.566-0.563c0.536-0.202,1.072-0.399,1.598-0.621c0.52-0.23,1.017-0.479,1.523-0.72
		c0.517-0.261,1.022-0.509,1.52-0.784c0.507-0.28,0.99-0.588,1.484-0.888c0.481-0.297,0.956-0.589,1.426-0.917
		c0.494-0.334,0.956-0.703,1.426-1.06c0.451-0.339,0.89-0.686,1.325-1.042c0.459-0.397,0.906-0.824,1.357-1.239
		c0.403-0.385,0.812-0.759,1.204-1.159c0.428-0.455,0.832-0.928,1.244-1.402c0.272-0.312,0.568-0.592,0.831-0.93
		c0.106-0.128,0.188-0.267,0.285-0.388c0.108-0.14,0.228-0.26,0.33-0.401c0.264-0.345,0.474-0.703,0.73-1.056
		c0.354-0.501,0.703-0.995,1.038-1.509c0.287-0.474,0.56-0.947,0.824-1.426c0.311-0.557,0.633-1.106,0.91-1.666
		c0.224-0.465,0.43-0.927,0.64-1.396c0.261-0.595,0.533-1.21,0.758-1.816c0.163-0.441,0.316-0.89,0.459-1.329
		c0.218-0.659,0.427-1.31,0.602-1.97c0.113-0.424,0.206-0.847,0.292-1.262c0.167-0.693,0.314-1.385,0.435-2.088
		c0.063-0.405,0.105-0.806,0.159-1.204c0.094-0.729,0.175-1.458,0.226-2.186c0.03-0.378,0.03-0.758,0.047-1.146
		c0.023-0.748,0.034-1.489,0.018-2.235c-0.014-0.373-0.042-0.755-0.065-1.123c-0.051-0.746-0.106-1.484-0.202-2.226
		c-0.051-0.386-0.113-0.775-0.179-1.156c-0.105-0.715-0.233-1.426-0.385-2.129c-0.097-0.417-0.214-0.824-0.323-1.239
		c-0.175-0.66-0.346-1.313-0.566-1.967c-0.141-0.463-0.32-0.918-0.487-1.372c-0.217-0.583-0.431-1.17-0.684-1.732
		c-0.221-0.518-0.47-1.016-0.719-1.521c-0.244-0.486-0.481-0.995-0.749-1.472c-0.312-0.558-0.642-1.097-0.977-1.632
		c-0.263-0.409-0.512-0.836-0.795-1.243c-0.393-0.577-0.817-1.12-1.249-1.668c-0.271-0.367-0.542-0.724-0.828-1.066
		c-0.462-0.544-0.963-1.075-1.468-1.597c-0.315-0.326-0.618-0.657-0.941-0.98c-0.493-0.48-1.029-0.932-1.551-1.383
		c-0.287-0.232-0.54-0.506-0.831-0.733c-0.186-0.151-0.369-0.279-0.559-0.432c-0.074-0.062-0.144-0.135-0.234-0.194
		c-26.9-20.461-54.387-54.389-32.625-99.616c8.674-18.009,25.762-40.691,45.384-45.311c12.785-3.012,27.666,1.982,44.257,14.833
		c0.016,0.024,0.035,0.039,0.065,0.056c0.075,0.058,0.14,0.108,0.206,0.171c0.405,0.303,0.813,0.544,1.225,0.82
		c0.54,0.381,1.069,0.77,1.612,1.106c0.463,0.284,0.945,0.525,1.423,0.786c0.556,0.31,1.1,0.632,1.656,0.913
		c0.504,0.235,1.014,0.431,1.515,0.644c0.568,0.239,1.111,0.502,1.675,0.708c0.533,0.194,1.069,0.343,1.602,0.505
		c0.551,0.177,1.111,0.365,1.678,0.518c0.548,0.147,1.104,0.244,1.663,0.356c0.552,0.121,1.093,0.25,1.664,0.335
		c0.564,0.09,1.131,0.137,1.705,0.194c0.549,0.063,1.101,0.136,1.649,0.18c0.575,0.029,1.142,0.021,1.706,0.021
		c0.56,0.009,1.119,0.033,1.667,0.018c0.56-0.015,1.12-0.078,1.675-0.132c0.563-0.045,1.124-0.082,1.678-0.156
		c0.545-0.061,1.085-0.182,1.622-0.274c0.575-0.103,1.142-0.188,1.694-0.316c0.524-0.12,1.042-0.283,1.562-0.426
		c0.568-0.163,1.131-0.304,1.695-0.495c0.497-0.167,0.979-0.369,1.48-0.563c0.56-0.219,1.119-0.408,1.675-0.669
		c0.475-0.201,0.929-0.457,1.399-0.69c0.544-0.277,1.104-0.538,1.632-0.836c0.451-0.256,0.89-0.556,1.333-0.839
		c0.525-0.327,1.05-0.643,1.567-1.003c0.435-0.3,0.847-0.653,1.267-0.991c0.489-0.366,0.994-0.743,1.461-1.145
		c0.411-0.359,0.788-0.757,1.193-1.13c0.451-0.431,0.918-0.85,1.352-1.317c0.369-0.4,0.719-0.838,1.088-1.26
		c0.366-0.445,0.766-0.854,1.124-1.316c0.038-0.05,0.073-0.102,0.108-0.159c0.032-0.046,0.079-0.083,0.106-0.122
		c0.307-0.398,0.555-0.822,0.839-1.223c0.361-0.526,0.73-1.034,1.072-1.573c0.276-0.444,0.502-0.908,0.762-1.356
		c0.311-0.561,0.634-1.112,0.913-1.681c0.225-0.465,0.412-0.948,0.622-1.426c0.245-0.57,0.514-1.13,0.723-1.705
		c0.19-0.498,0.327-1.007,0.486-1.513c0.186-0.564,0.392-1.131,0.54-1.709c0.143-0.519,0.233-1.049,0.346-1.582
		c0.125-0.56,0.264-1.122,0.357-1.684c0.094-0.555,0.136-1.105,0.202-1.663c0.07-0.548,0.152-1.099,0.195-1.64
		c0.031-0.58,0.027-1.142,0.031-1.722c0.015-0.536,0.051-1.065,0.035-1.597c-0.016-0.587-0.074-1.166-0.124-1.757
		c-0.035-0.512-0.051-1.033-0.113-1.543c-0.07-0.59-0.191-1.166-0.292-1.753c-0.081-0.504-0.147-1.014-0.252-1.523
		c-0.133-0.583-0.303-1.161-0.463-1.736c-0.136-0.487-0.24-0.98-0.396-1.462c-0.183-0.583-0.413-1.143-0.63-1.713
		c-0.174-0.479-0.33-0.957-0.528-1.415c-0.245-0.575-0.536-1.127-0.816-1.698c-0.214-0.436-0.401-0.883-0.638-1.315
		c-0.318-0.594-0.695-1.161-1.057-1.736c-0.233-0.381-0.443-0.778-0.692-1.139c-0.424-0.626-0.898-1.224-1.363-1.823
		c-0.234-0.299-0.436-0.613-0.68-0.905c-0.584-0.696-1.217-1.369-1.862-2.029c-0.163-0.167-0.304-0.353-0.471-0.521
		c-0.831-0.82-1.705-1.601-2.626-2.343c0,0,0.003-0.005-0.005-0.008c-0.186-0.147-0.377-0.291-0.562-0.439
		c-0.043-0.035-0.082-0.063-0.125-0.094c-0.047-0.034-0.105-0.085-0.16-0.128c-14.457-11.006-263.974-203.255-360.85-302.682
		C63.369,902.401,72.929,882.36,77.188,873.418"/>
	<path fill="url(#SVGID_1_)" d="M960.724,585.104c12.724,15.148,10.757,37.74-4.384,50.464l-101.339,85.124
		c-6.715,5.64-14.883,8.394-23.013,8.394c-10.223,0-20.366-4.348-27.446-12.778c-12.723-15.148-10.757-37.739,4.385-50.463
		l101.338-85.125C925.413,567.994,948.008,569.966,960.724,585.104"/>
	<path fill="url(#SVGID_1_)" d="M1171.989,454.409l-89.54,75.215c-6.708,5.639-14.884,8.393-23.016,8.393
		c-10.214,0-20.362-4.348-27.444-12.777c-12.724-15.149-10.756-37.74,4.384-50.463l89.541-75.215
		c15.146-12.728,37.743-10.757,50.459,4.384C1189.096,419.095,1187.137,441.685,1171.989,454.409"/>
	<path fill="url(#SVGID_1_)" d="M440.441,729.086c-8.13,0-16.307-2.755-23.019-8.395l-38.854-32.643
		c-15.146-12.725-17.107-35.319-4.384-50.464c12.728-15.145,35.319-17.107,50.459-4.38l38.855,32.645
		c15.145,12.723,17.107,35.314,4.383,50.459C460.797,724.741,450.654,729.086,440.441,729.086"/>
	<path fill="url(#SVGID_1_)" d="M323.411,594.94c-7.086,8.433-17.229,12.777-27.445,12.777c-8.13,0-16.307-2.755-23.019-8.393
		L100.436,454.41c-15.144-12.724-17.107-35.315-4.387-50.463c12.723-15.143,35.318-17.112,50.463-4.384l172.511,144.914
		C334.168,557.201,336.13,579.792,323.411,594.94"/>
	<path fill="url(#SVGID_1_)" d="M636.216,527.991c-19.781,0-35.816-16.034-35.816-35.815V219.923c0-19.781,16.035-35.815,35.816-35.815
		c19.78,0,35.814,16.034,35.814,35.815v272.253C672.03,511.958,655.996,527.991,636.216,527.991"/>
	<path fill="url(#SVGID_1_)" d="M636.216,102.217c-19.781,0-35.816-16.035-35.816-35.815V35.813c0-19.782,16.035-35.817,35.816-35.817
		c19.78,0,35.814,16.035,35.814,35.817v30.589C672.03,86.182,655.996,102.217,636.216,102.217"/>
	<path fill="url(#SVGID_1_)" d="M332.566,189.335l19.532,19.528c10.105,10.102,10.105,26.482,0.004,36.581
		c-5.052,5.053-11.671,7.579-18.292,7.579c-6.619,0-13.241-2.526-18.289-7.579l-19.532-19.531l-19.536,19.535
		c-5.053,5.053-11.675,7.579-18.293,7.579s-13.24-2.526-18.293-7.579c-10.1-10.1-10.1-26.476,0-36.581l19.537-19.536l-19.533-19.532
		c-10.104-10.102-10.104-26.482-0.004-36.582c10.1-10.1,26.481-10.104,36.582,0l19.536,19.533l19.532-19.533
		c10.105-10.1,26.481-10.1,36.585,0c10.101,10.104,10.101,26.48,0,36.582L332.566,189.335z"/>
	<path fill="url(#SVGID_1_)" d="M990.827,215.198c-14.286,0-25.867-11.581-25.867-25.867s11.581-25.867,25.867-25.867
		c11.191,0,20.302-9.106,20.302-20.302c0-11.196-9.11-20.306-20.302-20.306c-11.201,0-20.311,9.11-20.311,20.306
		c0,14.286-11.581,25.867-25.866,25.867c-14.286,0-25.866-11.581-25.866-25.867c0-39.721,32.316-72.039,72.043-72.039
		c39.718,0,72.036,32.318,72.036,72.039C1062.863,182.884,1030.545,215.198,990.827,215.198"/>
	<path fill="url(#SVGID_1_)" d="M990.827,2370.972c48.149,0,87.332-39.177,87.332-87.332s-39.183-87.332-87.332-87.332
		c-48.159,0-87.332,39.177-87.332,87.332S942.668,2370.972,990.827,2370.972 M990.827,2319.239
		c-19.634,0-35.599-15.97-35.599-35.599c0-19.63,15.965-35.598,35.599-35.598c19.625,0,35.598,15.968,35.598,35.598
		C1026.425,2303.269,1010.452,2319.239,990.827,2319.239"/>
</g>
</svg>
