<svg xmlns="http://www.w3.org/2000/svg" xmlns:xlink="http://www.w3.org/1999/xlink" viewBox="0 0 559.04 559.06"><defs><style>.cls-1{fill:none;}.cls-2{clip-path:url(#clip-path);}.cls-3{fill:#fefefe;}</style><clipPath id="clip-path" transform="translate(-17.98 -17.98)"><rect class="cls-1" width="595" height="595.01"/></clipPath></defs><title>instagram-icon</title><g id="Слой_2" data-name="Слой 2"><g id="Слой_1-2" data-name="Слой 1"><g class="cls-2"><path class="cls-3" d="M410.82,155.84H184.2a28.4,28.4,0,0,0-28.37,28.37V410.8a28.4,28.4,0,0,0,28.37,28.37H410.82a28.38,28.38,0,0,0,28.35-28.37V184.2a28.38,28.38,0,0,0-28.35-28.37m-113.32,85a56.66,56.66,0,1,1-56.64,56.66A56.77,56.77,0,0,1,297.5,240.84Zm-106.25,170a6.67,6.67,0,0,1-7-7V283.32h29.75c-1.46,4.28-1.46,10-1.46,14.18a85,85,0,1,0,170,0c0-4.21,0-9.9-1.46-14.18h29.75V403.76a6.68,6.68,0,0,1-7.06,7ZM410.82,219.61a6.69,6.69,0,0,1-7.06,7.06H375.39a6.68,6.68,0,0,1-7-7.06V191.25a6.67,6.67,0,0,1,7-7h28.37a6.68,6.68,0,0,1,7.06,7ZM18,297.5C18,143.13,143.12,18,297.5,18S577,143.13,577,297.5,451.87,577,297.5,577,18,451.9,18,297.5Z" transform="translate(-17.98 -17.98)"/></g></g></g></svg>