<svg xmlns="http://www.w3.org/2000/svg" xmlns:xlink="http://www.w3.org/1999/xlink" viewBox="0 0 611.86 173.97"><defs><style>.cls-1{fill:none;}.cls-2{clip-path:url(#clip-path);}.cls-3{fill:#069;}.cls-4{fill:#fff;}</style><clipPath id="clip-path" transform="translate(0 0)"><rect class="cls-1" width="611.86" height="173.97"/></clipPath></defs><title>linkedinlogo</title><g id="Слой_2" data-name="Слой 2"><g id="Слой_1-2" data-name="Слой 1"><g class="cls-2"><path class="cls-3" d="M611.86,156.58A17.36,17.36,0,0,1,594.53,174H457.26a17.36,17.36,0,0,1-17.33-17.39V17.39A17.36,17.36,0,0,1,457.26,0H594.53a17.36,17.36,0,0,1,17.33,17.39Z" transform="translate(0 0)"/><polygon points="0 35.08 23.13 35.08 23.13 118.17 63.92 118.17 63.92 137.65 0 137.65 0 35.08"/><path d="M96,42.54C96,48.93,91.3,54.1,83.54,54.1c-7.31,0-12-5.18-12-11.57C71.52,36,76.39,31,83.85,31s12,5,12.17,11.57M72.13,63.24H95.26v74.42H72.13Z" transform="translate(0 0)"/><path d="M109.1,87c0-9.28-.3-17-.61-23.74h20.09l1.07,10.35h.46c3-4.87,10.5-12,23-12,15.22,0,26.63,10.2,26.63,32.11v44H156.59V96.41c0-9.59-3.35-16.13-11.72-16.13-6.39,0-10.2,4.41-11.87,8.67a16.68,16.68,0,0,0-.76,5.78v42.92H109.1Z" transform="translate(0 0)"/><path d="M216.69,94.58h.3a100.07,100.07,0,0,1,5.33-9l15.07-22.37h27.85L238.61,93.37,269,137.65H240.59l-18.11-30.59-5.78,7.3v23.28H193.56V29.6h23.13Z" transform="translate(0 0)"/><path d="M287,107.82c.61,9.59,10.2,14.15,21,14.15a61.34,61.34,0,0,0,20.55-3.2l3,15.67c-7.61,3.2-16.89,4.72-26.94,4.72-25.26,0-39.72-14.61-39.72-37.89,0-18.87,11.72-39.72,37.59-39.72,24,0,33.18,18.72,33.18,37.13a55,55,0,0,1-.76,9.13ZM314.24,92c0-5.63-2.43-15.07-13.09-15.07-9.74,0-13.7,9-14.31,15.07Z" transform="translate(0 0)"/><path d="M417,29.6v85.83c0,8.37.3,17.2.61,22.22H397l-.91-10.81h-.46c-4.57,8.22-13.7,12.48-23.28,12.48-17.65,0-31.81-15.07-31.81-38.2-.15-25.11,15.52-39.72,33.33-39.72,9.28,0,16.28,3.35,19.63,8.37h.31V29.6ZM393.83,94.74a20.78,20.78,0,0,0-.31-4.26c-1.37-6.09-6.39-11.26-13.54-11.26-10.65,0-16,9.43-16,21.15,0,12.63,6.24,20.54,15.83,20.54a13.7,13.7,0,0,0,13.54-11.11,30,30,0,0,0,.46-5.33Z" transform="translate(0 0)"/><path class="cls-4" d="M495.86,42.54c0,6.39-4.72,11.57-12.48,11.57-7.3,0-12-5.18-12-11.57C471.36,36,476.23,31,483.68,31s12,5,12.17,11.57M472,63.24H495.1v74.42H472Z" transform="translate(0 0)"/><path class="cls-4" d="M508.94,87c0-9.28-.3-17-.61-23.74h20.09l1.07,10.35h.46c3-4.87,10.5-12,23-12,15.22,0,26.63,10.2,26.63,32.11v44H556.43V96.41c0-9.59-3.35-16.13-11.72-16.13-6.39,0-10.2,4.41-11.87,8.67a16.65,16.65,0,0,0-.76,5.78v42.92H508.94Z" transform="translate(0 0)"/></g></g></g></svg>