<svg xmlns="http://www.w3.org/2000/svg" xmlns:xlink="http://www.w3.org/1999/xlink" viewBox="0 0 142.94 57.45"><defs><style>.cls-1{fill:none;}.cls-2{fill:#fff;}.cls-3{clip-path:url(#clip-path);}.cls-4{fill:#00ffec;}</style><clipPath id="clip-path" transform="translate(0)"><rect class="cls-1" width="142.94" height="57.45"/></clipPath></defs><title>logo-tablet</title><g id="Слой_2" data-name="Слой 2"><g id="Слой_1-2" data-name="Слой 1"><polygon class="cls-2" points="69.41 26.59 73 26.59 73 15.62 76.98 15.62 76.98 12.43 65.44 12.43 65.44 15.62 69.41 15.62 69.41 26.59"/><g class="cls-3"><path class="cls-2" d="M87,26.6h4l-2.83-5.18.18-.11a4.4,4.4,0,0,0,2.21-3.92,5.08,5.08,0,0,0-.39-2,4.71,4.71,0,0,0-1.08-1.56,4.81,4.81,0,0,0-1.64-1,5.9,5.9,0,0,0-2.1-.36h-6.1V26.6h3.59V22.13H84.6Zm-4.17-11h2.06a2,2,0,0,1,1.47.51,1.86,1.86,0,0,1,0,2.59,2,2,0,0,1-1.47.51H82.81Z" transform="translate(0)"/><path class="cls-2" d="M97.52,12.43,92,26.6h3.82l.82-2.38h5.49l.81,2.38h3.94l-5.69-14.17Zm-.11,9.08,1.92-5.41,1.92,5.41Z" transform="translate(0)"/><polygon class="cls-2" points="109.96 12.43 105.85 12.43 111.4 26.59 114.83 26.59 120.25 12.43 116.17 12.43 113.11 22 109.96 12.43"/><polygon class="cls-2" points="125.84 20.92 130.64 20.92 130.64 18.08 125.84 18.08 125.84 15.47 131.19 15.47 131.19 12.43 122.28 12.43 122.28 26.59 131.35 26.59 131.35 23.55 125.84 23.55 125.84 20.92"/><polygon class="cls-2" points="137.74 12.43 134.11 12.43 134.11 26.59 142.94 26.59 142.94 23.34 137.74 23.34 137.74 12.43"/><path class="cls-2" d="M75.58,42a2.44,2.44,0,0,1-1.81-.7,2.54,2.54,0,0,1-.69-1.86V30.78H69.4v8.73a6.08,6.08,0,0,0,.45,2.37,5.32,5.32,0,0,0,1.27,1.83,5.77,5.77,0,0,0,2,1.19,7.21,7.21,0,0,0,2.51.42,7.13,7.13,0,0,0,2.5-.42A5.81,5.81,0,0,0,80,43.72a5.33,5.33,0,0,0,1.26-1.83,6.06,6.06,0,0,0,.45-2.37V30.78H78.06v8.67a2.54,2.54,0,0,1-.69,1.86,2.41,2.41,0,0,1-1.79.7" transform="translate(0)"/><polygon class="cls-2" points="84.88 30.79 84.88 44.95 88.33 44.95 88.33 36.56 94.48 44.95 97.48 44.95 97.48 30.79 94.03 30.79 94.03 38.9 88.06 30.79 84.88 30.79"/><rect class="cls-2" x="100.79" y="30.78" width="3.64" height="14.17"/><path class="cls-2" d="M122,40.88a8.1,8.1,0,0,0,0-6,6.91,6.91,0,0,0-1.61-2.35A7.54,7.54,0,0,0,117.95,31a9.2,9.2,0,0,0-6.31,0,7.53,7.53,0,0,0-2.49,1.55,7,7,0,0,0-1.62,2.36,8,8,0,0,0,0,6,6.93,6.93,0,0,0,1.62,2.36,7.5,7.5,0,0,0,2.49,1.55,8.74,8.74,0,0,0,3.16.56,8.65,8.65,0,0,0,3.15-.56,7.53,7.53,0,0,0,2.47-1.54A6.89,6.89,0,0,0,122,40.88m-3.48-1.36a3.82,3.82,0,0,1-2.13,2.18,4.17,4.17,0,0,1-1.62.31,4.26,4.26,0,0,1-1.63-.31,3.85,3.85,0,0,1-1.3-.86,4,4,0,0,1-.85-1.31,4.6,4.6,0,0,1,0-3.32,4,4,0,0,1,.85-1.32,3.89,3.89,0,0,1,1.3-.86,4.47,4.47,0,0,1,3.26,0,3.83,3.83,0,0,1,2.13,2.18,4.75,4.75,0,0,1,0,3.31" transform="translate(0)"/><polygon class="cls-2" points="134.27 38.9 128.31 30.79 125.12 30.79 125.12 44.95 128.57 44.95 128.57 36.56 134.72 44.95 137.72 44.95 137.72 30.79 134.27 30.79 134.27 38.9"/><path d="M57.45,28.73A28.72,28.72,0,1,1,28.72,0,28.72,28.72,0,0,1,57.45,28.73" transform="translate(0)"/><path class="cls-4" d="M12.2,20.58v1.74H22.38V15.1H18a5.68,5.68,0,0,0-5.83,5.49" transform="translate(0)"/><path class="cls-4" d="M39.42,15.1H23.93V43.8h9.32V22.32h12V20.58a5.68,5.68,0,0,0-5.83-5.49" transform="translate(0)"/><rect class="cls-2" x="34.83" y="23.87" width="10.41" height="5.16"/><rect class="cls-2" x="12.2" y="30.58" width="10.17" height="5.16"/><rect class="cls-2" x="12.2" y="23.87" width="10.17" height="5.16"/><rect class="cls-2" x="34.83" y="30.58" width="10.41" height="5.16"/><path class="cls-2" d="M34.82,42.83v1.92a1.81,1.81,0,0,0,3.62,0V43.8h1a5.68,5.68,0,0,0,5.83-5.49v-1H34.82Z" transform="translate(0)"/><path class="cls-2" d="M36.53,11.56a2.08,2.08,0,0,0-2.08-2.08H23.3a2.08,2.08,0,1,0,0,4.15h.29a1.81,1.81,0,0,1,1.8-1.71H32a1.81,1.81,0,0,1,1.8,1.71h.63a2.08,2.08,0,0,0,2.08-2.08" transform="translate(0)"/><path class="cls-2" d="M22.38,37.28H12.2v1A5.68,5.68,0,0,0,18,43.8h.74v1a1.81,1.81,0,0,0,3.62,0V42.14s0-.07,0-.11Z" transform="translate(0)"/></g></g></g></svg>