<svg xmlns="http://www.w3.org/2000/svg" xmlns:xlink="http://www.w3.org/1999/xlink" viewBox="0 0 250.85 47.17"><defs><style>.cls-1{fill:none;}.cls-2{fill:#fff;}.cls-3{clip-path:url(#clip-path);}.cls-4{fill:#00ffec;}</style><clipPath id="clip-path" transform="translate(0 0)"><rect class="cls-1" width="250.85" height="47.17"/></clipPath></defs><title>logo-fixed</title><g id="Слой_2" data-name="Слой 2"><g id="Слой_1-2" data-name="Слой 1"><polygon class="cls-2" points="62.78 34.19 67.28 34.19 67.28 20.41 72.29 20.41 72.29 16.4 57.8 16.4 57.8 20.41 62.78 20.41 62.78 34.19"/><g class="cls-3"><path class="cls-2" d="M84.85,34.19h5L86.3,27.69l.23-.14a5.74,5.74,0,0,0,2-2,5.66,5.66,0,0,0,.74-2.89,6.39,6.39,0,0,0-.49-2.53,5.9,5.9,0,0,0-1.35-2,6.06,6.06,0,0,0-2.06-1.28,7.44,7.44,0,0,0-2.64-.45H75.1V34.19h4.5V28.58h2.25ZM79.6,20.33h2.59A2.54,2.54,0,0,1,84,21a2.33,2.33,0,0,1,0,3.25,2.54,2.54,0,0,1-1.85.64H79.6Z" transform="translate(0 0)"/><path class="cls-2" d="M98.08,16.4l-7,17.79h4.79l1-3h6.9l1,3h4.95L102.63,16.4Zm-.14,11.4,2.41-6.8,2.41,6.8Z" transform="translate(0 0)"/><polygon class="cls-2" points="113.71 16.4 108.55 16.4 115.51 34.19 119.82 34.19 126.64 16.4 121.5 16.4 117.66 28.43 113.71 16.4"/><polygon class="cls-2" points="133.66 27.06 139.69 27.06 139.69 23.5 133.66 23.5 133.66 20.22 140.37 20.22 140.37 16.4 129.18 16.4 129.18 34.19 140.58 34.19 140.58 30.37 133.66 30.37 133.66 27.06"/><polygon class="cls-2" points="148.6 16.4 144.04 16.4 144.04 34.19 155.13 34.19 155.13 30.11 148.6 30.11 148.6 16.4"/><path class="cls-2" d="M172.8,30.5a3.07,3.07,0,0,1-2.28-.88,3.19,3.19,0,0,1-.87-2.33V16.4H165v11a7.6,7.6,0,0,0,.57,3,6.68,6.68,0,0,0,1.59,2.3,7.26,7.26,0,0,0,2.46,1.49,9.06,9.06,0,0,0,3.15.53,9,9,0,0,0,3.14-.53,7.29,7.29,0,0,0,2.44-1.49,6.66,6.66,0,0,0,1.59-2.3,7.6,7.6,0,0,0,.57-3v-11h-4.62V27.29a3.19,3.19,0,0,1-.87,2.33,3,3,0,0,1-2.25.88" transform="translate(0 0)"/><polygon class="cls-2" points="184.49 16.4 184.49 34.19 188.82 34.19 188.82 23.66 196.55 34.19 200.31 34.19 200.31 16.4 195.97 16.4 195.97 26.59 188.48 16.4 184.49 16.4"/><rect class="cls-2" x="204.46" y="16.4" width="4.57" height="17.79"/><path class="cls-2" d="M231.14,29.08a10.2,10.2,0,0,0,0-7.57,8.73,8.73,0,0,0-2-2.95,9.5,9.5,0,0,0-3.1-1.93,10.86,10.86,0,0,0-4-.7,11,11,0,0,0-4,.7A9.48,9.48,0,0,0,215,18.58a8.75,8.75,0,0,0-2,3,10.07,10.07,0,0,0,0,7.52,8.73,8.73,0,0,0,2,3A9.44,9.44,0,0,0,218.08,34a11,11,0,0,0,4,.7,10.87,10.87,0,0,0,4-.7,9.47,9.47,0,0,0,3.1-1.93,8.69,8.69,0,0,0,2-2.95m-4.37-1.7a4.8,4.8,0,0,1-2.68,2.74,5.24,5.24,0,0,1-2,.39,5.35,5.35,0,0,1-2.05-.39A4.85,4.85,0,0,1,218.38,29a5,5,0,0,1-1.07-1.65,5.8,5.8,0,0,1,0-4.17,5,5,0,0,1,1.07-1.65A4.84,4.84,0,0,1,220,20.48a5.61,5.61,0,0,1,4.09,0,4.88,4.88,0,0,1,1.62,1.09,4.83,4.83,0,0,1,1.06,1.65,6,6,0,0,1,0,4.16" transform="translate(0 0)"/><polygon class="cls-2" points="246.52 26.59 239.03 16.4 235.03 16.4 235.03 34.19 239.36 34.19 239.36 23.66 247.09 34.19 250.85 34.19 250.85 16.4 246.52 16.4 246.52 26.59"/><path class="cls-4" d="M0,14.15v2.22H13V7.15H7.44a7.25,7.25,0,0,0-7.44,7" transform="translate(0 0)"/><path class="cls-4" d="M34.72,7.15H15V43.77h11.9V16.37h15.3V14.15a7.25,7.25,0,0,0-7.44-7" transform="translate(0 0)"/><rect class="cls-2" x="28.87" y="18.34" width="13.28" height="6.59"/><rect class="cls-2" y="26.9" width="12.98" height="6.59"/><rect class="cls-2" y="18.34" width="12.98" height="6.59"/><rect class="cls-2" x="28.87" y="26.9" width="13.28" height="6.59"/><path class="cls-2" d="M28.85,42.53V45a2.31,2.31,0,0,0,4.61,0V43.77H34.7a7.25,7.25,0,0,0,7.44-7V35.46H28.85Z" transform="translate(0 0)"/><path class="cls-2" d="M31,2.65A2.66,2.66,0,0,0,28.38,0H14.15a2.65,2.65,0,1,0,0,5.3h.38a2.31,2.31,0,0,1,2.29-2.18h8.47A2.31,2.31,0,0,1,27.58,5.3h.8A2.66,2.66,0,0,0,31,2.65" transform="translate(0 0)"/><path class="cls-2" d="M13,35.46H0v1.31a7.25,7.25,0,0,0,7.44,7h.94V45a2.25,2.25,0,0,0,2.31,2.17A2.25,2.25,0,0,0,13,45V41.66s0-.09,0-.14Z" transform="translate(0 0)"/></g></g></g></svg>