<svg xmlns="http://www.w3.org/2000/svg" viewBox="0 0 258.5 57.45"><defs><style>.cls-1{fill:#fff;}.cls-2{fill:#00ffec;}</style></defs><title>logo</title><g id="Слой_2" data-name="Слой 2"><g id="Layer_1" data-name="Layer 1"><polygon class="cls-1" points="70.43 36.58 74.93 36.58 74.93 22.8 79.94 22.8 79.94 18.79 65.45 18.79 65.45 22.8 70.43 22.8 70.43 36.58"/><path class="cls-1" d="M92.49,36.58h5l-3.55-6.51.23-.14a5.72,5.72,0,0,0,2-2A5.65,5.65,0,0,0,96.95,25a6.38,6.38,0,0,0-.49-2.53,5.93,5.93,0,0,0-1.35-2,6.06,6.06,0,0,0-2.06-1.28,7.42,7.42,0,0,0-2.64-.45H82.75V36.58h4.5V31H89.5ZM87.25,22.72h2.59a2.54,2.54,0,0,1,1.85.64,2.33,2.33,0,0,1,0,3.25,2.54,2.54,0,0,1-1.85.64H87.25Z"/><path class="cls-1" d="M105.73,18.79l-7,17.79h4.79l1-3h6.9l1,3h4.95l-7.14-17.79Zm-.14,11.4,2.41-6.8,2.41,6.8Z"/><polygon class="cls-1" points="121.35 18.79 116.19 18.79 123.16 36.58 127.47 36.58 134.28 18.79 129.15 18.79 125.31 30.82 121.35 18.79"/><polygon class="cls-1" points="141.31 29.45 147.33 29.45 147.33 25.89 141.31 25.89 141.31 22.61 148.02 22.61 148.02 18.79 136.83 18.79 136.83 36.58 148.22 36.58 148.22 32.76 141.31 32.76 141.31 29.45"/><polygon class="cls-1" points="156.25 18.79 151.69 18.79 151.69 36.58 162.77 36.58 162.77 32.5 156.25 32.5 156.25 18.79"/><path class="cls-1" d="M180.45,32.89a3.07,3.07,0,0,1-2.28-.88,3.19,3.19,0,0,1-.87-2.33V18.79h-4.62v11a7.61,7.61,0,0,0,.57,3,6.67,6.67,0,0,0,1.59,2.3,7.25,7.25,0,0,0,2.46,1.49,9.06,9.06,0,0,0,3.15.53,9,9,0,0,0,3.14-.53A7.27,7.27,0,0,0,186,35a6.68,6.68,0,0,0,1.59-2.3,7.61,7.61,0,0,0,.57-3v-11h-4.62V29.68A3.19,3.19,0,0,1,182.7,32,3,3,0,0,1,180.45,32.89Z"/><polygon class="cls-1" points="192.14 18.79 192.14 36.58 196.47 36.58 196.47 26.05 204.19 36.58 207.95 36.58 207.95 18.79 203.62 18.79 203.62 28.98 196.13 18.79 192.14 18.79"/><rect class="cls-1" x="212.11" y="18.79" width="4.57" height="17.79"/><path class="cls-1" d="M238.79,31.47a10.21,10.21,0,0,0,0-7.57,8.72,8.72,0,0,0-2-2.95,9.48,9.48,0,0,0-3.1-1.93,10.87,10.87,0,0,0-4-.7,11,11,0,0,0-4,.7A9.47,9.47,0,0,0,222.6,21a8.76,8.76,0,0,0-2,3,10.07,10.07,0,0,0,0,7.52,8.72,8.72,0,0,0,2,3,9.45,9.45,0,0,0,3.13,1.95,11.56,11.56,0,0,0,7.93,0,9.45,9.45,0,0,0,3.1-1.93A8.7,8.7,0,0,0,238.79,31.47Zm-4.37-1.7a4.8,4.8,0,0,1-2.68,2.74,5.24,5.24,0,0,1-2,.39,5.36,5.36,0,0,1-2.05-.39A4.85,4.85,0,0,1,226,31.42,5,5,0,0,1,225,29.77a5.78,5.78,0,0,1,0-4.17A5,5,0,0,1,226,24a4.86,4.86,0,0,1,1.63-1.09,5.61,5.61,0,0,1,4.09,0,4.81,4.81,0,0,1,2.68,2.74,6,6,0,0,1,0,4.16Z"/><polygon class="cls-1" points="254.16 28.98 246.67 18.79 242.68 18.79 242.68 36.58 247.01 36.58 247.01 26.05 254.74 36.58 258.5 36.58 258.5 18.79 254.16 18.79 254.16 28.98"/><circle cx="28.72" cy="28.72" r="28.72"/><path class="cls-2" d="M12.2,20.58v1.74H22.38V15.09H18A5.68,5.68,0,0,0,12.2,20.58Z"/><path class="cls-2" d="M39.42,15.09H23.93V43.8h9.33V22.32h12V20.58A5.68,5.68,0,0,0,39.42,15.09Z"/><rect class="cls-1" x="34.83" y="23.87" width="10.41" height="5.16"/><rect class="cls-1" x="12.2" y="30.57" width="10.17" height="5.16"/><rect class="cls-1" x="12.2" y="23.87" width="10.17" height="5.16"/><rect class="cls-1" x="34.83" y="30.57" width="10.41" height="5.16"/><path class="cls-1" d="M34.82,42.83v1.92a1.81,1.81,0,0,0,3.62,0V43.8h1a5.68,5.68,0,0,0,5.83-5.49v-1H34.82Z"/><path class="cls-1" d="M36.53,11.56a2.08,2.08,0,0,0-2.08-2.08H23.3a2.08,2.08,0,1,0,0,4.15h.3a1.81,1.81,0,0,1,1.8-1.71H32a1.81,1.81,0,0,1,1.8,1.71h.63A2.08,2.08,0,0,0,36.53,11.56Z"/><path class="cls-1" d="M22.38,37.28H12.2v1A5.68,5.68,0,0,0,18,43.8h.74v1a1.81,1.81,0,0,0,3.62,0V42.14s0-.07,0-.11Z"/></g></g></svg>