<svg xmlns="http://www.w3.org/2000/svg" xmlns:xlink="http://www.w3.org/1999/xlink" viewBox="0 0 195.16 227.11"><defs><style>.cls-1{fill:none;}.cls-2{clip-path:url(#clip-path);}.cls-3{fill:#45ffe7;}.cls-3,.cls-4{fill-rule:evenodd;}.cls-4{fill:#fff;}</style><clipPath id="clip-path"><rect class="cls-1" width="195.16" height="227.11"/></clipPath></defs><title>man1</title><g id="Слой_2" data-name="Слой 2"><g id="Слой_1-2" data-name="Слой 1"><g class="cls-2"><path class="cls-3" d="M182.24,153.75l7.21,10.07c-2.57,1.29-4.9,2.52-7.21,3.72Z"/><path class="cls-4" d="M182.24,220.41c2.5,2.14,5.25,4.75,7.49,6,1.73.94,2.77.9,3.84.31a2.39,2.39,0,0,1-1.87-.67,67.17,67.17,0,0,0-9.46-10.15Zm0-5.75v-7.27c.27.47.53.9.78,1.27a4.63,4.63,0,0,1,3.13-2.36c3.47,3,2.76,6.8,4.7,9.29,2.51,3.23,4.7,6.52,4.24,10.16-1.72.65-2.73.2-3.15-.4a78.06,78.06,0,0,0-9.71-10.69"/><path class="cls-3" d="M150.5,109.37c10.55,14.77,21.06,29.49,31.72,44.4v13.79c-1.72.9-3.42,1.79-5.21,2.69l-28.36-35.19,24.05,33.65c-2.22,1.26-3.83,2.09-5.65,3a13.71,13.71,0,0,0-1.51-1.23l-17.19-19.76,13.4,17.86A25.18,25.18,0,0,0,154,167.4c-3-5.94-5.51-11-8.62-16a109.77,109.77,0,0,0-12.24-16.19q-1.08-1.2-2.19-2.38l1,.27a10.91,10.91,0,0,0,1.53-.53,48.19,48.19,0,0,0,13.18,1.86,15.43,15.43,0,0,1,2.9-6.44,17.45,17.45,0,0,0,2.81-5.31,14.92,14.92,0,0,0,.52-4.48c-.08-2.1-.57-4.47-2.1-6q-.12-1.41-.26-2.79"/><path class="cls-4" d="M75.49,71.65a65.9,65.9,0,0,0-8.11,2.49c-9.48,4.09-7.75,5.77-2.6,5.19a8.21,8.21,0,0,1-4.29.1c-2.18-.74-.84-3.15,6-6.09a47.4,47.4,0,0,1,7.38-2.43C68.3,64.05,57.65,53.39,44.8,50.43c-.78-4.5-2.26-9.28-5.29-13.17a8.47,8.47,0,0,1-2.24,3.2,12.6,12.6,0,0,0,1.28-6.25c-6-7-13.8-8.54-19.44-15.73C22,13,18.43,10.34,20.29,5.13a6.21,6.21,0,0,0-3.22-3.56,10.55,10.55,0,0,0-3.5,1A5.67,5.67,0,0,0,11.48,0,25.47,25.47,0,0,0,2.61,4.49C-.09,9-.07,15.45,0,18.94c17.16,10.3,12.75,18.44,22,32.07a12.29,12.29,0,0,0,6.09-1.29A16.71,16.71,0,0,1,23.91,52a33.93,33.93,0,0,0,3.84,4.77S33.63,55.46,38,67.27c3.42,9.3,11.26,18.23,19.33,26.54-.53-4-.74-10.62,2.91-13.64-1.65,2.69-2.24,6.4-1.06,11.72,4.15,18.75,24.49,31.4,33.86,41.52a49.17,49.17,0,0,0,8-.17,38.38,38.38,0,0,1-8.14,1l4.19,6.09a39.35,39.35,0,0,0,7.31-.93,28.21,28.21,0,0,1-5.93,1.91l.69,1.19c1.71.84,6.76,3.29,12,5.59-3.1-1-7-2.29-11.28-4a41.91,41.91,0,0,0,2.26,5.3,39.79,39.79,0,0,0,4.35,7c7.64,9.65,22.33,19.46,34,22.26,1.05,3.3,4.38,7.1,9.11,10.89a10.75,10.75,0,0,1,2.2-2.17,15.35,15.35,0,0,0-2,3.89c6.4,4.1,12,6.94,17.59,12.26,4.42,4.23,8.36,8.56,9,9.76,1.27,2.26.35,2.63,5.43,6.93l.25.21v-4.54c-2.79-2.53-5-4.29-5-4.29-5.73-7.26-14.2-19.42-23.4-26.54a6.47,6.47,0,0,1,.47-1.7,37.13,37.13,0,0,0-7.2-6.22c-14.72-6.36-25-16.45-29.74-23.94,5,7.3,15.92,16.59,30.45,22.87a37.13,37.13,0,0,1,7.39,6.48,16.26,16.26,0,0,1,4.84-1.68,30.69,30.69,0,0,0-5,3c6.33,5.81,16.5,18.85,22.63,26.61,0,0,2,1.7,4.58,4.15v-7.27A99.33,99.33,0,0,1,176.87,196c-2.34-5.75-3.43-13.24-5.08-18.36a39,39,0,0,0-7,1.37,20.37,20.37,0,0,1,4.81-2.27c-2.85-5.28-7.05-8.37-16.24-8.37-6.15-12.35-10.45-20.83-21-32.56-.89-1-1.29-1.42-2.28-2.47a24.55,24.55,0,0,1-5-2.28,46.69,46.69,0,0,1-14.48,6.48A52.47,52.47,0,0,0,124,130.35a41.18,41.18,0,0,1-5.25-4.66,55,55,0,0,1-8.92,4.71,57.5,57.5,0,0,0,8.05-5.62c-3.33-3.49-5.66-5.25-7.32-6.12-5,1.24-10.89-5.06-11.87-9.09-.14-3.24.56-5.82,3.26-10.29-2.23,5.76-2.65,9.3-2.16,10.42,1.49,3.43,6.4,8.47,11,7.68a32.92,32.92,0,0,1,8.1,6.66,26.27,26.27,0,0,0,13,8,9,9,0,0,0,5.71-5,10.79,10.79,0,0,1-2.68,4.92,41.16,41.16,0,0,0,10.9,1.48c.76-4.4,4.47-6.93,5.58-11a12.75,12.75,0,0,0-.32-8,4.66,4.66,0,0,0-1.27-1.74c-1.86-22.27-6.94-37.63-15.6-41.92A18.62,18.62,0,0,0,124.44,69c-1.92,2.19-6,3.19-8.79,3.93a87.62,87.62,0,0,1-13.25,2.31c9.62-1.48,18.73-4.73,19.73-6.34a125.15,125.15,0,0,0-12.62-1c-1,3.33-10.1,5.66-15.67,8.11,2.37-1.28,4.79-2.44,7.21-3.62a29.27,29.27,0,0,0,4.16-2.3c.81-.58,1.76-1.41,1.71-2.51a2.4,2.4,0,0,0-.35-1.07c-5.18-5.75-6.83-9.83-6.83-9.83l1.7-7.9L90,39.62c-1.34.83-1.88,1.75-1.34,3-1.57.69-3,1.33-4.67,2l.9.88a24.53,24.53,0,0,0-5.29,1.6l1.86,1.68L80,50.13c-3.82.72-7.23,4.75-7.23,4.75l9,6A14.46,14.46,0,0,0,89,62.69a13.14,13.14,0,0,1-7.39-.39A17.86,17.86,0,0,1,77.69,71c-1.29,1.4-3.53,2.16-5.19,3a28,28,0,0,0-4.07,2.42c-.34.27-1.22,1-1,1.49-1.29-1.52,1.77-3.78,8.06-6.3m70.87,39.28a18.92,18.92,0,0,0-4.94-.59c-.76,0-1.56,0-2.38.06a15,15,0,0,1,.45,7.59,17.36,17.36,0,0,0-2-8.29c-6.91-.62-12.18,2-18.3-1.05a13,13,0,0,0,6.71,1l-4.35-6.48a6.4,6.4,0,0,0-.91,2.91,5.92,5.92,0,0,0-3,.92,8.42,8.42,0,0,1,2.33-1.41,8.4,8.4,0,0,1,1.72-4.38c0-1.28-1.62-3.49-2.24-3.6a10.83,10.83,0,0,0-2.94.86,17.82,17.82,0,0,0-2.25-2.94,26.18,26.18,0,0,0-7.18-.26,15.31,15.31,0,0,1,7.84-.12,26.82,26.82,0,0,1,2.17,2.59,8.54,8.54,0,0,1,2.3-.81c1-.18,3.24,3.45,3.19,4.73,0,0-.16.18-.39.49l6.13,7.19c3.1-.52,6.29-1.32,9.75-1,.16.28.32.58.46.9a24.42,24.42,0,0,1,7.81,1.77M95.84,77.76c-3,9.1-12.27,16.57-22.88,19.88-4.78-2-7.88-5.75-9.74-10.75a10,10,0,0,1-.44-5.41c3.88-.23,3.75-.29,9.7-1-5.19,1.16-6.75,1.47-8.65,1.6a7.36,7.36,0,0,0,.36,4.74,17.39,17.39,0,0,0,8.87,9.93c11.37-4.53,17.67-9.44,21.76-18.16a105.72,105.72,0,0,1-16.59,1.39c6.53-.64,12-1.28,17.61-2.19"/></g></g></g></svg>