<svg xmlns="http://www.w3.org/2000/svg" viewBox="0 0 165.61 263.32"><defs><style>.cls-1{fill:#00ffd7;}.cls-1,.cls-2{fill-rule:evenodd;}.cls-2{fill:#fff;}</style></defs><title>man2</title><g id="Слой_2" data-name="Слой 2"><g id="Isolation_Mode" data-name="Isolation Mode"><path class="cls-1" d="M34.88,136.28a13.45,13.45,0,0,1,3.08,5.9c2,6.4,7.31,7.41,15.93,5.59.37-.08.77-.17,1.16-.22,1.13-2.84,2.23-5.6,3.38-8.41-6.28-7-7.46-17,.17-23.62,5.11-4.45,9.71-4.83,15.49-8.05,5.57-4.9,4.36-13.42,2.5-19.81-1.83,3.12-3.21,5.61-4.37,7.72a74.13,74.13,0,0,1-6.38,10.06,39.72,39.72,0,0,1-8.56-3.09c-3.34,4.28-6.73,8.6-10.08,13.46-4.6,6.67-7.87,14.08-12.31,20.47ZM63.46,76q-2.2,3.11-4.35,6C60,83.13,61,84.21,62,85.29c.6-3.05,1-6.17,1.45-9.25Zm-13,17c1.25,4.45,3.15,7,6.06,8.87a173.72,173.72,0,0,0-14.34,19.68c-8.12,13.37-16.72,26-28.2,35.7.87-5.12,0-8.77-.9-12.22-1.08-4.37-2.08-8.38,1.28-14.85a236.27,236.27,0,0,1,17.61-17.63A216.47,216.47,0,0,0,50.43,93Z"/><path class="cls-2" d="M105,63c-.33-1.7-.87-3.6-1.3-5.14a7.84,7.84,0,0,1-2.57.78c.92,1.17,1.88,2.63,2.75,3.9-1.37-1.41-2.92-2.89-4.21-4.23,0-2,0-3.92.08-5.48-8.13-1.55-12-6.44-13.71-9.84,0,0,4.33,8.69,18.78,9,1.42,0,4-5.63,4.64-7.16,1.11-2.77,1.73-6.72-1.16-10.1-.45-1.23.35-3.37-.24-5.93A11,11,0,0,0,106,24.59c1.77,1.54,3.22,4,3.11,8.18,2.2-3.66,3.73-7.9,3.05-12.21-.45-2.85-2.25-5.32-7.92-4.77a12.23,12.23,0,0,0-7.4,3.09,7.35,7.35,0,0,1,1.88-2,18.76,18.76,0,0,0-7.19-.61,14.49,14.49,0,0,0-4.92,1.85c-7.79,0-10.2,5.53-11.65,9-.3.73-.59,1.44-.86,2.18-1.43,3.83-3.63,9.7-9.43,10.59,2.34.94,7.42.19,9.69-.78,2.45-1,3.65-2.49,5.47-2.82-2.8,1.93-4.54,4.25-9.8,5.08-2.5,2.31-6.34,3.27-9.64,3.38,6.65,4.18,10.28,1.2,16.38,3.19a41.56,41.56,0,0,0,5.94,1.69,32.29,32.29,0,0,1-5.53-.36A11.77,11.77,0,0,0,73.8,51.4c4.81-.93,7.62,0,12,.52A22.56,22.56,0,0,0,87,46.66a16.75,16.75,0,0,1-1.74,9.63c1.88,1,3.62,3.36,5,5.61a25.32,25.32,0,0,0-5.74-5.25,32.5,32.5,0,0,1-5.68,1.66,50.67,50.67,0,0,1,11.31,5.6c-3.11-1.76-10.68-5.16-14.15-5C71.67,59.28,67,62,66,71A149.58,149.58,0,0,1,63.27,88.4a7.42,7.42,0,0,1,2,6.7,10.82,10.82,0,0,0-1.17-4.2A6.74,6.74,0,0,1,62,94.17a7.79,7.79,0,0,0,1.4-4.4c-1.7-2.15-3.8-4.28-5.62-6.37a21.41,21.41,0,0,1-3.7-7.83c2.55-.26,3.17-2.39,2.55-5.48,1.29-.25,2-.65,2.35-1.47A8.86,8.86,0,0,0,58.88,65a10,10,0,0,0-3-4.3,17.4,17.4,0,0,0-3-2.52,12.79,12.79,0,0,1-3.43,1.23c-1.93.38-3,.42-4.09,1,1.73,8.71.55,8.85,1.63,16.29a32.8,32.8,0,0,1,4.08,10.42c.94,4.17,1,8.06,4.29,11.26a10.5,10.5,0,0,0,4-1.69,10,10,0,0,1-3.24,2.4c1.9,1.57,4.7,3,8.91,4.12,3.38-4.39,5-8.4,10.71-18.06,1.79-3,3.42-5.52,4.87-7.72-.75,1.65-1.93,4.34-3,7.1,2.44,7.87,4.78,18.26-2.43,24.44a59.9,59.9,0,0,1-7.55,3.37c-3.92,1.57-8.31,4.15-10.56,7.69-4.43,7-.58,16,5.83,20.55A40.88,40.88,0,0,0,73,145.73c10.57,3.75,13.09,2.79,23.1,6.92a26.91,26.91,0,0,1,8.12-.12,25.67,25.67,0,0,0-11.31,4.08,33.12,33.12,0,0,1,7.29.61,48,48,0,0,0-9.07.85,23.53,23.53,0,0,0-1.82,1.63,100.29,100.29,0,0,0-9.83,11.8,66.06,66.06,0,0,1-11.05,12.07c-2.71-1.59-6.59-.68-8.18.38a62,62,0,0,1-10.65,6.74c5.58-1.55,9.87-2.72,9.73-1.35-.81,7.75-4.6,11-6.85,12.55-1,1.83,2,11,3.06,11.76a15.66,15.66,0,0,0,4.19-8.19c1.64-4.85,8.13-13.57,9.86-15.31,7.77-6.57,23.9-17.17,40.44-25.54a12.8,12.8,0,0,0-1.85-3.64,10.33,10.33,0,0,1,2.56,3.29q2.18-1.1,4.36-2.13a11.26,11.26,0,0,0,6.22-8.78,35.78,35.78,0,0,0-5.21-8.9A48.64,48.64,0,0,0,95,127.81,74.13,74.13,0,0,0,73.68,123a53.36,53.36,0,0,1,19.58,2.72c.79-4.86.55-8.65,3.3-13.22,1.81-3,7.55-10,10.34-13.9s3-6.25,3-7.48c2.68-.88,5.39-2.36,6.84-4.8,2.61-4.39.65-7.23-2.49-11.39-2.66-3.53-3.65-6.79-2.2-11.23,0,0-.52,4.17.69,6.28,6.61-7.8,13.37-15.73,20.51-23,3.65-2.69,6.36-3.93,9.59-7.67a21.18,21.18,0,0,0-2.12-3.83,22.48,22.48,0,0,1,2.72,3.12c5.83-7.19,9-16.42,14.56-23.91a4.29,4.29,0,0,0,2-.05,2.73,2.73,0,0,0,1.74-.15,11.93,11.93,0,0,0,3.89-5.28,16.05,16.05,0,0,0-3-4.65A15.87,15.87,0,0,1,159.37,0c-2.17,0-4.59,2.27-5.72,4a4.81,4.81,0,0,0-1.71-.64c-.64,0-.78.83-.77,1.23.08,1.81.79,4.7,2.47,6.33-7.06,8.63-14.86,13.91-19.35,18.9q-.4.44-.76.87a30.26,30.26,0,0,1,3.89,2.18,25.79,25.79,0,0,0-4.58-1.34,20.38,20.38,0,0,0-4.05,8.13c-6.66,5.47-14.11,12.23-21.72,16.53a26.52,26.52,0,0,1-2.81,1.41A33.14,33.14,0,0,1,105,63ZM60,140.26c9.55,6.09,14.47,7,24.35,9.83-1.4,2.56-3.08,5.43-4.55,7.65C70.48,171.89,60,179.68,52.7,185.42a49.5,49.5,0,0,0-6.82,6.86,14.56,14.56,0,0,0-3.38-2.58A23.15,23.15,0,0,1,45.31,193c-7.22,8.74-14.61,21.12-18,29.14a170.36,170.36,0,0,1-7.64,15.69c-2.86,5.2-5.9,10.52-6.55,16.63a15.66,15.66,0,0,1-2.28,8.91c-1.17-.5-6.13-8.8-5.58-10.8,1.85-2,4.84-6,3.93-13.75-.16-1.37-4.09.71-9.2,3.45a62,62,0,0,0,8.91-8.92,9.67,9.67,0,0,1,5.45-2.74,7.85,7.85,0,0,1,3.18.32,44.59,44.59,0,0,0,1.56-4.81c1.44-5.79,2.42-13.46,5.72-27.54a37.64,37.64,0,0,1,3-8.46c2.24-.65,4.88-1.3,8-2a26.78,26.78,0,0,0-7.12.43c6.08-10.45,15.21-11.43,15.21-11.43C49.92,166.18,55.33,151.79,60,140.26Z"/></g></g></svg>