<svg xmlns="http://www.w3.org/2000/svg" xmlns:xlink="http://www.w3.org/1999/xlink" viewBox="0 0 497.83 129.89"><defs><style>.cls-1{fill:none;}.cls-2{clip-path:url(#clip-path);}.cls-3{fill:#17fff2;}.cls-4{fill:#fff;}</style><clipPath id="clip-path"><rect class="cls-1" width="497.83" height="129.89"/></clipPath></defs><title>man3</title><g id="Слой_2" data-name="Слой 2"><g id="Слой_1-2" data-name="Слой 1"><g class="cls-2"><path class="cls-3" d="M382,58.16a2.06,2.06,0,0,1-.65.27,6.92,6.92,0,0,1,.65-.27"/><path class="cls-3" d="M286.24,40c-6.4,1.93-14.06-.77-20.94.49-8.31,1.53-14.41,7-22.54,9.59-5.28,1.25-11.68,1.49-18,1.83a32.36,32.36,0,0,1-3.24,1c-2.78.7-5.6,1-8.41,1.51a11.05,11.05,0,0,0-3.66,1.13,4.48,4.48,0,0,0-1.51,1.25,6.68,6.68,0,0,0-.78,1.83,8,8,0,0,0-.45,1.9,6.3,6.3,0,0,0,.2,1.44,5.14,5.14,0,0,1,.1,1.74c0,.2-.07.4-.11.59.15.57.32,1.12.49,1.66l.16.13c-8.91-.37-16.58.81-22.12,4.71-28.1,19.77-110-16-110-16L29.93,9.61s55.92-26.12,129.35,7.76c51.5,23.76,117.06,19,156.75,14.16-6.65,1.92-13.52,2.23-20.19,4.29-3.27,1-6.21,3.16-9.6,4.18"/><path class="cls-3" d="M364.21,34.17a2.8,2.8,0,0,1-1-.9,3,3,0,0,1-.51-1.14,4.21,4.21,0,0,1-.51-.17,1.74,1.74,0,0,1-.55-.35.72.72,0,0,0,.36.76c-.13-.08.07.8.1.87l.07.16-.22,0-.11,0-.12-.14a.81.81,0,0,0-1.13,0l-.05.05a.78.78,0,0,0-.81-.13,2.9,2.9,0,0,0-.16-.4.8.8,0,0,0-1.25-.21l0,0a.74.74,0,0,0-.78-.28l0-.06a6.63,6.63,0,0,0-.4-.85.77.77,0,0,0-1.31-.1,17.64,17.64,0,0,0-1.53-2.51c-.61-.83-1.77.27-1.17,1.09.11.14.19.3.29.44-1-.89-2-1.9-2.95-2.9,8.35.34,12.48,3.89,14.45,6.75l.24,0a2.62,2.62,0,0,1,2.26,1.34,16,16,0,0,1-2.85-.28,7.84,7.84,0,0,0-.26-1.14"/><path class="cls-3" d="M382.17,58.76c.12-.06.34-.19.29-.36s-.23-.08-.19,0-.08.12-.25.2a.22.22,0,0,0-.07-.21,2,2,0,0,0,.28-.18c.08-.06,0-.15-.06-.17.35-.12.7-.24,1.06-.33l.2,0a1.63,1.63,0,0,1-.63,1.72l-.85-.57.22-.1"/><path class="cls-3" d="M235.11,66.73c2.56-.2,4.66-1.82,7.22-2.59,5.14-1.55,13.43-2,19.68-1.5,4.75.4,8.15,1,12-.39,4.51-1.61,8.27-5.31,12.22-5.38,5.32-.09,10.08,1.67,14.83.67-5.19,7.15-11.83,10.4-18.16,12.75a27.25,27.25,0,0,1-9.64,1.57c-5.48-.58-10.4-3.85-15.53-4.86-8.14-1.6-15.16-1.13-22,3.44l-4.57-1c1-1.35,2.51-2.62,4-2.74"/><path class="cls-4" d="M11.47,100.63c-5.23,4.92-14.95,22-10.21,25.38,2.21,1.57,3.66-.29,5.94,1.78,4.35-.1,7.48-3,11-4.51,11-4.85,23.23-4.42,35-5.89s23.28-4.59,35.59-3c4.12.54,8.19.14,12.26.27,10.73.33,22.4,2.8,33,3.16,3.58.12,7.51-.48,10.76,0,3.83.61,7.12,1.91,10.94,2,3.47.12,7.25-.19,10.65.22,5.92.72,11.6,3.36,17.42,4.85s11.46,3.58,17.29,4.3c13.9,1.71,28.77-.54,42.58-2.9,14-2.4,27.65-7.43,41.57-7.74,12.06-.27,23.59-.24,34.95-3.84,1.47-.47,3-1.47,4.2-1.87,6.73-2.21,14.33-1.91,21.18-4.33,4.84-1.7,12-6.58,15.23-11a52.41,52.41,0,0,0,3.63-5.79,24.81,24.81,0,0,1,11.82-8.58c5-1.74,10.17-1.06,15.35-.78l4,.19a50.26,50.26,0,0,0,11.34.57,70.05,70.05,0,0,0,8.38-1.61c1.22-.19,2.44-.38,3.66-.54a30.29,30.29,0,0,1,3.49-.24l.51.07a69.3,69.3,0,0,1,7.6,1.56,32.67,32.67,0,0,0,6.41.7,56.57,56.57,0,0,0,7.56-2.24c6-2,14.13-3.41,19.49-3.1,2.67.16,5.09,1.25,7.63.85a5.63,5.63,0,0,1,3.77,1.19A15.09,15.09,0,0,1,477.25,81,14.49,14.49,0,0,0,479,82.22a4.45,4.45,0,0,0,3.26.18c1-.27,2-.68,3-.88a13.33,13.33,0,0,1,3.22,0,8,8,0,0,0,2.59-.14,5.76,5.76,0,0,0,2.57-1.83,21.83,21.83,0,0,1,3.68-3.18l.24-.17c.23-1.21-.62-2.3-.7-3.49a2.66,2.66,0,0,1,.32-1.33c.25-.53.74-1.11.64-1.73a7.75,7.75,0,0,0-.7-1.5,7,7,0,0,1-.33-1.69c-.16-1.21-1.09-1.94-1.89-2.77a7.79,7.79,0,0,0-3.34-2.35,11.11,11.11,0,0,0-4-.27c-2.89.22-5.74.86-8.65,1.06l-.59,0-1.62.42c-6.15,1.58-11.52.5-16.38,1.69-10.22-.9-19.76-6.12-30.08-3.26-4.87,1.35-9.72,3.81-14.55,3.52-2.75-.16-5.71-1.05-8.47-1.42a38.84,38.84,0,0,0-5-.26c-1.07-.12-2.15-.22-3.24-.28-3-.17-6.07-.22-9.1-.39a24,24,0,0,1-4.38-.63,18.55,18.55,0,0,0-2.76-2.08l-.85-.57a8.39,8.39,0,0,1-1,.39,3.23,3.23,0,0,1-.83.26l-.15,0a7.46,7.46,0,0,0-3,2c-.48.46-.92.95-1.42,1.38s-1.06,1-1.65.91-.57-.89-.41-1.36a5.14,5.14,0,0,1,1.74-2.62,7,7,0,0,1,3.47-1.11c.53-.06,1.06-.1,1.59-.14a6.38,6.38,0,0,0,1-.14,6.92,6.92,0,0,1,.65-.27l.09-.05a.1.1,0,0,1,.08,0c.35-.12.7-.24,1.06-.33l.21,0a8,8,0,0,1,4.19-.14,12,12,0,0,1,1.63.56c1.48.73,3,1.56,4.45,2.17a5.19,5.19,0,0,0,1.53.56c2.13.65,4,.57,5.42-1.27a11.2,11.2,0,0,0,1.21-3.27,2.66,2.66,0,0,1,.74-1.57,3.86,3.86,0,0,1,.66-.34c.19-.16.38-.31.57-.46a.74.74,0,0,0,.07-.39.71.71,0,0,1,.59-.83,2.66,2.66,0,0,0,1.07-.62,1.33,1.33,0,0,0,.21-.5,3.37,3.37,0,0,1,.42-1.28,1.42,1.42,0,0,1,1.48-.51c1.52-.07,3.14.49,4-.84,1-1.55-1.13-4.68-.15-6.65s3.38-1.49,3.74-4.37A4.08,4.08,0,0,0,420,38c2-1.35,3.56-4.64,2.22-6.89-.07-.12-.28-.05-.23.09a4,4,0,0,1-1.1,3.75,10.44,10.44,0,0,0,.49-6,6.77,6.77,0,0,0-1.92-3.76,14.9,14.9,0,0,0-2-3.46c-.37-.55-.68-1.11-1.08-1.63a14.85,14.85,0,0,1-1.37-1.8c-.52-1,.58-2-.8-2.47a0,0,0,0,0,0,0c.7.87-.1.94-.41,1.56a2.66,2.66,0,0,0-.25,1.71c0,.1,0,.19.07.29l-.14-.08a7,7,0,0,1-.3-.76c-.3-1-.45-2-1.34-2.68-1-.75-2.26-.86-2.82-2.17-.34-.78-.52-1.33-1.35-1.64a0,0,0,0,0,0,0c.81.73.5,1.79.89,2.7l.09.2-.35-.25c.14-1.28-.79-2.24-2-2.85a7.75,7.75,0,0,0-.71-.94c-1.31-1.45-3.64-1.4-5.22-2.45,0,0,0,0,0,0a2.29,2.29,0,0,0,.61.86h0A8.28,8.28,0,0,1,399,8.09,4,4,0,0,0,397,7.36a3.62,3.62,0,0,0-.74,0l-.23-.1a3.83,3.83,0,0,0-2.44.1,14.72,14.72,0,0,1-2.21.49s0,0,0,0a1.14,1.14,0,0,0,.46.53l-.37-.15a9.08,9.08,0,0,0-3.4-.52c-.91,0-2.12.75-3,.29,0,0,0,0,0,0a2.75,2.75,0,0,0,1.57.39,7.09,7.09,0,0,0-.76.16c-.59.16-2.34.78-2.71,0a.05.05,0,0,0-.09,0c-.43.63.09,1,.88,1.26a7.66,7.66,0,0,0-2.7.92l-.1.07a6.91,6.91,0,0,0-2.46.65c-.48.27-1,.53-1.47.77-.19.09-1,.6-1.19.47h0c-.12.55.66.64,1.6.57a1.65,1.65,0,0,1-.5.37l-.64.07-.18,0a8.85,8.85,0,0,0-1.49-.08,2.73,2.73,0,0,0-1.64.88,0,0,0,0,0,0,0,5,5,0,0,1,1.82-.3l0,0c-.31.26-.68.42-1,.7a.17.17,0,0,0,.09.28,6.43,6.43,0,0,0-1,1.12,9,9,0,0,1-1.76,1.38,0,0,0,0,0,0,0,2.83,2.83,0,0,0,2.11-.61l.15-.1-.27.43a2.45,2.45,0,0,1-.73.35c-.81.22-1.84.48-1.9,1.5,0,.38.12.68.49.39,0,0,0-.1,0-.09a.48.48,0,0,1,.34-.46,1.54,1.54,0,0,1,.71-.19l.32,0-.32.65a14.55,14.55,0,0,0-1.12,1.58,8.14,8.14,0,0,0-1.26,1.91s0,0,0,0a2.7,2.7,0,0,1,.89-.45,8.1,8.1,0,0,0-1.71,3c-.2.79-.93,1.85-.44,2.64a0,0,0,0,0,0,0c-.11-.55.33-1.07.68-1.52a1.57,1.57,0,0,0,0,1.77h0a5.22,5.22,0,0,0-.24,1.08c-.11,1.12.36,2.32-.36,3.3-.14.19.11.38.29.3a1.64,1.64,0,0,0,.65-.48c0,.1,0,.21,0,.31a4,4,0,0,1-.44.49c-.37.35-.71,0-1.06-.15a.06.06,0,0,0-.07.05c-.05.72.7,1.11,1.33,1.07l.24,0c.18.21.37.4.56.6a7.48,7.48,0,0,1-2.93.5,15.89,15.89,0,0,1-2.84-.28c0,.28.08.55.1.83A14.25,14.25,0,0,1,363.51,42a13.14,13.14,0,0,1-3.37,5.42c-.83.74-1.89,1.87-3.05,2-1.51.2-2.07-1-2.05-2.32,0-1.66.34-3.34.48-5a22.25,22.25,0,0,0-.05-6.85,14.44,14.44,0,0,0-2.15-4.94c-1-.89-2-1.9-2.95-2.9a16.24,16.24,0,0,0-5.48-3.92c-3.68-1.49-9.75-1.19-13.59-.39-4.16.87-7.89,2.32-10.73,6.77A37.63,37.63,0,0,1,316,31.54c-6.65,1.92-13.52,2.23-20.19,4.29-3.27,1-6.21,3.15-9.6,4.18-6.4,1.93-14.06-.77-20.93.49-8.31,1.53-14.41,7-22.54,9.59-5.28,1.25-11.68,1.49-18,1.83a32.29,32.29,0,0,1-3.24,1c-2.78.7-5.6,1-8.41,1.51a11,11,0,0,0-3.66,1.13,4.48,4.48,0,0,0-1.51,1.25,6.69,6.69,0,0,0-.78,1.83,8,8,0,0,0-.45,1.9,6.31,6.31,0,0,0,.2,1.44,5.14,5.14,0,0,1,.1,1.74c0,.2-.07.39-.11.59.15.57.32,1.12.49,1.66l.16.13a3.29,3.29,0,0,1,1.31,2.94,1.11,1.11,0,0,1-.14.43l.41,1a129.36,129.36,0,0,0-25,5.52c-5.84,1.86-11.25,5.51-16.65,6.88-8,2-16.3,1.39-25.7-2.43-5-2-10.69-4.85-16.14-6.17-11.5-2.79-23.47,5-33.6,8.89-5.19,2-10.31,5.21-16.21,6.92-4.82,1.39-14.11,5.12-18.29,3.06-7.66-3.78-16.5-11-22.9-7.75C32.39,86.52,32,88.49,30,90.69c-4.77,5.16-12.67,4.41-18.54,9.94M306.82,57.37A36,36,0,0,0,311.9,57a28.71,28.71,0,0,0,9.62-3.06l.36.66a25.24,25.24,0,0,1-4.78,2.08A32.05,32.05,0,0,1,312,57.84a37.39,37.39,0,0,1-5.19.35,31,31,0,0,1-5.19-.4l.12-.74a35.26,35.26,0,0,0,5,.32h0M365.73,88.3A18.12,18.12,0,0,0,367,86.39c.38-.64.75-1.32,1.11-2,.66-1.29,1.28-2.67,1.9-4.22a89.87,89.87,0,0,0,3-8.77l.72.2a76.55,76.55,0,0,1-3,8.89c-.64,1.54-1.28,2.94-2,4.27a25.59,25.59,0,0,1-2.5,4Zm-81.79,24.85a53.38,53.38,0,0,1-1.87-5.67c-.93-3.35-1.74-7-2.55-11.62-.61-3.57-1.16-7.42-1.68-11.76q-.35-2.94-.65-5.9t-.53-5.91l.75-.07q.3,2.94.63,5.89t.69,5.88c.54,4.27,1.11,8.09,1.74,11.7.77,4.53,1.55,8.2,2.46,11.55a53.11,53.11,0,0,0,1.81,5.59,24.49,24.49,0,0,0,1.2,2.65,11.7,11.7,0,0,0,.74,1.22,3.64,3.64,0,0,0,.91,1l-.39.64a4.23,4.23,0,0,1-1.15-1.15,12.32,12.32,0,0,1-.82-1.29,24.76,24.76,0,0,1-1.29-2.72M270.86,84.48q-.36-2.95-.65-5.9t-.53-5.91l.75-.07q.3,2.95.63,5.89t.69,5.88c.54,4.29,1.11,8.12,1.74,11.7.78,4.54,1.56,8.21,2.46,11.55a53.12,53.12,0,0,0,1.81,5.59,24.45,24.45,0,0,0,1.2,2.65,11.52,11.52,0,0,0,.74,1.22,3.58,3.58,0,0,0,.91,1l-.39.64a4.28,4.28,0,0,1-1.15-1.15,12.24,12.24,0,0,1-.82-1.29,24.47,24.47,0,0,1-1.29-2.72,54.14,54.14,0,0,1-1.88-5.67c-.93-3.38-1.74-7.07-2.55-11.62-.61-3.59-1.15-7.43-1.68-11.76M243,124.64a22.92,22.92,0,0,0,4.45-2.71,25.05,25.05,0,0,0,3.81-3.55,21.87,21.87,0,0,0,4.78-9.14,25.73,25.73,0,0,0,.37-10.36,36.8,36.8,0,0,0-1.18-5.11,47.17,47.17,0,0,0-1.78-5l.69-.3a49.61,49.61,0,0,1,1.92,5,38,38,0,0,1,1.24,5.22,26.6,26.6,0,0,1-.32,10.74,22.79,22.79,0,0,1-5,9.49,25.09,25.09,0,0,1-8.63,6.36Zm-7.8-53.87c-1.44-.28-3.26.85-4.51-.66.13-.21.28-.43.44-.64,1-1.35,2.51-2.62,4-2.74,2.56-.2,4.66-1.82,7.22-2.59,5.14-1.55,13.43-2,19.68-1.5,4.75.4,8.15,1,12-.38,4.51-1.61,8.27-5.31,12.22-5.38,5.32-.09,10.08,1.67,14.83.67-5.19,7.15-11.83,10.4-18.16,12.75a27.24,27.24,0,0,1-9.64,1.57c-5.48-.58-10.41-3.85-15.53-4.86-8.15-1.6-15.16-1.13-22,3.44l-.5.33"/><path class="cls-3" d="M354.19,28.83a17.53,17.53,0,0,1,1.53,2.51.77.77,0,0,1,1.31.1,6.54,6.54,0,0,1,.4.85l0,.06a.75.75,0,0,1,.78.29l0,0a.81.81,0,0,1,1.25.21,3,3,0,0,1,.16.41.77.77,0,0,1,.81.13l.05-.06a.81.81,0,0,1,1.13,0l.12.14.11,0,.22,0-.07-.16c0-.08-.23-1-.1-.87a.72.72,0,0,1-.36-.76,1.77,1.77,0,0,0,.55.35,4.45,4.45,0,0,0,.5.17,3,3,0,0,0,.51,1.14,2.82,2.82,0,0,0,1,.9,7.67,7.67,0,0,1,.26,1.14c0,.28.08.55.1.83A14.24,14.24,0,0,1,363.51,42a13.12,13.12,0,0,1-3.37,5.42c-.83.74-1.89,1.87-3.05,2-1.51.2-2.07-1-2.05-2.32,0-1.66.34-3.34.48-5a22.29,22.29,0,0,0-.05-6.85,14.41,14.41,0,0,0-2.15-4.94c-.1-.15-.18-.3-.29-.44-.6-.82.56-1.92,1.17-1.09"/><path class="cls-3" d="M382.22,58.25a2.1,2.1,0,0,1-.28.18.22.22,0,0,1,.07.21c.16-.08.26-.15.25-.2s.16-.17.19,0-.17.3-.29.36l-.21.1a8.67,8.67,0,0,1-1,.39,3.25,3.25,0,0,1-.83.26l-.15,0a7.44,7.44,0,0,0-3,2c-.48.46-.92.95-1.42,1.38s-1.07,1-1.66.91-.57-.89-.41-1.36a5.13,5.13,0,0,1,1.74-2.63,7,7,0,0,1,3.47-1.11c.53-.06,1.06-.1,1.59-.14a6.36,6.36,0,0,0,1-.14,2,2,0,0,0,.65-.27l.09-.05a.1.1,0,0,1,.08,0c.08,0,.13.11.06.17"/></g></g></g></svg>