<svg xmlns="http://www.w3.org/2000/svg" viewBox="0 0 270.93 8.87"><defs><style>.cls-1{fill:#fff;}</style></defs><title>phone-nav-bar-white</title><g id="Слой_2" data-name="Слой 2"><g id="Layer_1" data-name="Layer 1"><rect class="cls-1" x="222.66" y="5.32" width="2.26" height="3.55" rx="0.09" ry="0.09"/><rect class="cls-1" x="226.1" y="3.69" width="2.26" height="5.18" rx="0.09" ry="0.09"/><rect class="cls-1" x="229.54" y="1.99" width="2.26" height="6.88" rx="0.08" ry="0.08"/><rect class="cls-1" x="232.99" y="0.26" width="2.26" height="8.5" rx="0.09" ry="0.09"/><path class="cls-1" d="M242.09,6.62l2.2,1.88,2.2-1.88a2.87,2.87,0,0,0-4.39,0Z"/><path class="cls-1" d="M244.29,2.85a5.44,5.44,0,0,0-4.14,1.93L241.62,6A3.49,3.49,0,0,1,247,6l1.46-1.25A5.44,5.44,0,0,0,244.29,2.85Z"/><path class="cls-1" d="M244.29.17a7.94,7.94,0,0,0-6,2.81l1.47,1.26a6,6,0,0,1,9.15,0L250.33,3A7.94,7.94,0,0,0,244.29.17Z"/><path class="cls-1" d="M269.86,3.14V6a1.5,1.5,0,0,0,0-2.88Z"/><path class="cls-1" d="M268.06,2.2H254.77a.27.27,0,0,0-.28.27v4.3a.27.27,0,0,0,.28.27h13.29a.27.27,0,0,0,.27-.27V2.47A.27.27,0,0,0,268.06,2.2Z"/><path class="cls-1" d="M268.29,1.2H254.45a1,1,0,0,0-1,1V7a1,1,0,0,0,1,1h13.84a1,1,0,0,0,1-1V2.18A1,1,0,0,0,268.29,1.2ZM268.77,7a.48.48,0,0,1-.48.49H254.45A.49.49,0,0,1,254,7V2.22a.49.49,0,0,1,.48-.49h13.84a.48.48,0,0,1,.48.49Z"/><path class="cls-1" d="M1.09,1.26,0,2.09V.88L1.09.07h1.1V8H1.09Z"/><path class="cls-1" d="M4.68,6.92,7.68,3a1.5,1.5,0,0,0,.24-.43,1.66,1.66,0,0,0,0-.36,1.2,1.2,0,0,0-.27-.78,1,1,0,0,0-.79-.34,1,1,0,0,0-.75.3,1.32,1.32,0,0,0-.37.84H4.68A2.47,2.47,0,0,1,5.32.64,2,2,0,0,1,6.81,0,2.16,2.16,0,0,1,8.42.65a2.24,2.24,0,0,1,.64,1.61,2.23,2.23,0,0,1-.46,1.39L6.12,6.85H9.06V8H4.68Z"/><path class="cls-1" d="M10.3,1.57h1.28V2.88H10.3Zm0,3.6h1.28V6.48H10.3Z"/><path class="cls-1" d="M12.68,6.92l3-3.87a1.5,1.5,0,0,0,.24-.43,1.66,1.66,0,0,0,0-.36,1.2,1.2,0,0,0-.27-.78,1,1,0,0,0-.79-.34,1,1,0,0,0-.75.3,1.32,1.32,0,0,0-.37.84h-1.1A2.47,2.47,0,0,1,13.33.64,2,2,0,0,1,14.82,0a2.16,2.16,0,0,1,1.61.65,2.24,2.24,0,0,1,.64,1.61,2.23,2.23,0,0,1-.46,1.39l-2.47,3.2h2.93V8H12.68Z"/><path class="cls-1" d="M18.09,2.27A2.16,2.16,0,0,1,18.77.59,2.11,2.11,0,0,1,20.26,0a2.15,2.15,0,0,1,1.52.59,2.26,2.26,0,0,1,.66,1.69V5.77a2.25,2.25,0,0,1-.66,1.68,2.19,2.19,0,0,1-1.52.6,2.18,2.18,0,0,1-2.17-2.28Zm3.26.07q0-1.19-1.08-1.21T19.18,2.34V5.71q0,1.2,1.08,1.21t1.08-1.21Z"/></g></g></svg>