<svg xmlns="http://www.w3.org/2000/svg" xmlns:xlink="http://www.w3.org/1999/xlink" viewBox="0 0 558.59 558.57"><defs><style>.cls-1{fill:none;}.cls-2{clip-path:url(#clip-path);}.cls-3{fill:#fefefe;}</style><clipPath id="clip-path" transform="translate(-18.21 -18.22)"><rect class="cls-1" width="595" height="595"/></clipPath></defs><title>twitter-icon</title><g id="Слой_2" data-name="Слой 2"><g id="Слой_1-2" data-name="Слой 1"><g class="cls-2"><path class="cls-3" d="M469.89,190.57a140.87,140.87,0,0,1-40.63,11.13,70.94,70.94,0,0,0,31.1-39.11,141.72,141.72,0,0,1-44.91,17.15,70.8,70.8,0,0,0-120.55,64.52,200.77,200.77,0,0,1-145.79-73.91A70.81,70.81,0,0,0,171,264.78a70.08,70.08,0,0,1-32-8.85l0,.91a70.78,70.78,0,0,0,56.76,69.34,71.31,71.31,0,0,1-32,1.22,70.81,70.81,0,0,0,66.08,49.11,143,143,0,0,1-104.72,29.3,200.2,200.2,0,0,0,108.42,31.79c130.11,0,201.26-107.78,201.26-201.27,0-3.06-.07-6.12-.2-9.14a143.88,143.88,0,0,0,35.29-36.62M18.21,297.5c0-154.26,125-279.28,279.28-279.28s279.3,125,279.3,279.28-125,279.28-279.3,279.28S18.21,451.76,18.21,297.5Z" transform="translate(-18.21 -18.22)"/></g></g></g></svg>