<?xml version="1.0" encoding="utf-8"?>
<!-- Generator: Adobe Illustrator 21.0.0, SVG Export Plug-In . SVG Version: 6.00 Build 0)  -->
<svg version="1.1" id="Слой_1" xmlns="http://www.w3.org/2000/svg" xmlns:xlink="http://www.w3.org/1999/xlink" x="0px" y="0px"
	 viewBox="0 0 33.1 33.1" style="enable-background:new 0 0 33.1 33.1;" xml:space="preserve">
<style type="text/css">
	.st0{clip-path:url(#SVGID_2_);fill:#FEFEFE;}
</style>
<g>
	<defs>
		<rect id="SVGID_1_" width="33.1" height="33.1"/>
	</defs>
	<clipPath id="SVGID_2_">
		<use xlink:href="#SVGID_1_"  style="overflow:visible;"/>
	</clipPath>
	<path class="st0" d="M25.8,12.8c0-1.5-1.2-2.8-2.8-2.8H10c-1.5,0-2.8,1.2-2.8,2.8v7.4c0,1.5,1.2,2.8,2.8,2.8h13
		c1.5,0,2.8-1.2,2.8-2.8V12.8z M14.7,19.7v-7l5.3,3.5L14.7,19.7z M1,16.5C1,8,8,1,16.5,1c8.6,0,15.5,7,15.5,15.5s-7,15.5-15.5,15.5
		C8,32.1,1,25.1,1,16.5z"/>
</g>
</svg>
