<svg xmlns="http://www.w3.org/2000/svg" xmlns:xlink="http://www.w3.org/1999/xlink" viewBox="0 0 99.9 91.36"><defs><style>.cls-1{fill:none;}.cls-2{clip-path:url(#clip-path);}.cls-3{fill:#a4bcc1;}</style><clipPath id="clip-path" transform="translate(0)"><rect class="cls-1" width="99.9" height="91.36"/></clipPath></defs><title>edu15</title><g id="Слой_2" data-name="Слой 2"><g id="Слой_1-2" data-name="Слой 1"><g class="cls-2"><path class="cls-3" d="M76,28.59a15.56,15.56,0,0,0-9.52-6.8,34.67,34.67,0,0,0-6.38-.88c-4.26-.19-8.42.7-12.58,1.51-1.66.32-1.68.34-2.54-1.22a19,19,0,0,0-5.77-6.31c-4.25-3-9.08-3.12-13.11,0a3.33,3.33,0,0,1-1.69.71,7,7,0,0,0-6,4.2A15.11,15.11,0,0,0,17,27.47c.31,7.08,4.76,12.31,11.48,13.3a18.42,18.42,0,0,0,4.27-.21c1.5-.14,1.67,0,1.31,1.51-.31,1.32-.75,2.61-1,3.93-2.13,9.72,2.23,17.92,11.46,21.59a25.4,25.4,0,0,0,9.92,1.84,29.35,29.35,0,0,0,19.39-6.78,21.16,21.16,0,0,0,7.83-18.22A31.46,31.46,0,0,0,76,28.59M21.36,20.82v0M30,38.46a4.68,4.68,0,0,1-1.66-.15,11.37,11.37,0,0,1-8.54-10.56c0-1.43-.28-2.95.55-4.29-.49,5.56,1.7,9.37,6.53,11.32,5.32,2.15,10.37-.45,11.55-6.06a12.49,12.49,0,0,0,.07-4.28,5.94,5.94,0,0,0-5.07-5,6.65,6.65,0,0,0-7.13,3.26,4.81,4.81,0,0,0,2.6,7.07c2.26.89,3.95,0,4.42-2.45a6.47,6.47,0,0,0,.12-1.43c0-.72.09-1.29,1-1.31s1.68.46,1.66,1.34a7.65,7.65,0,0,1-2.39,5.8c-1.68,1.5-3.65,1.36-5.62.49-4.33-1.92-5.9-5.9-4-10.28a14.89,14.89,0,0,1,1.24-2.32,8,8,0,0,1,10-3.33,14.14,14.14,0,0,1,7.27,6,7.25,7.25,0,0,1,.4,7.53C40.28,35,35.73,37.6,30,38.46M58.44,67a26.16,26.16,0,0,1-12-1.48c-7.24-2.74-12.64-9.3-10.65-19C36.24,44.29,37,42.17,37.5,40a3.61,3.61,0,0,1,1.64-2.22A32.76,32.76,0,0,0,42.7,35a10.36,10.36,0,0,0,3.79-8c0-1.23.41-1.63,1.57-1.87A46.19,46.19,0,0,1,61.6,23.8a26,26,0,0,1,5.63,1c4.12,1.32,6.83,4.3,8.72,8.08A24.36,24.36,0,0,1,78.6,43.38c0,13.77-8,22.43-20.16,23.62" transform="translate(0)"/><path class="cls-3" d="M26.42,67.8c-.87.4-1.73.82-2.61,1.19-.71.3-1.11-.07-1.1-.76A13,13,0,0,1,23,65.87c.16-.78.56-1.52.64-2.3.23-2.18-.2-4.17-2.2-5.46a5.24,5.24,0,0,0-6.07.3,8.62,8.62,0,0,0-2.1,2.84,9.59,9.59,0,0,0-.56,5.42A12.25,12.25,0,0,1,13,68.08c0,.54-.41.73-.79.41-.72-.62-1.34-1.36-2-2a6.41,6.41,0,0,0-7.52-1.12A5.87,5.87,0,0,0,.26,72.1a8.12,8.12,0,0,0,6.09,6.15c.77.2,1.57.3,2.34.52s.92.49.28,1.06a33.06,33.06,0,0,0-2.71,2.36A4.52,4.52,0,0,0,6,88.48,9.33,9.33,0,0,0,7.89,90.3c2.09,1.52,3.68,1.39,5.63-.27a8,8,0,0,0,2.57-4.74c.22-1.14.37-2.37,1.64-3.17a13.67,13.67,0,0,0,.75,2.09,31.17,31.17,0,0,0,2.85,4.67c1.38,1.68,3.26,1.89,5.23,1a6.21,6.21,0,0,0,2.6-9.09c-.91-1.35-.9-1.34.75-1.91a8.23,8.23,0,0,0,4.35-3.23,4.85,4.85,0,0,0-.13-5.82,6.27,6.27,0,0,0-7.71-2m4.5,7.43a4.5,4.5,0,0,1-4.25.9c-1.56-.52-2.6-.06-3.14.95a3,3,0,0,0,.9,3.66,13.18,13.18,0,0,0,1.63,1,2.67,2.67,0,0,1,1.43,2.8c-.15,1.15-1.5,2.91-2.5,3a2.76,2.76,0,0,1-1.86-.73,9,9,0,0,1-2.34-4.63A3.17,3.17,0,0,0,17,79.34a3,3,0,0,0-2.39,1.79,26.79,26.79,0,0,0-1.14,3.14A28.33,28.33,0,0,1,12.53,87c-.68,1.44-1.47,1.8-2.63,1.35a2.67,2.67,0,0,1-1.81-3.41,7.12,7.12,0,0,1,1.56-2.07c.67-.67,1.52-1.17,2.23-1.81a2.82,2.82,0,0,0-1.1-5,18.77,18.77,0,0,0-3.07-.44,5.59,5.59,0,0,1-4.8-4.1,3.45,3.45,0,0,1,1-3.69,3.27,3.27,0,0,1,4,.5c.65.58,1.12,1.36,1.77,1.94a6.09,6.09,0,0,0,2.11,1.46c2.32.68,4.28-1.51,4-4.24a22.69,22.69,0,0,1-.2-3.57,6.08,6.08,0,0,1,.65-2.28,2.43,2.43,0,0,1,2.91-1.52c1.35.32,1.78,1,1.75,3.13l-.46,1.89a23.43,23.43,0,0,0-.54,2.33c-.41,3.1,1.58,4.93,4.63,4.21a25.3,25.3,0,0,0,2.64-1.1A6.28,6.28,0,0,1,29.41,70a3.22,3.22,0,0,1,2.86,2.23c.43,1-.07,2.15-1.35,3" transform="translate(0)"/><path class="cls-3" d="M99.3,7.89c1-1.21.74-2.24-.81-2.65a5.18,5.18,0,0,0-1.87,0c-2,.23-4,.4-5.93.8a2.48,2.48,0,0,1-2.95-1.4c-.68-1.17-1.32-2.37-2-3.53-.43-.72-1-1.31-1.94-1s-.85.94-1,1.69c-.42,2.1-1,4.17-1.56,6.24-.09.32-.49.59-.78.83C79,10,77.47,11.22,76,12.44a8.37,8.37,0,0,0-1.37,1.33,1.7,1.7,0,0,0,1,2.88c1.22.35,2.39.91,3.62,1.19A3.58,3.58,0,0,1,82,20.27c.7,1.95,1.32,3.93,1.94,5.9.22.7.35,1.42,1.3,1.47s1.21-.53,1.57-1.21c.85-1.62,1.83-3.17,2.69-4.79a1.7,1.7,0,0,1,2.36-.89c1.51.49,3.07.82,4,1.07,3,.14,3.84-.87,3-3a33.55,33.55,0,0,0-2.36-4.69c-.93-1.61-1-1.6.15-3.12.83-1.07,1.76-2.07,2.63-3.11M94.74,18.73c-1.64-.33-3.26-.76-4.9-1.06-1.41-.26-1.6-.1-2.14,1.23a4.24,4.24,0,0,1-.3.9c-.46.64-1,1.22-1.49,1.83-.34-.58-.72-1.14-1-1.73-.55-1.06-1-2.18-1.62-3.19a3.08,3.08,0,0,0-1.43-1.07c-.88-.35-1.85-.46-2.75-.77s-.93-.64-.16-1.3a19.41,19.41,0,0,1,2.61-2.09,5.92,5.92,0,0,0,2.87-4.17A13.19,13.19,0,0,1,85,5.68c.79,1,1.42,1.78,2,2.58a2,2,0,0,0,2.26.83c1.76-.37,3.57-.49,5.81-.77-.82,1.13-1.34,1.9-1.92,2.64a2.29,2.29,0,0,0-.1,3c.85,1.25,1.58,2.58,2.35,3.89a2.28,2.28,0,0,1,.15.68,2.43,2.43,0,0,1-.85.15" transform="translate(0)"/><path class="cls-3" d="M63,31.82a11,11,0,0,0-9.83-1.45,21.27,21.27,0,0,0-7.45,4.22c-5.13,4.19-5.7,5.53-5.26,12.11.51,7.59,6,12.67,14.6,12.63a18.73,18.73,0,0,0,13.85-7.45,10.3,10.3,0,0,0,2-8.8c-1-4.91-4-8.47-7.95-11.26M60.62,55a61.33,61.33,0,0,1-7,1.6c-5.91,0-9.25-3.53-10.25-8.7a22.33,22.33,0,0,1-.34-2.37c-.26-3.1.35-5.88,3-7.87a51.3,51.3,0,0,1,4.39-3.32c8-4.64,16.47.86,17.38,9.12.62,5.61-1.93,9.66-7.25,11.53" transform="translate(0)"/><path class="cls-3" d="M18.18,71.43c-1,0-2.46,1.58-2.48,2.81a2.51,2.51,0,0,0,2.48,2.09A2.29,2.29,0,0,0,20.44,74a2.6,2.6,0,0,0-2.25-2.61" transform="translate(0)"/><path class="cls-3" d="M56,41.72a3.76,3.76,0,0,0-4.34,1,11.53,11.53,0,0,1-.87,1.12,3.62,3.62,0,0,0-.89,4.54,3.86,3.86,0,0,0,3.65,2.25,5.1,5.1,0,0,0,5.29-5.2A4,4,0,0,0,56,41.72" transform="translate(0)"/></g></g></g></svg>