<svg xmlns="http://www.w3.org/2000/svg" xmlns:xlink="http://www.w3.org/1999/xlink" viewBox="0 0 79.66 97.68"><defs><style>.cls-1{fill:none;}.cls-2{clip-path:url(#clip-path);}.cls-3{fill:#a4bcc1;}</style><clipPath id="clip-path" transform="translate(0)"><rect class="cls-1" width="79.66" height="97.68"/></clipPath></defs><title>edu16</title><g id="Слой_2" data-name="Слой 2"><g id="Слой_1-2" data-name="Слой 1"><g class="cls-2"><path class="cls-3" d="M49.12,23.68a21.66,21.66,0,0,0-1.59-7.94A25.59,25.59,0,0,0,24.53,0,16.16,16.16,0,0,0,13.24,3.94C9.9,6.85,8,10.41,9.31,15c1,3.68,3.58,5.24,7.29,4.3a19.65,19.65,0,0,0,5.09-2,45.23,45.23,0,0,0,5.82-4.19,2.15,2.15,0,0,1,2.59-.36,5.14,5.14,0,0,1,3.13,5.44c-.36,5.17-2.35,9.5-7.3,11.8a63.26,63.26,0,0,1-7.23,2.48c-1.74.56-3.54,1-5.26,1.6a9,9,0,0,0-4.16,3.12c-3.17,4.21-3.39,8.42-.61,12.91a8.11,8.11,0,0,0,13.08,1.33,8.5,8.5,0,0,0,2.38-5.11c.12-1.13.6-1.18,1.57-1.13a25.4,25.4,0,0,0,5-.15A21.79,21.79,0,0,0,49.12,23.68M21,10.42a9.41,9.41,0,0,0-.17,2.17l-1-3.54c.91,0,1.49.18,1.16,1.37M17.1,4.58a.51.51,0,0,1,.4-.14c.15,0,.28.14.43.19.72.25,1.65.3,2.1.79.24.26-.34,1.27-.53,1.95a1,1,0,0,0,0,.39c-.82-.92-1.64-1.84-2.45-2.78a.43.43,0,0,1,0-.41M13.8,16a1.54,1.54,0,0,1-1.2-.4c-1.37-1.44-1.13-3.11-.49-4.77,0,1.53,0,2.9,1.71,3.56.44.17.4,1.54,0,1.62m4.16-.5c0,.16-.28.3-.43.44-.13-.18-.4-.4-.36-.54.33-1.11.62-2.44-.43-3.07-1.26-.76-1.23-1.67-1.34-2.87-.07-.74-.9-1.4-1.34-2.13-.08-.13,0-.42.13-.58a.43.43,0,0,1,.41-.11,5.58,5.58,0,0,1,1.27,1A9.8,9.8,0,0,1,18,14.52a6.47,6.47,0,0,1,0,1m3.26-1.17c-.15-.39-.32-.78-.43-1.18,0-.12,0-.26.09-.4.14.05.33.08.37.18a8,8,0,0,1,.36,1.22s-.26.12-.4.18m2.46-7.55c-.26-.08-.66-.21-.7-.4-.25-1.05-.42-2.12-.59-3.19,0-.09.14-.21.21-.31.13.09.34.14.38.26.36,1,.71,2.08,1,3.14,0,.14-.25.52-.31.5m.71,5.24a3.4,3.4,0,0,1-.51-.39s.12-.23.18-.35l.56.31-.23.43m3.08-5.83a7,7,0,0,0,0,2.78c0,.1-.2.34-.26.32s-.47-.18-.48-.3c-.05-.55,0-1.11,0-1.67l.2,0c-.26-1.32-.54-2.64-.77-4,0-.17.17-.38.27-.57.21.16.56.29.6.49a6.87,6.87,0,0,1,.48,2.95M32.74,6a6.9,6.9,0,0,1-2,3.73c-.57-.87-1-1.6-.28-2.48a2.16,2.16,0,0,0,0-2.83,3.3,3.3,0,0,1-.31-.82,3.61,3.61,0,0,1,1.08,0c1.47.43,1.75.88,1.55,2.42m-13.14,30h0l-.08.39.07-.4m-7.89,2.8c.07,0,.16,0,.19.09s0,.12-.05.18l-.21,0ZM9,44.62l3.38,3c-1.91.36-2.28.05-3.38-3M13.66,51l-.13-.07.15,0Zm1-6a4.73,4.73,0,0,1-.91-.12,2.54,2.54,0,0,1-.57-.31,1.35,1.35,0,0,1,.6-.13,5.48,5.48,0,0,1,1,.37c0,.07-.07.2-.1.2m.28-6.46c-.72-.56-.28-1.58.65-1.71a.93.93,0,0,1,.78.29c.55,1,1,2,1.53,3a16.9,16.9,0,0,1-3-1.54m4.19,11.6a.74.74,0,0,1-1.22,0,18.23,18.23,0,0,0-1.37-1.29,19.51,19.51,0,0,1,2.13,0,6.07,6.07,0,0,1,1.19.41,6.81,6.81,0,0,1-.72.9M20,44.37a6.64,6.64,0,0,1-1.34,0,5.15,5.15,0,0,1-1-.47,4.93,4.93,0,0,1,.94-.34,2.35,2.35,0,0,1,.94.07,11.92,11.92,0,0,1,1.21.46l-.8.29M45,31.19c-.09.11-.48.05-.7,0a17.06,17.06,0,0,0-1.93-.7,11.78,11.78,0,0,1-5.46-2.22,5.86,5.86,0,0,1-.82-1.09c.4-.19.8-.39,1.21-.55a8.12,8.12,0,0,1,.88-.23,4.74,4.74,0,0,1,1,.7,3.52,3.52,0,0,0,2.76,1.16,9.77,9.77,0,0,1,2.33.45c1.52.42,1.78,1.27.75,2.51m1-9.59A17.33,17.33,0,0,1,46.34,24c.13,2.3.07,2.32-2,1.65a4.45,4.45,0,0,0-1.39-.27,2.55,2.55,0,0,1-2.47-1.06,2.1,2.1,0,0,0-2.77-.65,5.33,5.33,0,0,1-1.84.28c-.13,0-.37-.31-.38-.49s.21-.48.35-.49c.63-.05,1.27,0,1.9,0,2.54-.13,5.12-.17,7.31-1.74.59-.42.87-.14,1,.43m-9.2-4.7s.1-.08.16-.12l.15.33-.16.14a2.42,2.42,0,0,1-.15-.35M39,19.85,39,20,39,19.85h0m0,0a4,4,0,0,1,1.29-.73A17,17,0,0,1,42.81,19c-1.07,1.25-2.43,1.09-3.81.79m5.44-2-.42.14a2.3,2.3,0,0,1,.26-.21s.11,0,.17.08m-2.25-5.19c1,1.31,1,2.07-.12,3.11s-1.87.16-2.82-.22l1.87-2.86c.34-.53.66-.57,1.07,0M35.77,6.25l.61.81-.6,1c-.17-.2-.51-.42-.48-.58a5.64,5.64,0,0,1,.47-1.19m-.92,7.21c1.07-.79,1-2.56,2.64-2.92.39-.09.64-.68,1-1a4.45,4.45,0,0,1,.86-.45c0,.29.23.64.12.87-.74,1.6-1.5,3.2-3.24,4l-.82.35c-.2-.09-.42-.11-.46-.21s-.18-.58-.1-.65M30.62,33c.72.67,2.33,0,2.36,1.83a9,9,0,0,0,1.1,2.82,4.84,4.84,0,0,1-3.33-2.5,11.43,11.43,0,0,1-.67-2c.19-.06.47-.22.55-.15M26.44,33a.49.49,0,0,1,.36-.25c.09,0,.25.14.3.25a2.6,2.6,0,0,1,.29.88,8.7,8.7,0,0,1-.12,1.28c-.15,0-.37,0-.43-.09-.25-.35-.45-.73-.63-1a8.37,8.37,0,0,1,.24-1m-3.59,1.38c.06-.05.53.17.54.28.1,1.59,1.14,2.49,2.29,3.35.16.12.19.42.32.73-.2.08-.4.24-.56.21a4.69,4.69,0,0,1-3.2-3.74c0-.28.35-.59.61-.82m5.47,8c-.55.05-1.09.07-2.07.12-.9-.19-2.21-.44-3.49-.78-.19,0-.27-.49-.4-.75.25-.05.54-.2.75-.13.44.14.84.43,1.28.6.93.38,1.84.93,2.89.19.23-.17.73,0,1.1.08.09,0,.2.25.2.38a.38.38,0,0,1-.25.28m5-.87c-.88.34-1.62.56-1.93-.79-.12-.5-.9-.82-1.34-1.26s-.89-1-1.63-1.89L34.7,41c-.43.19-.93.42-1.44.62m4.86-2.42a20.86,20.86,0,0,1-1.9.94l-.09.12.07-.09c0-.32.05-.64.06-1s0-.89,0-1.33a13.6,13.6,0,0,1,1.79.43c.5.19.5.63.07.9m1.33-3.31a5.26,5.26,0,0,0-1.54-.61c-1.78-.12-2.39-1-2.31-2.75,0-1-.6-1.51-1.67-1.64-1.25-.15-1.5-.57-1.5-2,.05-.11.17-.49.24-.49a1.22,1.22,0,0,1,.79.3,11.81,11.81,0,0,0,6.61,4,25.45,25.45,0,0,0,2.58.39c1.13.17,1.2.34.55,1.32-.13.2-.29.38-.43.57-1.32,1.73-1.32,1.73-3.33.88" transform="translate(0)"/><path class="cls-3" d="M79,11.87c-1.2-5.14-6-5.6-9-4.13a17.86,17.86,0,0,0-4.78,3.13c-2.22,2.25-4.11,4.83-6.12,7.3-.18.22-.16.6-.25.91-.18.61-.32,1.23-.55,1.82a167.6,167.6,0,0,0-7.12,22.29,123.84,123.84,0,0,0-3.4,23.9v1.2c0,2.81.64,3.43,3.5,3.63a9.37,9.37,0,0,0,6.61-2.33A31.84,31.84,0,0,0,65.09,61a108.1,108.1,0,0,0,9.08-19.25c2.79-7.5,5-15.18,5.47-23.22a23.57,23.57,0,0,0-.6-6.62m-5.42,0c.22-.37.48-.88.82-1a1.27,1.27,0,0,1,1.14.46,21.47,21.47,0,0,1,1.15,3.56c.14.63-.42.74-.95.6a2.83,2.83,0,0,1-2.21-3c0-.14-.05-.42.05-.6m-9.74,4.38a16.65,16.65,0,0,1,1.63-1.86l.47.31a9.38,9.38,0,0,1-1,2.28,3.34,3.34,0,0,1-1.71,1c-.62-.73.27-1.19.6-1.7M55.51,37.76c.31-1.54.68-3.07,1.11-4.59.24-.82.88-.91,1.36-.18a10.45,10.45,0,0,1,.85,1.82c0,2.3-.69,3.35-2.17,3.79-.85.25-1.31,0-1.15-.85M52.38,55.84c0-.06.13-.14.17-.12s.32.11.33.18a5.5,5.5,0,0,1,0,1.39c0,.25-.35.46-.53.69l-.33-.7c.14-.54.25-1,.37-1.43m6.91,7.88s-.43-.14-.46-.26c-.33-1.56,1.46-4.33,3.13-4.87.16,0,.38.1.86.25-1.24,1.73-2.37,3.32-3.53,4.88m7.3-17.1a3.31,3.31,0,0,1-2.7,2.15A2.77,2.77,0,0,1,61.12,47a2.31,2.31,0,0,1,1.34-2.73c.14-.08.28-.15.42-.22a2.82,2.82,0,0,1,3.31.33,1.84,1.84,0,0,1,.4,2.18M76,25.6c-.59,2.8-1.27,5.59-2,8.37-.21.86-.73.87-1.43.43a5.46,5.46,0,0,1-2.69-4.78,5.34,5.34,0,0,1,4.76-5.37c1.18,0,1.55.25,1.32,1.34m.71-5c-.11.63-.35,1.05-1.09.94a2,2,0,0,0-.48,0c-6.51.57-9.74,6.14-7,12.14a7.16,7.16,0,0,0,3.18,3.14c1.51.89,1.53.93.85,2.6s-1.52,3.49-2.4,5.52c-2.39-4-4.87-4.79-8.47-3.07a4.9,4.9,0,0,0-2.78,5.73,5.21,5.21,0,0,0,5.4,3.86c.16,0,.31-.06.47-.08L66.41,51l-.68,2.17A3.22,3.22,0,0,1,63,55.42c-3.95.88-6.26,3.34-6.74,7.13a6.79,6.79,0,0,0,.36,3,1.42,1.42,0,0,1-.5,1.86,7.42,7.42,0,0,1-4,1.92c-1.46.1-1.88-.36-1.66-1.79s.54-3.15.76-4.73a1.84,1.84,0,0,1,1.33-1.77c1.56-.45,2.76-1.27,3-3,.24-1.94.37-4-1.2-5.39a3,3,0,0,1-1-3.36c.47-2.1.76-4.24,1.09-6.37a1.38,1.38,0,0,1,1.39-1.35,7.92,7.92,0,0,0,1.39-.34,5.69,5.69,0,0,0,4.33-4.64,6,6,0,0,0-2.3-6.17c-1.47-1.19-1.52-1.2-.92-2.86s1.38-3.57,2.09-5.35a1.81,1.81,0,0,1,1.78-1.24c4.45-.36,6.65-3,6.37-7.55,0-.78-.4-1.62.58-2.1.49-.24,1-.44,1.5-.66a10.54,10.54,0,0,1,.21,1.53c0,3.28,1.21,5.09,4.43,5.91,1.91.49,1.75,1.11,1.49,2.56" transform="translate(0)"/><path class="cls-3" d="M17.11,62.7c-3-2.28-6.7-2.76-10.22-2.55-4.74.28-9.56,7.62-5.14,13a12.23,12.23,0,0,0,8.5,4.51c2.47.05,3.76-.2,5-1.05a9.86,9.86,0,0,0,4.54-8.74,6.33,6.33,0,0,0-2.69-5.12m-8.88.44A4.94,4.94,0,0,1,9.28,63c2.67.07,4.79.66,6.46,2.35a5.48,5.48,0,0,1,.63,1,4.46,4.46,0,0,1-1,.48c-1,.19-1.84.23-2.32-1s-1.64-1.41-2.83-1.14a12.25,12.25,0,0,0-1.35.48c-.53.19-1.1.46-1.42-.27a1.31,1.31,0,0,1,.81-1.73M4.45,65l.05.47-.33-.3L4.45,65M9,72.94a1,1,0,0,1-1.45-.28A4.05,4.05,0,0,0,4.27,70.9c-.41,0-.89-.58-1.16-1a3.8,3.8,0,0,1-.26-1.32,8.64,8.64,0,0,1,1.2.51C5.61,70,7.16,71,8.71,72c.24.15.45.34.7.53a4,4,0,0,1-.45.41m4,1.54a11.86,11.86,0,0,1-1.43-.68l.13-.35c.53.09,1.06.16,1.58.29.13,0,.21.28.31.43-.2.11-.45.35-.6.3m3.36-4.1c-3,1-5.65.33-8.12-2.1a9.56,9.56,0,0,1,1.7-.64,1.08,1.08,0,0,1,.93.37c.89,1.76,2.36,2,4.07,1.67a6.61,6.61,0,0,1,1.42-.11c.16,0,.32.26.48.4-.16.14-.29.35-.48.41" transform="translate(0)"/><path class="cls-3" d="M44.45,81.6c-3.51-.44-7.64,1.57-8.14,5.8-.06.48-.09,1-.13,1.43l-.25.09a29.09,29.09,0,0,0,1.44,4.49c1.72,3.41,6.2,5.21,9.33,3.76a9.58,9.58,0,0,0,5.38-6.37,5.56,5.56,0,0,0-.72-4.59,9.28,9.28,0,0,0-6.92-4.61M47,93.79a3.91,3.91,0,0,1-4.2.92,6.15,6.15,0,0,1-3.44-3.21l7.35,1.43a2.9,2.9,0,0,1,.59.26,2,2,0,0,1-.3.6m0-3.67a3.55,3.55,0,0,1-.72,0l0,.17c-1.32-.25-2.66-.42-4-.77a4.19,4.19,0,0,1-1.83-1.07c-.55-.57-1.55-1.1-1-2.16s.93-2,2.36-2c1.61,0,3.22-.2,4.62.75A7.11,7.11,0,0,1,48.59,87a9.27,9.27,0,0,1,.72,2.63c-.74.18-1.48.36-2.22.52" transform="translate(0)"/></g></g></g></svg>