<svg xmlns="http://www.w3.org/2000/svg" xmlns:xlink="http://www.w3.org/1999/xlink" viewBox="0 0 71.28 76.22"><defs><style>.cls-1{fill:none;}.cls-2{clip-path:url(#clip-path);}.cls-3{fill:#a4bcc1;}</style><clipPath id="clip-path"><rect class="cls-1" width="71.28" height="76.22"/></clipPath></defs><title>edu1</title><g id="Слой_2" data-name="Слой 2"><g id="Слой_1-2" data-name="Слой 1"><g class="cls-2"><path class="cls-3" d="M6.79,70.62c-1,.35-2.08.67-3.1,1.07-.86.33-1.58.34-2-.58-.35-.71,0-1.48,1-1.87,1.94-.75,3.89-1.46,5.88-2a3.38,3.38,0,0,0,2.05-1.45,33.48,33.48,0,0,0,3.28-6.11,47.18,47.18,0,0,1,2.8-5.28c.68-1.15.78-1.16-.39-1.71a28.92,28.92,0,0,1-9.49-7.18A27,27,0,0,1,3,15.27c.94-1.85,1.82-3.74,2.85-5.54A26.34,26.34,0,0,1,8.68,5.58C13.25.3,19-1.08,25.6.8a30.77,30.77,0,0,1,2.9,1.12c.37.15.86.56,1.08.45,1.76-.95,2.95.73,4.4.87a58.6,58.6,0,0,0,6.92-.06,28.59,28.59,0,0,1,3.34-.11,1.31,1.31,0,0,1,1,2.22c-1.64,2.16-3.34,4.29-5.14,6.32a4.06,4.06,0,0,1-3.29,1.71,1,1,0,0,0-.74.37c-1,1.63-1.92,3.29-2.9,4.93-.29.49-.11.77.33.88s1.11.15,1.66.22a11,11,0,0,1,7.85,4.57c1.33,1.9,2.49,3.91,3.74,5.86a20.25,20.25,0,0,0,12.3,8.95,17.71,17.71,0,0,0,7.84.49,13.09,13.09,0,0,1,3.1-.25,1.62,1.62,0,0,1,1.21.88,1.61,1.61,0,0,1-.53,1.39C62.07,48.08,52.84,53.39,42,55.37c-1.67.31-1.66.38-1.73,2-.12,3-.16,5.92-.38,8.87a4.28,4.28,0,0,0,1.76,3.95c.63.5,1.25,1,1.83,1.55s.79,1,.29,1.69a1.34,1.34,0,0,1-1.91.33c-.6-.34-1.16-.77-1.91-1.28-.1,1-.14,1.68-.27,2.38s-.54,1.4-1.42,1.35-1.22-.66-1.24-1.48,0-1.44,0-2.16-.32-.88-.91-.59a7.24,7.24,0,0,0-3.52,3.13,2.33,2.33,0,0,1-1.4,1.08A1.19,1.19,0,0,1,30,74.55a11.75,11.75,0,0,1,2.15-3.1,9.69,9.69,0,0,1,3-2,3.18,3.18,0,0,0,2.1-3.33c0-2.88.14-5.76.26-8.63,0-1-.41-1.44-1.43-1.37a43.65,43.65,0,0,1-13.78-1.32,3.27,3.27,0,0,0-3.78,1.44A46.48,46.48,0,0,0,16,60.92c-1.11,2.3-2.07,4.67-3.19,7a2,2,0,0,0,.39,2.59c.66.63,1,1.3.25,2.05s-1.45.39-2.15-.11c-.43-.31-1-.89-1.33-.77-.53.22-.88.86-1.29,1.34a3.37,3.37,0,0,0-.21.43c-.65,1.06-1.4,1.4-2.07.88a1.49,1.49,0,0,1-.28-2.14A12.76,12.76,0,0,1,7,71l-.22-.39M33.26,53.3c1.28,0,2.56,0,3.83,0a11.66,11.66,0,0,0,1.43-.11,58.55,58.55,0,0,0,24-9.15,10.42,10.42,0,0,0,1.34-1.23,9.42,9.42,0,0,0-1.77-.41,18.92,18.92,0,0,1-12.4-5,37.66,37.66,0,0,1-6.11-7c-.76-1.13-1.5-2.26-2.29-3.37-3.1-4.33-7.24-5.74-12.37-4.41-1.15.3-2.31.57-3.48.78a13.69,13.69,0,0,1-5.45.37c-1.19-.26-1.7-.87-1.42-1.73.34-1,1.3-1.66,2.23-1.11,1.89,1.14,3.62.53,5.21-.38a34.53,34.53,0,0,0,5.06-3.59c3.34-2.83,3.32-7.06-.07-10.24C26.14,2.12,15.93.74,10.29,8.09a35.3,35.3,0,0,0-4.38,7.67A32.54,32.54,0,0,0,3.79,35c1.37,7.1,6,11.87,12.5,14.78a36.55,36.55,0,0,0,17,3.5M41,6.12c-.18-.08-.36-.23-.54-.22-.71,0-1.42.1-2.13.19-1.13.15-2.27.32-3.4.48.44,1.09.89,2.18,1.3,3.28.25.67.69,1,1.23.44,1.18-1.16,2.27-2.41,3.39-3.63.09-.1.09-.29.15-.55"/><path class="cls-3" d="M21.62,14.12c-1.9,0-3.18-1.08-3.17-2.78a3.58,3.58,0,0,1,3.09-3.4c1.53-.06,3.54,2,3.52,3.61,0,1.45-1.46,2.53-3.44,2.58"/></g></g></g></svg>