<svg xmlns="http://www.w3.org/2000/svg" xmlns:xlink="http://www.w3.org/1999/xlink" viewBox="0 0 109.8 97.34"><defs><style>.cls-1{fill:none;}.cls-2{clip-path:url(#clip-path);}.cls-3{fill:#a4bcc1;}</style><clipPath id="clip-path" transform="translate(0 0)"><rect class="cls-1" width="109.8" height="97.35"/></clipPath></defs><title>edu17</title><g id="Слой_2" data-name="Слой 2"><g id="Слой_1-2" data-name="Слой 1"><g class="cls-2"><path class="cls-3" d="M109.25,11.3c-1.06-.66-2-1.58-3.41-1.57A16.14,16.14,0,0,1,103,9.4c-5.9-1-11.78-2.2-17.71-3.07Q70.25,4.12,55.14,2.25C48.41,1.4,41.64.8,34.89.08,33-.13,32.8,0,32.2,1.88a10.52,10.52,0,0,0-.44,1.62c-.63,4.43-1.27,8.85-1.85,13.28-.26,2-.21,2-2.11,1.84-.24,0-.48,0-.72,0-4.83-.61-9.66-1.25-14.5-1.81a7.39,7.39,0,0,0-2.79.18c-1.59.45-1.7,1.95-1.94,3.28-2,11.32-4.16,22.63-6,34C1,59.62.53,65.14,0,70.62c-.24,2.68.4,3.28,3,3.52a225.94,225.94,0,0,1,25.77,4.18c11.34,2.37,22.66,4.78,34,7.14,2.42.5,4.87.89,7.33,1.21a2.86,2.86,0,0,0,2.18-.45,7.24,7.24,0,0,0,2.06-4.15c.6-6.12,1.35-12.23,2.06-18.34.34-3,.71-5.93,1.11-9.25,1.1,1.4,2,1,2.95.38,1.17-.71,2-2,3.52-2.1-.44.41-.9.8-1.31,1.24-1.09,1.18-2.92,1.86-2.72,3.95,0,.12-.43.36-.69.41a1.37,1.37,0,0,0-1.27,1.48c.05.92.89,1,1.57,1.21a2.29,2.29,0,0,0,.47.1c3.11.22,6.21.51,9.32.63,1.84.07,2.18-.43,2.12-2.32a35.86,35.86,0,0,1-.1-4.55c.62-6.36,1.38-12.71,2-19.07a68.07,68.07,0,0,0,.25-14.12c-.31-2.85-1.21-4-4-4.46q-10.42-1.62-20.86-3c-4.83-.66-9.68-1.15-14.51-1.78C51.12,12,48,11.47,44.81,11c-1.6-.24-2.2.22-2.43,1.83-.08.55-.08,1.12-.13,1.67-.12,1.43-.26,2.87-.36,4.3-.06.89-.5,1.31-1.39,1.21l-7.14-.83c-.8-.09-1-.49-.92-1.31.33-2.62.53-5.25.88-7.86.25-1.9.64-3.78,1-5.67a1.71,1.71,0,0,1,1.94-1.65c.46,0,.92,0,1.37.06,1.25.15,2.5.36,3.75.48,1,.1,2.08,0,3.1.14,6,.7,12,1.57,18.09,2.13A271.81,271.81,0,0,1,91.19,9.74c4.93,1,9.88,1.85,14.83,2.74,1.13.21,1,1,1,1.81-.41,4.37-.83,8.75-1.18,13.13-.71,9.08-1.28,18.18-2.1,27.25-.46,5.09-1.27,10.15-2,15.2-.33,2.26-1,2.67-3.26,2.21-1.72-.35-3.43-.78-5.11-1.28a50.72,50.72,0,0,0-12-2.1A16,16,0,0,0,77.5,69a1.49,1.49,0,0,0-.89,1.17,1.63,1.63,0,0,0,1,1.11,7.32,7.32,0,0,0,1.9.06,45.84,45.84,0,0,1,5.49.36c3.46.61,6.88,1.42,10.31,2.16a36.52,36.52,0,0,0,4,.83A4.19,4.19,0,0,0,104.18,71c.7-4.42,1.48-8.84,1.89-13.28.94-10.26,1.68-20.55,2.5-30.82q.55-6.81,1.15-13.62c.07-.74.24-1.51-.48-2m-27,47.36c0-.06-.1-.15-.08-.17a2.58,2.58,0,0,1,.28-.27l.07.2-.26.25m1.24-1.78,0,0,0,.12Zm.06,0,1.24-.72c-.15.64-.62.81-1.24.72M85,56h0a21.11,21.11,0,0,1,3.22-3,.38.38,0,0,1,.37,0,.41.41,0,0,1,0,.4c-1.14.94-2.29,1.85-3.44,2.78L85,56m3.26,3A3.15,3.15,0,0,1,87,58.88s-.13-.44,0-.52A6.31,6.31,0,0,1,88,57.49a.69.69,0,0,1,.61-.07c.15.11.15.41.26.75-.16.25-.3.73-.56.81m.64-9.73a7.76,7.76,0,0,1-1.44.38,10.84,10.84,0,0,1,1.09-1.1c.16-.13.49,0,.74,0-.13.26-.19.66-.39.75m-3.72-1.39c-2,1.52-4,3.1-6.08,4.63a4.26,4.26,0,0,1-1.07.42,6,6,0,0,1-.19-1.1c0-.94.12-1.79,1.46-1.56a1.29,1.29,0,0,0,1-.45C81.71,48,83.72,47.1,85.55,46c1.41-.84,2.84-1.64,4.26-2.45,0,.3,0,.75-.12.79-1.88.68-3,2.38-4.47,3.5m-6-4.74a4.07,4.07,0,0,0,.12,1.48c.74,1.65.78,1.63-.88,2.76a14.65,14.65,0,0,1,.76-4.24M87.49,41l1.28-1.42c0,.86-.33,1.41-1.28,1.42m1.42-1.51,1.34-.65c0,.07.06.15,0,.21-.29.75-.85.52-1.38.44m.24-8.43a2.75,2.75,0,0,1-.51.8q-2.67,2-5.4,3.84c-.13.09-.38,0-.59,0a15.86,15.86,0,0,1,6.5-4.61m.28,3.7,1.23-.57c0,.07.07.17,0,.22-.3.66-.8.46-1.28.35m1.48-8.71c-2.52,1.64-5.07,3.23-7.62,4.83a8.89,8.89,0,0,1,1.36-1.58c1.81-1.4,3.69-2.72,5.57-4,.22-.15.63,0,1-.06-.08.29-.08.72-.27.84m-5.16-6.5a1.8,1.8,0,0,1-1.6,1.34l1.44-1.49s.17.12.16.15m-3,2.86,0,0-.07.08H82.6Zm-1.26-3.76.18.11-.2.35c-.05,0-.16-.11-.15-.14a1.83,1.83,0,0,1,.16-.32m-.08,8.75a25.09,25.09,0,0,1,2-2q3.07-2.57,6.2-5.05a1.13,1.13,0,0,1,.85-.12c.16,0,.25.36.44.68a4.28,4.28,0,0,1-.68.87Q86.05,25,81.84,28.05c-.14.1-.41,0-.62,0,0-.21,0-.49.16-.63m.13,3.66c.52,0,1.05,0,1.58,0a17.35,17.35,0,0,1-1.19,1.35,4.77,4.77,0,0,1-1,.57,1.68,1.68,0,0,1-.19-.63c.07-.52,0-1.19.77-1.25m-.81-7.24,0,0-.1-.07.08,0M79.93,37c.17-.69.67-.5,1.13-.33l.61.24a4.81,4.81,0,0,1-.65.64,11.69,11.69,0,0,1-1.11.62,5.24,5.24,0,0,1,0-1.16M80.22,41c.89.3,1.39-.27,2-.83,2-1.8,4-3.72,6.58-4.8a5.73,5.73,0,0,1-.69,1.1A30.48,30.48,0,0,1,79.3,43a10.35,10.35,0,0,1-.06-1.12c0-.61.16-1.08,1-.8M76.34,17.83c.62.06,1.24.21,2.2.39-1.56,1.57-2.87,2.84-4.11,4.17a6.38,6.38,0,0,0-1.64,2.28c-.28,1-.75.79-1.37.64-1.4-.34-1.54-.62-.67-1.67,1.56-1.88,3.16-3.73,4.78-5.56a1.1,1.1,0,0,1,.82-.24m-.44,7.91-.25.31-.3-.43.36-.23.19.34M71.6,17.5a.41.41,0,0,1,.4-.05c.09.07.15.33.09.4q-2.47,2.93-5,5.83c-.13.15-.42.17-.58.23-.21-.1-.41-.14-.47-.25a.48.48,0,0,1,.09-.43q2.71-2.88,5.45-5.72m-7.31,1.61c.65-.56,1.46-.88,1.69-1.87s1-.52,1.58-.45c.1,0,.17.21.31.39a8.36,8.36,0,0,1-.53.72c-1.49,1.63-3,3.28-4.5,4.87a1.21,1.21,0,0,1-1,.15c-.67-.22-.47-.82-.18-1.14a28.94,28.94,0,0,1,2.66-2.67m-2.52-2.92a2.74,2.74,0,0,1,.91.17,2.31,2.31,0,0,1-.33.77,18.13,18.13,0,0,0-1.42,1.27,25.48,25.48,0,0,0-2.14,3.11c-.31.54-.51,1-1.51.78-.06-.2-.35-.69-.22-.85,1.26-1.63,2.57-3.22,3.9-4.8a1.43,1.43,0,0,1,.81-.45m-4.47-.4c0,.18.09.43,0,.52a1.45,1.45,0,0,1-.53.27,2.38,2.38,0,0,1,.15-.6c0-.1.25-.13.38-.19m-.62.89a9.54,9.54,0,0,1-.51,1.18c-.67,1.15-1.45,2.25-2,3.44-.36.74-.87.55-1.38.46-.15,0-.4-.54-.35-.6,1.38-1.53,2.12-3.69,4.27-4.48M48,20q2-2.36,4.12-4.63c.19-.21.67-.14,1.19-.24a5.38,5.38,0,0,1-.42.83c-.9,1.11-1.83,2.21-2.72,3.33a6,6,0,0,0-.86,1.38c-.34.81-.88.6-1.33.27A1,1,0,0,1,48,20m-1.25-2.92-.05,0,0-.1.1.06m-1.25,1-.67,2.35a1.94,1.94,0,0,1,.67-2.35M35.37,22c4,.47,7.89,1.2,11.84,1.78,4.26.63,8.55,1.12,12.8,1.84,3.46.59,6.87,1.45,10.31,2.14q3.51.71,7.05,1.29c1.43.23,1.87.79,1.2,2a13.08,13.08,0,0,0-1.32,5c-.33,3.09-1,6.15-1.36,9.24-.65,5.15-1.2,10.31-1.78,15.46q-1.25,10.95-2.5,21.89c-.16,1.41-.2,1.4-1.93,1.4-7.2-1.43-14.4-2.85-21.6-4.31-10.95-2.23-21.88-4.53-32.84-6.7-3-.61-6.16-.89-9.24-1.33-.79-.11-1.58-.26-2.37-.34s-1-.59-1-1.33c.33-3.26.59-6.52,1-9.77,1.61-13,4.27-25.83,6.69-38.69.47-2.51-.1-2.39,2.9-2.07,7.38.8,14.77,1.55,22.14,2.43" transform="translate(0 0)"/><path class="cls-3" d="M88.39,94.92a1.13,1.13,0,0,0-1.11,1.25,1.06,1.06,0,0,0,1.16,1.17,1.15,1.15,0,0,0,1.26-1,1.29,1.29,0,0,0-1.31-1.41" transform="translate(0 0)"/><path class="cls-3" d="M14.88,45.68c-.44,4-1.2,7.88-1.81,11.82-.2,1.26-.42,2.52-.53,3.78a6.49,6.49,0,0,1-.45,3A1.18,1.18,0,0,0,13.63,66c1.07-.52,1.83-.09,2.72.1a45.14,45.14,0,0,0,4.69,1c3.65.38,7.32.52,11,.91,4.68.5,9.38,1,14,1.78,4.15.74,8.21,2,12.33,2.93.69.16,1.6.87,2.12-.1.13-.24-.69-1-1.09-1.51,1.83.13,1.76.15,2.37,1.82A2.11,2.11,0,0,0,63.06,74c.33.08.93-.48,1.21-.89a3.44,3.44,0,0,0,.47-1.58c.39-5,.73-10,1.13-15,.2-2.46.47-4.92.8-7.37a38.57,38.57,0,0,0,.51-9.06c-.12-1.15-.53-1.75-1.67-1.93-1.65-.26-3.29-.65-4.94-.91Q40.94,34.17,21.3,31.12a25.31,25.31,0,0,0-3.08-.41c-1.68-.05-2.88,1.58-1.88,2.58s.72,1.83.43,2.79a52.8,52.8,0,0,0-1.89,9.61M47.06,67.17c0-.21-.06-.52,0-.61.46-.36,1-.65,1.46-1-.31.51-.59,1-.94,1.52-.07.1-.38,0-.57.06m15,2.47a.9.9,0,0,1-.62.53,1.06,1.06,0,0,1-.83-.34c-.1-.13,0-.58.22-.78a19.72,19.72,0,0,1,1.54-1.43,14.93,14.93,0,0,1-.31,2m.76-6.58c-.18.56-.36,1.38-.78,1.57a11.09,11.09,0,0,0-4.33,4,7,7,0,0,1-.92.86c-.28-.37-.63-.63-.6-.82a2.38,2.38,0,0,1,.54-1.26c1.7-1.67,3.45-3.29,5.2-4.9a1,1,0,0,1,.61-.22c.15.23.35.56.28.78m-.91-3.51c-.5-.07-1.18.41-1.64.81-1.75,1.51-3.49,3-5.12,4.66a7.5,7.5,0,0,0-1.69,2.55c-.38,1-1,.91-1.68.7-.53-.15-.88-.46-.4-1s.87-.92,1.33-1.37q3.14-3.1,6.28-6.18a20.45,20.45,0,0,1,4-3.3c.05.83.11,1.37.12,1.92,0,.75,0,1.4-1.15,1.23m1.65-8.43a2.57,2.57,0,0,1-1.35,2.18,56.73,56.73,0,0,0-6.33,5.81c-2.29,2.31-4.41,4.8-7.27,6.46a23.86,23.86,0,0,1,2.06-3.14c4-4.45,8.08-8.83,12.14-13.22a4,4,0,0,1,.76-.51,4.83,4.83,0,0,1,.18,1c0,.47-.16.94-.18,1.42m.59-10.19c.13.67.25,1.34.38,2a4,4,0,0,1,0,.45c0,.35-.07.9-.08,1.46,0,.81-.24,1.11-1.18.85a2.08,2.08,0,0,0-1.58.72q-7.35,8-14.62,16.15c-1,1.12-1.9,2.34-2.85,3.51a2,2,0,0,1-2.36.14c-.14-.16,0-.75.2-1,1.75-2,3.47-4,5.35-5.82A160.77,160.77,0,0,0,58.6,47C60,45.37,61.54,43.88,63,42.3c.4-.43.75-.9,1.12-1.36M60,39.88a2.17,2.17,0,0,1,.81.46s-.13.41-.27.57c-7.08,7.82-13.78,16-21.34,23.35a17.19,17.19,0,0,1-1.77,1.37c-.78-.13-1.18-.17-1.57-.26-1-.24-1.11-.54-.48-1.26a24.09,24.09,0,0,1,2.83-2.92c7.4-6,13.56-13.31,20.08-20.23.47-.5.78-1.3,1.69-1.07m-3.95-.38c-2.76,3-5.38,6-8.17,8.84-4.49,4.55-9.1,9-13.65,13.48-.68.67-1.33,1.38-2,2.07-.22.22-.46.61-.69.61a14.39,14.39,0,0,1-2-.29,5.17,5.17,0,0,1,.89-1.27c7-5.38,12.86-12,19-18.28A46.48,46.48,0,0,0,53,40.16c1-1.37,1-1.39,3.09-.66m-7.32-1.09a5,5,0,0,1,1.34-.08,2.77,2.77,0,0,1,0,1.06,6.14,6.14,0,0,1-.9,1.4,34.44,34.44,0,0,1-2.47,2.92q-7.49,7.4-15,14.73c-1.77,1.72-3.64,3.33-5.49,5a4.45,4.45,0,0,1-1.1.59c-.75-.13-1.14-.19-1.53-.28-.61-.13-.54-.54-.22-.85C24,62.2,24.75,61.6,25.48,61c2.06-1.76,4.17-3.45,6.17-5.28,3.82-3.5,7.65-7,11.34-10.63,1.87-1.83,3.46-3.95,5.17-5.94.21-.24.34-.65.59-.72m-4.33-1a1,1,0,0,1,.87.17.83.83,0,0,1,0,.8A13.47,13.47,0,0,1,43.85,40c-7.19,7.06-14.26,14.25-22,20.74a7.61,7.61,0,0,0-1.64,2c-.39.67-.82.94-2.09.66l-.35-.14c.11-.26.14-.59.33-.76,5.36-4.68,10-10.16,15.66-14.5a32.3,32.3,0,0,0,3.55-3.22c2.06-2.12,4-4.32,6.05-6.48a4.18,4.18,0,0,1,1-.91m-3.57-.32a35.34,35.34,0,0,1-5.92,6.26q-8.55,7.32-16.47,15.3a20.1,20.1,0,0,1-2.22,1.81c-.14.11-.52.15-.6.05a.83.83,0,0,1-.13-.66c.07-.29.25-.77.41-.78,1.37-.1,1.7-1.32,2.41-2.13.26-.3.52-.6.81-.88,4.54-4.25,9.12-8.46,13.62-12.76,2-1.87,3.76-3.89,5.59-5.88.79-.85.74-.9,2.5-.34M24.72,34.4a6.86,6.86,0,0,1-3.49,3.33c.69-1.5,2-2.33,3.49-3.33m-5.22-.79a5.34,5.34,0,0,1,1.22.54l-1.61,1.28c-.14-.23-.39-.47-.39-.7,0-.52-.07-1.21.79-1.11m.15,5a10,10,0,0,0,1.09-.35,5.79,5.79,0,0,1-2.26,2.57c-.37-1.18-.12-2,1.17-2.22m-1.76,5.49c.06-1,.28-1.47,1.46-1a2.1,2.1,0,0,0,1.65-.6c1.93-1.79,3.75-3.71,5.7-5.48a12.89,12.89,0,0,1,2.8-1.75c.24-.12.71.19,1.07.3a2.47,2.47,0,0,1-.33.79c-1.81,1.92-3.6,3.86-5.49,5.7s-4.09,3.81-6.17,5.69a2.68,2.68,0,0,1-.85.34,3,3,0,0,1-.19-.74c.11-1.13.29-2.16.35-3.19m-.16,7.19a10.79,10.79,0,0,0,4.28-3c3.33-3.32,6.68-6.62,10-10,.54-.54.92-1.24,1.41-1.83.23-.27.54-.63.83-.65a4.14,4.14,0,0,1,1.31.33,3.25,3.25,0,0,1-.45,1c-1.67,1.71-3.35,3.41-5.08,5.06Q24,48,17.82,53.76c-.33.31-.73.56-1.45,1.12a21.25,21.25,0,0,1,.48-2.69,1.59,1.59,0,0,1,.87-.93" transform="translate(0 0)"/></g></g></g></svg>