<svg xmlns="http://www.w3.org/2000/svg" xmlns:xlink="http://www.w3.org/1999/xlink" viewBox="0 0 229.91 199.95"><defs><style>.cls-1{fill:none;}.cls-2{clip-path:url(#clip-path);}.cls-3{fill:#a4bcc1;}</style><clipPath id="clip-path"><rect class="cls-1" width="229.91" height="199.95"/></clipPath></defs><title>edu11</title><g id="Слой_2" data-name="Слой 2"><g id="Слой_1-2" data-name="Слой 1"><g class="cls-2"><path class="cls-3" d="M221.84,74.74a28.59,28.59,0,0,0,.62-13.52c-.74-4-1.95-7.8-4.68-10.88a2.14,2.14,0,0,1-.3-2.92,20.45,20.45,0,0,0,2.59-10.84c-.68-14.52-12.71-23.42-23.85-24.31-12.16-1-24.15,6.28-26.93,16.22-.21.73-.63.88-1.23.42a7,7,0,0,0-4.45-1.45,19.7,19.7,0,0,0-10.7,3c-1.66,1-1.54,1.25-2.23-1a4.44,4.44,0,0,1-.08-.94l0,0,0,0s0,0,0-.05h0l-1.92-3.36-.51-.51.51.51,0,0h0l0-.06c.3.11.59.24.9.32A1.27,1.27,0,0,0,151,23.55a14.1,14.1,0,0,0-2.37-2.63,1.59,1.59,0,0,0-1.48-.1,2.11,2.11,0,0,0-.66,1.36,2.45,2.45,0,0,0,.29,1.06c.64,0,.9.43,1,1l.48.47h0l-.48-.48-.06-.06.06.06-1-1,0,0h0l.06.06c-.62-.36-1.24-.71-1.85-1.08a12.88,12.88,0,0,0-10.6-1.53,48.41,48.41,0,0,0-5.79,2.26c-1.37.59-1.34.65-1.4-.91,0-.4,0-.8,0-1.2a14.53,14.53,0,0,0-4.62-10.21A20.09,20.09,0,0,0,113.95,6,39.55,39.55,0,0,0,95.9,5.48C88.3,6.87,81.3,9.62,75.3,14.6c-4.64,3.85-7.91,8.58-8.9,14.62a3,3,0,0,1-2.24,2.6c-3.59,1.39-6.05,3.86-6.56,7.86a17.24,17.24,0,0,0,2.76,12.58,25.66,25.66,0,0,0,6.35,6.47c1,.73,1,.72.25,1.8a47.84,47.84,0,0,0-3.35,5.23,19.23,19.23,0,0,0-2.08,11.16A24.81,24.81,0,0,0,71,93.61c8,6.48,20,7.66,28.46,1.07,1-.75,1.44-.54,2.12.28a15.69,15.69,0,0,0,8.86,5.38c1.39.32,2.85.39,4.26.63.42.07,1.13.33,1.14.53.07,1.49,1,1.7,2.21,1.95,2.66.54,2.9,1,2.92,3.71,0,.88,0,1.76,0,2.64a35.62,35.62,0,0,1-5.08,17.77,20.61,20.61,0,0,1-13.54,9.9,47.58,47.58,0,0,1-8,1.26A62,62,0,0,1,83,138.68c-9.64-1.24-17.13-6.3-22.8-14.07a15,15,0,0,1-2.62-5.33c-2.18-9.76-2.22-19.22,4.66-27.49a2.14,2.14,0,0,0,.52-1.71,38.94,38.94,0,0,0-2.47-4.64,1.25,1.25,0,0,0-1.88-.4,1.22,1.22,0,0,0-.37,1.7,21.93,21.93,0,0,0,1.21,2.34A1.77,1.77,0,0,1,59,91.44,20.23,20.23,0,0,0,55,100a47.32,47.32,0,0,0-.84,14.78,23.12,23.12,0,0,0,9.13,17.53c14.1,10.87,29.31,12.57,45.49,5.08,6.73-3.12,10.9-8.45,13-15.49a46.63,46.63,0,0,0,1.88-12.53c0-1.68,0-3.36-.08-5,0-1.31-.48-2.29-2-2.48a12.33,12.33,0,0,1-2.58-1l3-.78a25.28,25.28,0,0,0,12.7-7.33,39.75,39.75,0,0,0,3.68-5.28c.72-1.11.7-1.16,1.6-.12,1.74,2,3.49,4,5.22,5.94a5.6,5.6,0,0,1,.57,1,39,39,0,0,0,5.06,2c5.18,1.27,10.32.64,15.38-.83a22.83,22.83,0,0,0,12.4-8.16,5.85,5.85,0,0,1,1.15-1.5c.77-.5,1.13.66,1.83.69.07,0,.15.07.22.09a1.31,1.31,0,0,0,1.62-.68,1.24,1.24,0,0,0-.47-1.68,3.37,3.37,0,0,0-1.3-.51c-.62-.14-.76-.49-.59-1,.09-.31.19-.61.3-.91.35-.93.49-.93,1.3-.24,1.21,1,2.41,2.1,3.71,3,.8.56,1.49.87.38,1.83-.22.19-.07,1.13.2,1.5a14.24,14.24,0,0,0,2.13,2.26,1.45,1.45,0,0,0,2.14.1,1.52,1.52,0,0,0-.32-2.11c-.51-.53-1-1-1.64-1.62.36-.16.43-.22.5-.21a4.49,4.49,0,0,1,.7.14c7.7,2.29,15.16,1.32,22.5-1.6a14.56,14.56,0,0,0,8.89-10M208.07,84a27.45,27.45,0,0,1-16.75-.28,14.5,14.5,0,0,1-9-7.74c-.13-.29-.22-.66-.45-.83s-.88-.61-1.21-.51a2.14,2.14,0,0,0-1.12,1,3.83,3.83,0,0,0-.14,1.42,15.21,15.21,0,0,1-5.19,10.74c-6.58,5.79-14.26,7.73-22.77,5.49a15.09,15.09,0,0,1-11.34-11.55c-.24-.94-.28-2-1.58-2-.82,0-1.3.71-1.39,2.15a13.76,13.76,0,0,1-2.54,6.89c-4.75,7-15.35,11-23.55,9a13.81,13.81,0,0,1-8.34-5.66c-.23-.33-.42-.68-.68-1a1.48,1.48,0,0,0-2.14-.28,6.89,6.89,0,0,0-.9.79c-5,4.53-10.79,5.67-17.19,4.14a24.91,24.91,0,0,1-12.29-7.14c-6.39-6.66-7.21-15.9-2.2-23.84a51,51,0,0,1,3.39-4.34,2.13,2.13,0,0,0-1.18-3.62,5.29,5.29,0,0,1-2-.76c-4.17-3.3-7.12-7.36-7.47-12.86A8.55,8.55,0,0,1,64,34.92a3,3,0,0,1,2.91-.46c1.46.55,2.19,0,2.1-1.51-.38-6.79,2.94-11.82,7.78-16,6.19-5.31,13.59-8,21.59-9,1.9-.26,3.81-.35,5-.46,4.8.12,8.87.54,12.6,2.38a19.52,19.52,0,0,1,4.91,3.34,12.86,12.86,0,0,1,2.39,14.24c-.14.29-.41.59-.38.86.06.51.15,1.2.5,1.44s1,.08,1.54,0c.19,0,.37-.29.5-.49,2.8-4.08,7-5.79,11.62-6.23s7.9,1.29,10,5.17a11.3,11.3,0,0,1,1.55,7.6,3,3,0,0,0,0,1.41,1.2,1.2,0,0,0,2.12.31,4.36,4.36,0,0,0,.45-1.1,7.09,7.09,0,0,1,3.21-3.75,18.12,18.12,0,0,1,7.92-2.55,7,7,0,0,1,6.08,2.75c.5.6,1,1.14,1.77.85a1.94,1.94,0,0,0,1.33-1.82c.25-5.52,3.21-9.4,7.58-12.34a25.94,25.94,0,0,1,15.76-4.11,30.89,30.89,0,0,1,7.34,1c8.42,2.39,13,8.32,14.58,16.71a20.91,20.91,0,0,1-3,15.18c-1.11,1.81-1,1.8.71,2.87a7.4,7.4,0,0,1,1.89,1.79,19,19,0,0,1,3.64,10.25,24.67,24.67,0,0,1-1.37,10.62A15.17,15.17,0,0,1,208.07,84"/><path class="cls-3" d="M143.24,116.91c-2.18-2.55-4.45-5-6.75-7.48-.75-.79-1-1.47-.12-2.21,2.44-2.12,3-5.68,5.81-7.54a1.57,1.57,0,0,0,.12-1.5,1.48,1.48,0,0,0-1.38-.47,6.42,6.42,0,0,0-2.24,1.69c-1.84,2.4-3.59,4.89-5.32,7.37-1.15,1.66-1.1,2,.29,3.53,2.75,3,5.53,6,8.29,9a12,12,0,0,1,1.21,1.48c1,1.48.8,1.89-.85,2.69q-7.43,3.63-14.83,7.31c-1.43.71-1.53,1.2-.8,2.63a4.66,4.66,0,0,1,.53,1.3c.46,2.84.9,5.68,1.28,8.53.16,1.22,0,1.37-1.24,1.5-2.86.31-5.71.7-8.58.86-3.06.17-6.11,1.42-9.2.08-.64-.28-1.2.2-1.42.93-1.08,3.59-2.18,7.17-3.24,10.76-.82,2.79-.95,2.9-3,.67-2.84-3.13-5.53-6.4-8.27-9.63a3.72,3.72,0,0,1-.37-.86,3,3,0,0,0-2.84-1.63,1.3,1.3,0,0,0-1.17,1.3,4.73,4.73,0,0,1-.53,1.77,75.77,75.77,0,0,1-8.73,12.3c-.63.72-1.32,1.39-2,2.09s-1.08.5-1.5-.22l-7.35-12.37a1.4,1.4,0,0,1,0-1.74,1.57,1.57,0,0,0,0-1.47c-.79-1-3.42-.53-4,.64a4.75,4.75,0,0,1-1.22,1.66q-5,3.88-10.16,7.63a8.26,8.26,0,0,1-1.68.74,8.9,8.9,0,0,1-.37-1.78c0-6.51-1.43-12.84-2.5-19.22a2.4,2.4,0,0,0-2.69-2.2,25.29,25.29,0,0,0-3.1.29c-2.14.26-4.28.56-6.42.8a5.76,5.76,0,0,1-1.39-.18,14.36,14.36,0,0,1,.44-1.53,7.75,7.75,0,0,1,.64-1q2.9-4.83,5.79-9.66c.33-.54.7-1.06,1.07-1.58.84-1.16.81-2-.41-2.8a17.53,17.53,0,0,0-3.27-1.43c-3.06-1.15-6.15-2.24-9.2-3.42-1.09-.42-1.11-.69-.21-1.46,2.43-2.07,4.91-4.1,7.37-6.14a27.87,27.87,0,0,0,6-6.47,20.57,20.57,0,0,0,1.33-2.8,1.44,1.44,0,0,0-.64-1.85C42.67,94.39,40.85,93,39,91.57c-.42-.32-.47-.73,0-.88,3.29-1,6.2-3,9.72-3.3,1.91-.17,2.16-.48,2.46-2.31.25-1.57.4-3.16.6-4.75H51.7c0-.72,0-1.44,0-2.16.07-.93.49-1.26,1.23-.8,1.82,1.13,4.25,1.73,4.24,4.62a1.21,1.21,0,0,0,1.36,1.34c.87-.06,1.36-.59,1.26-1.67a26.75,26.75,0,0,0-.66-4c-.11-.44-.75-1.11-1.06-1.07-1.55.24-2.56-.72-3.7-1.41C50.81,73,49,74,48.93,78.21c0,1.36,0,2.72,0,4.08a2.54,2.54,0,0,1-2.1,2.55,37.73,37.73,0,0,0-4.72,1.7,18.59,18.59,0,0,1-5.89,1.92c-1,.08-1.35.66-1.6,1.5a2.2,2.2,0,0,0,1.08,2.64c1.8,1.33,3.61,2.65,5.33,4.07,1.36,1.13,1.4,1.26.27,2.68a33.62,33.62,0,0,1-4,4.41c-3.48,3.06-7.1,6-10.66,8.93-1.66,1.39-1.62,2.34.33,3.11,4,1.57,7.77,3.76,12.08,4.56,1.83.34,1.93.59,1,2.18-1.73,3.06-3.56,6.06-5.34,9.09-.85,1.44-1.8,2.84-2.53,4.34-.62,1.25-.27,1.89,1,2.44a9,9,0,0,0,4.73.33c2.3-.3,4.59-.62,6.89-.9,1.6-.19,1.64-.18,2,1.27A80.12,80.12,0,0,1,49,155.94a40.39,40.39,0,0,0,.19,4.07c.19,1.85.88,2.34,2.53,1.56a29,29,0,0,0,4.49-2.72c3-2.14,5.89-4.41,8.85-6.59,1.27-.94,1.3-.89,2.12.47l7.53,12.54a13.37,13.37,0,0,0,1,1.61c.73.9,1.3.92,2.23.17a9.66,9.66,0,0,0,.86-.83,60.25,60.25,0,0,0,9.41-12.07,35.43,35.43,0,0,1,2.07-3.23c.73-1,1-1.07,1.85-.12,1.68,1.92,3.35,3.87,4.86,5.92a18.65,18.65,0,0,0,4.06,4.36,4.82,4.82,0,0,1,2.33,2.58c.27.94,1.54.9,2.1,0a6.07,6.07,0,0,0,.62-1.55c.61-2.07,1.15-4.16,1.78-6.22.58-1.91,1.22-3.8,1.84-5.7a1.59,1.59,0,0,1,1.5-1.29c5.41-.48,10.81-1,16.22-1.51,4.19-.37,4.32-.47,3.69-4.58-.46-3-.94-6-1.48-9a1.48,1.48,0,0,1,.93-1.91c.88-.38,1.73-.83,2.6-1.23,4.06-1.88,8.13-3.73,12.18-5.65,2-1,2.33-1.6,1.26-3.53a28.83,28.83,0,0,0-3.37-4.62"/><path class="cls-3" d="M62.89,103.25c-.24,2.7-.46,5.4-.69,8.11a11.06,11.06,0,0,0,1.46,6,25.9,25.9,0,0,0,10.5,10.56,16,16,0,0,0,17.92-2A6,6,0,0,0,93.54,124a1.55,1.55,0,0,0-.38-1.43,1.91,1.91,0,0,0-1.47,0c-.34.09-.59.51-.88.79-3.25,3.12-7.16,4-11.5,3.35-4.11-.59-7.15-3-9.94-5.83-3.32-3.38-5.08-7.31-4.24-12.15a25.23,25.23,0,0,0,.31-2.61,20.8,20.8,0,0,0,.06-2.87A1.26,1.26,0,0,0,64.06,102a1.22,1.22,0,0,0-1.17,1.27"/><path class="cls-3" d="M228.12,115a8.75,8.75,0,0,0-7.49-2.43c-.39.06-.82.32-1.16.22-1.82-.51-2.64.74-3.44,1.93a6.88,6.88,0,0,0-1.17,4.17c0,4,2.46,7,5.87,7a9.42,9.42,0,0,0,8.18-4.22,4.84,4.84,0,0,0-.79-6.7m-1.22,4.91a6.9,6.9,0,0,1-5.75,3.32,3.3,3.3,0,0,1-3.3-1.95c-.71-1.48-.85-3.38.24-4.27s2.7-2.32,4.62-1.9a7.66,7.66,0,0,1,3.91,2.19,2,2,0,0,1,.27,2.62"/><path class="cls-3" d="M5.31,190.69c-3.12,0-5.13,1.84-5.31,4.69-.11,1.75,3,4.74,5.63,4.57A4.64,4.64,0,0,0,10,195c0-2.63-1.84-4.28-4.69-4.27m.23,6.73c-1.17,0-2.75-1.22-2.76-2.18,0-1.18,1-2,2.45-2a2,2,0,0,1,2.25,1.9,2.29,2.29,0,0,1-1.95,2.32"/><path class="cls-3" d="M130.28,18.34c.23.33.8.41,1.12.56.38-.1.62-.15.85-.23,1-.31,2-.57,2.94-1,1.24-.53,1.93,1,3.07.74,2.21-.47,4,.78,5.83,1.57.37.15.7.51,1.06.52a1.74,1.74,0,0,0,1.24-.43,1.58,1.58,0,0,0,.25-1.3,2,2,0,0,0-.94-1c-1.64-.91-3.65-.9-5.23-2-.21-.15-.62,0-.94,0-1.36.12-2.79-.88-4.07.29-1.1-.94-2.25-.43-3.4-.15-.53.13-.85,0-1-.65a14.49,14.49,0,0,0-1.13-2.6,1.28,1.28,0,0,0-1.8-.68,1.35,1.35,0,0,0-.51,2c.83,1.48,1.74,2.92,2.71,4.32"/><path class="cls-3" d="M73.91,110.33a1.1,1.1,0,0,0-1.37-1,1.33,1.33,0,0,0-1.12,1.36,6.26,6.26,0,0,0,1.84,4.78c2.54,2.72,5.85,3.76,9.26,4.26h.63c.82,0,1.46-.32,1.55-1.17s-.55-1.27-1.32-1.43c-.47-.1-1-.1-1.42-.21-3.77-.85-7.39-1.89-8-6.58"/><path class="cls-3" d="M21.51,147.79A10.77,10.77,0,0,0,19,149.07a15.41,15.41,0,0,0-2.24,2.14,23.6,23.6,0,0,1-6.1,4.93c-.28.15-.67.24-.81.48-.25.43-.58,1-.45,1.4s.75.69,1.1,1c.62-.25,1.07-.4,1.5-.62a19.15,19.15,0,0,0,5.54-4.1q.57-.61,1.11-1.25a7.25,7.25,0,0,1,3.75-2.81,1.29,1.29,0,1,0-.85-2.42"/><path class="cls-3" d="M78.14,179.88c0-1.55-.38-2.2-1.19-2.29s-1.29.56-1.35,2.09A28.93,28.93,0,0,1,74,188.1a17.06,17.06,0,0,0-.68,4.46c-.07,1.15.45,1.66,1.27,1.64s1-.71,1.19-1.47c.4-2,.91-4,1.36-6,.42-1.85.81-3.71,1.21-5.56l-.25-.06c0-.4,0-.8,0-1.2"/><path class="cls-3" d="M48.05,170.51c-.68-.26-1.15.17-1.52.8-1.13,1.91-2.32,3.78-3.47,5.68-1,1.63-2,3.26-2.91,4.93-.56,1-.38,1.69.35,2s1.59,0,2.11-.87q1.72-3,3.53-5.93c.67-1.08,1.46-2.09,2.09-3.19a16.88,16.88,0,0,0,.91-2.4c-.37-.37-.66-.88-1.09-1"/><path class="cls-3" d="M171.05,122.9a5.31,5.31,0,0,0-4-1.09q-3.58.2-7.15.47a5,5,0,0,0-1.86.32,1.63,1.63,0,0,0-.82,1.23c0,.41.59.88,1,1.1a3,3,0,0,0,1.41.06c2-.13,4-.29,5.87-.43,1.49,0,2.93-.46,4.24.54a1.14,1.14,0,0,0,1.68-.32c.57-.72.21-1.37-.37-1.88"/><path class="cls-3" d="M110.25,184.53a18.52,18.52,0,0,0-.94-1.92c-.89-1.3-2-2.43-2.25-4.14,0-.39-.71-.7-1-1-1,.26-1.59.82-1.41,1.6a8.29,8.29,0,0,0,1.2,3,21.24,21.24,0,0,1,2.61,4.79,12.7,12.7,0,0,0,1.85,3,1.3,1.3,0,0,0,1.89.41c.64-.46.59-1.19.05-2.1-.72-1.21-1.35-2.48-2-3.73"/><path class="cls-3" d="M2.62,114.94a32.28,32.28,0,0,0,4.26-.26c1.81-.19,3.61-.5,5.42-.68.77-.08,1.45-.14,1.58-1.07a1.47,1.47,0,0,0-1.34-1.67,6.75,6.75,0,0,0-1.89,0c-2.93.38-5.74,1.94-8.84.71-.63-.25-1.18.32-1.3,1a2,2,0,0,0,2.1,1.93"/><path class="cls-3" d="M145.42,167.75c-2.07-1.47-4.16-2.91-6.28-4.3a17.65,17.65,0,0,0-3.14-1.68c-.32-.13-1,.29-1.31.65s-.05.9.14,1.27.61.47.94.69l4.32,3c1.11.77,2.19,1.59,3.35,2.27a3.31,3.31,0,0,0,1.79.47c.41,0,.8-.54,1.37-1a8.43,8.43,0,0,0-1.19-1.38"/><path class="cls-3" d="M53.81,34.56c.61.44,1.21,0,1.58-.57s.52-1.49,1-1.82c1.53-.95,2.41-3,4.67-2.73a.28.28,0,0,0,.22-.07c.28-.36.8-.76.75-1.08A2.25,2.25,0,0,0,61.22,27c-.26-.21-.75-.12-1.34-.18-.82.22-2.28.19-2.68.82-.77,1.21-2.09,1.65-2.86,2.7A8.64,8.64,0,0,0,53,33.08c-.11.4.4,1.17.84,1.48"/><path class="cls-3" d="M23.24,80.12c-.95-.08-1.9-.11-2.85-.16a1.5,1.5,0,0,1-1.53-1.18c-.47-1.35-1-1.5-2.12-1A1.6,1.6,0,0,0,16,80.32a5.69,5.69,0,0,0,2.36,1.84,20.54,20.54,0,0,0,3.71.76l0-.13h1.19c.88,0,1.61-.28,1.62-1.32s-.78-1.28-1.61-1.36"/><path class="cls-3" d="M154.16,27.59c.83-.43.73-1.81,2-1.66a17.52,17.52,0,0,0,2.82-.12c.24,0,.56.12.69,0,.39-.32.95-.71,1-1.11a1.68,1.68,0,0,0-.72-1.31,4.2,4.2,0,0,0-4.52,1c-.39.53-.67.46-1.15.4-1.45-.2-2.35.91-3.31,1.65-.42.32-.26,1.39-.35,2.15,1.32.26,2.36-.35,3.51-.94"/><path class="cls-3" d="M36.87,54.66c.76,1.3,1.55,2.59,2.34,3.87.21.33.42.75.73.9a1.8,1.8,0,0,0,1.32.08c.36-.16.55-.67.81-1a13.87,13.87,0,0,0-.6-1.43c-.93-1.66-1.88-3.3-2.83-4.95a1.76,1.76,0,0,0-.3-.37c-.48-.47-1-.8-1.7-.41A1.25,1.25,0,0,0,36,53a10.82,10.82,0,0,0,.83,1.71"/><path class="cls-3" d="M200.32,89.45a14.83,14.83,0,0,1-2.22-.72c-.45-.16-.89-.55-1.31-.52a2,2,0,0,0-1.38.67,1.09,1.09,0,0,0,.35,1.66c1.33.7,2.72,1.28,3.6,1.68,1.7.16,2.43-.3,2.55-1.2s-.38-1.35-1.59-1.58"/><path class="cls-3" d="M162.36,25.63a8.72,8.72,0,0,0,2.25.65,16.17,16.17,0,0,0,2.29,0,1.27,1.27,0,0,0,1.76-1c.1-.73-.63-1.71-1.41-1.56a7.29,7.29,0,0,1-3.9-.59,1.22,1.22,0,0,0-1.74.71,1.28,1.28,0,0,0,.75,1.75"/><path class="cls-3" d="M67.31,98.78a1.48,1.48,0,0,0,1.42-.31A1.56,1.56,0,0,0,68.84,97c-1.23-1.21-2.6-2.28-3.93-3.38-.11-.09-.3-.08-.46-.11A1.34,1.34,0,0,0,63.25,95a1.54,1.54,0,0,0,.38.85,45.48,45.48,0,0,0,3.68,3"/><path class="cls-3" d="M160.62,98.71a1.19,1.19,0,0,0,1,1.39,9.47,9.47,0,0,0,4.72.11c.7-.17,1.18-.51,1.12-1.3A1.32,1.32,0,0,0,166,97.67c-.71,0-1.43,0-2.15,0v0c-.64,0-1.27-.09-1.91-.09a1.16,1.16,0,0,0-1.32,1.09"/><path class="cls-3" d="M131.49,100.36c.29-.14.45-1,.33-1.44-.24-.83-1-.92-1.76-.69-1.27.41-2.51.91-3.78,1.35a1.25,1.25,0,0,0-1,1.41c.11.9.78,1.09,1.64,1.26,1.53-.61,3.08-1.17,4.55-1.89"/><path class="cls-3" d="M224.16,59.25a34.54,34.54,0,0,0,.53,4.5,1.48,1.48,0,0,0,1.21.79,1.7,1.7,0,0,0,1.13-1,3.3,3.3,0,0,0,0-1.37c-.1-1.23-.14-2.19-.26-3.13-.1-.79-.47-1.38-1.39-1.29a1.3,1.3,0,0,0-1.27,1.46"/><path class="cls-3" d="M188.88,11.59c1.26-.2,2.44-.37,3.61-.59.74-.14,1.41-.42,1.35-1.36s-.64-1.34-1.67-1.27a31.35,31.35,0,0,0-3.54.51c-1.11.21-1.6.76-1.46,1.51a1.6,1.6,0,0,0,1.7,1.21"/><path class="cls-3" d="M220.84,26.85c-.17.22-.11.61-.2,1.25a30.28,30.28,0,0,0,.93,3.38,1.53,1.53,0,0,0,1.29.71c.42-.07,1.07-.7,1.05-1.05a25.17,25.17,0,0,0-.65-4.45,1.57,1.57,0,0,0-1.27-.82c-.41,0-.85.58-1.16,1"/><path class="cls-3" d="M57.51,69.15c-.45,1.09-.74,2.24-.95,2.87,0,.79,0,1,.07,1.26.15.77.54,1.33,1.41,1.35s1.19-.55,1.3-1.36c.15-1.09.4-2.17.59-3.26a1.25,1.25,0,0,0-.82-1.53,1.21,1.21,0,0,0-1.6.68"/><path class="cls-3" d="M220.18,52.16c.55.67,1,1.45,1.52,2.11a3.79,3.79,0,0,0,1.42,1.14,1.11,1.11,0,0,0,1.49-1.08c.05-1-1.8-3.81-2.81-4.25a1.35,1.35,0,0,0-1.72.38,1.18,1.18,0,0,0,.1,1.7"/><path class="cls-3" d="M55.79,49.53c-.9-1.59-1.71-3.13-2.65-4.59-.14-.22-.94-.24-1.28-.06A1.42,1.42,0,0,0,51.21,46a8.27,8.27,0,0,0,2.39,4.55,1.47,1.47,0,0,0,1.31.08c.35-.15.55-.66.88-1.1"/><path class="cls-3" d="M226.25,72.76a25.41,25.41,0,0,0,.79-2.48,13.89,13.89,0,0,0-.08-1.47c-.14-.8-.57-1.35-1.44-1.27s-1,.62-1.13,1.33c-.17,1-.41,2-.65,3-.18.75-.28,1.45.61,1.81a1.37,1.37,0,0,0,1.9-.93"/><path class="cls-3" d="M215.4,17.79a1.53,1.53,0,0,0,1.32-1.6,2.79,2.79,0,0,0-.58-.8,23.3,23.3,0,0,0-2.92-1.92,1.65,1.65,0,0,0-1.48.07,1.7,1.7,0,0,0-.44,1.44c.29,1.27,2.84,2.95,4.09,2.81"/><path class="cls-3" d="M181.08,87.42a2.87,2.87,0,0,0-.46.12c-.79.34-2.73,3.48-2.57,4.35A1.62,1.62,0,0,0,178.8,93c.34.16,1.1.12,1.26-.12A25.05,25.05,0,0,0,182.31,89a1.18,1.18,0,0,0-1.23-1.57"/><path class="cls-3" d="M74,101.94a10,10,0,0,1-2.36-1,1.27,1.27,0,0,0-1.7.31,1.09,1.09,0,0,0,.13,1.69c1.08.74,2.27,1.32,3.42,2,1.21-.18,2.08-.73,2.08-1.55,0-1-.7-1.23-1.56-1.43"/><path class="cls-3" d="M136.24,96.93c.73-.93,1.42-1.89,2.11-2.86a4.16,4.16,0,0,0,.32-.79c-.24-.31-.44-.8-.8-1s-1.07-.21-1.28,0a29.55,29.55,0,0,0-2.49,3.12,1.21,1.21,0,0,0,.27,1.87,1.27,1.27,0,0,0,1.87-.38"/><path class="cls-3" d="M196.21,11.33a24.82,24.82,0,0,0,2.58.64c.83-.07,1.24-.07,1.63-.13,1.05-.17,1.58-.68,1.5-1.49s-.77-1.05-1.55-1.11c-1.1-.09-2.2-.25-3.29-.4-.81-.11-1.45.11-1.67,1a1.21,1.21,0,0,0,.81,1.54"/><path class="cls-3" d="M70.15,16a6.48,6.48,0,0,0,3.5-3c.49-.74-.37-1.78-1.4-1.71a1.72,1.72,0,0,0-.56.21,23.86,23.86,0,0,0-2.89,2.42,1.9,1.9,0,0,0-.08,1.71c.14.3,1,.52,1.42.4"/><path class="cls-3" d="M110.87,105.26a7.53,7.53,0,0,0,1.58-1.31,1.29,1.29,0,0,0-.42-1.18,24.21,24.21,0,0,0-4-1.24,1.52,1.52,0,0,0-1.23.82,1.49,1.49,0,0,0,.52,1.35,36.71,36.71,0,0,0,3.58,1.56"/><path class="cls-3" d="M77.19,10.52c.89-.65,1.8-1.26,2.67-1.93a3,3,0,0,0,.57-.78,1.36,1.36,0,0,0-1.59-1.52,4.72,4.72,0,0,0-3.56,2.51,2,2,0,0,0,.2,1.71c.4.55,1.12.44,1.71,0"/><path class="cls-3" d="M220.4,81.11a1.56,1.56,0,0,0,.39,1.42,1.53,1.53,0,0,0,1.48,0,7.16,7.16,0,0,0,2.28-4.11c-.26-.31-.57-.93-1-1.13a1.51,1.51,0,0,0-1.38.45,17.62,17.62,0,0,0-1.72,3.33"/><path class="cls-3" d="M181,13.28c.75-.17,1.76-.36,2.75-.62s1.52-.85,1.34-1.6-.95-1.24-2.06-1c-.93.18-1.84.46-2.76.66-.77.18-1.34.53-1.28,1.42s.7,1.19,2,1.17"/><path class="cls-3" d="M173.46,17.51a6,6,0,0,0,3.49-3c.41-.68-.33-1.66-1.2-1.72-.16,0-.44,0-.6.16-1,.87-2.06,1.73-3,2.69a1.28,1.28,0,0,0-.05,1.26,1.7,1.7,0,0,0,1.36.61"/><path class="cls-3" d="M62.9,27.06a1.66,1.66,0,0,0,1.34-.6,13.7,13.7,0,0,0,.88-1.93,2.48,2.48,0,0,0-.4-3.18c-.58.35-1.44.56-1.69,1.07A13.54,13.54,0,0,0,61.91,26c-.06.31.58,1,1,1.07"/><path class="cls-3" d="M83.63,7.3c1.16-.46,2.34-.84,3.45-1.39a1.17,1.17,0,0,0,.46-1.65A1.22,1.22,0,0,0,86,3.59C85,3.86,84,4.22,83,4.5c-.8.23-1.24.68-1.09,1.54s.83,1.05,1.69,1.26"/><path class="cls-3" d="M223,47.8a12,12,0,0,0,.66-2.53,1.57,1.57,0,0,0-.75-1.27,1.53,1.53,0,0,0-1.43.38,15.15,15.15,0,0,0-1.14,2.43c-.14,1.45.24,2.13,1,2.31s1.31-.24,1.65-1.32"/><path class="cls-3" d="M111.23,3.1a22.2,22.2,0,0,0,3.47.76c.7.1,1.36-.69,1.31-1.49a2.82,2.82,0,0,0-.25-.55c-.71-1-3.58-1.66-4.62-.94A1.62,1.62,0,0,0,110.5,2a1.39,1.39,0,0,0,.74,1.06"/><path class="cls-3" d="M96.68,2.75a25.31,25.31,0,0,0,4.44-.45c.26,0,.53-.95.47-1.41s-.58-.71-1-.84a4.33,4.33,0,0,0-1.42,0V0a10.66,10.66,0,0,0-2.36.3,1.66,1.66,0,0,0-.93,1.18c0,.41.49,1.23.77,1.23"/><path class="cls-3" d="M168.3,23.19a1.68,1.68,0,0,0,1.44-.39,14.7,14.7,0,0,0,1.58-3.14,1.25,1.25,0,0,0-1.2-1.71,2.22,2.22,0,0,0-.58.14c-.7.36-2.26,3.36-2,4.09.12.4.48.95.82,1"/><path class="cls-3" d="M52.63,42.5a1.33,1.33,0,0,0,1-.78,23.69,23.69,0,0,0,.62-3.51,1.1,1.1,0,0,0-1.05-1.33,1.69,1.69,0,0,0-1.31.73,18.3,18.3,0,0,0-.85,2.74c.11.64,0,1.14.27,1.39a2.16,2.16,0,0,0,1.3.75"/><path class="cls-3" d="M56.46,52.4a1.21,1.21,0,0,0-1.7-.29A1.24,1.24,0,0,0,54.35,54a20.59,20.59,0,0,0,2.22,2.76,1.42,1.42,0,0,0,1.28.11c.36-.16.55-.67.83-1a6.89,6.89,0,0,0-.57-1.38,24.91,24.91,0,0,0-1.66-2"/><path class="cls-3" d="M218.23,85.9c-.32-.72-.94-.75-1.6-.54-.9.29-1.8.58-2.69.89a1.2,1.2,0,0,0-.92,1.44c.15.83.74,1.15,1.82,1.13.79-.3,1.85-.63,2.83-1.1a1.28,1.28,0,0,0,.57-1.83"/><path class="cls-3" d="M174.68,94.32A15.61,15.61,0,0,0,171.57,96,1.28,1.28,0,0,0,172,98.1c1.08.34,4.06-1.3,4.32-2.38a2.28,2.28,0,0,0,0-.23,1.27,1.27,0,0,0-1.67-1.17"/><path class="cls-3" d="M82,105.45a8.15,8.15,0,0,0,2.24-.35,1.86,1.86,0,0,0,.84-1.45c0-.33-.7-1-1.09-1a14.89,14.89,0,0,0-3.74.39c-.41.1-.81.91-.86,1.44,0,.27.68.71,1.13.9a4.66,4.66,0,0,0,1.48,0"/><path class="cls-3" d="M219.66,23a1,1,0,0,0,1.6-.5,1.76,1.76,0,0,0-.07-1.48,14.93,14.93,0,0,0-1.94-2.1,2.42,2.42,0,0,0-.66-.38c-1.12-.09-2,.94-1.47,1.7A14.33,14.33,0,0,0,219.66,23"/><path class="cls-3" d="M64.3,59.74c-.05-.15-.07-.58-.28-.72a26.41,26.41,0,0,0-3.46-2c-.27-.12-1.09.4-1.27.8a1.54,1.54,0,0,0,.34,1.43,16.83,16.83,0,0,0,3,1.87c.79.38,1.64-.3,1.63-1.35"/><path class="cls-3" d="M102.29,101.52a1.17,1.17,0,0,0,1.45-1.18c0-.15,0-.38-.11-.45a24.81,24.81,0,0,0-3.36-2.55c-.75-.42-1.79.89-1.29,1.66a5.32,5.32,0,0,0,3.32,2.53"/><path class="cls-3" d="M120.1,6.3c.7.41,1.66-.35,1.67-1.33-.06-.14-.1-.54-.31-.7a27.87,27.87,0,0,0-3.1-2.12,1.28,1.28,0,0,0-1.2.41c-.22.41-.32,1.26-.07,1.49a16.49,16.49,0,0,0,3,2.25"/><path class="cls-3" d="M60,66.43a2.82,2.82,0,0,0,.78-.53c.61-.73,1.17-1.51,1.71-2.3.41-.6.41-1.35-.24-1.67a1.9,1.9,0,0,0-1.71.08,10.62,10.62,0,0,0-2,2.66c-.48.9.25,1.86,1.43,1.76"/><path class="cls-3" d="M145.74,94.29h0l0,0,0,0,0,.06"/><path class="cls-3" d="M144.38,96.82c.38.6.8,1.17,1.22,1.74a1.29,1.29,0,0,0,1.87.38,1.19,1.19,0,0,0,.31-1.85c-.64-1-1.35-1.87-2-2.81-2,.35-2.36,1-1.36,2.53"/><path class="cls-3" d="M104.18,2.8a9.08,9.08,0,0,0,1.19-.05V2.8a8,8,0,0,0,2.33-.33A1.94,1.94,0,0,0,108.57,1c0-.33-.69-1-1.09-1a17,17,0,0,0-3.54.29c-.71.13-1,.77-.89,1.48a1.08,1.08,0,0,0,1.13,1"/><path class="cls-3" d="M222.9,34.45a1.26,1.26,0,0,0-1.08,1.37A18,18,0,0,0,222,38c.18,1.4.71,2,1.61,1.87,1.24-.24,1-1.26,1-2.32a14.43,14.43,0,0,0-.19-1.91,1.31,1.31,0,0,0-1.55-1.14"/><path class="cls-3" d="M125.46,10.5c.25.17,1-.05,1.25-.32a1.72,1.72,0,0,0,.36-1.28c-.08-.66-2.6-2.52-3.27-2.54-1,0-1.83,1-1.22,1.72a14.77,14.77,0,0,0,2.88,2.42"/><path class="cls-3" d="M92.58,103.08a1.23,1.23,0,0,0-1.33-2,14.29,14.29,0,0,0-2.89,1,1.18,1.18,0,0,0-.61.88,1.92,1.92,0,0,0,.55,1.21c.24.24.73.22.95.27,1.39-.08,2.62-.24,3.33-1.36"/><path class="cls-3" d="M90.63,3.79a13.62,13.62,0,0,0,3.51-.32c.35-.08.7-.8.79-1.27.12-.64-.36-1-1-1.07a11.72,11.72,0,0,0-1.19,0V1a9.83,9.83,0,0,0-2.31.4,1.57,1.57,0,0,0-.75,1.27c0,.41.59,1.1.95,1.12"/><path class="cls-3" d="M156,98.45a17.16,17.16,0,0,0-2.8-.07,1.76,1.76,0,0,0-1.11,1,1.05,1.05,0,0,0,.77,1.47,20.44,20.44,0,0,0,2.23.35,7.86,7.86,0,0,0,1.26-.2,1.24,1.24,0,0,0,.95-1.44A1.22,1.22,0,0,0,156,98.45"/><path class="cls-3" d="M208.38,13.79c.29-.25,1-.57,1.22-1.1.33-.79-.28-1.27-1.06-1.54a23.19,23.19,0,0,1-2.15-1,1.14,1.14,0,0,0-1.62.52,1.8,1.8,0,0,0,.13,1.49c.71,1.06,1.87,1.4,3.48,1.62"/><path class="cls-3" d="M207.84,88.25a10.25,10.25,0,0,0-1.9.12c-1.44.18-2.08.7-1.9,1.59.24,1.21,1.25,1,2.19,1l1.34-.07c.16,0,.38,0,.46-.09.38-.45.93-.89,1-1.41.13-.73-.52-1.14-1.21-1.18"/><path class="cls-3" d="M141.6,94.1a1.26,1.26,0,0,0,1.67-1.15A6.12,6.12,0,0,0,140.73,90a1.32,1.32,0,0,0-1.49,1.61,3.75,3.75,0,0,0,2.36,2.48"/><path class="cls-3" d="M68,18.28c.09-.29-.3-.92-.63-1.11a1.39,1.39,0,0,0-1.29,0,8.23,8.23,0,0,0-1.47,2.38,3.91,3.91,0,0,0,.15,1.71c.67-.07,1.59.07,1.91-.3A7.74,7.74,0,0,0,68,18.28"/><path class="cls-3" d="M64.74,21.35h0v-.06h0l0,.05h0"/><path class="cls-3" d="M95.87,102a6.31,6.31,0,0,0,1.54-1.08,2.48,2.48,0,0,0,.44-.88,1.28,1.28,0,0,0-1.73-1.25,11.18,11.18,0,0,0-1.45.81c-1.14.65-1.46,1.24-1.09,2s1.24.93,2.29.43"/><path class="cls-3" d="M122.2,47.88c-4.92-3.69-10.32-5.7-16.58-4.58-1.57.28-3.15.53-4.69.9-4.31,1-6.83-.5-7.71-4.84-.28-1.4-.15-2.87-.33-4.29A2.7,2.7,0,0,1,95,31.83c1.9-.57,3.81-1.13,5.75-1.52,1.71-.34,1.73-.23,2.33,1.43.89,2.5,2.31,3.36,4.95,3.12a6.28,6.28,0,0,0,5.42-7,8.07,8.07,0,0,0-7.58-7.09c-4-.38-7.33,1.22-10.7,2.94a11.17,11.17,0,0,1-2.15,1,12.56,12.56,0,0,0-6.63,4.48,23.32,23.32,0,0,0-4.8,10.08c-1.28,6,1.11,10.49,6.82,12.91a23.48,23.48,0,0,0,2.49.84c2.86.84,5.69.43,8.53-.15s5.8-1.07,8.69-1.59a17.51,17.51,0,0,1,6.57,1.53,6.07,6.07,0,0,1,3.5,7.14,17.35,17.35,0,0,1-3.39,7.34c-2.36,3-5.46,4.43-9.28,3.59-2.64-.58-5.23-1.42-7.82-2.21s-5.29-1.83-8-2.5-4.17.64-4.41,3.31a11.33,11.33,0,0,0,1.28,6.26c2.88,5.63,8.21,7.84,14.51,6.85,7.17-1.13,13.18-4.68,18.6-9.35a29.16,29.16,0,0,0,6.78-8,12.34,12.34,0,0,0-1.35-14.52,17.41,17.41,0,0,0-2.93-2.81M90.56,73c-.18.51-.39,1-.61,1.5,0,.09-.24.11-.49.22-.12-.25-.42-.57-.35-.75A5.72,5.72,0,0,1,90,72.62c.08-.11.37-.08.56-.06a.63.63,0,0,1,0,.42"/><path class="cls-3" d="M191.22,46.5a27.35,27.35,0,0,1-5.72-1.71c-2.54-1.1-3-3.15-1.56-5.51a7.65,7.65,0,0,1,5.54-3.4c.59-.11.89.18.94.77a6.87,6.87,0,0,0,.11,1A5.49,5.49,0,0,0,199.3,41a5.53,5.53,0,0,0,2.55-5.81,5.08,5.08,0,0,0-4.46-4.12,14.14,14.14,0,0,1-2.9-.94,6.92,6.92,0,0,0-3.48-.5,18.49,18.49,0,0,0-12.84,8,10.69,10.69,0,0,0-1.83,5.13,5.09,5.09,0,0,0,2,5,24.33,24.33,0,0,0,11.88,5.29,12,12,0,0,1,3,.85c1.72.71,2.17,2.26,2.25,3.92a3.12,3.12,0,0,1-2.37,3.23,8.46,8.46,0,0,1-3,.47c-1.63-.08-2.13-.67-2.5-2.35a5.48,5.48,0,0,0-10.44-1.08,10.53,10.53,0,0,0-.66,4c.07,3.56,2.58,6,6.11,5.44a26.05,26.05,0,0,1,8-.08,4.65,4.65,0,0,0,.72,0v0c.8,0,1.6,0,2.39-.14,3.45-.49,8.16-3.3,8.54-7.54a10.57,10.57,0,0,0-2.09-7.43,14.11,14.11,0,0,0-9-5.95"/><path class="cls-3" d="M171.46,60.06a3.64,3.64,0,0,1-1.52-2,6.46,6.46,0,0,0-.76-1.75c-2.53-3.68-5-7.42-7.69-11-1.9-2.51-3-2.37-5.12,0-1.6,1.78-3.27,3.5-4.91,5.25a1.56,1.56,0,0,1-2.1.41c-1.62-.84-3.31-1.58-5-2.34a12.47,12.47,0,0,0-2.2-.92c-1.42-.35-2.12,0-2.5,1.49a21.34,21.34,0,0,0-.53,3.53c-.2,2.3-.36,4.61-.49,6.92a2.74,2.74,0,0,1-2,2.81c-2.37.92-3.77,2.87-4,6a11.57,11.57,0,0,0,.86,2.49,7.68,7.68,0,0,0,9.68,2.76,4.38,4.38,0,0,0,2.59-4.9,9.66,9.66,0,0,0-1.41-3c-.42-.68-1-1.21-.9-2.12.2-1.82.34-3.66.51-5.48.06-.61.35-.87.94-.59a20.91,20.91,0,0,0,2.36,1.15c1.4.46,2.58,1,3.22,2.52.49,1.2,1.63,1.07,2.38-.1a12.75,12.75,0,0,1,1.29-2c1.26-1.33,2.64-2.54,3.95-3.83.49-.48.84-.27,1.19.12.84,1,1.71,1.9,2.5,2.91a5.78,5.78,0,0,1,1.35,2.2c.09.5-.68,1.15-1,1.74-1.94,3.27-.9,6.91,2.35,8.24a7.13,7.13,0,0,0,6-.3c5-2.39,5.49-7,.93-10.25"/></g></g></g></svg>