<svg xmlns="http://www.w3.org/2000/svg" xmlns:xlink="http://www.w3.org/1999/xlink" viewBox="0 0 96.74 100.94"><defs><style>.cls-1{fill:none;}.cls-2{clip-path:url(#clip-path);}.cls-3{fill:#a4bcc1;}</style><clipPath id="clip-path"><rect class="cls-1" width="96.74" height="100.94"/></clipPath></defs><title>edu12</title><g id="Слой_2" data-name="Слой 2"><g id="Слой_1-2" data-name="Слой 1"><g class="cls-2"><path class="cls-3" d="M7.34,52.79c1.66.31,4,.73,6.37,1.17,2.12.4,4.23.8,6.34,1.24A3.5,3.5,0,0,0,23.72,54c3.09-3.74,7.54-5.89,10.91-9.32.71-.73,1.3-.61,2,.17a4.31,4.31,0,0,1,1,2.85c.3,3.74.75,7.46,1.07,11.2a11.05,11.05,0,0,0,3.5,6.65c2.31,2.42,4.85,4.62,7.33,6.87a4.16,4.16,0,0,0,1.45.8c.68.23,1.14.57,1.13,1.33s-.54,1-1.2,1.25a72.9,72.9,0,0,1-12.49,3.22,11,11,0,0,1-1.18.19c-2,.18-3,1.28-3.37,3.32-.68,3.52-1.73,7-1.58,10.63,0,.74-.08,1.48-.94,1.74s-1.28-.33-1.82-.83a23.27,23.27,0,0,0-2.79-2.22c-1.52-1-3.11-2-4.66-2.94a13.65,13.65,0,0,0-10.73-2c-2.87.62-5.83.85-8.75,1.25a4.52,4.52,0,0,1-1,.05A1.6,1.6,0,0,1,.41,85.54c3-4.22,5.85-8.59,9.77-12.07,1.21-1.08,1.27-2.07.77-3.56-1.54-4.66-4-8.86-6.17-13.22a4.8,4.8,0,0,1-.59-1.28c-.26-1.73.65-2.67,3.15-2.62M8.4,56.12c-.79-.3-1-.05-.69.7.46,1,1,2,1.54,3a56,56,0,0,1,4.71,12,1.85,1.85,0,0,1-.63,2.09,46.34,46.34,0,0,0-3.91,3.88c-1.64,1.95-3.12,4-4.63,6.09a5,5,0,0,0-.48,1.29,5,5,0,0,0,1.53.32,27.5,27.5,0,0,0,4.23-.76c5.14-1.48,9.75-.3,14.08,2.57,1.53,1,3.12,1.93,4.7,2.87.53.31,1,.45,1.19-.45.53-2.9,1.19-5.78,1.64-8.69a4.75,4.75,0,0,1,3.39-3.88,6.62,6.62,0,0,1,1.38-.37c2-.32,4.1-.59,6.15-.92A31.7,31.7,0,0,0,46.37,75c1.17-.34,1.21-.75.3-1.64-.63-.61-1.33-1.15-2-1.76-1.2-1.17-2.44-2.31-3.55-3.56C37,63.38,36.53,62.24,36,55.93c-.2-2.14-.56-4.27-.9-6.4-.19-1.17-.32-1.21-1.33-.51-1.9,1.32-3.84,2.6-5.66,4a19.81,19.81,0,0,0-3.64,3.43,3.2,3.2,0,0,1-3.48,1.42c-.55-.1-1.11-.12-1.66-.2L8.4,56.12"/><path class="cls-3" d="M51.77,44c-.2-3.35-.44-7-.63-10.68A4.92,4.92,0,0,0,50,30.22c-2.37-2.8-4.71-5.64-7.06-8.45-.46-.55-1-1-1.43-1.61-1.19-1.51-.83-2.9,1-3.5a23.11,23.11,0,0,1,4-.79c2.29-.31,4.59-.57,6.89-.8,1.19-.12,2.39-.17,3.58-.17a2,2,0,0,0,2-1.34c.78-2.09,1.58-4.18,2.35-6.27s1.37-4.09,2.22-6.06C64.17-.21,65-.35,66.17.62A11.34,11.34,0,0,1,67.8,2.37c2.46,3,4.89,6.11,7.34,9.17.35.44.74.85,1.06,1.3a3.38,3.38,0,0,0,3.32,1.37c3.83-.21,7.67-.28,11.5-.35,2,0,2.52.67,1.75,2.51a17.7,17.7,0,0,1-2.31,3.9c-2.09,2.72-4.32,5.33-6.43,8A2.69,2.69,0,0,0,83.56,30c.14,1.67.48,3.32.68,5,.27,2.38.45,4.77.74,7.14.12.94.49,1.85.66,2.79.19,1.09-.44,1.68-1.54,1.46a6.38,6.38,0,0,1-1.32-.53c-4.36-2-8.73-3.93-13.08-5.94a2.13,2.13,0,0,0-2.75.55,46.68,46.68,0,0,1-10.6,7.76,14.53,14.53,0,0,0-1.59,1.06c-.56.41-1,1.21-1.84.71a2.42,2.42,0,0,1-1.33-2.36c.09-1.11.11-2.23.17-3.67m1.63-8.37.17,0q.21,4.18.42,8.37c0,.48,0,1,.08,1.43s.43.84,1,.63a9.41,9.41,0,0,0,1.29-.62,39.32,39.32,0,0,0,9.5-7.22,2.92,2.92,0,0,1,3.79-.83c1.15.54,2.35,1,3.53,1.5,2.57,1.11,5.12,2.24,7.69,3.33,1.54.66,1.76.51,1.7-1.26a29.52,29.52,0,0,0-.29-3.1c-.38-2.85-.8-5.69-1.2-8.53A2.28,2.28,0,0,1,81.86,27c3.1-2.6,4.87-6.3,7.54-9.26a3.12,3.12,0,0,0,.38-1.08,4.22,4.22,0,0,0-1.25-.38c-3.27.08-6.55.09-9.81.36a4.15,4.15,0,0,1-4-1.9c-2.15-2.88-4.4-5.68-6.63-8.5-.64-.81-1.33-1.59-2-2.35-.42-.44-.87-.37-1.09.23-.34.89-.61,1.81-1,2.71-1.22,3.21-2.43,6.42-3.71,9.6-.69,1.73-.83,1.72-2.61,1.11a3.56,3.56,0,0,0-1.37-.15c-3.18.23-6.37.44-9.54.76a19.05,19.05,0,0,0-2.9.75c.53.77,1,1.58,1.61,2.3,2.62,3.22,5.29,6.39,7.89,9.63a2.83,2.83,0,0,1,.45,1.73,29,29,0,0,1-.38,3"/><path class="cls-3" d="M91.19,68.67c-.46,1.93-.82,3.9-1.42,5.79a3.69,3.69,0,0,0,.44,3.6c1.71,2.31,3.38,4.65,5.08,7,.33.45.75.84,1.06,1.3.63,1,.53,1.57-.51,2.17a7.78,7.78,0,0,1-2.22.81c-3.12.67-6.26,1.24-9.37,1.94a4.88,4.88,0,0,0-2.08,1.08c-2.63,2.33-5.29,4.65-7.1,7.74-.34.58-.77,1.07-1.54.79s-.75-.89-.86-1.55c-.35-2.2-.8-4.37-1.17-6.56-.24-1.43-1.14-1.94-2.48-2.13a42.15,42.15,0,0,1-5.88-1.08,17.21,17.21,0,0,1-4.05-2c-1.18-.72-1.3-1.26-.38-2.33a24.69,24.69,0,0,1,3.64-3.42,33.17,33.17,0,0,1,4.62-3c1.49-.8,1.66-1.92,1.43-3.38-.31-2-.58-4-.74-5.94-.27-3.37.16-3.74,3.41-2.9a39.26,39.26,0,0,1,5.22,1.73,6,6,0,0,0,4.15.43c2.91-.81,5.95-1.13,8.7-2.52,1.14-.58,1.82-.08,1.89,1.21,0,.4,0,.8,0,1.2Zm-2.86,2.05c-.08-.79-.23-1.36-1.18-1.09-2.29.64-4.58,1.34-6.88,1.94a4.48,4.48,0,0,1-2.08.11A25,25,0,0,1,75,70.56c-1.12-.43-2.21-.94-3.35-1.31s-1.39-.13-1.4,1.11a11.7,11.7,0,0,0,.1,1.43c.25,2.14.56,4.27.77,6.42.17,1.76,0,1.89-1.82,2.31a2.12,2.12,0,0,0-.69.18c-2.13,1.41-4.3,2.77-6.36,4.27-1.09.79-1,1.3.27,1.84a7.56,7.56,0,0,0,1.82.56c2.36.37,4.73.73,7.1,1,1,.11,1.62.37,1.85,1.46.33,1.56.82,3.08,1.24,4.62.33,1.2.43,1.25,1.27.44,1.61-1.55,3.26-3.07,4.8-4.69a4.39,4.39,0,0,1,2.44-1.34Q87.54,88,92,87c1.32-.29,1.34-.35.55-1.49C91,83.25,89.41,81,87.8,78.84a4,4,0,0,1-.56-4.46,26.56,26.56,0,0,0,1.09-3.65"/></g></g></g></svg>