<svg xmlns="http://www.w3.org/2000/svg" xmlns:xlink="http://www.w3.org/1999/xlink" viewBox="0 0 62.78 76.12"><defs><style>.cls-1{fill:none;}.cls-2{clip-path:url(#clip-path);}.cls-3{fill:#a4bcc1;}</style><clipPath id="clip-path" transform="translate(0)"><rect class="cls-1" width="62.78" height="76.12"/></clipPath></defs><title>edu19</title><g id="Слой_2" data-name="Слой 2"><g id="Слой_1-2" data-name="Слой 1"><g class="cls-2"><path class="cls-3" d="M60.31,52.2c-.4-.73-.94-1.42-1.9-1s-1-.09-1-.82c0-1.12,0-2.24,0-3.36h.1c-.08-1.52-.07-3-.26-4.55-.28-2.14-.64-4.27-1.09-6.38-1.59-7.48-4.65-14.43-7.86-21.32a23,23,0,0,0-7-9c-1.71-1.28-3.4-2.64-3.9-5C37.18,0,36.21-.23,35.44.28a5.22,5.22,0,0,0-.69.66A17.82,17.82,0,0,1,24.38,6a68.86,68.86,0,0,1-14.58.56C8.22,6.44,6.61,6.48,5,6.47A5.89,5.89,0,0,0,.53,8.87a1.41,1.41,0,0,0,.13,2.3,13.89,13.89,0,0,0,2,1.33c3.19,2,6.47,3.82,9.55,6a21.51,21.51,0,0,1,8.42,12.45c1.41,5.19,1.14,10.44.7,15.72a2.87,2.87,0,0,1-2.5,2.89A21.9,21.9,0,0,0,6.63,58.37a13.17,13.17,0,0,0-2.46,8.82c.27,4.09,2.57,7,6.57,7.76,6.07,1.2,11.39-.61,16-4.54a12.36,12.36,0,0,0,4.33-12.7,34,34,0,0,0-1.28-5.1,8.42,8.42,0,0,1-.18-4.87,31.54,31.54,0,0,0,.73-6.89,38.25,38.25,0,0,0-4.61-17.21,31.25,31.25,0,0,0-6.08-8,3.7,3.7,0,0,1-.49-.77,6.41,6.41,0,0,1,.78-.37c1.73-.57,3.49-1.09,5.21-1.7,1.43-.5,2.81-1.14,4.25-1.64a5.06,5.06,0,0,1,4.93.86,21.2,21.2,0,0,1,6.17,7.24,95.12,95.12,0,0,1,8.43,20.84A55.3,55.3,0,0,1,50,49.37a4.06,4.06,0,0,1-2.19,4.19,10.51,10.51,0,0,0-2.69,2.36c-3.18,3.72-4.73,7.94-3.48,12.87,1.43,5.65,9.44,10.86,15.59,4.22a22.25,22.25,0,0,0,4.3-6.31c2.15-5,1.29-9.85-1.25-14.5M54.15,72.31c-4,2.6-7.86,1.42-9.46-3-1.73-4.83-1-8.76,2.61-12.06a7.81,7.81,0,0,1,2.42-1.92c2.61-.87,2.9-2.86,2.8-5.09-.22-4.79-.3-9.63-2.12-14.15C48.17,30.53,45.87,25,43.3,19.58a42.72,42.72,0,0,0-4.54-6.73,15.66,15.66,0,0,0-2.42-2.32c-2.34-2.05-5-2.81-8-1.64-1.56.61-3.19,1.09-4.68,1.83a13.16,13.16,0,0,1-9.31,1.07c-.31-.07-.64-.07-.94-.16-.72-.21-1.43-.42-1.88.42-.37.68-.07,1.42.93,1.9C21.09,18,24.9,25.55,27,34.26a28.06,28.06,0,0,1-.41,15.38,2.8,2.8,0,0,0,.27,2.44A18,18,0,0,1,29,60.84a10.18,10.18,0,0,1-4.56,8.32,20.22,20.22,0,0,1-10.26,3.69c-4.1.36-7-2.37-7.29-6.51-.29-4.78,2.21-8.07,5.83-10.61a63.57,63.57,0,0,1,7.08-4,4.62,4.62,0,0,1,2-.25c.84,0,1.36-.27,1.49-1.17,1-6.68,1.33-13.32-.44-20A24.45,24.45,0,0,0,12.76,15.68C10.63,14.25,8.42,13,6.24,11.63a18.37,18.37,0,0,1-1.65-1c-.26-.2-.56-.69-.47-.92A1.28,1.28,0,0,1,5,9.13a13.11,13.11,0,0,1,1.91,0h6.24c0,.07,0,.15,0,.23,3.35-.2,6.7-.38,10.05-.59A18.61,18.61,0,0,0,33.3,5.33a3,3,0,0,1,3.89-.11,19,19,0,0,1,5.62,5.15,24.51,24.51,0,0,1,2.09,3.21c3.8,7.41,7.13,15,8.92,23.2a40.32,40.32,0,0,1,.93,14.51c0,.24,0,.48,0,.72,0,.66,0,1.42.69,1.61a1.82,1.82,0,0,0,1.45-.44c.63-.59.88-.36,1.26.22a14.06,14.06,0,0,1-4,18.91" transform="translate(0)"/></g></g></g></svg>