<svg xmlns="http://www.w3.org/2000/svg" xmlns:xlink="http://www.w3.org/1999/xlink" viewBox="0 0 69.52 68.83"><defs><style>.cls-1{fill:none;}.cls-2{clip-path:url(#clip-path);}.cls-3{fill:#a4bcc1;}</style><clipPath id="clip-path" transform="translate(0)"><rect class="cls-1" width="69.52" height="68.83"/></clipPath></defs><title>edu13</title><g id="Слой_2" data-name="Слой 2"><g id="Слой_1-2" data-name="Слой 1"><g class="cls-2"><path class="cls-3" d="M68.54,24.45C66.07,13,59.51,5.14,48.15,1.84a44.44,44.44,0,0,0-27.6.75C10,6.29,3.27,13.61,1.11,24.69A54.68,54.68,0,0,0,.45,42.58,29.3,29.3,0,0,0,10.78,61.75a30.14,30.14,0,0,0,21,7.06,41.14,41.14,0,0,0,10.54-1A33.08,33.08,0,0,0,60,57.8c4.86-5.3,7.44-11.74,8.88-18.59a35.46,35.46,0,0,0-.37-14.77M66.57,37c-2.36,13.59-9.25,25-25.89,28.39a41.92,41.92,0,0,1-13.11.72c-7.18-.82-12.93-4.25-17.91-9.31-6-6.05-7.7-13.41-7.11-21.61.31-3.18.42-6.4,1-9.53,1.73-9.55,7.2-16.25,16.15-19.94A40.38,40.38,0,0,1,45.77,3.91c11.68,3,18.18,11,20.43,22.62A29.23,29.23,0,0,1,66.57,37" transform="translate(0)"/><path class="cls-3" d="M44.25,47.44a11,11,0,0,1-2.45,1.78,16.32,16.32,0,0,1-10.48,1.38c-5-.92-9.39-2.74-12.65-6.68a62.45,62.45,0,0,1-4-6,9.53,9.53,0,0,0-1-1.64,2,2,0,0,0-1.43-.52A1.32,1.32,0,0,0,11,37a7.27,7.27,0,0,0,0,1,36.92,36.92,0,0,0,2.16,11.73c2.57,6.74,8.78,11,17.21,11,5.91-.28,11.56-3.48,16-9,1.46-1.83,1.44-2.05.23-4-.66-1.06-1.31-1.07-2.29-.18M40.34,54a18.53,18.53,0,0,1-16.56,3.07,11.28,11.28,0,0,1-7-5.44,20.36,20.36,0,0,1-2.57-9.11,29.87,29.87,0,0,0,7.46,7.38,23,23,0,0,0,9.39,3.36,29.38,29.38,0,0,0,10.2-.74l.44.56c-.46.3-.92.59-1.36.92" transform="translate(0)"/><path class="cls-3" d="M13.84,21.21a9.76,9.76,0,0,0,1.35.49C19.11,23,23.31,23.3,27,25.47A2.15,2.15,0,0,0,30.1,23.6a12.5,12.5,0,0,0,0-1.44h.06c0-.72,0-1.44-.12-2.15-.73-6.09-5.71-7.68-9.87-6.21A23.5,23.5,0,0,0,14.63,17a5.78,5.78,0,0,0-1.53,2.38,1.31,1.31,0,0,0,.73,1.8M25,21c.61-.59,1.25-1.15,1.91-1.68a.9.9,0,0,1,.43.4,7.85,7.85,0,0,1,.14,1.21,2,2,0,0,1-.07.87c-.14.24-.55.55-.74.49a5.57,5.57,0,0,1-1.45-.74c-.14-.09-.28-.49-.22-.54m-2-5c.76,0,1.45.13,1.51,1.1S24,18.48,23,18.49c-1.21,0-2.21-.67-2.11-1.41S21.72,16,23,16M17.5,18.13c.19-.09.66.16.86.38a10.64,10.64,0,0,1,.94,1.57,16.77,16.77,0,0,1-1.9-.44,4.06,4.06,0,0,1-.88-.61,4.3,4.3,0,0,1,1-.9" transform="translate(0)"/><path class="cls-3" d="M57.53,29.73c-.37-.16-.74-.29-1.12-.43l-8.17-3.08c2.58-.69,4.51-2.54,7.22-1.82a1.56,1.56,0,0,0,1.27-.78,1.53,1.53,0,0,0-.39-1.41,3.64,3.64,0,0,0-1.94-.74,6.52,6.52,0,0,0-2.08.49c-3,.92-6.09,1.84-9.13,2.8a7.49,7.49,0,0,0-1.95.87c-.93.63-1,1.23-.52,2.27a4,4,0,0,0,.82,1.15c2.39,2.23,4.81,4.43,7.22,6.64a2.51,2.51,0,0,0,.39.28,1.56,1.56,0,0,0,2.16-.11c.54-.58.4-1.21-.5-2-1.48-1.33-3-2.62-4.49-4a2,2,0,0,1-.31-.61c.2-.08.41-.26.58-.22a18.74,18.74,0,0,1,5.74,1.56,23,23,0,0,0,4.22,1.64c.75.24,1.66.32,2-.68s-.26-1.49-1.06-1.84" transform="translate(0)"/></g></g></g></svg>