<svg xmlns="http://www.w3.org/2000/svg" xmlns:xlink="http://www.w3.org/1999/xlink" viewBox="0 0 37.3 42.25"><defs><style>.cls-1{fill:none;}.cls-2{clip-path:url(#clip-path);}.cls-3{fill:#a4bcc1;}</style><clipPath id="clip-path" transform="translate(0 0)"><rect class="cls-1" width="37.3" height="42.25"/></clipPath></defs><title>edu18</title><g id="Слой_2" data-name="Слой 2"><g id="Слой_1-2" data-name="Слой 1"><g class="cls-2"><path class="cls-3" d="M35.47,29.52A4.18,4.18,0,0,1,33.8,25.2c.16-1.26.26-2.54.33-3.81A56.58,56.58,0,0,0,34,9.67c-.42-2.81-1.27-5.61-.62-8.52C33.52.43,32.92,0,32.16,0a4.36,4.36,0,0,0-1.37.38C29.54.91,28.31,1.49,27.07,2c-4.45,2-8.86,4.09-14,3.35-.85-.12-1.31.5-1.27,1.36.05,1.12.08,2.24.23,3.35.48,3.44.06,6.86-.17,10.28-.07,1-.47,1.65-1.6,1.61a5.37,5.37,0,0,0-1,.06A12.85,12.85,0,0,0,1.7,25.73c-2.32,2.35-2.25,5.07.14,7.36a8.51,8.51,0,0,0,1.53,1.15c5.15,3.07,12.49,0,14-6,.88-3.62,1.31-7.36,1.95-11l-.38-.05c0-1.12,0-2.24,0-3.35,0-.69.27-.95.95-1.09,2.5-.51,5-1.1,7.47-1.61a1,1,0,0,1,.87.44,3.81,3.81,0,0,1,.35,1.39,42.52,42.52,0,0,1-1,15.45,2.46,2.46,0,0,1-1.63,1.88,6.88,6.88,0,0,0-3.53,3.11c-1.1,1.91-2,3.95-.9,6.12,1.14,2.33,3.4,2.73,5.7,2.79,4.52.12,8.57-2.53,9.74-6.35.73-2.38.58-4.79-1.43-6.38M25.53,39.63a2.27,2.27,0,0,1-1.89-2.37,2.84,2.84,0,0,1,1.25-2.75A5,5,0,0,0,26,38.93a1.73,1.73,0,0,1,.2.6,1.68,1.68,0,0,1-.66.1m3,0-.07-.3a.57.57,0,0,1,.21,0s0,.11,0,.17l-.2.08M30.89,9c.18.23.49.45.53.7.38,2.87.79,5.74.09,8.68-.11-.68-.25-1.35-.32-2-.22-2.2-.43-4.4-.61-6.61,0-.24.2-.5.31-.75m.44,13.44v2l-.15,0v-2h.15M4.1,30.5c0,.18-.18.36-.27.55-.19-.11-.46-.18-.54-.34-.63-1.21-.38-2.2.82-3.39,0,1.06,0,2.13,0,3.19m.07-3.32a.26.26,0,0,1,0-.09s.09,0,.13,0l-.16.1M22.45,10a9,9,0,0,1-5.18-.45,1.6,1.6,0,0,0-1.46.19,1.65,1.65,0,0,0-.3,1.47c1.6,4.09.74,8.18.11,12.28A14.2,14.2,0,0,0,15.26,26c.14,4.1-4,6.88-7.58,6.59-.27,0-.72-.21-.75-.39a18.82,18.82,0,0,1-.33-3c0-1.08.75-1.69,1.63-2.18a1.38,1.38,0,0,0,.5-.77c.57-1.83.78-2,2.35-1.77,2,.31,2,.31,2.73-1.56.9-2.37.76-4.87.87-7.34,0-.4,0-.8,0-1.2h-.09c0-1.6,0-3.2,0-4.79,0-1,.26-1.51,1.33-1.54C19.49,8,22.73,6.52,26,5.36c1.13-.4,2.24-.86,3.37-1.24a3.6,3.6,0,0,1,1.06,0c0,.45.12,1.08-.12,1.31C28.11,7.6,25.72,9.59,22.45,10M34.64,34.45a8,8,0,0,1-1,2.39c-.85,1.3-1.53,1.55-2.21,1-1.57-1.16-1.7-1.84-.65-3.26.93-1.25.65-2-1-2.13-1.21-.06-1.07-.39-.7-1.24.65-1.51,1.17-3.08,1.94-5.13a15.12,15.12,0,0,1,.12,2,2.21,2.21,0,0,0,1.71,2.68,2.84,2.84,0,0,1,1.8,3.68" transform="translate(0 0)"/></g></g></g></svg>