<svg xmlns="http://www.w3.org/2000/svg" xmlns:xlink="http://www.w3.org/1999/xlink" viewBox="0 0 54.11 48.51"><defs><style>.cls-1{fill:none;}.cls-2{clip-path:url(#clip-path);}.cls-3{fill:#a4bcc1;}</style><clipPath id="clip-path" transform="translate(0 0)"><rect class="cls-1" width="54.11" height="48.51"/></clipPath></defs><title>edu10</title><g id="Слой_2" data-name="Слой 2"><g id="Слой_1-2" data-name="Слой 1"><g class="cls-2"><path class="cls-3" d="M32.42,46.3c-1.36.59-2.6.83-3.45-.83-.15-.28-.66-.38-1-.55-1.72-.83-3.53-1.51-5.15-2.49q-7.07-4.27-14-8.76a36.83,36.83,0,0,1-4.3-3.43C-4.23,22.52,1,9.78,9.66,7A21.62,21.62,0,0,1,27,8.69c1.44.76,1.43.81,2.32-.52,2.42-3.63,5.51-6.45,9.77-7.67C42.93-.6,46.46.06,49.21,3.1c4.51,5,6,10.77,4.06,17.32a33.05,33.05,0,0,1-5,9.76c-2.34,3.24-4.86,6.33-7.26,9.53-1.86,2.49-3.65,5-5.47,7.55-.19.26-.35.6-.61.72a3.17,3.17,0,0,1-1.68.52c-.34-.06-.59-.81-.8-1.29a2.87,2.87,0,0,1-.06-.94,16.41,16.41,0,0,0,1.58-2A65.39,65.39,0,0,1,44.09,30.93a45,45,0,0,0,3.4-4A17,17,0,0,0,50.73,12.2a15.79,15.79,0,0,0-2.45-5.94A7.25,7.25,0,0,0,40.36,3a12.91,12.91,0,0,0-7.2,4C31.45,9,30,11.14,30.54,14a2.55,2.55,0,0,1,0,.72C30.44,15.44,30,16,29.31,16A2.11,2.11,0,0,1,28,15.17a2.65,2.65,0,0,1-.7-1.49c0-1.56-1.07-2.28-2.21-2.87-4.84-2.52-9.84-3.16-15-1a11.8,11.8,0,0,0-5.82,4.8C1.41,19.29,2.21,24.7,6.63,28.64a50.48,50.48,0,0,0,7,5.05c5.49,3.41,10.87,7.05,17,9.41a2.6,2.6,0,0,1,1.85,3.2" transform="translate(0 0)"/></g></g></g></svg>