<svg xmlns="http://www.w3.org/2000/svg" xmlns:xlink="http://www.w3.org/1999/xlink" viewBox="0 0 211.21 141.51"><defs><style>.cls-1{fill:none;}.cls-2{clip-path:url(#clip-path);}.cls-3{fill:#a4bcc1;}</style><clipPath id="clip-path"><rect class="cls-1" width="211.21" height="141.51"/></clipPath></defs><title>edu14</title><g id="Слой_2" data-name="Слой 2"><g id="Слой_1-2" data-name="Слой 1"><g class="cls-2"><path class="cls-3" d="M160.31,42.23c-.56,0-1.12,0-1.68,0-1.59.13-3.18.31-4.77.43a133.18,133.18,0,0,0-22,3.43c-8.21,2-16,5.1-22.9,10.08a37.37,37.37,0,0,0-9.15,8.74,2.7,2.7,0,0,1-2.64,1.41,28.26,28.26,0,0,0-11,2,6.68,6.68,0,0,1-1.33.24c-.21-2.11-.45-4.22-.61-6.34a4.11,4.11,0,0,1,.32-1.57,23.64,23.64,0,0,1,7.24-10c2.29-2,4.65-3.92,7-5.87,3.88-3.25,7.94-6.19,12.91-7.63a6.3,6.3,0,0,0,2.26-1.29,1,1,0,0,0-.66-1.75,3.27,3.27,0,0,0-1.36.31c-1.11.44-2.17,1-3.31,1.39a24.83,24.83,0,0,0-8.55,4.73q-5.82,4.82-11.47,9.84a23.06,23.06,0,0,0-5,6.36,13.36,13.36,0,0,1-1.24,1.64c-.59-.53-1.38-.95-1.7-1.61s.06-1.34.1-2c.19-3.21,1.65-5.23,5-5.67a3.35,3.35,0,0,0,2.79-2,9.78,9.78,0,0,1,6.65-5.75,5.43,5.43,0,0,0,3.47-3.07c.28-.57.53-1.16.76-1.76a5.23,5.23,0,0,1,4.29-3.4,21.85,21.85,0,0,0,3.06-.6A11.54,11.54,0,0,0,110.21,31a13,13,0,0,1,5.9-2.47c1.34-.23,2.66-.52,4-.71a4.74,4.74,0,0,0,3.2-1.91,32.67,32.67,0,0,1,2.21-2.52,2,2,0,0,1,2.79-.39c2,1.35,4,.82,5.78-.49s3.56-2.71,5.93-2.95c.36,0,.88-.7.94-1.13.1-.75-.48-1.1-1.23-1.14a7.24,7.24,0,0,0-5.37,1.63,5.18,5.18,0,0,1-5.53,1.19c-2.16-.77-3.91,0-5.49,1.41a18.31,18.31,0,0,0-1.65,1.74,4.89,4.89,0,0,1-4.88,1.89,5.51,5.51,0,0,0-4.3,1.08,30.8,30.8,0,0,0-2.73,2,10.74,10.74,0,0,1-4.68,2.31l-2.79.71a7.81,7.81,0,0,0-5.06,3.74,9.51,9.51,0,0,1-5.46,4.44,7.06,7.06,0,0,0-5,5,3.52,3.52,0,0,1-3.19,2.75,5.82,5.82,0,0,0-4.84,4.45c-.24.76-.37,1.55-.55,2.33-.13.57-.42.84-1,.58-.37-.16-.74-.31-1.1-.47-1.48-.68-1.66-1-1.3-2.58a6.87,6.87,0,0,1,2.45-3.75,10.42,10.42,0,0,0,3.07-3.92,6.08,6.08,0,0,1,4.89-3.83,5.18,5.18,0,0,0,4.66-4.15A5.66,5.66,0,0,1,93.28,32a15.38,15.38,0,0,1,3.1-1.26,7.46,7.46,0,0,0,5.24-3.83,2.87,2.87,0,0,1,3.63-1.49,4.93,4.93,0,0,0,5.76-1.8A6,6,0,0,1,117.24,21a4.87,4.87,0,0,0,5.13-2.32,5.8,5.8,0,0,1,5.84-2.55,23.14,23.14,0,0,1,3.5.75,3.43,3.43,0,0,0,3.6-.6c1.69-1.71,3.82-2.19,6.05-2.58a36.39,36.39,0,0,0,4.86-1.24,1.55,1.55,0,0,0,.74-1.27c-.05-.7-.65-1-1.4-1-2,.13-4,.26-6,.36a5.62,5.62,0,0,0-3.54,1.27,6.26,6.26,0,0,1-6.94,1.1,4.72,4.72,0,0,0-5.66,1.16c-1.15,1.11-2.31,2.21-3.51,3.27a3.61,3.61,0,0,1-3.72,1,4.78,4.78,0,0,0-5.53,1.8,15.59,15.59,0,0,1-1.14,1.23,3.8,3.8,0,0,1-4.07,1.23,4.69,4.69,0,0,0-5.62,2.1,8.24,8.24,0,0,1-1.15,1.53,8.09,8.09,0,0,1-2.08,1.54A39.47,39.47,0,0,1,92,29.6a5.68,5.68,0,0,0-4.34,4.61c-.08.39-.23.77-.32,1.16a2.56,2.56,0,0,1-2.17,2c-.54.12-1.11.13-1.67.21-2.57.34-4.52,1.49-5.42,4.07a7,7,0,0,1-.82,1.73,10,10,0,0,1-2,2.35,6.76,6.76,0,0,0-3,5.46c-.06,1.55-.17,1.54-1.77,1.37-2.28-.25-2.32-.28-1.5-2.43a37,37,0,0,1,6.81-10.94A102.15,102.15,0,0,1,92.11,24.31a72.35,72.35,0,0,1,33.26-13.94c1.34-.2,2.7-.32,4-.57.75-.14,1.36-.62,1.19-1.51-.14-.74-.74-1-1.45-1a6.33,6.33,0,0,0-.72,0,82.63,82.63,0,0,0-14,3A88.93,88.93,0,0,0,80.11,30.92c-6.33,6-12,12.48-14.33,21.18a1.69,1.69,0,0,1-1.33,1.2,27.6,27.6,0,0,0-3.81,1.44c-4.77,2.4-8.91,5.42-10.09,11.1-.19.94-.8,1-1.6,1a26.16,26.16,0,0,0-8.31.9,15,15,0,0,0-7.22,4.08A19.41,19.41,0,0,0,28,89.85c.93,5,3.52,8.88,8.77,10.4,1.14.33,1.16.42.62,1.73-2.39,5.78-2.07,11.57,0,17.32a17.85,17.85,0,0,0,8.31,9.87,36.34,36.34,0,0,0,10.71,4.07c6.46,1.27,12.58.7,17.9-3.69.77-.63,1-.55,1.38.73a13.13,13.13,0,0,0,6.4,7.77,27.19,27.19,0,0,0,6.19,2.5,32.73,32.73,0,0,0,18.43-.83,26.62,26.62,0,0,0,9.44-5.09c4.09-3.51,6.22-7.89,5.63-13.34a28.52,28.52,0,0,0-1.25-5.34c-.42-1.34-.86-1.75,1.14-2.39a12.37,12.37,0,0,0,1.54-.66c5.42-2.62,9-6.78,9.57-12.84a6.47,6.47,0,0,1,4-5.62,31,31,0,0,1,3.63-1.83c2.93-1.06,5.88-2.05,8.87-2.91s6.19-1.58,9.29-2.35c.81-.2,1.31-.63,1.13-1.52s-1-1-1.71-.82c-1.33.27-2.64.63-4,.95-6.91,1.7-13.88,3.21-20,7.21-.85.56-1,.46-1.33-.82a30.71,30.71,0,0,0-7.29-13.85,4.1,4.1,0,0,1-.89-1.36c0-.13.85-.43,1-.78a6.61,6.61,0,0,1,2.28-2.66,22.48,22.48,0,0,1,9.55-4.25c.39-.08.78-.18,1.16-.28.8-.21,1.29-.68,1.08-1.56s-.83-.91-1.51-.81a11.18,11.18,0,0,0-1.39.34c-1.46.42-2.91.88-4.37,1.28a17.89,17.89,0,0,0-7.73,4.64,6.33,6.33,0,0,0-1.31,2.19c-.27.68-.55.64-1,.3-1.3-.93-2.56-1.92-3.9-2.78a44.35,44.35,0,0,0-15.1-5.89c-1.48-.3-1.53-.46-.57-1.59a43.9,43.9,0,0,1,8.8-7.74A65.77,65.77,0,0,1,133,48.41a142,142,0,0,1,23-3.44c1.51-.12,3-.27,4.53-.43a1.15,1.15,0,0,0,1.15-1.27c0-.84-.6-1-1.3-1.05M113.64,72.75c9.82,4.38,15.41,12.07,16.64,22.62,1,8.22-3.59,14.44-11.72,16.53a8.59,8.59,0,0,0-1.38.36c-1.18.53-1.36,1.27-.49,2.22,3,3.32,4,10.91.47,15.64a18.59,18.59,0,0,1-6.15,5.24,28.88,28.88,0,0,1-15,3.43,23.89,23.89,0,0,1-9.64-1.49,15.42,15.42,0,0,1-5.49-3.35,10.51,10.51,0,0,1-3.29-8.2c0-.7.31-1.52-.58-1.87s-1.47.26-1.94,1A14.13,14.13,0,0,1,65.21,131a23.71,23.71,0,0,1-10.43-.72c-1.61-.47-3.18-1.06-4.74-1.68-6.47-2.55-9.82-7.63-11.36-14.15a19.28,19.28,0,0,1-.29-7.62,13.55,13.55,0,0,1,2.81-6.27c1.1-1.4.63-2.33-1.16-2.54-.24,0-.48,0-.72,0-4.85-.27-7.88-2.86-8.73-7.64a21.17,21.17,0,0,1,2-13.51,10.8,10.8,0,0,1,2.65-3.34A17.75,17.75,0,0,1,47.75,69c1.29.06,2.55.22,3.41,1.4a1.22,1.22,0,0,0,1.69.39c.69-.38.63-1,.44-1.68A7.4,7.4,0,0,1,55.21,62c3.55-4.05,8-6.69,13.42-7.09a12.7,12.7,0,0,1,11.68,5.34,9.52,9.52,0,0,1,1,9.77,8.9,8.9,0,0,0-.78,2,1.82,1.82,0,0,0,.59,1.39,1.46,1.46,0,0,0,1.29-.05c1.05-.56,2-1.34,3.06-1.87a24.74,24.74,0,0,1,12.58-2.38,43.46,43.46,0,0,1,15.55,3.61"/><path class="cls-3" d="M34.11,23.82a17.81,17.81,0,0,0,6.19,0,11.28,11.28,0,0,0,9.33-13.38A13.53,13.53,0,0,0,37.61,0C32-.3,29.8,1.33,26.76,6.51A11.92,11.92,0,0,0,25.36,13c0,6,3.12,9.84,8.75,10.83m.1-21.1A7.06,7.06,0,0,1,38,2.44c4.57.82,7.51,3.76,9.28,7.87a6.7,6.7,0,0,1-.73,6.42,11.66,11.66,0,0,1-12.35,4.84c-4-1.07-6.69-4.72-6.6-9.42a10.21,10.21,0,0,1,6.66-9.44"/><path class="cls-3" d="M14.07,59.85a14.44,14.44,0,0,0-7.45-2.24A2.47,2.47,0,0,0,5.07,58,20.25,20.25,0,0,0,1.93,60.9a7.55,7.55,0,0,0-1,8.7,7.58,7.58,0,0,0,6.89,4.27,10.19,10.19,0,0,0,7-2.71c3.87-3.41,3.52-8.46-.79-11.33m1,6.18c-.5,2.93-5.74,7.06-9.66,4.74a5.55,5.55,0,0,1-2.8-5.4c.22-2.08,2.33-4.68,4.17-5.13a3.93,3.93,0,0,1,.51-.08,10.06,10.06,0,0,1,6.77,3,3.22,3.22,0,0,1,1,2.82"/><path class="cls-3" d="M150,115.34c-.39.06-.81.34-1.15.26-1.95-.44-2.83.84-3.49,2.23a30.9,30.9,0,0,0-1.26,3.82c.23,3.49,2.3,6.32,5.2,6.84,3.41.61,8-1.74,9.41-4.89a4.36,4.36,0,0,0-.3-4.77,8.59,8.59,0,0,0-8.42-3.49m6.37,7.37a7.26,7.26,0,0,1-5.7,3.4,3.79,3.79,0,0,1-3.38-2c-.78-1.55-.94-3.52.22-4.48s2.67-2.34,4.63-1.9a7.38,7.38,0,0,1,3.92,2.16,2,2,0,0,1,.31,2.81"/><path class="cls-3" d="M165.2,63.13a7.57,7.57,0,0,0,2.13.05v.08c1.35-.14,2.69-.39,4-.4,6.37-.05,12.44-1.71,18.55-3.24.23-.06.56-.06.67-.22a3,3,0,0,0,.69-1.35c0-.67-.54-1-1.15-.9a16.27,16.27,0,0,0-3.05.55,64.71,64.71,0,0,1-19.32,2.89,10.09,10.09,0,0,0-2.59.37c-.37.1-.89.67-.85.95a1.69,1.69,0,0,0,.87,1.2"/><path class="cls-3" d="M210.36,81.64a6.73,6.73,0,0,0-1.9-.11h-10.8v.15c-3.68,0-7.36,0-11,0a5,5,0,0,0-1.89.17,1.76,1.76,0,0,0-.87,1.22c0,.3.45.88.81,1a7,7,0,0,0,2.12.2q11-.15,22.07-.34a4,4,0,0,0,1.63-.23,1.44,1.44,0,0,0,.7-1.1,1.39,1.39,0,0,0-.85-1"/><path class="cls-3" d="M131,27.9c.14.5.73.86,1,1.16,1.27-.23,2.22-.37,3.15-.58q7.55-1.78,15.1-3.59a4.63,4.63,0,0,0,1.58-.51,1.87,1.87,0,0,0,.81-1.25,1.05,1.05,0,0,0-1.35-1c-.71.11-1.4.3-2.1.46l-17,3.92c-.78.18-1.47.52-1.22,1.41"/><path class="cls-3" d="M156.43,62.89a7.78,7.78,0,0,0-1,.1c-1.89.31-3.78.57-5.65,1s-3.71.91-5.55,1.42a1.07,1.07,0,0,0-.79,1.49c.18.41.75.64,1.06.88,1.1-.24,2-.44,2.81-.62l9.37-1.87c.77-.15,1.43-.44,1.32-1.36s-.85-1-1.62-1"/><path class="cls-3" d="M176.67,82.64a8,8,0,0,0-2.31-.53,53.09,53.09,0,0,0-5.5.16,23.16,23.16,0,0,0-3.5.72c-.85.21-1.53.7-1.24,1.69s1.06.82,1.8.67c3.37-.64,6.73-1.38,10.46-.37.24-.19.82-.41,1-.81a1.11,1.11,0,0,0-.71-1.55"/><path class="cls-3" d="M126.45,28.77a1.92,1.92,0,0,0-1.15.12c-2.7.92-5.4,1.88-8.1,2.81-.69.24-1.19.74-.93,1.41.17.46.8.75,1.09,1,.72-.17,1.12-.22,1.49-.36q3.6-1.26,7.18-2.55a2.57,2.57,0,0,0,1-.56,1.27,1.27,0,0,0,.35-1,1.78,1.78,0,0,0-1-.86"/><path class="cls-3" d="M134.9,9.09c.56,0,1.12,0,1.51,0,2.39-.22,4.62-.42,6.85-.65a1.4,1.4,0,0,0,.87-.32,2.12,2.12,0,0,0,.55-1.2,1.18,1.18,0,0,0-.68-.85,4,4,0,0,0-1.64-.16c-1.51.15-3,.37-4.52.56a22.51,22.51,0,0,0-3.08.39,1.74,1.74,0,0,0-.9,1.19c-.14.66.42,1,1,1"/><path class="cls-3" d="M166.69,43.11c.11.07.31,0,.47,0l.06.22c2-.56,4-1.07,5.9-1.73a1.59,1.59,0,0,0,.73-1.28c0-.74-.66-1-1.38-1a2.85,2.85,0,0,0-.47.06c-1.84.45-3.68.92-5.53,1.35-.76.18-1.16.68-.92,1.36.15.4.73.66,1.14,1"/><path class="cls-3" d="M151.14,15.93c.72.52,1.35.19,2-.22s1.33-.65,1.21-1.8c-.2-.19-.47-.61-.85-.78a2.9,2.9,0,0,0-2.61,1.33c-.15.36.05.86.11,1.3,0,.06.1.12.17.16"/><path class="cls-3" d="M145.25,15.84c-.07,0-.48-.08-.68.08a2.36,2.36,0,0,0-.91,1.18c-.09.58.37,1,1,1.06.24,0,.47,0,.71,0,1.1,0,1.72-.47,1.63-1.24s-.75-1.12-1.78-1.12"/><path class="cls-3" d="M69,120.67a13.41,13.41,0,0,0-2.17,1c-7.59,3.31-16.65-.69-18-9.61a20.62,20.62,0,0,1-.17-5c.22-2.23.1-4.64,2.44-6.14.81-.52.51-2.26-.26-2.76a1.74,1.74,0,0,0-2.43.73,5.91,5.91,0,0,0-.41.86,26.69,26.69,0,0,0-2,10,15.19,15.19,0,0,0,3.41,10,16.16,16.16,0,0,0,19.42,3.8,3.8,3.8,0,0,0,1.38-.91,1.63,1.63,0,0,0,.21-1.44,1.55,1.55,0,0,0-1.36-.51"/><path class="cls-3" d="M57.23,113.76a10.25,10.25,0,0,0,6.34,2.78c1.6-.46,3.2-.9,4.79-1.4a1.29,1.29,0,0,0,1-1.64c-.18-.72-.91-.93-2-.6-.38.11-.74.3-1.12.43a6.59,6.59,0,0,1-7.48-1.67c-2-2.11-3.22-4.57-2.06-7.61a1.7,1.7,0,0,0,.22-.91c-.11-.42-.33-1-.66-1.12a1.37,1.37,0,0,0-1.23.31A5.39,5.39,0,0,0,53.81,107a11.8,11.8,0,0,0,3.42,6.72"/><path class="cls-3" d="M63.67,107a11.11,11.11,0,0,0,2.4.62c.92-.08,1.47-.12,2-.19a2.9,2.9,0,0,0,.69-.18c.94-.36,1.38-1.06,1.1-1.81-.35-.9-1-.69-1.79-.6a9.41,9.41,0,0,1-3,0c-1-.22-1.17-.89-.79-1.86a6.36,6.36,0,0,1,.48-.82,1.11,1.11,0,0,0-.36-1.65,1.28,1.28,0,0,0-1.7.35,3.69,3.69,0,0,0,1,6.16"/></g></g></g></svg>