<svg xmlns="http://www.w3.org/2000/svg" xmlns:xlink="http://www.w3.org/1999/xlink" viewBox="0 0 288.52 227.13"><defs><style>.cls-1{fill:none;}.cls-2{clip-path:url(#clip-path);}.cls-3{fill:#a4bcc1;}</style><clipPath id="clip-path" transform="translate(0 0)"><rect class="cls-1" width="288.52" height="227.13"/></clipPath></defs><title>edu25</title><g id="Слой_2" data-name="Слой 2"><g id="Слой_1-2" data-name="Слой 1"><g class="cls-2"><path class="cls-3" d="M172.73,56c.3-1.09.71-2.72,1.18-4.32,1.11-3.84,2.26-7.66,3.33-11.5a1.4,1.4,0,0,0-.37-1.21,17,17,0,0,0-3.21-2.07,59.24,59.24,0,0,1-13-8.43c-2-1.6-4.35-2.66-6.5-4a47.7,47.7,0,0,1-4.69-3.29,5.76,5.76,0,0,1-1.89-5c.07-1.46.66-1.87,2.24-1.64,1.89.28,3.78.66,5.69.78a87.62,87.62,0,0,0,18.15-1.18c11.7-1.71,23.38-3.52,35.1-5.05,7.84-1,15.74-1.56,23.6-2.46,9.76-1.12,19.5-2.4,29.25-3.63,5.86-.74,11.7-1.66,17.65-1.68a33.67,33.67,0,0,0,6.36-1c.78-.16,1.72-.74,2.18.07a7.52,7.52,0,0,1,.76,3.1c0,.57-.43,1.16-.65,1.76a1.3,1.3,0,0,1-1.44,1,1.92,1.92,0,0,0-1.87.79c-3.18,3.87-7.18,6.81-11.17,9.75-7.08,5.21-14,10.59-21.25,15.64s-14.31,9.67-21.57,14.33c-10.57,6.78-21.15,13.53-31,21.32-.77.61-1.48,1.17-2.58.62a1.76,1.76,0,0,1-1.24-1.8c.15-2.93-.75-5.68-1.43-8.47-.59-2.4-1.11-4.82-1.69-7.23-.44-1.84-.67-2-2.2-1s-3.27,2.3-5,3.36a60.34,60.34,0,0,1-6.21,3.6,16.06,16.06,0,0,1-4.6,1.2c-1.35.19-1.93-.52-1.88-2.36m96.78-46c-7.15,2.52-14.32,5-21.46,7.58-7.89,2.83-15.7,5.91-23.66,8.54-8.72,2.88-17.57,5.36-26.36,8-5.12,1.55-10.23,3.16-15.37,4.64-1.57.45-2.75,1-3.11,2.83-.28,1.4-.85,2.74-1.24,4.12-.76,2.69-1.48,5.38-2.2,8.07a13.08,13.08,0,0,0-.2,1.41c.85-.49,1.45-.85,2.06-1.19,4.26-2.36,8.43-4.91,12.81-7,5.11-2.48,10.15-5,15-7.94a98.32,98.32,0,0,1,19.24-9.12c4.24-1.4,8.43-3,12.54-4.74,5.74-2.43,11.4-5,17.05-7.65,4.43-2,8.81-4.17,13.19-6.3A9.9,9.9,0,0,0,269.46,10l.39,0-.34.06M275,11.15a8.7,8.7,0,0,0-1.57.42c-7.79,3.73-15.55,7.49-23.33,11.23a165.35,165.35,0,0,1-20.52,8.68,104.34,104.34,0,0,0-12.72,4.93c-6.28,3-12.37,6.35-18.53,9.58-3.69,1.93-3.71,2-2.85,6s1.8,8.11,2.72,12.16c.26,1.13.42,1.2,1.41.55.2-.13.38-.29.58-.43,7.06-4.82,14-9.8,21.22-14.42,12.45-8,24.89-16,36.55-25.14,3.77-3,7.69-5.74,11.46-8.71,1.94-1.52,3.7-3.26,5.54-4.91l.05-.16c0,.07,0,.14,0,.21M185.31,31.84a27.56,27.56,0,0,1,3.27-.66,1.68,1.68,0,0,1,1.32.7,1.13,1.13,0,0,1-.51,1.63,9.57,9.57,0,0,1-2,.68c-1.94.46-3.92.77-5.83,1.34-.94.28-2.24.12-2.66,1.44,1,.67,2,0,3-.22A284.79,284.79,0,0,0,212,28.08c21.54-7.66,43-15.54,64.47-23.35a6.31,6.31,0,0,0,1-.61,142.38,142.38,0,0,0-17.44,1.95,237.15,237.15,0,0,1-30.93,3.63c-2.63.15-5.26.36-7.88.68-5.23.64-10.45,1.38-15.68,2.06-8,1-16,2.14-24,3.07-10,1.17-20,2.65-30.1,2.12a1.25,1.25,0,0,0-.94.45c-.4.59.19.85.56,1.08,1.7,1,3.45,2,5.13,3.1a3.37,3.37,0,0,0,2.73.47c2.72-.63,5.45-1.22,8.17-1.84,2.33-.54,4.65-1.19,7-1.63,1.59-.3,2.22.07,2.34.94s-.4,1.3-1.91,1.67Q168.25,23.41,162,25a5.35,5.35,0,0,0-.82.36,4.23,4.23,0,0,0,.61.93c.57.52,1.06,1.1,2.06.88,3.35-.73,6.79-1,10-2.24,1.57-.59,3.2-1,4.81-1.48a4.09,4.09,0,0,1,1.61-.35,1.69,1.69,0,0,1,1.22.84,1.73,1.73,0,0,1-.54,1.4,3.83,3.83,0,0,1-1.52.65c-3.36,1-6.75,2-10.09,3.06-.75.24-1.82-.1-2.24,1a16.81,16.81,0,0,0,2.19,1.38,3,3,0,0,0,1.59.07c1.34-.2,2.67-.5,4-.73,3.7-.63,7.46-.93,11-2.2a6.39,6.39,0,0,1,2.35-.39c.45,0,1.2.47,1.25.8a2.29,2.29,0,0,1-.6,1.61c-.25.28-.9.16-1.34.32-.78.27-1.77.07-2.24,1l-.83,0s.1.1.13.09l.65-.15m-5.25.82c-1.62.23-3.24.45-4.85.7-.19,0-.35.27-.52.41.15.1.31.29.46.3a6.94,6.94,0,0,0,4.9-1.41" transform="translate(0 0)"/><path class="cls-3" d="M8,201.39c.19-1.15.4-2.8.78-4.42a5.37,5.37,0,0,1,1.05-1.85,1.11,1.11,0,0,1,1.66-.36c.56.4,1,1,.51,1.64-1.6,2.3-1.14,4.89-1.12,7.41,0,.48,0,1,0,1.43a1.26,1.26,0,0,1-1.28,1.42,1.2,1.2,0,0,1-1.27-1.18c-.13-1.19-.22-2.38-.37-4.1" transform="translate(0 0)"/><path class="cls-3" d="M14.17,178.79a15.2,15.2,0,0,1,1.69-6.53c.51-1,1.21-2,2.51-1.91a1.9,1.9,0,0,1,1.31.75,1.31,1.31,0,0,1-.21,1.27c-2.29,1.89-2.38,4.58-2.71,7.17-.21,1.65-.62,2.33-1.55,2.21s-1.14-.75-1.09-2.33c0-.16,0-.32,0-.63" transform="translate(0 0)"/><path class="cls-3" d="M113.93,128.14c-.27-.24-1-.59-1.18-1.12a1.14,1.14,0,0,1,1.1-1.52c2.79-.22,5.12-1.68,7.65-2.6a5.93,5.93,0,0,1,2.07-.43,1.36,1.36,0,0,1,1,.82c.1.36-.22.85-.36,1.28,0,.06-.12.11-.19.13L114.81,128a5.74,5.74,0,0,1-.88.09" transform="translate(0 0)"/><path class="cls-3" d="M168.85,65.43A1.27,1.27,0,0,1,170.11,67,17.75,17.75,0,0,1,165,75a1.75,1.75,0,0,1-1.06.46,1.66,1.66,0,0,1-1.2-.54c-.2-.32-.06-.89,0-1.33,0-.2.29-.37.47-.53a16.19,16.19,0,0,0,4.09-6.12c.33-.78.76-1.39,1.5-1.48" transform="translate(0 0)"/><path class="cls-3" d="M156.13,92.85c-.29.64-.51,1.24-.82,1.77-1.24,2.12-2.52,4.21-3.76,6.32a1.3,1.3,0,0,1-1.77.7c-.73-.31-.75-1-.58-1.63a6.45,6.45,0,0,1,.67-1.77c1.2-2,2.46-3.89,3.7-5.82a1.24,1.24,0,0,1,1.62-.63c.37.17.6.64,1,1.05" transform="translate(0 0)"/><path class="cls-3" d="M7,219.74c-.24.24-.57.88-1,.93-1.7.22-2.1,1.51-2.58,2.78-.3.82-.5,1.68-.81,2.49-.38,1-1,1.38-1.8,1.09-1-.37-1-1.12-.69-2,.68-1.69,1.28-3.41,2.09-5a3.37,3.37,0,0,1,3.35-1.86c.74,0,1.41.36,1.41,1.56" transform="translate(0 0)"/><path class="cls-3" d="M142.91,110.29a7.54,7.54,0,0,1-.82,1.69q-2.65,2.72-5.39,5.34a1.3,1.3,0,0,1-1.93,0c-.66-.64-.43-1.29.12-1.87s.92-.88,1.36-1.32c1.34-1.34,2.65-2.72,4-4a2.17,2.17,0,0,1,1.46-.47c.42,0,.82.41,1.16.6" transform="translate(0 0)"/><path class="cls-3" d="M98.79,128.66c-2.1-.18-4.15-.37-6.2-.53-.89-.07-1.56-.35-1.59-1.37,0-.82.56-1.37,1.63-1.29,2.61.19,5.2.49,7.8.75a1.14,1.14,0,0,1,1.18,1.23,1.17,1.17,0,0,1-1.21,1.2c-.55,0-1.11,0-1.61,0" transform="translate(0 0)"/><path class="cls-3" d="M68.37,121.61c2,.25,3.95.46,5.91.78a2.6,2.6,0,0,1,1.85,2.23c.07,1.1-1.07,1.94-1.86,1.26-1.6-1.37-3.51-1.28-5.37-1.54-.24,0-.48,0-.71-.05-1.11-.17-1.6-.64-1.54-1.43s.69-1.24,1.73-1.25" transform="translate(0 0)"/><path class="cls-3" d="M52.73,124.42c-.68-.12-1.32-.19-1.93-.34a2.43,2.43,0,0,0-2.65.44,1,1,0,0,1-1.66-.19,2,2,0,0,1-.15-1.51c.55-1.62,1.23-2,2.92-1.68s3.22.91,5,.56a1.14,1.14,0,0,1,1.35,1.07,1.18,1.18,0,0,1-1,1.43,15.07,15.07,0,0,1-1.85.23" transform="translate(0 0)"/><path class="cls-3" d="M26.62,148.55a1.32,1.32,0,0,1,1.49,1.58A11.87,11.87,0,0,1,27,152.5a7.58,7.58,0,0,0-1.39,4A1.33,1.33,0,0,1,24.22,158c-.8,0-1.25-.55-1.24-1.69a5.49,5.49,0,0,1,.36-2.08c.72-1.67,1.54-3.31,2.38-4.92.19-.37.67-.59.89-.77" transform="translate(0 0)"/><path class="cls-3" d="M32.39,138.84c-1.19,0-1.72-.59-1.67-1.4.14-2.22,3.3-5.84,5.48-6.16a1.43,1.43,0,0,1,1.21.47,2.5,2.5,0,0,1,0,1.53c-.05.24-.43.46-.71.59a6.64,6.64,0,0,0-3.37,3.87c-.2.5-.76.86-1,1.1" transform="translate(0 0)"/></g></g></g></svg>