<svg xmlns="http://www.w3.org/2000/svg" xmlns:xlink="http://www.w3.org/1999/xlink" viewBox="0 0 73.68 59.15"><defs><style>.cls-1{fill:none;}.cls-2{clip-path:url(#clip-path);}.cls-3{fill:#a4bcc1;}</style><clipPath id="clip-path" transform="translate(0 0)"><rect class="cls-1" width="73.68" height="59.15"/></clipPath></defs><title>edu2</title><g id="Слой_2" data-name="Слой 2"><g id="Слой_1-2" data-name="Слой 1"><g class="cls-2"><path class="cls-3" d="M70.55,7.71A14.6,14.6,0,0,0,60.78.95C54.16-.39,48.29,1.4,43,5.32a18,18,0,0,0-5.12,6c-.42.77-.77.61-1.08-.08-.13-.29-.28-.58-.43-.86a19.16,19.16,0,0,0-22-9.66C6.93,2.69,2,7.47.27,15.16c-.73,3.26.15,6.36,1.44,9.32a32.42,32.42,0,0,0,8.62,11.38,61.55,61.55,0,0,0,11,7.23c3.35,1.86,6.73,3.69,10,5.66a35.51,35.51,0,0,1,8.16,6.64,11.69,11.69,0,0,0,3.69,3.26c1.38.64,1.6.81,2.6-.35S48,55.71,49,54.37A89.55,89.55,0,0,1,62,40a57.47,57.47,0,0,0,4.59-4.56,25,25,0,0,0,7.11-17.49A18.74,18.74,0,0,0,70.55,7.71M60.33,38.2c-.67.56-1.31,1.18-2,1.72A53.88,53.88,0,0,0,46.52,52.73c-.75,1.12-1.67,2.13-2.51,3.19-.93-.93-1.89-1.83-2.78-2.8A59.07,59.07,0,0,0,22.89,39.88a68.56,68.56,0,0,1-8.57-4.77A28,28,0,0,1,3.23,21C1.21,15.27,3,10,8,6.53a18.64,18.64,0,0,1,6.79-2.91c1.48-.31,3-.42,3.89-.54,9.75.22,15.78,5.59,16.93,13.84a11.87,11.87,0,0,0,.71,2.52,1.3,1.3,0,0,0,1.54.85c.76-.13,1-.69,1.06-1.39,0-.32,0-.64,0-1A12.61,12.61,0,0,1,45,7.11,20,20,0,0,1,62.21,4.69c6.74,2,9.4,7.42,8.57,14.17A29,29,0,0,1,60.33,38.2" transform="translate(0 0)"/><path class="cls-3" d="M67.19,15.62c-.56-4.39-4.31-9.16-10.42-8.28a45.73,45.73,0,0,0-5.11,1.25c-.88.23-1.44.82-1.16,1.77s1.13,1,2,.83c.47-.1.92-.3,1.39-.36a29.32,29.32,0,0,1,4.51-.48,5.66,5.66,0,0,1,5.81,4.46,16.65,16.65,0,0,1,.24,7.37c-.38,1.84-.89,3.43-3.23,3.45A1.06,1.06,0,0,0,60.1,26.9c.13.52.64,1.25,1.09,1.33A5.21,5.21,0,0,0,63.74,28a4.53,4.53,0,0,0,2.83-3.35c.47-1.84.68-3.75,1-5.63l-.19,0c-.06-1.12-.06-2.24-.2-3.35" transform="translate(0 0)"/><path class="cls-3" d="M20.06,6.91c-2.9.34-5.7,1.06-7.89,3.11a9.28,9.28,0,0,0-2.36,3.24,51.4,51.4,0,0,0-1.57,6c.27,1.6.26,3.17,1.26,4.43,1.44,1.81,3,3.55,4.48,5.28a1.15,1.15,0,0,0,1.71.13,1.73,1.73,0,0,0,.45-1.43A7.06,7.06,0,0,0,15,25.58c-.62-.83-1.33-1.59-2-2.38a6.79,6.79,0,0,1-1.42-6.93,9,9,0,0,1,6-6,23.23,23.23,0,0,1,2.81-.58c1-.22,1.53-.8,1.45-1.58a1.43,1.43,0,0,0-1.78-1.19" transform="translate(0 0)"/><path class="cls-3" d="M20.39,15.61a8.92,8.92,0,0,0,.8-1.16,1.33,1.33,0,0,0-1.51-1.77,3.46,3.46,0,0,0-.81.51c-2.61,2.65-4,5.72-3.11,9.53a6.41,6.41,0,0,0,2.52,3.67c1.13.87,2.26.91,2.77.18s.24-1.38-1-2.31a4.42,4.42,0,0,1-1.55-5.34,18.8,18.8,0,0,1,1.85-3.31" transform="translate(0 0)"/><path class="cls-3" d="M61.8,22.68A9.07,9.07,0,0,0,62,17.27c-.95-3.41-5.24-5.49-8.42-4a1.66,1.66,0,0,0-.77,1.29,1.73,1.73,0,0,0,.9,1.18,4.69,4.69,0,0,0,1.64.16c3.41,0,4.72,1.54,4.09,4.92-.07.39-.25.76-.33,1.15-.29,1.31-.07,1.94.73,2.23s1.52-.17,2-1.55" transform="translate(0 0)"/></g></g></g></svg>