<svg xmlns="http://www.w3.org/2000/svg" xmlns:xlink="http://www.w3.org/1999/xlink" viewBox="0 0 130.15 150.4"><defs><style>.cls-1{fill:none;}.cls-2{clip-path:url(#clip-path);}.cls-3{fill:#a4bcc1;}</style><clipPath id="clip-path" transform="translate(0)"><rect class="cls-1" width="130.15" height="150.4"/></clipPath></defs><title>edu24</title><g id="Слой_2" data-name="Слой 2"><g id="Слой_1-2" data-name="Слой 1"><g class="cls-2"><path class="cls-3" d="M42.73,113.69a8.94,8.94,0,0,1-2.36-5.37,22.82,22.82,0,0,1,.8-9.72A29.16,29.16,0,0,0,42.41,93c.34-4.54.4-9.1.65-13.65a84.13,84.13,0,0,0-1.17-19.83c-1.37-7.43-4.1-14.29-9.07-20.09a24,24,0,0,0-10.52-7.29c-5.06-1.74-10.09-1.68-14.81,1.11a14.65,14.65,0,0,0-3,23.36,11.51,11.51,0,0,0,16-.34,8,8,0,0,0-.42-11.59,5.62,5.62,0,0,0-5.36-1.29,4.68,4.68,0,0,0-3.44,4.42,2.93,2.93,0,0,0,0,.48c.16,1,.73,1.51,1.58,1.46s1.16-.58,1.29-1.42c.35-2.27,2.06-2.94,3.9-1.6l.19.15a5.4,5.4,0,0,1,.54,7.34C15.06,58.4,7.79,57.73,5,52.89a13.33,13.33,0,0,1-1.1-11.11,11,11,0,0,1,11-8,19,19,0,0,1,5.63.92,22.78,22.78,0,0,1,12.1,9,41.07,41.07,0,0,1,4.5,8.72,59,59,0,0,1,3.22,17.86c.38,8.08-.43,16.12-1.14,24.24,0-1.91.11-3.83,0-5.72a18,18,0,0,0-.87-5.15C35.17,75.65,29.06,71.19,21,69.16c-.87-.22-1.64-.15-2,.78s.27,1.42,1.07,1.82a7.9,7.9,0,0,1,4.57,6.33,58.05,58.05,0,0,1,.19,7.4c0,3.27-.47,6.56-.25,9.81.33,5,3,8.49,7.61,10.47a23.83,23.83,0,0,0,3.91,1.11,1.64,1.64,0,0,1,1.37,1.42,18.94,18.94,0,0,0,1.09,3.9,14.34,14.34,0,0,0,2.22,3.37c.78.91,1.7.9,2.28.2s.34-1.47-.3-2.1m-8.66-10.24c-4.75-1.88-7-5.62-7.43-10.49a23.27,23.27,0,0,1,.23-4.75c.22-2,.58-3.91.95-6.34a12.53,12.53,0,0,1,3,7.09c.3,2.21.57,4.42.85,6.63a13,13,0,0,0,3.92,8.14,9.25,9.25,0,0,1-1.51-.27m3.37-2.52c-.32-.13-.74-.16-1-.39a9.22,9.22,0,0,1-2.26-4.93c-.51-3.15-.83-6.33-1.44-9.45a21,21,0,0,0-1.72-4.68c-.59-1.26-.9-1.35-2.28-.87-.59.21-.8.29-.94-.39-.35-1.63-.77-3.25-1.14-4.88,0-.14,0-.41.08-.42a.91.91,0,0,1,.61,0c5.18,3.19,8.5,7.64,9.21,13.79a38.23,38.23,0,0,1,0,4.23c.09,2.28-.44,4.8,1,7.08.12.2-.08.6-.13.9" transform="translate(0)"/><path class="cls-3" d="M122.55.95a8.26,8.26,0,0,0-12,6.54,7.08,7.08,0,0,0,1.08,4.82,3.59,3.59,0,0,0,3.87,1.84,12.11,12.11,0,0,0,4.37-1.79,4.77,4.77,0,0,0-.57-7.91,2.47,2.47,0,0,0-3.1.17c-2.5,2-2,4.72,1,6-2.23,1-3.87.09-3.84-2.2A4.88,4.88,0,0,1,113.56,7c1.25-3.84,4.65-5.26,8.19-3.3a11.6,11.6,0,0,1,3,2.36,11,11,0,0,1,2.61,7.77A23.86,23.86,0,0,1,122,28.62,38.88,38.88,0,0,1,110.55,38c-4.09,2.34-8.28,4.51-12.46,6.68A145.27,145.27,0,0,0,71.94,62,39.22,39.22,0,0,0,59.76,79.43,58,58,0,0,0,56.4,98.7a38.27,38.27,0,0,0,2.66,15,9.9,9.9,0,0,0,.85,1.71,1.14,1.14,0,0,0,1.68.33,1.81,1.81,0,0,0,.65-1.37,7.42,7.42,0,0,0-.72-2,31.84,31.84,0,0,1-2.12-15,68,68,0,0,1,5.35-20.56,34.07,34.07,0,0,1,7-10.53c4.29-4.5,9.39-7.93,14.56-11.29,6.78-4.4,13.85-8.29,21-12.05a61.89,61.89,0,0,0,14-9.54,26.83,26.83,0,0,0,8.84-20.5c-.06-5.46-2.86-9.44-7.59-11.9" transform="translate(0)"/><path class="cls-3" d="M109,59.14c-2.07.14-4.13.33-6.19.58-3.65.44-7.32.77-10.92,1.43A26.39,26.39,0,0,0,78.44,67.6a37.93,37.93,0,0,0-9.09,12.83,22.82,22.82,0,0,0-2.08,9.37A22,22,0,0,0,69.22,99c.93,2.13,1.44,2.36,3.46,1.26,3.37-1.83,6.74-3.68,10-5.71C91.52,89.07,98.78,82,103.32,72.46a7.7,7.7,0,0,1,.46-.84l6.2-9.68c.13-.2.31-.37.44-.57.37-.58.56-1.27,0-1.76a2.15,2.15,0,0,0-1.47-.47m-3.43,4.19c-2.4,4.33-4.7,8.72-7.29,12.94a34.42,34.42,0,0,1-4.92,6.15A81.27,81.27,0,0,1,74.84,96a4.19,4.19,0,0,1-1.08.26,3,3,0,0,1-.05-.92c2-7.76,5.9-14.31,12.79-18.73a28,28,0,0,1,5.2-2.4C93.78,73.39,94.3,73,93.9,72s-1.12-1.07-3.17-.45A26.79,26.79,0,0,0,77,81.57a35.65,35.65,0,0,0-5.4,10.64c-.22.67-.42,1.35-.63,2l-.5-.12A18,18,0,0,1,71,84.73a49.11,49.11,0,0,1,2.88-6.57c.8-1.55,1.92-2.94,2.87-4.42,4.43-6.86,11-10,18.88-10.69,3.1-.28,6.21-.47,9.32-.67.87-.06,1.05.23.66.94" transform="translate(0)"/><path class="cls-3" d="M56.12,51.7c1.81-1.92,3.65-3.8,5.55-5.63a6.3,6.3,0,0,1,6.85-1.57c1.35.47,1.4.55,1.35,2.2s.92,3,2.41,2.93a4.45,4.45,0,0,0,4.27-4.08,5,5,0,0,0-4.88-5.65c-5.17-.46-9.41,1.54-13,5.06-2.44,2.41-4.66,5-6.94,7.62a24.34,24.34,0,0,0-5.14,10.18A104.18,104.18,0,0,0,43.84,80,87.91,87.91,0,0,0,45,102.94c1,5.82,1.95,11.66,2.71,17.52A49.24,49.24,0,0,1,44,147.19a8.15,8.15,0,0,0-.63,1.8,1.11,1.11,0,0,0,1,1.41,2.15,2.15,0,0,0,1.42-.53,3.43,3.43,0,0,0,.67-1.25,53.1,53.1,0,0,0,4.7-20.42,85.92,85.92,0,0,0-2.23-20,100.25,100.25,0,0,1-2.53-21,90.45,90.45,0,0,1,3.43-23.51,27.85,27.85,0,0,1,6.35-12" transform="translate(0)"/></g></g></g></svg>