<svg xmlns="http://www.w3.org/2000/svg" xmlns:xlink="http://www.w3.org/1999/xlink" viewBox="0 0 124.9 129.83"><defs><style>.cls-1{fill:none;}.cls-2{clip-path:url(#clip-path);}.cls-3{fill:#a4bcc1;}</style><clipPath id="clip-path" transform="translate(0 0)"><rect class="cls-1" width="124.89" height="129.83"/></clipPath></defs><title>edu21</title><g id="Слой_2" data-name="Слой 2"><g id="Слой_1-2" data-name="Слой 1"><g class="cls-2"><path class="cls-3" d="M124,70.51a5.28,5.28,0,0,0-1.42-2.42,12.76,12.76,0,0,0-7.29-3.31,8.53,8.53,0,0,0-7.77,2.85C106.29,69,105.22,70.5,104,71.9A29,29,0,0,1,101,75.25a9.45,9.45,0,0,1-11.76.32,11.78,11.78,0,0,1-4.53-9.39,6.57,6.57,0,0,1,.54-2.55,17.46,17.46,0,0,1,6.2-7.76,6.18,6.18,0,0,1,5.22-1,15.76,15.76,0,0,0,4.52.3c5-.37,9.42-4.11,10.33-8.62A27,27,0,0,0,112,42c.11-3.69.07-3.69-3.64-4.55l-.69-.18c-5.11-1.13-10.26-1.71-15.45-.67-2.1.42-4.14,1.16-6.2,1.8-.77.24-1.19.13-1.3-.77-.51-4.12-3-7-6.2-9.27a17.17,17.17,0,0,0-3.07-1.87c-2.49-1.08-5-2.05-7.56-3a9,9,0,0,0-5.15-.69c-.81.18-1-.25-.85-.93a18.85,18.85,0,0,0,.31-7.15C61.33,8.21,58.58,3,50.46.93a30.85,30.85,0,0,0-15.89.23A28,28,0,0,0,16.88,14.53a13.36,13.36,0,0,0-2,8.49,29.67,29.67,0,0,0,4.25,12.61C20.48,37.72,21.78,39.83,23,42a17.54,17.54,0,0,1,1.25,3.1c.2.6,0,1-.76,1.18a6.67,6.67,0,0,0-2.7.83,59.55,59.55,0,0,0-6.08,5c-7,6.79-11,15.17-13.39,24.5C0,81.81.44,87.12,0,92.32c.21,6.44.34,12.84,1.81,19.11,1.12,4.79,2.78,9.33,5.92,13.23a14.55,14.55,0,0,0,9.19,5.11,5,5,0,0,0,1.66,0c4-.66,6.58-3.16,8-6.78a23.13,23.13,0,0,0,1.23-10.86c-.08-.87-.12-1.75-.2-2.63-.1-1,.39-1.48,1.39-1.44a11.66,11.66,0,0,0,5.68-1.66c1.71-.86,3.46-1.65,5.22-2.41,2.69-1.17,2.7-1.15,4.14,1.38a14.85,14.85,0,0,0,15.85,7.39c5.18-1,8.85-5,9.74-10.82.44-2.88.4-5.71-1.21-8.35-1.42-2.32-2.73-4.7-4.05-7.07-.45-.81-.81-1.67-1.2-2.51.78-.35,1.57-.71,2.35-1.06s1.57-.66,2.36-1c.37.86.8,1.71,1.11,2.59,3.19,9.15,9.66,14.44,19.1,16.2a35.57,35.57,0,0,0,20.63-2.54,28.51,28.51,0,0,0,10.84-7.73A20.53,20.53,0,0,0,124,70.51M66.66,95.69c2.12,4.53-.05,10.95-4.47,13.33-4.67,2.52-9.39,2.15-13.43-1.75a13,13,0,0,1-3.38-5.17c-.48-1.41-.75-2-2.89-1.65a15.79,15.79,0,0,0-3.42,1.06c-2.06.86-4.08,1.83-6.12,2.74a20.35,20.35,0,0,1-3.1,1.25,3.22,3.22,0,0,1-2-.24c-1.64-.76-2.81-.21-2.91,1.57a13.14,13.14,0,0,0,.14,2.39,38.84,38.84,0,0,1-.39,10.27,10.11,10.11,0,0,1-3.07,6.1,5.78,5.78,0,0,1-6.19,1.28c-3.81-1.17-6.18-3.81-8-7.13a34.75,34.75,0,0,1-3.81-13.28c-.53-5.32-.8-10.67-1.18-16a51.18,51.18,0,0,1,6.28-26.3c3-5.57,6.76-10.47,12.32-13.75,1.81-2.27,3.85-1.56,6-.49a51.49,51.49,0,0,1,9.89,6.73c3.84,3.25,7.55,6.66,11.3,10a25.07,25.07,0,0,1,5.29,6.77c2.75,5.06,5.86,9.89,9,14.7a60.57,60.57,0,0,1,4.15,7.55M67,65.34a41.65,41.65,0,0,0,.2,11.94,2.14,2.14,0,0,1-1.07,2.41A13.89,13.89,0,0,1,64,80.79c-2.37.95-2.88.77-4.31-1.42q-1.64-2.51-3.24-5A82.06,82.06,0,0,0,33.35,50.64c-1.63-1.14-3.43-2-5.18-3-.58-.32-1.07-.6-1.16-1.37-.31-2.64-1.75-4.77-3.17-6.9a38.38,38.38,0,0,1-5-10.56c-2.36-8.17-.2-15,6.47-20.28A27.87,27.87,0,0,1,39.07,2.84a24.19,24.19,0,0,1,7.87-.15A19.11,19.11,0,0,1,56.3,7.25a9.76,9.76,0,0,1,2.17,3.09,15.48,15.48,0,0,1,1.43,6.78c0,2.92-.39,5.46-2.42,7.51a2.55,2.55,0,0,0-.56,1.5,1.08,1.08,0,0,0,1.39,1.2,9.14,9.14,0,0,0,1.8-.64,12,12,0,0,1,8.44-.34,30.83,30.83,0,0,1,9.19,4.56,10.77,10.77,0,0,1,4.6,7.81,2,2,0,0,1-.95,2.18,31.55,31.55,0,0,0-6.85,6.32A34.71,34.71,0,0,0,67,65.34m47.52,27.12a28.7,28.7,0,0,1-11.62,4.87,32.75,32.75,0,0,1-16.58-.86c-8-2.59-13.78-7.59-16.12-16a34.14,34.14,0,0,1-.73-13.3,48.43,48.43,0,0,1,3.22-12C75,49.3,79.17,45,84.27,41.49a15.39,15.39,0,0,1,4.19-1.7,51.32,51.32,0,0,1,11.81-2.06,40.17,40.17,0,0,1,5.19.77c3,.85,4,2.37,3.88,5.19a9.48,9.48,0,0,1-10.94,9A7.86,7.86,0,0,1,97,52.4c-3.06-1.1-5.75-.06-8.05,1.76-5.19,4.1-7.25,9.6-6.42,16.12a9.71,9.71,0,0,0,4.07,6.55c4.25,3.23,9,3.58,13.87,2.08a8.43,8.43,0,0,0,3.17-2.07c1.32-1.27,2.43-2.75,3.62-4.15s2.16-2.79,3.42-4c2.36-2.28,4.53-2.48,7.4-.86a8.87,8.87,0,0,1,2.14,1.52,5.78,5.78,0,0,1,1.49,2.35c2.07,8.34-.05,15.54-7.18,20.76" transform="translate(0 0)"/><path class="cls-3" d="M17.34,115c-1.76,1.29-2.26,1.23-3.73-.39a8.73,8.73,0,0,1-1-1.33C9.2,107.71,6.69,101.81,7,95.08c.18-4.22.46-8.44.69-12.66h.16A4.15,4.15,0,0,0,7.67,81c-.18-.37-.67-.86-1-.83A1.81,1.81,0,0,0,5.4,81a3.78,3.78,0,0,0-.19,1.64c-.07,2.55-.13,5.11-.19,7.66a58.39,58.39,0,0,0,.61,11.93,32.07,32.07,0,0,0,4.53,12,15.56,15.56,0,0,0,3.16,3.55,3.79,3.79,0,0,0,5.78-1.06,2,2,0,0,0,.1-1.73c-.48-.69-1.21-.42-1.88.06" transform="translate(0 0)"/><path class="cls-3" d="M28.7,72.41a4.59,4.59,0,0,0-5.44,1.87c-.13.18-.39.27-.57.43a6.94,6.94,0,0,0-1.9,7.62,7.88,7.88,0,0,0,7.41,4.32c2.89-.37,4.75-2.29,5.39-5.59.11-.54.13-1.1.21-1.77-.11-.61-.19-1.32-.36-2a6.39,6.39,0,0,0-4.74-4.88m.55,11.25a5.2,5.2,0,0,1-1.39.52A5.65,5.65,0,0,1,23,81a3.79,3.79,0,0,1,1.63-4.53,7.92,7.92,0,0,0,1.19-.74c1.24-1.12,2-1.24,3.26-.44a5.19,5.19,0,0,1,.14,8.36" transform="translate(0 0)"/><path class="cls-3" d="M14.4,107.77a1.23,1.23,0,0,0,1.59-.7,1.07,1.07,0,0,0-.64-1.56c-2.56-.82-2.92-2.91-3.05-5.14a5.9,5.9,0,0,0-.17-1.89,1.7,1.7,0,0,0-1.23-.81c-.29,0-.79.5-.92.88a6,6,0,0,0-.12,1.66l-.23.07c.4,1.53.67,3.1,1.22,4.57a4.7,4.7,0,0,0,3.55,2.92" transform="translate(0 0)"/><path class="cls-3" d="M52.38,16.4c.24.35.74.8,1,.75a2.1,2.1,0,0,0,1.17-.92c.18-.28.08-.77,0-1.17A8.47,8.47,0,0,0,49.5,7.81a16,16,0,0,0-7.57-1.54c-9.17-.31-15.94,5.93-18.88,11a9.93,9.93,0,0,0-1.53,5.47A4.35,4.35,0,0,0,22,24.54a1.35,1.35,0,0,0,1.14.57,1.58,1.58,0,0,0,1-.91c.16-.41-.05-1,0-1.42a10.7,10.7,0,0,1,.83-3.43C28.16,13.92,32.58,9.91,39,8.79a14.36,14.36,0,0,1,9.56,1.38,6.42,6.42,0,0,1,3.58,5.07,2.76,2.76,0,0,0,.2,1.16" transform="translate(0 0)"/><path class="cls-3" d="M60.85,48.92a6.63,6.63,0,0,0-7.42,3,9.52,9.52,0,0,1-.95,1.36,4.13,4.13,0,0,0-.58,4.89,7.32,7.32,0,0,0,3,3.35,7.48,7.48,0,0,0,11.38-5.86,7.35,7.35,0,0,0-5.41-6.74M59.92,60c-2.08.36-5.14-1.2-5.94-3.15a2,2,0,0,1,.11-1.52,26.33,26.33,0,0,1,1.75-2.52,3.94,3.94,0,0,1,3.27-1.58,4.33,4.33,0,0,1,4.54,4A4.41,4.41,0,0,1,59.92,60" transform="translate(0 0)"/><path class="cls-3" d="M39,23.77a15.29,15.29,0,0,0-1.52.72c-3.55,1.85-4.51,5.17-2.23,8.07a13.93,13.93,0,0,0,2.48,2.58,5.5,5.5,0,0,0,6.29.64c2.3-1.26,3.87-3.07,3.92-5.77,0-4.44-4.93-7.8-8.95-6.23m3.87,9.77a2.88,2.88,0,0,1-3.36-.27,11.33,11.33,0,0,1-2.08-2c-1.19-1.47-1.17-2.78.23-4a4.91,4.91,0,0,1,4.56-1.44,5.28,5.28,0,0,1,3.21,4.35,4.73,4.73,0,0,1-2.56,3.31" transform="translate(0 0)"/><path class="cls-3" d="M45.3,16.07c.26.18.55.47.82.46.5,0,1.22-.09,1.42-.41a1.69,1.69,0,0,0-.15-1.48,3.51,3.51,0,0,0-1.31-1,12.7,12.7,0,0,0-6.44-1.55,14.5,14.5,0,0,0-9,3.36,10,10,0,0,0-3.17,4.68c-.24.74,0,1.36.73,1.5.43.09,1-.25,1.43-.48.17-.09.26-.39.34-.61,1.85-5.3,10.75-7.72,15.34-4.47" transform="translate(0 0)"/><path class="cls-3" d="M91.63,91.28l-1.2,0c-7.3.34-14.08-5.62-15.19-12.7-.34-2.2-.34-4.45-.5-6.67H75c0-.8,0-1.6,0-2.39A31.79,31.79,0,0,0,75,66a1.49,1.49,0,0,0-1-1c-.38,0-.93.45-1.19.85a3,3,0,0,0-.24,1.4,56.83,56.83,0,0,0,.32,11.24c1.31,9,7.47,14.78,16.55,15.45a11.55,11.55,0,0,0,2.37-.2c.81-.11,1.37-.55,1.26-1.43s-.7-1-1.42-1" transform="translate(0 0)"/><path class="cls-3" d="M89.58,87.92a1.34,1.34,0,0,0,1.12-.64A1.37,1.37,0,0,0,90.46,86a4.58,4.58,0,0,0-1.63-.94c-1.12-.42-2.28-.72-3.41-1.1a7.35,7.35,0,0,1-3.83-2.32,2.37,2.37,0,0,0-2.67-.93,3.74,3.74,0,0,0,1.16,3c2.65,2.6,6.17,3.2,9.5,4.22" transform="translate(0 0)"/><path class="cls-3" d="M78.92,80.73s0,0,0,0h0l0,0h.07" transform="translate(0 0)"/><path class="cls-3" d="M78.89,80.69c1.25-1.43.12-2.83-.22-4.18-.18-.75-1.77-.56-1.88.25a7.8,7.8,0,0,0,.26,2.77c.21.89,1,1.16,1.84,1.16" transform="translate(0 0)"/></g></g></g></svg>