<svg xmlns="http://www.w3.org/2000/svg" xmlns:xlink="http://www.w3.org/1999/xlink" viewBox="0 0 121.95 96.42"><defs><style>.cls-1{fill:none;}.cls-2{clip-path:url(#clip-path);}.cls-3{fill:#a4bcc1;}</style><clipPath id="clip-path" transform="translate(0 0)"><rect class="cls-1" width="121.95" height="96.42"/></clipPath></defs><title>edu22</title><g id="Слой_2" data-name="Слой 2"><g id="Слой_1-2" data-name="Слой 1"><g class="cls-2"><path class="cls-3" d="M119.36,35.26a4.75,4.75,0,0,0-1-2.14,5.9,5.9,0,0,1-1.56-2.87c-.65-1.8-1.39-3.57-2.08-5.36a20.8,20.8,0,0,0-6.38-8.56c-1.29-1.08-2.6-2.12-3.85-3.25a46,46,0,0,0-15.8-9.32,68.37,68.37,0,0,0-29-3.46A78.38,78.38,0,0,0,33.38,7.11C20.65,13,13.48,22.95,11.32,36.69c-1.32,8.37-.93,16.74-.17,25.11.36,4,.74,8,1.21,11.92a3,3,0,0,1-1.55,3.38c-3.55,2.21-5.91,5.52-8,9.05C1.18,88.76,1,91.77,0,94.55c-.12.36.26,1.09.63,1.38a2.26,2.26,0,0,0,3-.21A18,18,0,0,1,10,92.35c6.25-1.93,12.46-4,19-4.9,4.1-.55,8.08-.53,11.92,1.32,2.52,1.21,5.15,2.19,7.71,3.3A32.24,32.24,0,0,0,60.75,94.6c4.07.11,8.14.49,12.2.73,5.82.35,11.62,1,17.47.2,11.84-1.62,20.8-7.32,26.19-18.18,3.81-7.68,5.3-15.87,5.33-26.15a52.92,52.92,0,0,0-2.59-15.94m-7.17,43.1A32,32,0,0,1,91,93.29a28,28,0,0,1-8.82.52c-8.34-.9-16.68-1.72-25-2.64A41,41,0,0,1,45.45,88c-2.05-.88-4.14-1.69-6.2-2.56A13.85,13.85,0,0,0,32,84.54a124.67,124.67,0,0,0-21.72,4.83C8.34,90,6.57,91,4.74,91.75a1.47,1.47,0,0,1-.83,0c-.07,0-.1-.43-.06-.65a7.72,7.72,0,0,1,.45-1.62c1.92-4.18,4.16-8.1,8.26-10.59,3-1.8,2.87-1.84,2.47-5.31C13.9,63.78,12.67,53.93,13.21,44,13.77,33.65,17,24.47,24.44,17A39.83,39.83,0,0,1,47.08,5.33C52,4.55,56.91,4.22,61.84,3.76c2.47-.23,4.94-.31,6.51-.4C76,3.44,82.65,4.21,89,6.64a42.23,42.23,0,0,1,14,8.68c1.11,1,2.33,1.95,3.5,2.91A20.93,20.93,0,0,1,112.41,26a38.3,38.3,0,0,1,3,9.82c.13.83.26,1.63,1.17,1.9s1,1,1.18,1.65c3.14,13.72,2,26.89-5.59,39" transform="translate(0 0)"/><path class="cls-3" d="M81.84,24a10.85,10.85,0,0,0-6.5-1,1.43,1.43,0,0,0-1.43,1.36c0,.85.54,1.18,1.31,1.44a14.4,14.4,0,0,1,3.46,1.55,18.07,18.07,0,0,1,6.52,7.51,29.91,29.91,0,0,1,2.18,17.58c-1.23,7.21-5.27,12.72-11,17.08-1.13.86-2.12,1.9-3.26,2.74-.59.44-.92.88-.73,1.59.24.86,1,.95,1.71,1A16.93,16.93,0,0,0,80.2,74c5.09-1.64,8.56-5.17,11.07-9.71,2.93-5.28,4.17-11,4.2-18.51.21-9.06-4.41-16.72-13.64-21.75" transform="translate(0 0)"/><path class="cls-3" d="M58.44,32.85a4.68,4.68,0,0,0-5.06,3.5c-1.13,3.91.47,6.14,4.77,7.17,2.17.52,3.92-.76,4.52-2.92a22.66,22.66,0,0,0,.41-2.24c-.08-.51-.14-.91-.21-1.3a4.63,4.63,0,0,0-4.44-4.22" transform="translate(0 0)"/><path class="cls-3" d="M57.73,57.47c-2.41.07-5,2.41-4.84,4.66a8.1,8.1,0,0,0,1,3.39,4.05,4.05,0,0,0,6.81.61,6.64,6.64,0,0,0,1.46-3.81c-.07-2.85-2-4.92-4.39-4.85" transform="translate(0 0)"/></g></g></g></svg>