<svg xmlns="http://www.w3.org/2000/svg" xmlns:xlink="http://www.w3.org/1999/xlink" viewBox="0 0 64.78 48.86"><defs><style>.cls-1{fill:none;}.cls-2{clip-path:url(#clip-path);}.cls-3{fill:#a4bcc1;}</style><clipPath id="clip-path" transform="translate(0 0)"><rect class="cls-1" width="64.78" height="48.86"/></clipPath></defs><title>edu20</title><g id="Слой_2" data-name="Слой 2"><g id="Слой_1-2" data-name="Слой 1"><g class="cls-2"><path class="cls-3" d="M63,22.12a34.2,34.2,0,0,1-.92-8.06A17.92,17.92,0,0,0,61,6.58,9.11,9.11,0,0,0,53.89.43,27,27,0,0,0,48.66,0c-2.23,0-4.47.25-6.7.43-5.74.44-11.47.93-17.21,1.35C21.5,2,18.23,2.11,15,2.3A72,72,0,0,0,6.15,3c-3.9.72-6.45,3-6.12,8.32.19,3.1.8,6.18,1.07,9.28.38,4.29.92,8.58.34,12.92A23.64,23.64,0,0,0,1.37,39a19,19,0,0,0,1.22,5.08A7,7,0,0,0,7.9,48.49a16.09,16.09,0,0,0,4.27.34c5.26-.41,10.49-1,15.75-1.45,7.25-.57,14.5-1,21.76-1.54l0,.27c2.32,0,4.64.09,7,0a7.56,7.56,0,0,0,7.48-6,27.88,27.88,0,0,0,.64-5.92c.14-4.12-1-8.07-1.74-12.07M8.68,5.34c9.48-.7,18.93-1.74,28.44-2,3-.07,6.05-.56,9.08-.62a46.41,46.41,0,0,1,6.42.54,7.68,7.68,0,0,1,2,.74c.67.29.8.73.21,1.24-1,.89-2,1.79-3.11,2.64C48,10.85,44.36,13.8,41.5,17.62c-.76,1-1.58,2-2.44,3S37.51,22.2,36.69,23a7.47,7.47,0,0,1-4.49,1.84,23.33,23.33,0,0,1-4.46-1.58,29.19,29.19,0,0,1-6-4.35A87.66,87.66,0,0,0,8.12,7.57,12.77,12.77,0,0,1,6.45,6a11.49,11.49,0,0,1,2.22-.62m48,36.73a24.46,24.46,0,0,1-5.54,1.47,45.29,45.29,0,0,1-6.93.52,152.55,152.55,0,0,0-15.79.9c-5.48.55-11,.8-16.49,1.18a10.64,10.64,0,0,1-1.44,0,5.62,5.62,0,0,1-5.06-3.46,16.7,16.7,0,0,1-1.23-6.55c-.07-2,0-4,0-6l.26,0c-.35-4.22-.67-8.44-1-12.66-.2-2.23-.5-4.44-.72-6.67a8.44,8.44,0,0,1,0-1.91c.15-1.14.69-1.4,1.58-.74,4.17,3.09,8.55,5.88,12.17,9.71a50,50,0,0,0,10.25,7.86,9.24,9.24,0,0,0,8.48,1.1,12,12,0,0,0,3.64-2.21A36,36,0,0,0,43.07,20a50.86,50.86,0,0,1,8.82-8.77C53.46,10,55,8.69,56.52,7.43c1.08-.87,1.34-.86,1.87.45a9.45,9.45,0,0,1,1,3.66c-.15,3.88.69,7.63,1.21,11.43.43,3.16,1,6.31,1.48,9.46.69,4.39-1.2,8-5.33,9.65" transform="translate(0 0)"/></g></g></g></svg>