<svg xmlns="http://www.w3.org/2000/svg" xmlns:xlink="http://www.w3.org/1999/xlink" viewBox="0 0 47.47 45.08"><defs><style>.cls-1{fill:none;}.cls-2{clip-path:url(#clip-path);}.cls-3{fill:#a4bcc1;}</style><clipPath id="clip-path" transform="translate(0)"><rect class="cls-1" width="47.47" height="45.08"/></clipPath></defs><title>edu26</title><g id="Слой_2" data-name="Слой 2"><g id="Слой_1-2" data-name="Слой 1"><g class="cls-2"><path class="cls-3" d="M47.45,14.17a20.73,20.73,0,0,1-1.32,7.64c-1.5,4.38-3.11,8.72-4.63,13.09-1,2.79-1.86,5.6-2.78,8.41-.53,1.63-1,2-2.6,1.68-7.28-1.48-14.52-3.09-21.34-6.14A30.35,30.35,0,0,1,4.35,31.74,15.6,15.6,0,0,1,.12,19a9.35,9.35,0,0,1,4.49-7A19,19,0,0,1,18.34,9.11a3.53,3.53,0,0,1,.47.09c.81.25,1.71.86,2.38.66.52-.15.71-1.33,1.09-2C25,2.89,32.15-.68,37.74.11a10,10,0,0,1,7.62,5.21,16.25,16.25,0,0,1,2.09,8.85m-2.7.57a15.37,15.37,0,0,0-1.61-6.85,8.28,8.28,0,0,0-7.6-4.55A15.24,15.24,0,0,0,28.86,5c-2.92,1.37-5,3.39-5.15,6.89-.07,1.39-.38,1.54-1.83,1.62a8.05,8.05,0,0,1-1.67.07c-.51-.08-1.3-.25-1.44-.59-.48-1.18-1.47-1.2-2.38-1.21a34,34,0,0,0-5.48.22,9.58,9.58,0,0,0-8.15,9.54A11.9,11.9,0,0,0,8.6,31.94C16.71,37.16,25.74,40,35.09,42c.64.14,1.1.09,1.17-.7.31-3.74,1.93-7.06,3.38-10.43,1.19-2.79,2.42-5.56,3.57-8.37a22.65,22.65,0,0,0,1.56-7.8" transform="translate(0)"/></g></g></g></svg>