<svg xmlns="http://www.w3.org/2000/svg" xmlns:xlink="http://www.w3.org/1999/xlink" viewBox="0 0 54.39 58.35"><defs><style>.cls-1{fill:none;}.cls-2{clip-path:url(#clip-path);}.cls-3{fill:#a4bcc1;}</style><clipPath id="clip-path" transform="translate(0 0)"><rect class="cls-1" width="54.39" height="58.35"/></clipPath></defs><title>edu3</title><g id="Слой_2" data-name="Слой 2"><g id="Слой_1-2" data-name="Слой 1"><g class="cls-2"><path class="cls-3" d="M43.38,34.29c-2.31-.15-4.62-.33-6.93-.43a9.64,9.64,0,0,0-2.61.24c-1.21.29-1.65,1-1.24,2.12a5.56,5.56,0,0,0,1.48,2.06,4.47,4.47,0,0,0,1.73.79c4.48,1.39,7.34,5.11,6.77,11a12.65,12.65,0,0,1-.27,1.41,7.92,7.92,0,0,1-7.14,6.71c-3.65.54-6.62-.55-8.72-3.7-1.77-2.67-2.87-5.48-2.23-8.8a17.94,17.94,0,0,0,.18-4.06c-.07-1.8-1-2.57-2.74-2.61a3.6,3.6,0,0,0-4.07,3.18A15.14,15.14,0,0,1,13.2,50c-4.52,4.44-9.59,2-11.74-1.65A8.86,8.86,0,0,1,6.06,35.18a33,33,0,0,0,3.19-1,40.89,40.89,0,0,0,3.84-1.92c.29-.16.66-.76.57-.89a1.67,1.67,0,0,0-1-.77,15.3,15.3,0,0,0-2.37.13c-1.59.11-3.18.33-4.76.28a5,5,0,0,1-4.1-2.55,8.77,8.77,0,0,1,3.8-12.75A7.64,7.64,0,0,1,14.7,19a7.51,7.51,0,0,0,.85,1.43,1.18,1.18,0,0,0,1,.3,1.08,1.08,0,0,0,.49-.92,27.71,27.71,0,0,0-.76-3,30.64,30.64,0,0,1-1.22-9c0-5,7.41-9.94,12.3-6.9a23.24,23.24,0,0,1,3.54,2.43,7.53,7.53,0,0,1,.71,10.57,16.71,16.71,0,0,0-3.28,5c-.63,1.87-.42,3.19.7,3.87s2.14.17,3.71-1.21a39.66,39.66,0,0,1,6.66-5c4.77-2.65,9.77-1.24,12.75,3.32A15.39,15.39,0,0,1,54,23.46c1.35,4.2-1.37,8.84-5.93,10.28a8.36,8.36,0,0,1-1.87.43c-1,.07-1.91,0-2.87,0,0,0,0,.07,0,.1m-3.76-3v.08a39,39,0,0,0,4.79,0A17.12,17.12,0,0,0,49,30.12c2.55-1.1,3.36-3.1,2.42-5.69a17,17,0,0,0-1.87-3.6c-1.83-2.72-3.87-3.4-7-2.5a16.66,16.66,0,0,0-8,5.51,5.25,5.25,0,0,1-9.05-5,13.27,13.27,0,0,1,3.15-5.58,5.86,5.86,0,0,0,1.93-4.48,6.57,6.57,0,0,0-6.44-6c-2.87,0-6.47,2-6.36,5.82a35,35,0,0,0,.74,5.68c.33,1.72.9,3.39,1.34,5.09a3,3,0,0,1-.58,2.91,3.58,3.58,0,0,1-5.79,0c-.77-.91-1.31-2-2.12-2.88A4.91,4.91,0,0,0,9.25,18a5.3,5.3,0,0,0-5.57,2.41,6.14,6.14,0,0,0-.09,6.36c1.33,1.84,3.23,1.82,5.2,1.4A8.33,8.33,0,0,1,10,28,26.75,26.75,0,0,1,13,27.89a3.45,3.45,0,0,1,3.45,2.78,3.36,3.36,0,0,1-1.77,3.86,46,46,0,0,1-5.36,2.59c-.72.32-1.56.38-2.29.67C2.91,39.43,1.64,43,3.8,46.92c1.65,3,4.62,3.56,7.21,1.31A10,10,0,0,0,14.7,42a6.37,6.37,0,0,1,5.9-5.69A5.72,5.72,0,0,1,26,38.12a5.28,5.28,0,0,1,1,4.72,14.08,14.08,0,0,0,1.18,8.88c1.62,3.42,4.33,5.22,8.12,3.33a5.72,5.72,0,0,0,3.4-4c1-4.34-1.66-8.56-5-9.46a7.82,7.82,0,0,1-3.08-1.77,5.32,5.32,0,0,1-1.67-5.65c.59-2.16,2.25-2.8,4.19-2.91s3.66,0,5.5,0" transform="translate(0 0)"/></g></g></g></svg>