<svg xmlns="http://www.w3.org/2000/svg" xmlns:xlink="http://www.w3.org/1999/xlink" viewBox="0 0 152.2 122.87"><defs><style>.cls-1{fill:none;}.cls-2{clip-path:url(#clip-path);}.cls-3{fill:#a4bcc1;}</style><clipPath id="clip-path" transform="translate(0)"><rect class="cls-1" width="152.2" height="122.87"/></clipPath></defs><title>edu4</title><g id="Слой_2" data-name="Слой 2"><g id="Слой_1-2" data-name="Слой 1"><g class="cls-2"><path class="cls-3" d="M127.83,57.94c-1.09-.45-1.06-1-.59-1.81a4.16,4.16,0,0,0,.27-.66q2.55-7.11-4.63-9.52c-1.37-.46-1.43-.49-.77-1.71a11.43,11.43,0,0,0,1.39-6.93,7.44,7.44,0,0,0-7.09-6.89,23.75,23.75,0,0,0-4.29.26c-1.42.17-1.41.24-1.46-1.23,0-.56,0-1.12-.07-1.67a5.33,5.33,0,0,0-4.59-5.1,11.17,11.17,0,0,0-3.8-.24C96.69,23.26,91.14,24,86,26.38c-1.53.69-3.14,1.19-4.68,1.85-1,.41-1.51.13-1.81-.82-.7-2.21-1.36-4.43-2.1-6.62-1.18-3.47-2.3-7-3.69-10.37a17.18,17.18,0,0,0-6-7.64C63.27-.35,58.59-1,53.7,1.6a5.22,5.22,0,0,0-2.85,5.57c.37,3,1.54,5.47,4.44,6.92a12.94,12.94,0,0,1,5.59,5.77,27.33,27.33,0,0,1,2.78,13.94c-.12,3.37-1.58,6.34-3.34,9.14A48,48,0,0,1,44.24,58.45c-.41.25-.83.47-1.26.69-.64.31-1.31,0-1.32-.54,0-1.76-1.47-2.33-2.47-3.27a7,7,0,0,0-7-1.24c-9.68,4.59-19.32,9.24-29,13.84a1.66,1.66,0,0,0-1.09,2.25c-2.34.74-2.49,1.08-1.53,3.37.28.66.59,1.31.9,2A203.41,203.41,0,0,0,12.54,94.84a128,128,0,0,1,10,18.57,27,27,0,0,0,2.33,4.46c1.16,1.78,2.23,3.77,4.74,4,.19,0,.38.27.53.44.75.82,1.57.61,2.4.19,2.36-1.18,4.74-2.31,7.06-3.58,5-2.73,9.89-5.57,14.87-8.29,2.8-1.53,5.69-2.92,8.54-4.36.64-.32,1.27-.57,1.45-1.44.22-1.08.73-2.1.9-3.18a1.93,1.93,0,0,1,1.31-1.54c2.11-1,4.18-2,6.33-2.87,8.16-3.26,16.36-6.44,24.53-9.67,9-3.57,17.79-7.6,25.77-13.19a31.71,31.71,0,0,0,4.39-3.7,10.4,10.4,0,0,0,2.95-8.33c-.13-1.95-.88-3.63-2.78-4.42M60.14,104.69c-4.15,2.24-8.31,4.44-12.45,6.69-4.35,2.36-8.68,4.77-13,7.14-.91.5-1.88.88-2.79,1.38s-1.41.55-2.06-.28c-1.08-1.37-2.38-2.58-3.34-4a24.78,24.78,0,0,1-2.42-4.67C20.93,103,16.43,95.84,12,88.61,9,83.56,6.17,78.35,3.31,73.18a10.73,10.73,0,0,1-.69-2.42,6.6,6.6,0,0,0,2-.44q12.31-7,25.17-12.83A11.66,11.66,0,0,1,32,56.63a17.33,17.33,0,0,1,2.59-.23c.7,0,1,.37,1.09,1,1.17,5.84,4.14,10.87,7.32,15.76a90.37,90.37,0,0,1,8.8,16.71,74.89,74.89,0,0,0,3.88,8,15.94,15.94,0,0,0,4.63,5.43c1,.71.93.86-.15,1.43M123,59.61c1.48.33,1.68,1.3,1.78,2.44a13.73,13.73,0,0,1-1,7.27,9.84,9.84,0,0,1-3.6,4.08c-1.33.88-2.68,1.74-4,2.69a66,66,0,0,1-18.4,9.11C92.1,87.12,86.32,89,80.59,91A53.45,53.45,0,0,0,66.76,98c-.38.27-.93.73-1.22.62a2.81,2.81,0,0,0-3.24.79c-.11.1-.59-.05-.8-.21a4.3,4.3,0,0,1-.79-.89,63,63,0,0,1-7.33-11.79A119.91,119.91,0,0,0,43.12,67.89a45.34,45.34,0,0,1-2.68-4.81c-.71-1.4-.66-1.46.83-2a40.81,40.81,0,0,0,12.46-7A37.91,37.91,0,0,0,65.64,36.67c1.27-3.78,1-7.56,0-11.34-.11-.47-.26-.92-.37-1.39-1.07-4.28-2.91-8-6.42-10.94a29.2,29.2,0,0,1-4.36-4.76c-1.58-2-1.3-3.07.84-4.52a10.11,10.11,0,0,1,5-1.56A8.49,8.49,0,0,1,66.77,5.4a25,25,0,0,1,4.69,7.76c1.76,4.54,3.31,9.16,5,13.72.44,1.18,1.13,2.27,1.66,3.42a1.72,1.72,0,0,0,2.39.93c1.81-.62,3.66-1.17,5.4-2a41.75,41.75,0,0,1,15-3.8,18.62,18.62,0,0,1,4.28.24c2.45.44,3.33,1.89,2.88,4.35a12.8,12.8,0,0,0-.39,3c.11,1.63,1,2.07,2.45,1.26a9.28,9.28,0,0,1,5-1.43c4.35.17,6.88,3.63,5.52,7.77a27.37,27.37,0,0,1-2.12,4,11.62,11.62,0,0,0-1.1,2.34A1.32,1.32,0,0,0,119,48.64a6.6,6.6,0,0,0,.69-.18,5.17,5.17,0,0,1,5.54,2.36c.8,1.63,0,4.37-1.65,5.86-.3.26-.69.43-1,.71-.83.82-.69,2,.46,2.21" transform="translate(0)"/><path class="cls-3" d="M147.21,22c-3.06.16-5.1,2.11-5.12,4.9,0,2.22,2.89,4.6,5.56,4.6,2.93,0,4.47-2.62,4.56-5.13a4.62,4.62,0,0,0-5-4.37m.2,6.83c-1.15-.09-2.51-1.24-2.5-2.12,0-1.24.9-2,2.43-2a1.84,1.84,0,0,1,2.11,2,2,2,0,0,1-2,2.12" transform="translate(0)"/><path class="cls-3" d="M29.48,72.33c-4.08-1-9.08,2.05-10,6.17a4.24,4.24,0,0,0-.06,1.42c.49,3.86,2.51,6.15,6.77,6.28a7.76,7.76,0,0,0,7.59-9,5.54,5.54,0,0,0-4.3-4.86m1.74,6.78a5.37,5.37,0,0,1-5.09,4.55C24,83.62,22,82,22.24,80.25c.29-2.06,1.11-4,3.22-5a6.28,6.28,0,0,1,1.12-.4,3.58,3.58,0,0,1,4.64,4.25" transform="translate(0)"/></g></g></g></svg>