<svg xmlns="http://www.w3.org/2000/svg" xmlns:xlink="http://www.w3.org/1999/xlink" viewBox="0 0 54.03 56.73"><defs><style>.cls-1{fill:none;}.cls-2{clip-path:url(#clip-path);}.cls-3{fill:#a4bcc1;}</style><clipPath id="clip-path" transform="translate(0 0)"><rect class="cls-1" width="54.03" height="56.73"/></clipPath></defs><title>edu5</title><g id="Слой_2" data-name="Слой 2"><g id="Слой_1-2" data-name="Слой 1"><g class="cls-2"><path class="cls-3" d="M43,31.94c-1.85-.45-3.79-.89-5.71-1.4s-3.53-1-5.3-1.51a2.8,2.8,0,0,0-2.87.71c-.81.77-1.68,1.48-2.55,2.18-3.25,2.59-6.51,5.17-9.76,7.75C15.4,40.81,14,42,12.54,43.13c-.13.11-.11.4-.15.61.21,0,.5.1.61,0,.6-.52,1.14-1.13,1.74-1.64a1.8,1.8,0,0,1,2.74.14c1.24,1.56,2.41,3.18,3.5,4.84.85,1.29.71,1.6-.52,2.54q-4.19,3.2-8.36,6.44c-1.17.91-1.89.94-2.88-.11a10.67,10.67,0,0,1-1.12-1.55A38.53,38.53,0,0,0,.76,45.62a1.68,1.68,0,0,1,0-2.84c.62-.5,1.32-.91,2-1.35,6.85-4.57,13.69-9.17,19.81-14.72a9.54,9.54,0,0,1,.72-.64,2.61,2.61,0,0,0,1-3.49,25.49,25.49,0,0,1-1.76-9.85,22.84,22.84,0,0,1,.55-4.51C25,.36,33.44-2.52,39.81,2.49a13.43,13.43,0,0,1,4.78,8.09,2.31,2.31,0,0,0,2,2.14c5,1.24,8.48,7.15,7.12,11.93A9.43,9.43,0,0,1,47.38,31a32.57,32.57,0,0,1-4.36.93M29.46,15.46c.27,2.29.53,4.26.74,6.25a1.5,1.5,0,0,0,1.3,1.46c2.17.54,4.29,1.27,6.48,1.71a11.85,11.85,0,0,0,6.39-.29,3,3,0,0,0,2.21-3.52A3.55,3.55,0,0,0,44.26,18a27.16,27.16,0,0,0-3.44-1c-1.49-.41-1.83-.8-1.24-2.16a3,3,0,0,0-.16-2.73,12.76,12.76,0,0,0-1.48-2.45c-2.57-3-6.42-2.37-7.68,1.38a27.77,27.77,0,0,0-.8,4.42" transform="translate(0 0)"/></g></g></g></svg>