<svg xmlns="http://www.w3.org/2000/svg" xmlns:xlink="http://www.w3.org/1999/xlink" viewBox="0 0 97.96 86.73"><defs><style>.cls-1{fill:none;}.cls-2{clip-path:url(#clip-path);}.cls-3{fill:#a4bcc1;}</style><clipPath id="clip-path"><rect class="cls-1" width="97.96" height="86.73"/></clipPath></defs><title>edu6</title><g id="Слой_2" data-name="Слой 2"><g id="Слой_1-2" data-name="Слой 1"><g class="cls-2"><path class="cls-3" d="M38.87,41.21A11.51,11.51,0,0,0,33.65,41a20.46,20.46,0,0,0-11.43,6.12c-2.64,2.68-4.59,5.79-4.58,9.73A19.9,19.9,0,0,0,21,68.21c3.63,5.4,9.39,5,13.1,3,5.46-3,6.87-8.89,5.6-13.81a7.07,7.07,0,0,0-9.75-5,6.53,6.53,0,0,0-2.55,2.05,3.55,3.55,0,0,0-.07,4.07A3,3,0,0,0,30.61,60c.84-.13,1.6-.43,1.64-1.42s-.6-1.23-1.36-1.4a2.78,2.78,0,0,1-.47-.09c-1-.39-1.09-1.09-.25-1.76a3.27,3.27,0,0,1,1-.56,4.47,4.47,0,0,1,5.85,3.11c.65,3.08.57,6.22-1.78,8.76a15.72,15.72,0,0,1-2.54,2.18c-2.77,1.94-5.38,1.81-7.82-.52a13.08,13.08,0,0,1-4-12.9c1.48-6.68,9-12.19,15.49-11.53,8.16.83,13.69,6.55,14,14.36S47.61,72.05,42.18,77.1c-5,4.68-11.23,6.57-18.07,6.61-2-.2-4-.34-5.95-.62-5.69-.79-9.64-4-12.23-9S2.54,63.49,2.61,57.83a6.7,6.7,0,0,0,0-1.9c-.13-.44-.65-1-1-1.05s-1,.42-1.29.8a2.05,2.05,0,0,0-.21,1.15A37.44,37.44,0,0,0,1.13,68.72c2.45,8.56,7.7,14.43,16.39,16.9a27,27,0,0,0,11.62.81,27.87,27.87,0,0,0,14.34-6.72A29.46,29.46,0,0,0,52.38,66a20.68,20.68,0,0,0-.61-13.91c-2.38-5.82-7-9.15-12.9-10.89"/><path class="cls-3" d="M19.27,22a5.07,5.07,0,0,0,4.31-2.18,9.88,9.88,0,0,0,2-5.48c0-4.36-2.41-7.15-6.12-7.56-1.65-.18-3.08.59-4.6,1.06a4.87,4.87,0,0,0-3.35,3.43C9.93,16.24,13,21.94,19.27,22M15.06,11.16c.63-.31,1.12-.92,1.75-1.24a4.4,4.4,0,0,1,6.39,4c-.54,1.4-1,2.84-1.65,4.18a2.6,2.6,0,0,1-2.62,1.37,5.93,5.93,0,0,1-5.3-5.06c-.14-1.33,0-2.54,1.44-3.24"/><path class="cls-3" d="M94.28,43.26a3.16,3.16,0,0,0-3.19-.18c-1.05.55-2,1.22-3.1,1.76-2.5,1.29-3.53,6-1.46,8.66a6.13,6.13,0,0,0,7,2.2c2.69-.93,4.45-3.48,4.43-6.85a6.76,6.76,0,0,0-3.68-5.59m-1.05,9.67a3.35,3.35,0,0,1-3.6-.27,3.29,3.29,0,0,1-.34-5.43,8.29,8.29,0,0,1,1.42-.85c2.42-1.26,4.46,0,4.51,3a4.07,4.07,0,0,1-2,3.52"/><path class="cls-3" d="M61.48,0a5.25,5.25,0,0,0-5,5,4.91,4.91,0,0,0,4.81,5,4.75,4.75,0,0,0,4.62-5.06c0-2.87-1.93-5-4.41-4.94m-.09,7.36a2.28,2.28,0,0,1-2.25-2.26,2.64,2.64,0,0,1,2.21-2.37c1-.1,1.85.9,1.89,2.27a2.16,2.16,0,0,1-1.84,2.36"/></g></g></g></svg>