<svg xmlns="http://www.w3.org/2000/svg" xmlns:xlink="http://www.w3.org/1999/xlink" viewBox="0 0 76.16 80.2"><defs><style>.cls-1{fill:none;}.cls-2{clip-path:url(#clip-path);}.cls-3{fill:#a4bcc1;}</style><clipPath id="clip-path"><rect class="cls-1" width="76.16" height="80.2"/></clipPath></defs><title>edu7</title><g id="Слой_2" data-name="Слой 2"><g id="Слой_1-2" data-name="Слой 1"><g class="cls-2"><path class="cls-3" d="M76.14,55c0-.28-.27-.56-.41-.84-.78-1.48-1.61-2.94-2.34-4.45-2.29-4.75-4.5-9.54-6.85-14.27a29,29,0,0,0-2.87-4.4A2.56,2.56,0,0,1,63,28.92c1-6.07,1.88-12.16,2.86-18.23.38-2.38-.18-3-2.47-2.46-.54.13-1.07.33-1.6.49a41.83,41.83,0,0,1-5.5,1.65c-4.29.69-8.32,2.24-12.43,3.5A3.44,3.44,0,0,1,40,13.13C36.6,10,33.18,6.87,29.7,3.8A23,23,0,0,0,25.49.68C23-.68,22,0,22,2.82c.15,6-1.16,11.76-1.68,17.65a1.39,1.39,0,0,1-1,1.44c-2.51.55-4.41,2.21-6.44,3.6C9,28.16,5.1,30.85,1.21,33.51c-1.36.92-1.68,3.25-.4,4.29A28.77,28.77,0,0,0,5.56,41c2.33,1.22,4.84,2.1,7.2,3.27S17.41,46.75,19.7,48A2.71,2.71,0,0,1,21,50.18c.33,2,.82,4.07,1.25,6.1C23.52,62.06,25,67.8,25.35,73.73a3.77,3.77,0,0,0,.14.95c.23.66.71,1.2,1.42,1a1.93,1.93,0,0,0,1-1.12,4.58,4.58,0,0,0-.07-1.65c-.6-7.93-2.9-15.54-4.34-23.31a5.66,5.66,0,0,0-2.75-4c-1.65-1-3.26-2-5-2.89-3.08-1.53-6.22-2.91-9.32-4.4a29.65,29.65,0,0,1-2.71-1.53c-.62-.38-.6-.92-.11-1.39a7.88,7.88,0,0,1,1-.67c2.74-1.93,5.47-3.88,8.23-5.79,1.91-1.31,3.84-2.59,5.81-3.8a3.39,3.39,0,0,1,1.79-.44c1.93.06,2.14-.09,2.34-2,.64-6,1.29-12.08,1.92-18.11.08-.78.4-1.08,1-.58,1.07.83,2.09,1.73,3.11,2.63C32.8,10,36.65,13.51,40.55,16.95c1.19,1,1.4,1,2.71.2A13.8,13.8,0,0,1,45.85,16c1-.33,2-.48,3-.76,4.22-1.19,8.43-2.42,12.65-3.6,1.05-.3,1.3-.06,1.19,1,0,.4-.16.78-.22,1.18q-1.1,7.83-2.2,15.66c-.19,1.31-.36,2.53,1.2,3.24.43.19.66.87.92,1.36.88,1.61,1.64,3.3,2.61,4.85,3.06,4.91,5.28,10.22,7.69,15.44.55,1.19.43,1.39-.94,1.25s-3-.44-4.5-.69L53,52.58c-1.8.26-3.23.4-4.63.69a4,4,0,0,0-3.05,2.43,20.62,20.62,0,0,1-4.66,6.63,87,87,0,0,0-7.69,9.19c-1.42,1.91-3.17,3.58-4.76,5.36a9.75,9.75,0,0,0-1,1.3,1.21,1.21,0,0,0,.27,1.72,1.28,1.28,0,0,0,1.9-.3,11.16,11.16,0,0,1,1.47-1.88c2.86-2.39,4.94-5.42,7.1-8.41a55.56,55.56,0,0,1,3.86-4.57c2-2.26,4.23-4.37,5.6-7.15a3.19,3.19,0,0,1,3.31-1.89c1.67.11,3.35.2,5,.38,3.57.39,7.14.78,10.7,1.25,2.3.3,4.56.84,6.86,1.08,3,.31,3-.42,2.93-3.39"/><path class="cls-3" d="M37.15,45.8c-1.55-.34-3.14-.56-4.72-.77-.77-.1-1.48.14-1.64,1s.44,1.32,1.22,1.45c2.51.42,5,.81,6.35,1,5.53.11,9.14-1.49,12.25-4.39,2.81-2.63,2.66-6,2.26-9.34a1.16,1.16,0,0,0-1.33-1.1,1.22,1.22,0,0,0-1.2,1.25c0,1,.07,1.92,0,2.87a6.36,6.36,0,0,1-2.28,5c-3.23,2.48-6.76,3.86-10.93,3"/><path class="cls-3" d="M46.38,28.26a3.18,3.18,0,0,0-2.94-2.9,2.29,2.29,0,0,0-2.09,2.44,2.83,2.83,0,0,0,2.46,2.78,2.57,2.57,0,0,0,2.57-2.32"/><path class="cls-3" d="M25.3,32.17c-1.09.33-.87,1.35-1.15,2.14A2.41,2.41,0,0,0,25,37.24a2.11,2.11,0,0,0,1.72.23c1.2-.43,1.49-1.53,1.5-3.18a7,7,0,0,0-.78-1.68,1.86,1.86,0,0,0-2.18-.45"/></g></g></g></svg>