<svg xmlns="http://www.w3.org/2000/svg" xmlns:xlink="http://www.w3.org/1999/xlink" viewBox="0 0 103.75 115.11"><defs><style>.cls-1{fill:none;}.cls-2{clip-path:url(#clip-path);}.cls-3{fill:#a4bcc1;}</style><clipPath id="clip-path" transform="translate(0 0)"><rect class="cls-1" width="103.75" height="115.11"/></clipPath></defs><title>edu8</title><g id="Слой_2" data-name="Слой 2"><g id="Слой_1-2" data-name="Слой 1"><g class="cls-2"><path class="cls-3" d="M102.1,106.15c-1.85-2-2.52-4.49-3.08-7.12-1.44-6.79-3.16-13.52-4.71-20.29a4.61,4.61,0,0,0-1.54-2.34A242.68,242.68,0,0,1,71.46,53C63.19,42.75,55.08,32.35,46.72,22.15c-4.51-5.5-9.39-10.68-14.1-16-.94-1.06-1.88-1.76-3.26-.68-.43.34-.76.12-1.22-.23C26.51,4,24.79,2.79,23.07,1.65A8.79,8.79,0,0,0,13.94,1,28.15,28.15,0,0,0,1.06,13.08a6.87,6.87,0,0,0,.83,8.43c.78.91,1.51,1.86,2.26,2.79s1.27,1.78.38,3a1.31,1.31,0,0,0,.52,2C6.46,29.81,6.85,31,7.61,32c1,1.32,2.06,2.65,3.21,3.88,4.14,4.43,8.38,8.76,12.47,13.22Q34.08,60.86,44.75,72.71c3.91,4.32,7.63,8.83,11.67,13,4.36,4.55,9,8.86,13.51,13.26a8.5,8.5,0,0,0,1,.71,53.76,53.76,0,0,0,18.27,8.14,9.14,9.14,0,0,1,4.8,2.85,19.73,19.73,0,0,0,4.8,3.88c2.33,1.34,4.5.06,4.93-2.58a9.39,9.39,0,0,0,.07-1,7,7,0,0,0-1.65-4.83M42.57,25.46c.31-.08.63-.11.93-.2A3,3,0,0,1,47,26.55C55,36.76,63.08,47,71.36,57,76.19,62.89,81.42,68.4,86.55,74c1.19,1.29,2.25,2.47,1.88,4.14a3.7,3.7,0,0,1,.08.68c-.06.5,0,1.2-.27,1.46-.46.41-2.26-.47-2.26-1.13,0-1.16-.81-1.66-1.46-2.34a9.9,9.9,0,0,1-1.26-1.43c-4.17-6.48-9.65-11.9-14.42-17.89-4.18-5.24-8.58-10.32-12.73-15.58-3.19-4.05-7.17-7.26-10.85-10.81a45.76,45.76,0,0,1-3.42-3.68c-1.06-1.28-.94-1.5.75-1.94M7.3,22c-.52.6-.83.84-1.46.15-1.45-1.6-3.09-3.08-3-5.55a6.36,6.36,0,0,1,1.35-4,31.68,31.68,0,0,1,8.92-8.24c.27-.17.57-.29.86-.43C17.41,2.29,20.55,2.3,23.53,5c1.91,1.75,2,1.56-.35,2.69a31,31,0,0,0-9.07,6.58C11.74,16.77,9.53,19.4,7.3,22m13.47.43A20.07,20.07,0,0,0,14.4,32.66a4.08,4.08,0,0,1-.52.92c-.35-.26-.56-.39-.73-.55-1.58-1.47-3.13-3-4.76-4.39A1.62,1.62,0,0,1,8,26.32a41.16,41.16,0,0,1,3.55-5.38,85.15,85.15,0,0,1,6.89-7A28.22,28.22,0,0,1,28.61,8.29a2.55,2.55,0,0,1,3.18.8c1.07,1.29,2.29,2.45,3.41,3.71.8.9.73,1.17-.34,1.38a24.13,24.13,0,0,0-10.26,5c-1.32,1-2.57,2.16-3.82,3.28M27.9,48.83a4.49,4.49,0,0,1,2.31,2.77,4.65,4.65,0,0,1-2.31-2.77m2.47,2.93a3.29,3.29,0,0,1,1.72,2.16l-1.72-2.16m6.14,7.72A7,7,0,0,1,35.65,58c1.13,1,2.27,2,3.37,3.1,4.74,4.61,9.69,9,13.59,14.44a18.91,18.91,0,0,1,1.11,1.92,6.68,6.68,0,0,1-1.23-.87q-8-8.55-16-17.15m18.27,19,0,0v.09ZM71.9,91.38c-2.18-.75-2.76-.27-2.39,2a1.92,1.92,0,0,1,0,.46,4.91,4.91,0,0,1-2.56-2.91l-.16,0,.11,0c.75.24,1.42.25,1.85-.56a1.22,1.22,0,0,0-.45-1.68c-3.92-2.78-6.52-6.8-9.54-10.4A275.27,275.27,0,0,0,38.17,56.16C35.69,53.8,33.6,51,31.29,48.48,30,47,28.57,45.56,27.1,44.23c-.46-.41-1.6-.79-1.89-.55-1.41,1.18-1.31.27-1.25-.75a3.54,3.54,0,0,1,0-1c.29-.81.65-1.58,1-2.37a8.37,8.37,0,0,1,1.93,1.17c2.52,2.67,5.09,5.32,7.4,8.17A97.15,97.15,0,0,0,43.86,59a42.74,42.74,0,0,1,6.67,7.82,41.17,41.17,0,0,0,3.93,4.82Q59.21,76.91,64.07,82C65.5,83.55,67,85,68.57,86.36A12.68,12.68,0,0,0,71,87.89a1.25,1.25,0,0,0,1.82-.59,1.14,1.14,0,0,0-.49-1.64c-4.87-2.9-8-7.49-11.58-11.7A21.93,21.93,0,0,0,59,72a38.18,38.18,0,0,1-7.53-9.25A5.94,5.94,0,0,0,50,61.11C45.58,57.42,41.94,53,38.19,48.58A75.43,75.43,0,0,0,27.61,37.83c-.8-.62-.94-1.09-.26-1.92,1.2-1.47,1.23-1.53,2.47-.18s2.44,2.75,3.67,4.12Q49.9,58.16,66.32,76.46c2.24,2.5,4.57,4.92,6.87,7.37a3.42,3.42,0,0,0,1.05,1,2.09,2.09,0,0,0,1.5,0,1.08,1.08,0,0,0,.38-1.65,18.11,18.11,0,0,0-1.7-2c-4-4.35-8.08-8.65-12-13Q48.5,52.69,34.7,37.2c-1.17-1.31-2.31-2.66-3.51-3.94a1.17,1.17,0,0,1,.11-2c.25-.2.47-.43.71-.64.58-.51,1-.42,1.62.12a73.89,73.89,0,0,1,9.21,10.08c4.5,5.82,8.82,11.78,13.39,17.54a211.25,211.25,0,0,0,21,22.07c1.22,1.15,2,1.25,2.64.46s.38-1.22-.81-2.41c-4.78-4.83-9.62-9.6-14.35-14.49A154.94,154.94,0,0,1,48.34,43.31a62.1,62.1,0,0,0-8.23-10A34.32,34.32,0,0,1,37,29.76c-.26-.33-1.19-.57-.58-1.26a1.91,1.91,0,0,1,2.52-.44c5.63,5.88,11.78,11.21,16.78,17.75C61.9,53.92,68.75,61.55,75.3,69.42c1.12,1.35,2.16,2.78,3.21,4.18.81,1.09,1.4,2.44,2.42,3.26,1.87,1.51,1.86,3.66,2.43,5.63a1.37,1.37,0,0,1-.31,1c-.09.12-.63,0-.87-.15-.52-.35-.93-.85-1.45-1.21a1.2,1.2,0,0,0-2,1.06,21.24,21.24,0,0,0,.74,3c.28,1.15,0,1.51-1.18,1.25-.85-.19-1.65-.6-2.51-.79-1.31-.3-2,.45-1.68,1.74a5.73,5.73,0,0,1,.37,1.13c0,.78-.09,1.56-.15,2.34l-2-.38a3.42,3.42,0,0,1-.46-.15m23.28,10.94a13.78,13.78,0,0,0-3,2.28,2.17,2.17,0,0,1-2.33.74c-5.44-1.62-10.83-3.4-15.62-6.57a3,3,0,0,1-1.11-1.47A8.06,8.06,0,0,1,73,95.2c.6,0,1.21,0,1.81,0,1.89.21,2.24-.07,2.38-2,0-.08,0-.16,0-.24.11-.86-.07-2,.42-2.49s1.59-.1,2.43-.06c1.83.08,2.5-.61,2.47-2.54,0-.38.06-.75.12-1.42A13.05,13.05,0,0,0,84,87.75a1.39,1.39,0,0,0,2.32-1.18,24,24,0,0,0-.12-2.63c0-.86.32-1.19,1.17-.9.68.23,1.35.5,2,.68,1.45.38,2.17-.16,2.16-1.63a18.12,18.12,0,0,0-.2-1.88l.38-.14c.21.75.44,1.49.63,2.25q1.94,8,3.86,16.06a13.54,13.54,0,0,1,.26,1.41c.23,1.75.18,1.67-1.32,2.52" transform="translate(0 0)"/></g></g></g></svg>