<svg xmlns="http://www.w3.org/2000/svg" xmlns:xlink="http://www.w3.org/1999/xlink" viewBox="0 0 87.66 55.26"><defs><style>.cls-1{fill:none;}.cls-2{clip-path:url(#clip-path);}.cls-3{fill:#a4bcc1;}</style><clipPath id="clip-path" transform="translate(0)"><rect class="cls-1" width="87.66" height="55.26"/></clipPath></defs><title>edu9</title><g id="Слой_2" data-name="Слой 2"><g id="Слой_1-2" data-name="Слой 1"><g class="cls-2"><path class="cls-3" d="M85.66,16.24A15.16,15.16,0,0,0,82.86,13c-6.32-5.45-16.57-2-18.47,6.13a4.45,4.45,0,0,0,1.08,4.63,3.49,3.49,0,0,1,.8,1.18c1.59,4,8.88,4.54,11.93.8a4.53,4.53,0,0,0-1.46-7.11,3.71,3.71,0,0,0-4,.64,1.4,1.4,0,0,0-.26,1.94c.27.31,1,.32,1.49.32s.74-.32,1.12-.37a1.23,1.23,0,0,1,1.51,1.38,3.14,3.14,0,0,1-.8,1.66,4.61,4.61,0,0,1-7.37-1.13,3.55,3.55,0,0,0-.33-.63c-1.87-2.33-.84-4.6.82-6.48a8.76,8.76,0,0,1,13.12,0,14.81,14.81,0,0,1,2.47,4.32,6.34,6.34,0,0,1-.18,4.92,13.94,13.94,0,0,1-10.18,8.34c-6.29,1.31-11.85-.77-16.3-5.47a8.28,8.28,0,0,1-2.42-5.11,17.71,17.71,0,0,1,2.87-10.95,10.08,10.08,0,0,1,3.32-3A28.41,28.41,0,0,1,66.21,7c.59-.23,1.24-.31,1.85-.51a1.22,1.22,0,0,0,1-1.44A1.3,1.3,0,0,0,67.45,4a7.9,7.9,0,0,0-1.16.3c-7.62,2.25-12.37,7-13.77,15.1-.65-1.79-1.27-3.6-1.94-5.38C45.56.76,29.28-3.6,17.64,3.13c-1.47.85-1.81,1.54-1.28,2.39s1.06.8,2.49,0a21.11,21.11,0,0,1,9.57-2.8A19.94,19.94,0,0,1,48,15.12a36.88,36.88,0,0,1,2.69,16.43c-.46,5.93-2.74,11.2-7.46,14.79a29.41,29.41,0,0,1-25.66,5.31A19,19,0,0,1,2.92,37.56c-1.68-6-.4-11.24,4.33-15.47a28.33,28.33,0,0,1,9.64-5.73c4-1.36,8.06-2.06,12.26-1,6.37,1.67,10,7.09,8.87,13.37a16.87,16.87,0,0,1-2.51,6.44,12.91,12.91,0,0,1-13.38,6.06,8,8,0,0,1-6.9-6.15,9.94,9.94,0,0,1,2.18-8.77c2.52-3,8.37-3.12,11.09-.32a4,4,0,0,1,.69,1,2.2,2.2,0,0,1-.8,2.94c-1.1.89-1.62.86-2.8-.17-.12-.1-.22-.32-.33-.32a3.2,3.2,0,0,0-1.55.05,1.31,1.31,0,0,0-.39,1.23,4.29,4.29,0,0,0,1.35,1.86,5.08,5.08,0,0,0,7.06-2.39,5.51,5.51,0,0,0-2-6.62C24,19.48,16,21,13.07,28.21a11.64,11.64,0,0,0,11,16c8.72-.23,19-8.11,16.3-20.81C39.11,17.63,35.5,14,29.61,12.81a27.88,27.88,0,0,0-8.6-.15,14,14,0,0,0-3.75.62,33.07,33.07,0,0,0-13,8.81A16.11,16.11,0,0,0,0,33.5c.31,7.71,5,18,16.3,20.75,9.08,2.23,17.61.69,25.65-3.87a19.26,19.26,0,0,0,3.87-2.79,25.07,25.07,0,0,0,7.75-17.54c0-.66.1-1.31.17-2.23.92,1.15,1.56,2.07,2.32,2.87a18.68,18.68,0,0,0,9.61,5.08c7.87,1.91,14.38-.24,19.39-6.63,3.23-4.12,3.41-8.5.57-12.91" transform="translate(0)"/></g></g></g></svg>