<svg xmlns="http://www.w3.org/2000/svg" viewBox="0 0 141.02 68.96"><defs><style>.cls-1{fill:#a4bcc1;}</style></defs><title>plane</title><g id="Слой_2" data-name="Слой 2"><g id="Слой_1-2" data-name="Слой 1"><g id="Слой_2-2" data-name="Слой 2"><g id="Слой_1-2-2" data-name="Слой 1-2"><path class="cls-1" d="M25.19,56c.3-1.09.71-2.72,1.18-4.32,1.11-3.84,2.26-7.66,3.33-11.5A1.4,1.4,0,0,0,29.33,39a17,17,0,0,0-3.21-2.07,59.24,59.24,0,0,1-13-8.43,64.77,64.77,0,0,0-6.5-4,47.7,47.7,0,0,1-4.69-3.29,5.76,5.76,0,0,1-1.89-5c.07-1.46.66-1.87,2.24-1.64,1.89.28,3.78.66,5.69.78a87.62,87.62,0,0,0,18.15-1.18c11.7-1.71,23.38-3.52,35.1-5.05,7.84-1,15.74-1.56,23.6-2.46,9.76-1.12,19.5-2.4,29.25-3.63,5.86-.74,11.7-1.66,17.65-1.68a33.67,33.67,0,0,0,6.36-1c.78-.16,1.72-.74,2.18.07a7.52,7.52,0,0,1,.76,3.1,6,6,0,0,1-.65,1.76,1.3,1.3,0,0,1-1.44,1,1.92,1.92,0,0,0-1.87.79c-3.18,3.87-7.18,6.81-11.17,9.75-7.08,5.21-14,10.59-21.25,15.64S90.33,42.13,83.07,46.79c-10.57,6.78-21.15,13.53-31,21.32-.77.61-1.48,1.17-2.58.62a1.76,1.76,0,0,1-1.24-1.8c.15-2.93-.75-5.68-1.43-8.47-.59-2.4-1.11-4.82-1.69-7.23-.44-1.84-.67-2-2.2-1s-3.27,2.3-5,3.36a60.34,60.34,0,0,1-6.21,3.6,16.06,16.06,0,0,1-4.6,1.2c-1.35.19-1.93-.52-1.88-2.36M122,10c-7.15,2.52-14.32,5-21.46,7.58-7.89,2.83-15.7,5.91-23.66,8.54-8.72,2.88-17.57,5.36-26.36,8-5.12,1.55-10.23,3.16-15.37,4.64-1.57.45-2.75,1-3.11,2.83-.28,1.4-.85,2.74-1.24,4.12-.76,2.69-1.48,5.38-2.2,8.07a13.08,13.08,0,0,0-.2,1.41c.85-.49,1.45-.85,2.06-1.19,4.26-2.36,8.43-4.91,12.81-7,5.11-2.48,10.15-5,15-7.94A98.32,98.32,0,0,1,77.53,30c4.24-1.4,8.43-3,12.54-4.74,5.74-2.43,11.4-5,17.05-7.65,4.43-2,8.81-4.17,13.19-6.3A9.9,9.9,0,0,0,121.92,10h.39l-.34.06m5.49,1.09a8.7,8.7,0,0,0-1.57.42q-11.69,5.59-23.33,11.23A165.35,165.35,0,0,1,82,31.51a104.34,104.34,0,0,0-12.72,4.93C63,39.44,57,42.79,50.79,46c-3.69,1.93-3.71,2-2.85,6s1.8,8.11,2.72,12.16c.26,1.13.42,1.2,1.41.55.2-.13.38-.29.58-.43,7.06-4.82,14-9.8,21.22-14.42,12.45-8,24.89-16,36.55-25.14,3.77-3,7.69-5.74,11.46-8.71,1.94-1.52,3.7-3.26,5.54-4.91l0-.16v.21m-89.7,20.7A27.56,27.56,0,0,1,41,31.21a1.68,1.68,0,0,1,1.32.7A1.13,1.13,0,0,1,42,33.47l-.14.07a9.57,9.57,0,0,1-2,.68c-1.94.46-3.92.77-5.83,1.34-.94.28-2.24.12-2.66,1.44,1,.67,2,0,3-.22a284.79,284.79,0,0,0,30.1-8.67c21.54-7.66,43-15.54,64.47-23.35a6.31,6.31,0,0,0,1-.61,142.38,142.38,0,0,0-17.44,2A237.15,237.15,0,0,1,81.56,9.73c-2.63.15-5.26.36-7.88.68-5.23.64-10.45,1.38-15.68,2.06-8,1-16,2.14-24,3.07-10,1.17-20,2.65-30.1,2.12a1.25,1.25,0,0,0-.94.45c-.4.59.19.85.56,1.08,1.7,1,3.45,2,5.13,3.1a3.37,3.37,0,0,0,2.73.47c2.72-.63,5.45-1.22,8.17-1.84,2.33-.54,4.65-1.19,7-1.63,1.59-.3,2.22.07,2.34.94s-.4,1.3-1.91,1.67Q20.71,23.44,14.46,25a5.35,5.35,0,0,0-.82.36,4.23,4.23,0,0,0,.61.93c.57.52,1.06,1.1,2.06.88,3.35-.73,6.79-1,10-2.24,1.57-.59,3.2-1,4.81-1.48a4.09,4.09,0,0,1,1.61-.35A1.69,1.69,0,0,1,34,24a1.73,1.73,0,0,1-.54,1.4,3.83,3.83,0,0,1-1.52.65c-3.36,1-6.75,2-10.09,3.06-.75.24-1.82-.1-2.24,1a16.81,16.81,0,0,0,2.19,1.38,3,3,0,0,0,1.59.07c1.34-.2,2.67-.5,4-.73,3.7-.63,7.46-.93,11-2.2a6.39,6.39,0,0,1,2.35-.39c.45,0,1.2.47,1.25.8a2.29,2.29,0,0,1-.6,1.61c-.25.28-.9.16-1.34.32-.78.27-1.77.07-2.24,1h-.83s.1.1.13.09l.65-.15m-5.25.82c-1.62.23-3.24.45-4.85.7-.19,0-.35.27-.52.41.15.1.31.29.46.3a6.94,6.94,0,0,0,4.9-1.41"/></g></g></g></g></svg>