<svg xmlns="http://www.w3.org/2000/svg" xmlns:xlink="http://www.w3.org/1999/xlink" viewBox="0 0 170.21 161.69"><defs><style>.cls-1{fill:none;}.cls-2{clip-path:url(#clip-path);}.cls-3{fill:#a4bcc1;}</style><clipPath id="clip-path" transform="translate(0 -65.43)"><rect class="cls-1" x="0.06" width="288.52" height="227.13"/></clipPath></defs><title>stripe</title><g id="Слой_2" data-name="Слой 2"><g id="Слой_1-2" data-name="Слой 1"><g id="Слой_2-2" data-name="Слой 2"><g id="Слой_1-2-2" data-name="Слой 1-2"><g class="cls-2"><path class="cls-3" d="M8.06,201.39c.19-1.15.4-2.8.78-4.42a5.37,5.37,0,0,1,1.05-1.85,1.11,1.11,0,0,1,1.5-.46l.16.1c.56.4,1,1,.51,1.64-1.6,2.3-1.14,4.89-1.12,7.41v1.43a1.26,1.26,0,0,1-1.09,1.41H9.66a1.2,1.2,0,0,1-1.27-1.13v-.05c-.13-1.19-.22-2.38-.37-4.1" transform="translate(0 -65.43)"/><path class="cls-3" d="M14.23,178.79a15.2,15.2,0,0,1,1.69-6.53c.51-1,1.21-2,2.51-1.91a1.9,1.9,0,0,1,1.31.75,1.31,1.31,0,0,1-.21,1.27c-2.29,1.89-2.38,4.58-2.71,7.17-.21,1.65-.62,2.33-1.55,2.21s-1.14-.75-1.09-2.33v-.63" transform="translate(0 -65.43)"/><path class="cls-3" d="M114,128.14c-.27-.24-1-.59-1.18-1.12a1.14,1.14,0,0,1,1.1-1.52c2.79-.22,5.12-1.68,7.65-2.6a5.93,5.93,0,0,1,2.07-.43,1.36,1.36,0,0,1,1,.82c.1.36-.22.85-.36,1.28,0,.06-.12.11-.19.13l-9.21,3.3a5.74,5.74,0,0,1-.88.09" transform="translate(0 -65.43)"/><path class="cls-3" d="M168.91,65.43A1.27,1.27,0,0,1,170.17,67a17.75,17.75,0,0,1-5.11,8,1.75,1.75,0,0,1-1.06.46,1.66,1.66,0,0,1-1.2-.54c-.2-.32-.06-.89,0-1.33,0-.2.29-.37.47-.53a16.19,16.19,0,0,0,4.09-6.12c.33-.78.76-1.39,1.5-1.48" transform="translate(0 -65.43)"/><path class="cls-3" d="M156.19,92.85c-.29.64-.51,1.24-.82,1.77-1.24,2.12-2.52,4.21-3.76,6.32a1.3,1.3,0,0,1-1.68.74l-.09,0c-.73-.31-.75-1-.58-1.63a6.45,6.45,0,0,1,.67-1.77c1.2-2,2.46-3.89,3.7-5.82a1.24,1.24,0,0,1,1.62-.63c.37.17.6.64,1,1.05" transform="translate(0 -65.43)"/><path class="cls-3" d="M7.06,219.74c-.24.24-.57.88-1,.93-1.7.22-2.1,1.51-2.58,2.78-.3.82-.5,1.68-.81,2.49-.38,1-1,1.38-1.8,1.09-1-.37-1-1.12-.69-2,.68-1.69,1.28-3.41,2.09-5a3.37,3.37,0,0,1,3.35-1.86c.74,0,1.41.36,1.41,1.56" transform="translate(0 -65.43)"/><path class="cls-3" d="M143,110.29a7.54,7.54,0,0,1-.82,1.69q-2.65,2.72-5.39,5.34a1.3,1.3,0,0,1-1.84.09l-.09-.09c-.66-.64-.43-1.29.12-1.87s.92-.88,1.36-1.32c1.34-1.34,2.65-2.72,4-4a2.17,2.17,0,0,1,1.46-.47c.42,0,.82.41,1.16.6" transform="translate(0 -65.43)"/><path class="cls-3" d="M98.85,128.66c-2.1-.18-4.15-.37-6.2-.53-.89-.07-1.56-.35-1.59-1.37,0-.82.56-1.37,1.63-1.29,2.61.19,5.2.49,7.8.75a1.14,1.14,0,0,1,1.18,1.23,1.17,1.17,0,0,1-1.14,1.2H98.85" transform="translate(0 -65.43)"/><path class="cls-3" d="M68.43,121.61c2,.25,3.95.46,5.91.78a2.6,2.6,0,0,1,1.85,2.23c.07,1.1-1.07,1.94-1.86,1.26-1.6-1.37-3.51-1.28-5.37-1.54a3.35,3.35,0,0,1-.71-.05c-1.11-.17-1.6-.64-1.54-1.43s.69-1.24,1.73-1.25" transform="translate(0 -65.43)"/><path class="cls-3" d="M52.79,124.42c-.68-.12-1.32-.19-1.93-.34a2.43,2.43,0,0,0-2.65.44,1,1,0,0,1-1.66-.19,2,2,0,0,1-.15-1.51c.55-1.62,1.23-2,2.92-1.68s3.22.91,5,.56a1.14,1.14,0,0,1,1.35,1.07,1.18,1.18,0,0,1-.89,1.41l-.11,0a15.07,15.07,0,0,1-1.85.23" transform="translate(0 -65.43)"/><path class="cls-3" d="M26.68,148.55a1.32,1.32,0,0,1,1.49,1.58,11.87,11.87,0,0,1-1.11,2.37,7.58,7.58,0,0,0-1.39,4A1.33,1.33,0,0,1,24.53,158h-.24c-.8,0-1.25-.55-1.24-1.69a5.49,5.49,0,0,1,.36-2.08c.72-1.67,1.54-3.31,2.38-4.92.19-.37.67-.59.89-.77" transform="translate(0 -65.43)"/><path class="cls-3" d="M32.45,138.84c-1.19,0-1.72-.59-1.67-1.4.14-2.22,3.3-5.84,5.48-6.16a1.43,1.43,0,0,1,1.21.47,2.5,2.5,0,0,1,0,1.53c0,.24-.43.46-.71.59a6.64,6.64,0,0,0-3.37,3.87,3.62,3.62,0,0,1-1,1.1" transform="translate(0 -65.43)"/></g></g></g></g></g></svg>